<svg width="561" height="391" viewBox="0 0 561 391" fill="none" xmlns="http://www.w3.org/2000/svg">
<circle opacity="0.7" cx="195.5" cy="195.5" r="195.5" fill="#FF5C00"/>
<g filter="url(#filter0_d_21_11)">
<g filter="url(#filter1_bdii_21_11)">
<rect x="96.9976" y="70.8999" width="416.484" height="263.859" rx="10" fill="white" fill-opacity="0.1" shape-rendering="crispEdges"/>
</g>
<path d="M97.4077 121.775V332.399C97.4077 336.075 100.403 339.07 104.079 339.07H507.22C510.896 339.07 513.891 336.075 513.891 332.399V121.775H97.4077Z" fill="white"/>
<path opacity="0.5" d="M115.516 103.236C115.516 99.1637 118.784 95.9062 122.87 95.9062H488.428C492.514 95.9062 495.783 99.1637 495.783 103.236C495.783 107.308 492.514 110.565 488.428 110.565H122.87C118.784 110.565 115.516 107.308 115.516 103.236Z" fill="#E8EBFB"/>
<path d="M121.552 83.8341C121.552 85.7657 120.034 87.2833 118.102 87.2833C116.171 87.2833 114.653 85.7657 114.653 83.8341C114.653 81.9026 116.171 80.385 118.102 80.385C120.034 80.385 121.552 81.9026 121.552 83.8341Z" fill="#3D3D60"/>
<path d="M135.348 83.8341C135.348 85.7657 133.831 87.2833 131.899 87.2833C129.968 87.2833 128.45 85.7657 128.45 83.8341C128.45 81.9026 129.968 80.385 131.899 80.385C133.831 80.385 135.348 81.9026 135.348 83.8341Z" fill="#3D3D60"/>
<path d="M148.283 83.8341C148.283 85.7657 146.765 87.2833 144.833 87.2833C142.902 87.2833 141.384 85.7657 141.384 83.8341C141.384 81.9026 142.902 80.385 144.833 80.385C146.765 80.385 148.283 81.9026 148.283 83.8341Z" fill="#3D3D60"/>
<path d="M283.388 105.763H125.88C124.656 105.763 123.84 104.81 123.84 103.72C123.84 102.495 124.792 101.678 125.88 101.678H283.388C284.612 101.678 285.428 102.631 285.428 103.72C285.428 104.81 284.476 105.763 283.388 105.763Z" fill="#3D3D60"/>
<path d="M361.87 105.763H298.214C296.989 105.763 296.173 104.81 296.173 103.72C296.173 102.495 297.125 101.678 298.214 101.678H361.87C363.094 101.678 363.91 102.631 363.91 103.72C363.91 104.81 362.958 105.763 361.87 105.763Z" fill="#3D3D60"/>
</g>
<g filter="url(#filter2_d_21_11)">
<path d="M385.673 305.073C384.449 305.073 383.497 304.12 383.497 302.895V150.689C383.497 149.464 384.449 148.511 385.673 148.511H490.542C491.766 148.511 492.718 149.464 492.718 150.689V302.895C492.718 304.12 491.766 305.073 490.542 305.073H385.673Z" fill="#E8EBFB"/>
<path d="M475.444 247.894H400.771C399.274 247.894 397.914 246.669 397.914 245.035C397.914 243.538 399.138 242.176 400.771 242.176H475.444C476.94 242.176 478.3 243.401 478.3 245.035C478.3 246.533 476.94 247.894 475.444 247.894Z" fill="#3D3D60"/>
<path d="M433.279 290.779H400.771C399.274 290.779 397.914 289.553 397.914 287.92C397.914 286.422 399.138 285.061 400.771 285.061H433.279C434.775 285.061 436.135 286.286 436.135 287.92C436.135 289.553 434.911 290.779 433.279 290.779Z" fill="#3D3D60"/>
<path d="M475.444 262.189H400.771C399.274 262.189 397.914 260.964 397.914 259.33C397.914 257.832 399.138 256.471 400.771 256.471H475.444C476.94 256.471 478.3 257.696 478.3 259.33C478.3 260.964 476.94 262.189 475.444 262.189Z" fill="#3D3D60"/>
<path d="M475.444 276.484H400.771C399.274 276.484 397.914 275.258 397.914 273.625C397.914 272.127 399.138 270.766 400.771 270.766H475.444C476.94 270.766 478.3 271.991 478.3 273.625C478.3 275.258 476.94 276.484 475.444 276.484Z" fill="#3D3D60"/>
<path d="M390.977 157.632C392.405 157.632 393.562 156.474 393.562 155.046C393.562 153.617 392.405 152.459 390.977 152.459C389.55 152.459 388.393 153.617 388.393 155.046C388.393 156.474 389.55 157.632 390.977 157.632Z" fill="#3D3D60"/>
<path d="M401.587 157.632C403.014 157.632 404.171 156.474 404.171 155.046C404.171 153.617 403.014 152.459 401.587 152.459C400.159 152.459 399.002 153.617 399.002 155.046C399.002 156.474 400.159 157.632 401.587 157.632Z" fill="#3D3D60"/>
<path d="M414.78 155.046C414.78 156.543 413.556 157.632 412.196 157.632C410.7 157.632 409.612 156.407 409.612 155.046C409.612 153.548 410.836 152.459 412.196 152.459C413.556 152.459 414.78 153.548 414.78 155.046Z" fill="#3D3D60"/>
<path d="M487.686 161.989H388.393V230.604H487.686V161.989Z" fill="white"/>
<path d="M454.089 216.99L452.457 215.22L409.612 170.293L388.393 192.621L388.529 230.604H487.822V212.225L473.132 196.841L454.089 216.99Z" fill="#3D3D60"/>
<path d="M453.545 196.296C459.33 196.296 464.019 191.603 464.019 185.814C464.019 180.024 459.33 175.331 453.545 175.331C447.761 175.331 443.072 180.024 443.072 185.814C443.072 191.603 447.761 196.296 453.545 196.296Z" fill="#FF5C00"/>
</g>
<g filter="url(#filter3_d_21_11)">
<path d="M79.6343 303.031V230.74L231.701 230.604L231.837 302.895L231.701 303.031H79.6343Z" fill="white"/>
<path d="M79.6343 150.689V230.604H231.701V150.553L79.6343 150.689Z" fill="#F4F4F9"/>
<path d="M177.703 188.809C177.703 186.903 176.07 185.269 174.166 185.269H161.653C163.557 182.41 164.509 179.006 164.509 175.467V173.697C164.509 171.11 162.469 169.068 159.884 169.068C158.66 169.068 157.708 170.021 157.708 171.246V175.194L147.643 188.4C147.507 188.672 147.371 188.945 147.371 189.217V209.911C147.371 210.727 147.915 211.272 148.731 211.272H171.99C173.622 211.272 174.982 209.911 174.982 208.277C174.982 206.643 173.622 205.282 171.99 205.282H173.078C174.846 205.282 176.342 203.784 176.342 202.014C176.342 200.245 174.846 198.747 173.078 198.747H173.622C175.526 198.747 177.023 197.249 177.023 195.343C177.023 193.437 175.526 191.94 173.622 191.94H174.166C176.07 192.212 177.703 190.715 177.703 188.809Z" fill="#FF5C00"/>
<path d="M143.426 214.948H135.537C134.585 214.948 133.769 214.131 133.769 213.178V189.489C133.769 188.536 134.585 187.719 135.537 187.719H143.426C144.378 187.719 145.194 188.536 145.194 189.489V213.178C145.194 214.131 144.378 214.948 143.426 214.948Z" fill="#FF5C00"/>
<path d="M120.575 248.983C120.575 251.57 118.399 253.748 115.815 253.748C113.23 253.748 111.054 251.57 111.054 248.983C111.054 246.396 113.23 244.218 115.815 244.218C118.535 244.082 120.575 246.26 120.575 248.983Z" fill="#FF5C00"/>
<path d="M197.697 251.57H129.825C128.328 251.57 127.24 250.345 127.24 248.983C127.24 247.486 128.464 246.396 129.825 246.396H197.697C199.193 246.396 200.281 247.622 200.281 248.983C200.281 250.345 199.057 251.57 197.697 251.57Z" fill="#3D3D60"/>
<path d="M120.575 266.818C120.575 269.404 118.399 271.583 115.815 271.583C113.23 271.583 111.054 269.404 111.054 266.818C111.054 264.231 113.23 262.053 115.815 262.053C118.535 262.053 120.575 264.231 120.575 266.818Z" fill="#FF5C00"/>
<path d="M197.697 269.404H129.825C128.328 269.404 127.24 268.179 127.24 266.818C127.24 265.32 128.464 264.231 129.825 264.231H197.697C199.193 264.231 200.281 265.456 200.281 266.818C200.281 268.315 199.057 269.404 197.697 269.404Z" fill="#3D3D60"/>
<path d="M120.575 284.652C120.575 287.239 118.399 289.417 115.815 289.417C113.23 289.417 111.054 287.239 111.054 284.652C111.054 282.065 113.23 279.887 115.815 279.887C118.535 279.887 120.575 282.065 120.575 284.652Z" fill="#FF5C00"/>
<path d="M197.697 287.375H129.825C128.328 287.375 127.24 286.15 127.24 284.788C127.24 283.291 128.464 282.202 129.825 282.202H197.697C199.193 282.202 200.281 283.427 200.281 284.788C200.281 286.15 199.057 287.375 197.697 287.375Z" fill="#3D3D60"/>
</g>
<g filter="url(#filter4_d_21_11)">
<path d="M361.054 305.754H256.184C254.552 305.754 253.328 304.393 253.328 302.895V150.689C253.328 149.055 254.688 147.83 256.184 147.83H361.054C362.686 147.83 363.91 149.192 363.91 150.689V302.895C363.91 304.529 362.686 305.754 361.054 305.754Z" fill="white"/>
<path d="M358.197 161.989H258.905V230.604H358.197V161.989Z" fill="#E8EBFB"/>
<path d="M308.959 217.943C296.446 217.943 286.38 207.732 286.38 195.343C286.38 182.818 296.582 172.744 308.959 172.744C321.473 172.744 331.538 182.955 331.538 195.343C331.674 207.732 321.473 217.943 308.959 217.943Z" fill="#FF5C00"/>
<path d="M345.956 247.894H271.282C269.786 247.894 268.426 246.669 268.426 245.035C268.426 243.538 269.65 242.176 271.282 242.176H345.956C347.452 242.176 348.812 243.401 348.812 245.035C348.812 246.533 347.452 247.894 345.956 247.894Z" fill="#3D3D60"/>
<path d="M303.79 290.779H271.282C269.786 290.779 268.426 289.553 268.426 287.92C268.426 286.422 269.65 285.061 271.282 285.061H303.79C305.287 285.061 306.647 286.286 306.647 287.92C306.647 289.553 305.423 290.779 303.79 290.779Z" fill="#3D3D60"/>
<path d="M345.956 262.189H271.282C269.786 262.189 268.426 260.964 268.426 259.33C268.426 257.832 269.65 256.471 271.282 256.471H345.956C347.452 256.471 348.812 257.696 348.812 259.33C348.812 260.964 347.452 262.189 345.956 262.189Z" fill="#3D3D60"/>
<path d="M345.956 276.484H271.282C269.786 276.484 268.426 275.258 268.426 273.625C268.426 272.127 269.65 270.766 271.282 270.766H345.956C347.452 270.766 348.812 271.991 348.812 273.625C348.812 275.258 347.452 276.484 345.956 276.484Z" fill="#3D3D60"/>
<path d="M261.489 157.632C262.916 157.632 264.073 156.474 264.073 155.046C264.073 153.617 262.916 152.459 261.489 152.459C260.062 152.459 258.905 153.617 258.905 155.046C258.905 156.474 260.062 157.632 261.489 157.632Z" fill="#3D3D60"/>
<path d="M272.098 157.632C273.526 157.632 274.683 156.474 274.683 155.046C274.683 153.617 273.526 152.459 272.098 152.459C270.671 152.459 269.514 153.617 269.514 155.046C269.514 156.474 270.671 157.632 272.098 157.632Z" fill="#3D3D60"/>
<path d="M282.708 157.632C284.135 157.632 285.292 156.474 285.292 155.046C285.292 153.617 284.135 152.459 282.708 152.459C281.281 152.459 280.124 153.617 280.124 155.046C280.124 156.474 281.281 157.632 282.708 157.632Z" fill="#3D3D60"/>
</g>
<g filter="url(#filter5_bii_21_11)">
<rect x="471.229" y="104.529" width="88.8153" height="106.923" rx="10" fill="white" fill-opacity="0.5"/>
</g>
<path d="M555.15 104.673H476.396C473.54 104.673 471.228 106.987 471.228 109.846V115.837H560.455V109.846C560.319 106.987 558.006 104.673 555.15 104.673Z" fill="#3D3D60"/>
<path d="M481.565 110.119C481.565 111.072 480.749 111.889 479.797 111.889C478.844 111.889 478.028 111.072 478.028 110.119C478.028 109.166 478.844 108.349 479.797 108.349C480.749 108.349 481.565 109.03 481.565 110.119Z" fill="white"/>
<path d="M489.318 110.119C489.318 111.072 488.502 111.889 487.55 111.889C486.598 111.889 485.781 111.072 485.781 110.119C485.781 109.166 486.598 108.349 487.55 108.349C488.502 108.349 489.318 109.03 489.318 110.119Z" fill="white"/>
<path d="M497.071 110.119C497.071 111.072 496.255 111.889 495.302 111.889C494.35 111.889 493.534 111.072 493.534 110.119C493.534 109.166 494.35 108.349 495.302 108.349C496.255 108.349 497.071 109.03 497.071 110.119Z" fill="white"/>
<path d="M494.35 136.122C494.35 139.934 491.358 142.929 487.55 142.929C483.741 142.929 480.749 139.934 480.749 136.122C480.749 132.31 483.741 129.315 487.55 129.315C491.358 129.315 494.35 132.31 494.35 136.122Z" fill="#FF5C00"/>
<path d="M546.853 134.216H501.831C501.015 134.216 500.335 133.535 500.335 132.718V132.446C500.335 131.629 501.015 130.948 501.831 130.948H546.853C547.669 130.948 548.349 131.629 548.349 132.446V132.718C548.349 133.535 547.669 134.216 546.853 134.216Z" fill="#3D3D60"/>
<path d="M525.634 142.112H501.831C501.015 142.112 500.335 141.431 500.335 140.614V140.342C500.335 139.525 501.015 138.845 501.831 138.845H525.634C526.45 138.845 527.131 139.525 527.131 140.342V140.614C527.131 141.431 526.45 142.112 525.634 142.112Z" fill="#3D3D60"/>
<path d="M536.38 142.112H531.891C531.075 142.112 530.259 141.431 530.259 140.478C530.259 139.661 530.939 138.845 531.891 138.845H536.38C537.196 138.845 538.012 139.525 538.012 140.478C538.012 141.431 537.332 142.112 536.38 142.112Z" fill="#3D3D60"/>
<path d="M494.35 160.083C494.35 163.895 491.358 166.89 487.55 166.89C483.741 166.89 480.749 163.895 480.749 160.083C480.749 156.271 483.741 153.276 487.55 153.276C491.358 153.276 494.35 156.271 494.35 160.083Z" fill="#FF5C00"/>
<path d="M546.853 158.177H501.831C501.015 158.177 500.335 157.496 500.335 156.679V156.407C500.335 155.59 501.015 154.909 501.831 154.909H546.853C547.669 154.909 548.349 155.59 548.349 156.407V156.679C548.349 157.496 547.669 158.177 546.853 158.177Z" fill="#3D3D60"/>
<path d="M525.634 166.073H501.831C501.015 166.073 500.335 165.392 500.335 164.575V164.303C500.335 163.486 501.015 162.805 501.831 162.805H525.634C526.45 162.805 527.131 163.486 527.131 164.303V164.575C527.131 165.392 526.45 166.073 525.634 166.073Z" fill="#3D3D60"/>
<path d="M536.38 166.073H531.891C531.075 166.073 530.259 165.392 530.259 164.439C530.259 163.622 530.939 162.805 531.891 162.805H536.38C537.196 162.805 538.012 163.486 538.012 164.439C538.012 165.392 537.332 166.073 536.38 166.073Z" fill="#3D3D60"/>
<path d="M494.35 184.044C494.35 187.855 491.358 190.851 487.55 190.851C483.741 190.851 480.749 187.855 480.749 184.044C480.749 180.232 483.741 177.236 487.55 177.236C491.358 177.236 494.35 180.232 494.35 184.044Z" fill="#FF5C00"/>
<path d="M546.853 182.138H501.831C501.015 182.138 500.335 181.457 500.335 180.64V180.368C500.335 179.551 501.015 178.87 501.831 178.87H546.853C547.669 178.87 548.349 179.551 548.349 180.368V180.64C548.349 181.457 547.669 182.138 546.853 182.138Z" fill="#3D3D60"/>
<path d="M525.634 190.034H501.831C501.015 190.034 500.335 189.353 500.335 188.536V188.264C500.335 187.447 501.015 186.766 501.831 186.766H525.634C526.45 186.766 527.131 187.447 527.131 188.264V188.536C527.131 189.353 526.45 190.034 525.634 190.034Z" fill="#3D3D60"/>
<path d="M536.38 190.034H531.891C531.075 190.034 530.259 189.353 530.259 188.4C530.259 187.583 530.939 186.766 531.891 186.766H536.38C537.196 186.766 538.012 187.447 538.012 188.4C538.012 189.353 537.332 190.034 536.38 190.034Z" fill="#3D3D60"/>
<path d="M477.546 357.947H398.792C395.936 357.947 393.624 355.633 393.624 352.774V331.4H482.851V352.774C482.851 355.633 480.403 357.947 477.546 357.947Z" fill="white"/>
<path d="M477.546 320.1H398.792C395.936 320.1 393.624 322.415 393.624 325.273V331.264H482.851V325.273C482.851 322.551 480.403 320.1 477.546 320.1Z" fill="#3D3D60"/>
<path d="M403.961 325.546C403.961 326.499 403.145 327.316 402.193 327.316C401.241 327.316 400.425 326.499 400.425 325.546C400.425 324.593 401.241 323.776 402.193 323.776C403.145 323.776 403.961 324.593 403.961 325.546Z" fill="white"/>
<path d="M411.714 325.546C411.714 326.499 410.898 327.316 409.946 327.316C408.994 327.316 408.177 326.499 408.177 325.546C408.177 324.593 408.994 323.776 409.946 323.776C410.898 323.776 411.714 324.593 411.714 325.546Z" fill="white"/>
<path d="M419.467 325.546C419.467 326.499 418.651 327.316 417.699 327.316C416.747 327.316 415.931 326.499 415.931 325.546C415.931 324.593 416.747 323.776 417.699 323.776C418.651 323.776 419.467 324.593 419.467 325.546Z" fill="white"/>
<path d="M416.747 344.606C416.747 348.418 413.754 351.413 409.946 351.413C406.137 351.413 403.145 348.418 403.145 344.606C403.145 340.794 406.137 337.799 409.946 337.799C413.754 337.662 416.747 340.794 416.747 344.606Z" fill="#FF5C00"/>
<path d="M469.249 342.7H424.228C423.412 342.7 422.731 342.019 422.731 341.202V340.93C422.731 340.113 423.412 339.432 424.228 339.432H469.249C470.065 339.432 470.745 340.113 470.745 340.93V341.202C470.745 342.019 470.065 342.7 469.249 342.7Z" fill="#3D3D60"/>
<path d="M448.031 350.596H424.228C423.412 350.596 422.731 349.915 422.731 349.098V348.826C422.731 348.009 423.412 347.328 424.228 347.328H448.031C448.847 347.328 449.527 348.009 449.527 348.826V349.098C449.527 349.915 448.847 350.596 448.031 350.596Z" fill="#3D3D60"/>
<path d="M458.776 350.596H454.287C453.471 350.596 452.655 349.915 452.655 348.962C452.655 348.145 453.335 347.328 454.287 347.328H458.776C459.592 347.328 460.408 348.009 460.408 348.962C460.408 349.779 459.728 350.596 458.776 350.596Z" fill="#3D3D60"/>
<g filter="url(#filter6_d_21_11)">
<path d="M83.5788 136.666C71.0653 136.666 61 126.456 61 114.067C61 101.542 71.2013 91.4675 83.5788 91.4675C96.0924 91.4675 106.158 101.678 106.158 114.067C106.294 126.456 96.0924 136.666 83.5788 136.666Z" fill="#FF5C00"/>
<path d="M91.6037 105.899C91.6037 110.391 87.9313 113.931 83.5787 113.931C79.0902 113.931 75.5537 110.255 75.5537 105.899C75.5537 101.406 79.2262 97.8662 83.5787 97.8662C88.0673 97.8662 91.6037 101.542 91.6037 105.899Z" fill="white"/>
<path d="M83.5787 135.305C89.6995 135.305 95.1402 132.718 99.0847 128.498C96.7724 122.099 90.7876 117.471 83.5787 117.471C76.3698 117.471 70.385 122.099 68.0728 128.498C72.0172 132.718 77.4579 135.305 83.5787 135.305Z" fill="white"/>
</g>
<defs>
<filter id="filter0_d_21_11" x="81.9976" y="59.8999" width="446.894" height="298.171" filterUnits="userSpaceOnUse" color-interpolation-filters="sRGB">
<feFlood flood-opacity="0" result="BackgroundImageFix"/>
<feColorMatrix in="SourceAlpha" type="matrix" values="0 0 0 0 0 0 0 0 0 0 0 0 0 0 0 0 0 0 127 0" result="hardAlpha"/>
<feOffset dy="4"/>
<feGaussianBlur stdDeviation="7.5"/>
<feComposite in2="hardAlpha" operator="out"/>
<feColorMatrix type="matrix" values="0 0 0 0 0 0 0 0 0 0 0 0 0 0 0 0 0 0 0.06 0"/>
<feBlend mode="normal" in2="BackgroundImageFix" result="effect1_dropShadow_21_11"/>
<feBlend mode="normal" in="SourceGraphic" in2="effect1_dropShadow_21_11" result="shape"/>
</filter>
<filter id="filter1_bdii_21_11" x="46.9976" y="20.8999" width="516.484" height="363.859" filterUnits="userSpaceOnUse" color-interpolation-filters="sRGB">
<feFlood flood-opacity="0" result="BackgroundImageFix"/>
<feGaussianBlur in="BackgroundImageFix" stdDeviation="25"/>
<feComposite in2="SourceAlpha" operator="in" result="effect1_backgroundBlur_21_11"/>
<feColorMatrix in="SourceAlpha" type="matrix" values="0 0 0 0 0 0 0 0 0 0 0 0 0 0 0 0 0 0 127 0" result="hardAlpha"/>
<feOffset dy="4"/>
<feGaussianBlur stdDeviation="7.5"/>
<feComposite in2="hardAlpha" operator="out"/>
<feColorMatrix type="matrix" values="0 0 0 0 0 0 0 0 0 0 0 0 0 0 0 0 0 0 0.05 0"/>
<feBlend mode="normal" in2="effect1_backgroundBlur_21_11" result="effect2_dropShadow_21_11"/>
<feBlend mode="normal" in="SourceGraphic" in2="effect2_dropShadow_21_11" result="shape"/>
<feColorMatrix in="SourceAlpha" type="matrix" values="0 0 0 0 0 0 0 0 0 0 0 0 0 0 0 0 0 0 127 0" result="hardAlpha"/>
<feOffset dx="4" dy="4"/>
<feGaussianBlur stdDeviation="2"/>
<feComposite in2="hardAlpha" operator="arithmetic" k2="-1" k3="1"/>
<feColorMatrix type="matrix" values="0 0 0 0 1 0 0 0 0 1 0 0 0 0 1 0 0 0 0.2 0"/>
<feBlend mode="normal" in2="shape" result="effect3_innerShadow_21_11"/>
<feColorMatrix in="SourceAlpha" type="matrix" values="0 0 0 0 0 0 0 0 0 0 0 0 0 0 0 0 0 0 127 0" result="hardAlpha"/>
<feOffset dx="-4" dy="-4"/>
<feGaussianBlur stdDeviation="7.5"/>
<feComposite in2="hardAlpha" operator="arithmetic" k2="-1" k3="1"/>
<feColorMatrix type="matrix" values="0 0 0 0 1 0 0 0 0 1 0 0 0 0 1 0 0 0 0.25 0"/>
<feBlend mode="normal" in2="effect3_innerShadow_21_11" result="effect4_innerShadow_21_11"/>
</filter>
<filter id="filter2_d_21_11" x="368.497" y="137.511" width="139.222" height="186.563" filterUnits="userSpaceOnUse" color-interpolation-filters="sRGB">
<feFlood flood-opacity="0" result="BackgroundImageFix"/>
<feColorMatrix in="SourceAlpha" type="matrix" values="0 0 0 0 0 0 0 0 0 0 0 0 0 0 0 0 0 0 127 0" result="hardAlpha"/>
<feOffset dy="4"/>
<feGaussianBlur stdDeviation="7.5"/>
<feComposite in2="hardAlpha" operator="out"/>
<feColorMatrix type="matrix" values="0 0 0 0 0 0 0 0 0 0 0 0 0 0 0 0 0 0 0.06 0"/>
<feBlend mode="normal" in2="BackgroundImageFix" result="effect1_dropShadow_21_11"/>
<feBlend mode="normal" in="SourceGraphic" in2="effect1_dropShadow_21_11" result="shape"/>
</filter>
<filter id="filter3_d_21_11" x="64.6343" y="139.553" width="182.203" height="182.478" filterUnits="userSpaceOnUse" color-interpolation-filters="sRGB">
<feFlood flood-opacity="0" result="BackgroundImageFix"/>
<feColorMatrix in="SourceAlpha" type="matrix" values="0 0 0 0 0 0 0 0 0 0 0 0 0 0 0 0 0 0 127 0" result="hardAlpha"/>
<feOffset dy="4"/>
<feGaussianBlur stdDeviation="7.5"/>
<feComposite in2="hardAlpha" operator="out"/>
<feColorMatrix type="matrix" values="0 0 0 0 0 0 0 0 0 0 0 0 0 0 0 0 0 0 0.06 0"/>
<feBlend mode="normal" in2="BackgroundImageFix" result="effect1_dropShadow_21_11"/>
<feBlend mode="normal" in="SourceGraphic" in2="effect1_dropShadow_21_11" result="shape"/>
</filter>
<filter id="filter4_d_21_11" x="238.328" y="136.83" width="140.582" height="187.924" filterUnits="userSpaceOnUse" color-interpolation-filters="sRGB">
<feFlood flood-opacity="0" result="BackgroundImageFix"/>
<feColorMatrix in="SourceAlpha" type="matrix" values="0 0 0 0 0 0 0 0 0 0 0 0 0 0 0 0 0 0 127 0" result="hardAlpha"/>
<feOffset dy="4"/>
<feGaussianBlur stdDeviation="7.5"/>
<feComposite in2="hardAlpha" operator="out"/>
<feColorMatrix type="matrix" values="0 0 0 0 0 0 0 0 0 0 0 0 0 0 0 0 0 0 0.06 0"/>
<feBlend mode="normal" in2="BackgroundImageFix" result="effect1_dropShadow_21_11"/>
<feBlend mode="normal" in="SourceGraphic" in2="effect1_dropShadow_21_11" result="shape"/>
</filter>
<filter id="filter5_bii_21_11" x="421.229" y="54.5289" width="188.815" height="206.923" filterUnits="userSpaceOnUse" color-interpolation-filters="sRGB">
<feFlood flood-opacity="0" result="BackgroundImageFix"/>
<feGaussianBlur in="BackgroundImageFix" stdDeviation="25"/>
<feComposite in2="SourceAlpha" operator="in" result="effect1_backgroundBlur_21_11"/>
<feBlend mode="normal" in="SourceGraphic" in2="effect1_backgroundBlur_21_11" result="shape"/>
<feColorMatrix in="SourceAlpha" type="matrix" values="0 0 0 0 0 0 0 0 0 0 0 0 0 0 0 0 0 0 127 0" result="hardAlpha"/>
<feOffset dx="4" dy="4"/>
<feGaussianBlur stdDeviation="2"/>
<feComposite in2="hardAlpha" operator="arithmetic" k2="-1" k3="1"/>
<feColorMatrix type="matrix" values="0 0 0 0 1 0 0 0 0 1 0 0 0 0 1 0 0 0 0.2 0"/>
<feBlend mode="normal" in2="shape" result="effect2_innerShadow_21_11"/>
<feColorMatrix in="SourceAlpha" type="matrix" values="0 0 0 0 0 0 0 0 0 0 0 0 0 0 0 0 0 0 127 0" result="hardAlpha"/>
<feOffset dx="-4" dy="-4"/>
<feGaussianBlur stdDeviation="7.5"/>
<feComposite in2="hardAlpha" operator="arithmetic" k2="-1" k3="1"/>
<feColorMatrix type="matrix" values="0 0 0 0 1 0 0 0 0 1 0 0 0 0 1 0 0 0 0.25 0"/>
<feBlend mode="normal" in2="effect2_innerShadow_21_11" result="effect3_innerShadow_21_11"/>
</filter>
<filter id="filter6_d_21_11" x="46" y="80.4675" width="75.1592" height="75.199" filterUnits="userSpaceOnUse" color-interpolation-filters="sRGB">
<feFlood flood-opacity="0" result="BackgroundImageFix"/>
<feColorMatrix in="SourceAlpha" type="matrix" values="0 0 0 0 0 0 0 0 0 0 0 0 0 0 0 0 0 0 127 0" result="hardAlpha"/>
<feOffset dy="4"/>
<feGaussianBlur stdDeviation="7.5"/>
<feComposite in2="hardAlpha" operator="out"/>
<feColorMatrix type="matrix" values="0 0 0 0 0 0 0 0 0 0 0 0 0 0 0 0 0 0 0.06 0"/>
<feBlend mode="normal" in2="BackgroundImageFix" result="effect1_dropShadow_21_11"/>
<feBlend mode="normal" in="SourceGraphic" in2="effect1_dropShadow_21_11" result="shape"/>
</filter>
</defs>
</svg>
