<svg width="604" height="391" viewBox="0 0 604 391" fill="none" xmlns="http://www.w3.org/2000/svg">
<circle opacity="0.7" cx="408.5" cy="195.5" r="195.5" fill="#FF5C00"/>
<g filter="url(#filter0_d_29_765)">
<g filter="url(#filter1_bdii_29_765)">
<rect x="50.9978" y="82.8999" width="416.484" height="263.859" rx="10" fill="white" fill-opacity="0.1" shape-rendering="crispEdges"/>
</g>
<path d="M51.4078 133.775V344.399C51.4078 348.075 54.4031 351.07 58.0792 351.07H461.22C464.896 351.07 467.891 348.075 467.891 344.399V133.775H51.4078Z" fill="white"/>
<path opacity="0.5" d="M69.5159 115.236C69.5159 111.164 72.7846 107.906 76.8706 107.906H442.429C446.515 107.906 449.783 111.164 449.783 115.236C449.783 119.307 446.515 122.565 442.429 122.565H76.8706C72.7846 122.565 69.5159 119.307 69.5159 115.236Z" fill="#E8EBFB"/>
<path d="M75.5518 95.8342C75.5518 97.7657 74.0342 99.2833 72.1027 99.2833C70.1712 99.2833 68.6536 97.7657 68.6536 95.8342C68.6536 93.9027 70.1712 92.385 72.1027 92.385C74.0342 92.385 75.5518 93.9027 75.5518 95.8342Z" fill="#3D3D60"/>
<path d="M89.3485 95.8342C89.3485 97.7657 87.8309 99.2833 85.8993 99.2833C83.9678 99.2833 82.4502 97.7657 82.4502 95.8342C82.4502 93.9027 83.9678 92.385 85.8993 92.385C87.8309 92.385 89.3485 93.9027 89.3485 95.8342Z" fill="#3D3D60"/>
<path d="M102.283 95.8342C102.283 97.7657 100.765 99.2833 98.8335 99.2833C96.902 99.2833 95.3844 97.7657 95.3844 95.8342C95.3844 93.9027 96.902 92.385 98.8335 92.385C100.765 92.385 102.283 93.9027 102.283 95.8342Z" fill="#3D3D60"/>
<path d="M237.388 117.763H79.8802C78.6561 117.763 77.84 116.81 77.84 115.72C77.84 114.495 78.7921 113.678 79.8802 113.678H237.388C238.612 113.678 239.428 114.631 239.428 115.72C239.428 116.81 238.476 117.763 237.388 117.763Z" fill="#3D3D60"/>
<path d="M315.87 117.763H252.214C250.99 117.763 250.174 116.81 250.174 115.72C250.174 114.495 251.126 113.678 252.214 113.678H315.87C317.094 113.678 317.91 114.631 317.91 115.72C317.91 116.81 316.958 117.763 315.87 117.763Z" fill="#3D3D60"/>
</g>
<g filter="url(#filter2_d_29_765)">
<path d="M339.673 317.073C338.449 317.073 337.497 316.12 337.497 314.895V162.689C337.497 161.464 338.449 160.511 339.673 160.511H444.542C445.766 160.511 446.718 161.464 446.718 162.689V314.895C446.718 316.12 445.766 317.073 444.542 317.073H339.673Z" fill="#E8EBFB"/>
<path d="M429.444 259.894H354.771C353.274 259.894 351.914 258.669 351.914 257.035C351.914 255.538 353.138 254.176 354.771 254.176H429.444C430.94 254.176 432.3 255.401 432.3 257.035C432.3 258.533 430.94 259.894 429.444 259.894Z" fill="#3D3D60"/>
<path d="M387.279 302.779H354.771C353.274 302.779 351.914 301.553 351.914 299.92C351.914 298.422 353.138 297.061 354.771 297.061H387.279C388.775 297.061 390.135 298.286 390.135 299.92C390.135 301.553 388.911 302.779 387.279 302.779Z" fill="#3D3D60"/>
<path d="M429.444 274.189H354.771C353.274 274.189 351.914 272.964 351.914 271.33C351.914 269.832 353.138 268.471 354.771 268.471H429.444C430.94 268.471 432.3 269.696 432.3 271.33C432.3 272.964 430.94 274.189 429.444 274.189Z" fill="#3D3D60"/>
<path d="M429.444 288.484H354.771C353.274 288.484 351.914 287.258 351.914 285.625C351.914 284.127 353.138 282.766 354.771 282.766H429.444C430.94 282.766 432.3 283.991 432.3 285.625C432.3 287.258 430.94 288.484 429.444 288.484Z" fill="#3D3D60"/>
<path d="M344.977 169.632C346.405 169.632 347.562 168.474 347.562 167.046C347.562 165.617 346.405 164.459 344.977 164.459C343.55 164.459 342.393 165.617 342.393 167.046C342.393 168.474 343.55 169.632 344.977 169.632Z" fill="#3D3D60"/>
<path d="M355.587 169.632C357.014 169.632 358.171 168.474 358.171 167.046C358.171 165.617 357.014 164.459 355.587 164.459C354.159 164.459 353.002 165.617 353.002 167.046C353.002 168.474 354.159 169.632 355.587 169.632Z" fill="#3D3D60"/>
<path d="M368.78 167.046C368.78 168.543 367.556 169.632 366.196 169.632C364.7 169.632 363.612 168.407 363.612 167.046C363.612 165.548 364.836 164.459 366.196 164.459C367.556 164.459 368.78 165.548 368.78 167.046Z" fill="#3D3D60"/>
<path d="M441.686 173.989H342.393V242.604H441.686V173.989Z" fill="white"/>
<path d="M408.089 228.99L406.457 227.22L363.612 182.293L342.393 204.621L342.529 242.604H441.822V224.225L427.132 208.841L408.089 228.99Z" fill="#3D3D60"/>
<path d="M407.545 208.296C413.33 208.296 418.019 203.603 418.019 197.814C418.019 192.024 413.33 187.331 407.545 187.331C401.761 187.331 397.072 192.024 397.072 197.814C397.072 203.603 401.761 208.296 407.545 208.296Z" fill="#FF5C00"/>
</g>
<g filter="url(#filter3_d_29_765)">
<path d="M33.6343 315.031V242.74L185.701 242.604L185.837 314.895L185.701 315.031H33.6343Z" fill="white"/>
<path d="M33.6343 162.689V242.604H185.701V162.553L33.6343 162.689Z" fill="#F4F4F9"/>
<path d="M131.703 200.809C131.703 198.903 130.07 197.269 128.166 197.269H115.653C117.557 194.41 118.509 191.006 118.509 187.467V185.697C118.509 183.11 116.469 181.068 113.884 181.068C112.66 181.068 111.708 182.021 111.708 183.246V187.194L101.643 200.4C101.507 200.672 101.371 200.945 101.371 201.217V221.911C101.371 222.727 101.915 223.272 102.731 223.272H125.99C127.622 223.272 128.982 221.911 128.982 220.277C128.982 218.643 127.622 217.282 125.99 217.282H127.078C128.846 217.282 130.342 215.784 130.342 214.014C130.342 212.244 128.846 210.747 127.078 210.747H127.622C129.526 210.747 131.022 209.249 131.022 207.343C131.022 205.437 129.526 203.94 127.622 203.94H128.166C130.07 204.212 131.703 202.715 131.703 200.809Z" fill="#FF5C00"/>
<path d="M97.4263 226.948H89.5373C88.5851 226.948 87.769 226.131 87.769 225.178V201.489C87.769 200.536 88.5851 199.719 89.5373 199.719H97.4263C98.3784 199.719 99.1945 200.536 99.1945 201.489V225.178C99.1945 226.131 98.3784 226.948 97.4263 226.948Z" fill="#FF5C00"/>
<path d="M74.5754 260.983C74.5754 263.57 72.3991 265.748 69.8148 265.748C67.2305 265.748 65.0542 263.57 65.0542 260.983C65.0542 258.396 67.2305 256.218 69.8148 256.218C72.5351 256.082 74.5754 258.26 74.5754 260.983Z" fill="#FF5C00"/>
<path d="M151.697 263.57H83.8246C82.3284 263.57 81.2402 262.345 81.2402 260.983C81.2402 259.486 82.4644 258.396 83.8246 258.396H151.697C153.193 258.396 154.281 259.622 154.281 260.983C154.281 262.345 153.057 263.57 151.697 263.57Z" fill="#3D3D60"/>
<path d="M74.5754 278.818C74.5754 281.404 72.3991 283.583 69.8148 283.583C67.2305 283.583 65.0542 281.404 65.0542 278.818C65.0542 276.231 67.2305 274.053 69.8148 274.053C72.5351 274.053 74.5754 276.231 74.5754 278.818Z" fill="#FF5C00"/>
<path d="M151.697 281.404H83.8246C82.3284 281.404 81.2402 280.179 81.2402 278.818C81.2402 277.32 82.4644 276.231 83.8246 276.231H151.697C153.193 276.231 154.281 277.456 154.281 278.818C154.281 280.315 153.057 281.404 151.697 281.404Z" fill="#3D3D60"/>
<path d="M74.5754 296.652C74.5754 299.239 72.3991 301.417 69.8148 301.417C67.2305 301.417 65.0542 299.239 65.0542 296.652C65.0542 294.065 67.2305 291.887 69.8148 291.887C72.5351 291.887 74.5754 294.065 74.5754 296.652Z" fill="#FF5C00"/>
<path d="M151.697 299.375H83.8246C82.3284 299.375 81.2402 298.15 81.2402 296.788C81.2402 295.291 82.4644 294.202 83.8246 294.202H151.697C153.193 294.202 154.281 295.427 154.281 296.788C154.281 298.15 153.057 299.375 151.697 299.375Z" fill="#3D3D60"/>
</g>
<g filter="url(#filter4_d_29_765)">
<path d="M315.054 317.754H210.184C208.552 317.754 207.328 316.393 207.328 314.895V162.689C207.328 161.055 208.688 159.83 210.184 159.83H315.054C316.686 159.83 317.91 161.192 317.91 162.689V314.895C317.91 316.529 316.686 317.754 315.054 317.754Z" fill="white"/>
<path d="M312.197 173.989H212.905V242.604H312.197V173.989Z" fill="#E8EBFB"/>
<path d="M262.959 229.943C250.446 229.943 240.38 219.732 240.38 207.343C240.38 194.818 250.582 184.744 262.959 184.744C275.473 184.744 285.538 194.955 285.538 207.343C285.674 219.732 275.473 229.943 262.959 229.943Z" fill="#FF5C00"/>
<path d="M299.956 259.894H225.282C223.786 259.894 222.426 258.669 222.426 257.035C222.426 255.538 223.65 254.176 225.282 254.176H299.956C301.452 254.176 302.812 255.401 302.812 257.035C302.812 258.533 301.452 259.894 299.956 259.894Z" fill="#3D3D60"/>
<path d="M257.79 302.779H225.282C223.786 302.779 222.426 301.553 222.426 299.92C222.426 298.422 223.65 297.061 225.282 297.061H257.79C259.287 297.061 260.647 298.286 260.647 299.92C260.647 301.553 259.423 302.779 257.79 302.779Z" fill="#3D3D60"/>
<path d="M299.956 274.189H225.282C223.786 274.189 222.426 272.964 222.426 271.33C222.426 269.832 223.65 268.471 225.282 268.471H299.956C301.452 268.471 302.812 269.696 302.812 271.33C302.812 272.964 301.452 274.189 299.956 274.189Z" fill="#3D3D60"/>
<path d="M299.956 288.484H225.282C223.786 288.484 222.426 287.259 222.426 285.625C222.426 284.127 223.65 282.766 225.282 282.766H299.956C301.452 282.766 302.812 283.991 302.812 285.625C302.812 287.259 301.452 288.484 299.956 288.484Z" fill="#3D3D60"/>
<path d="M215.489 169.632C216.916 169.632 218.073 168.474 218.073 167.046C218.073 165.617 216.916 164.459 215.489 164.459C214.062 164.459 212.905 165.617 212.905 167.046C212.905 168.474 214.062 169.632 215.489 169.632Z" fill="#3D3D60"/>
<path d="M226.098 169.632C227.526 169.632 228.683 168.474 228.683 167.046C228.683 165.617 227.526 164.459 226.098 164.459C224.671 164.459 223.514 165.617 223.514 167.046C223.514 168.474 224.671 169.632 226.098 169.632Z" fill="#3D3D60"/>
<path d="M236.708 169.632C238.135 169.632 239.292 168.474 239.292 167.046C239.292 165.617 238.135 164.459 236.708 164.459C235.28 164.459 234.123 165.617 234.123 167.046C234.123 168.474 235.28 169.632 236.708 169.632Z" fill="#3D3D60"/>
</g>
<g filter="url(#filter5_bii_29_765)">
<rect x="425.229" y="116.529" width="88.8153" height="106.923" rx="10" fill="white" fill-opacity="0.5"/>
</g>
<path d="M509.15 116.673H430.396C427.54 116.673 425.228 118.987 425.228 121.846V127.837H514.455V121.846C514.319 118.987 512.006 116.673 509.15 116.673Z" fill="#3D3D60"/>
<path d="M435.565 122.119C435.565 123.072 434.749 123.889 433.797 123.889C432.844 123.889 432.028 123.072 432.028 122.119C432.028 121.166 432.844 120.349 433.797 120.349C434.749 120.349 435.565 121.03 435.565 122.119Z" fill="white"/>
<path d="M443.318 122.119C443.318 123.072 442.502 123.889 441.55 123.889C440.598 123.889 439.781 123.072 439.781 122.119C439.781 121.166 440.598 120.349 441.55 120.349C442.502 120.349 443.318 121.03 443.318 122.119Z" fill="white"/>
<path d="M451.071 122.119C451.071 123.072 450.255 123.889 449.302 123.889C448.35 123.889 447.534 123.072 447.534 122.119C447.534 121.166 448.35 120.349 449.302 120.349C450.255 120.349 451.071 121.03 451.071 122.119Z" fill="white"/>
<path d="M448.35 148.122C448.35 151.934 445.358 154.929 441.55 154.929C437.741 154.929 434.749 151.934 434.749 148.122C434.749 144.31 437.741 141.315 441.55 141.315C445.358 141.315 448.35 144.31 448.35 148.122Z" fill="#FF5C00"/>
<path d="M500.853 146.216H455.831C455.015 146.216 454.335 145.535 454.335 144.718V144.446C454.335 143.629 455.015 142.948 455.831 142.948H500.853C501.669 142.948 502.349 143.629 502.349 144.446V144.718C502.349 145.535 501.669 146.216 500.853 146.216Z" fill="#3D3D60"/>
<path d="M479.634 154.112H455.831C455.015 154.112 454.335 153.431 454.335 152.614V152.342C454.335 151.525 455.015 150.845 455.831 150.845H479.634C480.45 150.845 481.131 151.525 481.131 152.342V152.614C481.131 153.431 480.45 154.112 479.634 154.112Z" fill="#3D3D60"/>
<path d="M490.38 154.112H485.891C485.075 154.112 484.259 153.431 484.259 152.478C484.259 151.661 484.939 150.845 485.891 150.845H490.38C491.196 150.845 492.012 151.525 492.012 152.478C492.012 153.431 491.332 154.112 490.38 154.112Z" fill="#3D3D60"/>
<path d="M448.35 172.083C448.35 175.895 445.358 178.89 441.55 178.89C437.741 178.89 434.749 175.895 434.749 172.083C434.749 168.271 437.741 165.276 441.55 165.276C445.358 165.276 448.35 168.271 448.35 172.083Z" fill="#FF5C00"/>
<path d="M500.853 170.177H455.831C455.015 170.177 454.335 169.496 454.335 168.679V168.407C454.335 167.59 455.015 166.909 455.831 166.909H500.853C501.669 166.909 502.349 167.59 502.349 168.407V168.679C502.349 169.496 501.669 170.177 500.853 170.177Z" fill="#3D3D60"/>
<path d="M479.634 178.073H455.831C455.015 178.073 454.335 177.392 454.335 176.575V176.303C454.335 175.486 455.015 174.805 455.831 174.805H479.634C480.45 174.805 481.131 175.486 481.131 176.303V176.575C481.131 177.392 480.45 178.073 479.634 178.073Z" fill="#3D3D60"/>
<path d="M490.38 178.073H485.891C485.075 178.073 484.259 177.392 484.259 176.439C484.259 175.622 484.939 174.805 485.891 174.805H490.38C491.196 174.805 492.012 175.486 492.012 176.439C492.012 177.392 491.332 178.073 490.38 178.073Z" fill="#3D3D60"/>
<path d="M448.35 196.044C448.35 199.855 445.358 202.851 441.55 202.851C437.741 202.851 434.749 199.855 434.749 196.044C434.749 192.232 437.741 189.236 441.55 189.236C445.358 189.236 448.35 192.232 448.35 196.044Z" fill="#FF5C00"/>
<path d="M500.853 194.138H455.831C455.015 194.138 454.335 193.457 454.335 192.64V192.368C454.335 191.551 455.015 190.87 455.831 190.87H500.853C501.669 190.87 502.349 191.551 502.349 192.368V192.64C502.349 193.457 501.669 194.138 500.853 194.138Z" fill="#3D3D60"/>
<path d="M479.634 202.034H455.831C455.015 202.034 454.335 201.353 454.335 200.536V200.264C454.335 199.447 455.015 198.766 455.831 198.766H479.634C480.45 198.766 481.131 199.447 481.131 200.264V200.536C481.131 201.353 480.45 202.034 479.634 202.034Z" fill="#3D3D60"/>
<path d="M490.38 202.034H485.891C485.075 202.034 484.259 201.353 484.259 200.4C484.259 199.583 484.939 198.766 485.891 198.766H490.38C491.196 198.766 492.012 199.447 492.012 200.4C492.012 201.353 491.332 202.034 490.38 202.034Z" fill="#3D3D60"/>
<path d="M431.546 369.947H352.792C349.936 369.947 347.624 367.633 347.624 364.774V343.4H436.851V364.774C436.851 367.633 434.403 369.947 431.546 369.947Z" fill="white"/>
<path d="M431.546 332.1H352.792C349.936 332.1 347.624 334.415 347.624 337.273V343.264H436.851V337.273C436.851 334.551 434.403 332.1 431.546 332.1Z" fill="#3D3D60"/>
<path d="M357.961 337.546C357.961 338.499 357.145 339.316 356.193 339.316C355.241 339.316 354.425 338.499 354.425 337.546C354.425 336.593 355.241 335.776 356.193 335.776C357.145 335.776 357.961 336.593 357.961 337.546Z" fill="white"/>
<path d="M365.714 337.546C365.714 338.499 364.898 339.316 363.946 339.316C362.994 339.316 362.177 338.499 362.177 337.546C362.177 336.593 362.994 335.776 363.946 335.776C364.898 335.776 365.714 336.593 365.714 337.546Z" fill="white"/>
<path d="M373.467 337.546C373.467 338.499 372.651 339.316 371.699 339.316C370.747 339.316 369.931 338.499 369.931 337.546C369.931 336.593 370.747 335.776 371.699 335.776C372.651 335.776 373.467 336.593 373.467 337.546Z" fill="white"/>
<path d="M370.747 356.606C370.747 360.418 367.754 363.413 363.946 363.413C360.137 363.413 357.145 360.418 357.145 356.606C357.145 352.794 360.137 349.799 363.946 349.799C367.754 349.662 370.747 352.794 370.747 356.606Z" fill="#FF5C00"/>
<path d="M423.249 354.7H378.228C377.412 354.7 376.731 354.019 376.731 353.202V352.93C376.731 352.113 377.412 351.432 378.228 351.432H423.249C424.065 351.432 424.745 352.113 424.745 352.93V353.202C424.745 354.019 424.065 354.7 423.249 354.7Z" fill="#3D3D60"/>
<path d="M402.031 362.596H378.228C377.412 362.596 376.731 361.915 376.731 361.098V360.826C376.731 360.009 377.412 359.328 378.228 359.328H402.031C402.847 359.328 403.527 360.009 403.527 360.826V361.098C403.527 361.915 402.847 362.596 402.031 362.596Z" fill="#3D3D60"/>
<path d="M412.776 362.596H408.287C407.471 362.596 406.655 361.915 406.655 360.962C406.655 360.145 407.335 359.328 408.287 359.328H412.776C413.592 359.328 414.408 360.009 414.408 360.962C414.408 361.779 413.728 362.596 412.776 362.596Z" fill="#3D3D60"/>
<g filter="url(#filter6_d_29_765)">
<path d="M37.5788 148.666C25.0653 148.666 15 138.456 15 126.067C15 113.542 25.2013 103.468 37.5788 103.468C50.0924 103.468 60.1577 113.678 60.1577 126.067C60.2937 138.456 50.0924 148.666 37.5788 148.666Z" fill="#FF5C00"/>
<path d="M45.6039 117.899C45.6039 122.391 41.9314 125.931 37.5788 125.931C33.0903 125.931 29.5538 122.255 29.5538 117.899C29.5538 113.406 33.2263 109.866 37.5788 109.866C42.0674 109.866 45.6039 113.542 45.6039 117.899Z" fill="white"/>
<path d="M37.5788 147.305C43.6996 147.305 49.1403 144.718 53.0848 140.498C50.7725 134.099 44.7877 129.471 37.5788 129.471C30.3699 129.471 24.3852 134.099 22.0729 140.498C26.0174 144.718 31.4581 147.305 37.5788 147.305Z" fill="white"/>
</g>
<defs>
<filter id="filter0_d_29_765" x="35.9978" y="71.8999" width="446.894" height="298.171" filterUnits="userSpaceOnUse" color-interpolation-filters="sRGB">
<feFlood flood-opacity="0" result="BackgroundImageFix"/>
<feColorMatrix in="SourceAlpha" type="matrix" values="0 0 0 0 0 0 0 0 0 0 0 0 0 0 0 0 0 0 127 0" result="hardAlpha"/>
<feOffset dy="4"/>
<feGaussianBlur stdDeviation="7.5"/>
<feComposite in2="hardAlpha" operator="out"/>
<feColorMatrix type="matrix" values="0 0 0 0 0 0 0 0 0 0 0 0 0 0 0 0 0 0 0.06 0"/>
<feBlend mode="normal" in2="BackgroundImageFix" result="effect1_dropShadow_29_765"/>
<feBlend mode="normal" in="SourceGraphic" in2="effect1_dropShadow_29_765" result="shape"/>
</filter>
<filter id="filter1_bdii_29_765" x="0.997803" y="32.8999" width="516.484" height="363.859" filterUnits="userSpaceOnUse" color-interpolation-filters="sRGB">
<feFlood flood-opacity="0" result="BackgroundImageFix"/>
<feGaussianBlur in="BackgroundImageFix" stdDeviation="25"/>
<feComposite in2="SourceAlpha" operator="in" result="effect1_backgroundBlur_29_765"/>
<feColorMatrix in="SourceAlpha" type="matrix" values="0 0 0 0 0 0 0 0 0 0 0 0 0 0 0 0 0 0 127 0" result="hardAlpha"/>
<feOffset dy="4"/>
<feGaussianBlur stdDeviation="7.5"/>
<feComposite in2="hardAlpha" operator="out"/>
<feColorMatrix type="matrix" values="0 0 0 0 0 0 0 0 0 0 0 0 0 0 0 0 0 0 0.05 0"/>
<feBlend mode="normal" in2="effect1_backgroundBlur_29_765" result="effect2_dropShadow_29_765"/>
<feBlend mode="normal" in="SourceGraphic" in2="effect2_dropShadow_29_765" result="shape"/>
<feColorMatrix in="SourceAlpha" type="matrix" values="0 0 0 0 0 0 0 0 0 0 0 0 0 0 0 0 0 0 127 0" result="hardAlpha"/>
<feOffset dx="4" dy="4"/>
<feGaussianBlur stdDeviation="2"/>
<feComposite in2="hardAlpha" operator="arithmetic" k2="-1" k3="1"/>
<feColorMatrix type="matrix" values="0 0 0 0 1 0 0 0 0 1 0 0 0 0 1 0 0 0 0.2 0"/>
<feBlend mode="normal" in2="shape" result="effect3_innerShadow_29_765"/>
<feColorMatrix in="SourceAlpha" type="matrix" values="0 0 0 0 0 0 0 0 0 0 0 0 0 0 0 0 0 0 127 0" result="hardAlpha"/>
<feOffset dx="-4" dy="-4"/>
<feGaussianBlur stdDeviation="7.5"/>
<feComposite in2="hardAlpha" operator="arithmetic" k2="-1" k3="1"/>
<feColorMatrix type="matrix" values="0 0 0 0 1 0 0 0 0 1 0 0 0 0 1 0 0 0 0.25 0"/>
<feBlend mode="normal" in2="effect3_innerShadow_29_765" result="effect4_innerShadow_29_765"/>
</filter>
<filter id="filter2_d_29_765" x="322.497" y="149.511" width="139.222" height="186.563" filterUnits="userSpaceOnUse" color-interpolation-filters="sRGB">
<feFlood flood-opacity="0" result="BackgroundImageFix"/>
<feColorMatrix in="SourceAlpha" type="matrix" values="0 0 0 0 0 0 0 0 0 0 0 0 0 0 0 0 0 0 127 0" result="hardAlpha"/>
<feOffset dy="4"/>
<feGaussianBlur stdDeviation="7.5"/>
<feComposite in2="hardAlpha" operator="out"/>
<feColorMatrix type="matrix" values="0 0 0 0 0 0 0 0 0 0 0 0 0 0 0 0 0 0 0.06 0"/>
<feBlend mode="normal" in2="BackgroundImageFix" result="effect1_dropShadow_29_765"/>
<feBlend mode="normal" in="SourceGraphic" in2="effect1_dropShadow_29_765" result="shape"/>
</filter>
<filter id="filter3_d_29_765" x="18.6343" y="151.553" width="182.203" height="182.478" filterUnits="userSpaceOnUse" color-interpolation-filters="sRGB">
<feFlood flood-opacity="0" result="BackgroundImageFix"/>
<feColorMatrix in="SourceAlpha" type="matrix" values="0 0 0 0 0 0 0 0 0 0 0 0 0 0 0 0 0 0 127 0" result="hardAlpha"/>
<feOffset dy="4"/>
<feGaussianBlur stdDeviation="7.5"/>
<feComposite in2="hardAlpha" operator="out"/>
<feColorMatrix type="matrix" values="0 0 0 0 0 0 0 0 0 0 0 0 0 0 0 0 0 0 0.06 0"/>
<feBlend mode="normal" in2="BackgroundImageFix" result="effect1_dropShadow_29_765"/>
<feBlend mode="normal" in="SourceGraphic" in2="effect1_dropShadow_29_765" result="shape"/>
</filter>
<filter id="filter4_d_29_765" x="192.328" y="148.83" width="140.582" height="187.924" filterUnits="userSpaceOnUse" color-interpolation-filters="sRGB">
<feFlood flood-opacity="0" result="BackgroundImageFix"/>
<feColorMatrix in="SourceAlpha" type="matrix" values="0 0 0 0 0 0 0 0 0 0 0 0 0 0 0 0 0 0 127 0" result="hardAlpha"/>
<feOffset dy="4"/>
<feGaussianBlur stdDeviation="7.5"/>
<feComposite in2="hardAlpha" operator="out"/>
<feColorMatrix type="matrix" values="0 0 0 0 0 0 0 0 0 0 0 0 0 0 0 0 0 0 0.06 0"/>
<feBlend mode="normal" in2="BackgroundImageFix" result="effect1_dropShadow_29_765"/>
<feBlend mode="normal" in="SourceGraphic" in2="effect1_dropShadow_29_765" result="shape"/>
</filter>
<filter id="filter5_bii_29_765" x="375.229" y="66.529" width="188.815" height="206.923" filterUnits="userSpaceOnUse" color-interpolation-filters="sRGB">
<feFlood flood-opacity="0" result="BackgroundImageFix"/>
<feGaussianBlur in="BackgroundImageFix" stdDeviation="25"/>
<feComposite in2="SourceAlpha" operator="in" result="effect1_backgroundBlur_29_765"/>
<feBlend mode="normal" in="SourceGraphic" in2="effect1_backgroundBlur_29_765" result="shape"/>
<feColorMatrix in="SourceAlpha" type="matrix" values="0 0 0 0 0 0 0 0 0 0 0 0 0 0 0 0 0 0 127 0" result="hardAlpha"/>
<feOffset dx="4" dy="4"/>
<feGaussianBlur stdDeviation="2"/>
<feComposite in2="hardAlpha" operator="arithmetic" k2="-1" k3="1"/>
<feColorMatrix type="matrix" values="0 0 0 0 1 0 0 0 0 1 0 0 0 0 1 0 0 0 0.2 0"/>
<feBlend mode="normal" in2="shape" result="effect2_innerShadow_29_765"/>
<feColorMatrix in="SourceAlpha" type="matrix" values="0 0 0 0 0 0 0 0 0 0 0 0 0 0 0 0 0 0 127 0" result="hardAlpha"/>
<feOffset dx="-4" dy="-4"/>
<feGaussianBlur stdDeviation="7.5"/>
<feComposite in2="hardAlpha" operator="arithmetic" k2="-1" k3="1"/>
<feColorMatrix type="matrix" values="0 0 0 0 1 0 0 0 0 1 0 0 0 0 1 0 0 0 0.25 0"/>
<feBlend mode="normal" in2="effect2_innerShadow_29_765" result="effect3_innerShadow_29_765"/>
</filter>
<filter id="filter6_d_29_765" x="0" y="92.4675" width="75.1591" height="75.199" filterUnits="userSpaceOnUse" color-interpolation-filters="sRGB">
<feFlood flood-opacity="0" result="BackgroundImageFix"/>
<feColorMatrix in="SourceAlpha" type="matrix" values="0 0 0 0 0 0 0 0 0 0 0 0 0 0 0 0 0 0 127 0" result="hardAlpha"/>
<feOffset dy="4"/>
<feGaussianBlur stdDeviation="7.5"/>
<feComposite in2="hardAlpha" operator="out"/>
<feColorMatrix type="matrix" values="0 0 0 0 0 0 0 0 0 0 0 0 0 0 0 0 0 0 0.06 0"/>
<feBlend mode="normal" in2="BackgroundImageFix" result="effect1_dropShadow_29_765"/>
<feBlend mode="normal" in="SourceGraphic" in2="effect1_dropShadow_29_765" result="shape"/>
</filter>
</defs>
</svg>
