<svg width="501" height="414" viewBox="0 0 501 414" fill="none" xmlns="http://www.w3.org/2000/svg">
<g clip-path="url(#clip0_29_19)">
<path d="M408.09 74.2435C408.09 70.4301 407.732 66.7358 407.018 63.0415L425.719 52.3161L408.209 22.0466L389.627 32.772C384.028 27.7668 377.358 23.8342 369.973 21.4508V0H335.072V21.4508C331.856 22.5233 328.64 23.9534 325.662 25.5026C325.305 25.7409 324.947 25.8601 324.59 26.0984C324.232 26.3368 323.875 26.456 323.518 26.6943C320.659 28.4819 317.919 30.5078 315.299 32.772L296.717 22.0466L279.207 52.3161L297.789 63.0415C297.074 66.3782 296.717 69.8342 296.598 73.171C296.598 73.5285 296.598 74.0052 296.598 74.3627C296.598 74.7202 296.598 75.1969 296.598 75.5544C296.717 78.8912 297.074 82.3472 297.789 85.6839L279.207 96.4093L296.717 126.679L315.299 115.953C321.016 121.078 327.806 124.891 334.953 127.275V148.725H369.854V127.155C373.308 125.964 376.762 124.415 380.098 122.508C383.433 120.601 386.53 118.337 389.389 115.834L408.09 126.679L425.6 96.5285L406.899 85.6839C407.732 81.9896 408.09 78.1762 408.09 74.2435ZM375.333 98.9119C375.214 99.0311 374.976 99.1503 374.857 99.2694C374.261 99.8653 373.665 100.342 372.951 100.819C372.593 101.057 372.355 101.295 371.998 101.534C371.521 101.891 370.926 102.249 370.449 102.606C369.973 102.845 369.615 103.202 369.139 103.44C368.663 103.679 368.305 103.917 367.829 104.155C367.233 104.394 366.638 104.751 366.042 104.99C365.685 105.109 365.327 105.347 364.97 105.466C364.255 105.824 363.421 106.062 362.707 106.301C362.469 106.42 362.349 106.42 362.111 106.539C359.014 107.492 355.798 107.969 352.344 107.969C333.762 107.969 318.753 92.9534 318.753 74.3627C318.753 69.8342 319.706 65.4249 321.255 61.4922C321.374 61.2539 321.374 61.1347 321.493 60.8964C321.85 60.1813 322.088 59.4663 322.446 58.8705C322.684 58.3938 322.922 58.0363 323.16 57.5596C323.399 57.2021 323.637 56.7254 323.875 56.3679C324.232 55.772 324.709 55.057 325.185 54.4611C325.305 54.342 325.424 54.1036 325.543 53.9845C328.163 50.5285 331.499 47.6684 335.429 45.4041C351.51 36.1088 372.117 41.5907 381.408 57.6788C383.076 60.658 384.267 63.7565 384.981 66.8549C384.981 67.0933 385.1 67.2124 385.1 67.4508C385.22 68.285 385.458 69 385.577 69.8342C385.577 70.1917 385.696 70.5492 385.696 70.9067C385.815 71.5026 385.815 72.2176 385.815 72.8135C385.815 73.2902 385.815 73.886 385.815 74.3627C385.815 74.8394 385.815 75.4352 385.815 75.9119C385.815 76.5078 385.696 77.2228 385.696 77.8187C385.696 78.1762 385.577 78.5337 385.577 78.8912C385.458 79.7254 385.339 80.4404 385.22 81.2746C385.22 81.513 385.1 81.6321 385.1 81.8705C384.386 84.9689 383.195 88.0674 381.527 91.0466C379.859 94.1451 377.715 96.6477 375.333 98.9119Z" fill="white"/>
<path d="M491.113 180.663C491.113 178.518 490.875 176.373 490.518 174.347L501 168.269L491.113 151.228L480.631 157.306C477.415 154.446 473.723 152.301 469.553 150.87V138.834H449.899V150.87C448.113 151.466 446.326 152.301 444.658 153.135C444.42 153.254 444.301 153.373 444.063 153.492C443.824 153.611 443.705 153.731 443.467 153.85C441.8 154.803 440.251 155.995 438.822 157.306L428.339 151.228L418.453 168.269L428.935 174.347C428.578 176.254 428.339 178.161 428.339 180.067C428.339 180.306 428.339 180.544 428.339 180.782C428.339 181.021 428.339 181.259 428.339 181.497C428.339 183.404 428.578 185.311 428.935 187.218L418.453 193.295L428.339 210.337L438.822 204.259C442.038 207.119 445.849 209.264 449.899 210.694V222.85H469.553V210.694C471.459 209.979 473.484 209.145 475.271 208.073C477.177 207 478.964 205.689 480.512 204.259L491.113 210.337L501 193.295L490.399 187.218C490.875 185.073 491.113 182.927 491.113 180.663ZM472.65 194.606C472.531 194.725 472.531 194.725 472.412 194.845C472.055 195.202 471.698 195.44 471.34 195.679C471.221 195.798 470.983 195.917 470.864 196.036C470.625 196.275 470.268 196.394 469.911 196.632C469.673 196.751 469.434 196.99 469.196 197.109C468.958 197.228 468.72 197.347 468.481 197.466C468.124 197.585 467.886 197.824 467.528 197.943C467.29 198.062 467.171 198.062 466.933 198.181C466.456 198.301 466.099 198.539 465.623 198.658C465.504 198.658 465.384 198.777 465.265 198.777C463.479 199.254 461.692 199.611 459.786 199.611C449.304 199.611 440.847 191.15 440.847 180.663C440.847 178.041 441.323 175.658 442.276 173.394C442.276 173.275 442.395 173.155 442.395 173.036C442.514 172.679 442.752 172.202 442.991 171.845C443.11 171.606 443.229 171.368 443.348 171.13C443.467 170.891 443.586 170.653 443.825 170.415C444.063 170.057 444.301 169.699 444.539 169.342C444.658 169.223 444.658 169.104 444.777 169.104C446.207 167.197 448.113 165.529 450.376 164.218C459.429 158.974 471.102 162.073 476.343 171.13C477.296 172.798 478.011 174.585 478.368 176.254C478.368 176.373 478.368 176.492 478.487 176.611C478.606 177.088 478.606 177.565 478.725 177.922C478.725 178.161 478.725 178.399 478.844 178.518C478.844 178.876 478.964 179.233 478.964 179.591C478.964 179.829 478.964 180.187 478.964 180.425C478.964 180.663 478.964 181.021 478.964 181.259C478.964 181.617 478.964 181.974 478.844 182.332C478.844 182.57 478.844 182.808 478.725 182.927C478.606 183.404 478.606 183.881 478.487 184.238C478.487 184.358 478.487 184.477 478.368 184.596C478.011 186.383 477.296 188.052 476.343 189.72C475.152 191.865 473.961 193.295 472.65 194.606Z" fill="white"/>
<path d="M108.038 297.57C106.966 294.829 105.655 292.207 104.107 289.705L114.708 276.596L93.3865 259.435L82.7852 272.544C77.1868 270.399 71.231 269.446 65.1561 269.803L59.0812 254.073L33.5905 263.964L39.6654 279.694C37.6404 281.363 35.7346 283.269 33.9479 285.295C33.7096 285.534 33.5905 285.772 33.3523 286.01C33.114 286.249 32.9949 286.487 32.7567 286.725C31.0891 288.87 29.6597 291.135 28.4685 293.518L11.9115 291.016L7.74243 318.067L24.2995 320.689C24.776 323.311 25.3715 325.933 26.3245 328.435C26.4436 328.793 26.5627 329.031 26.6818 329.389C26.8009 329.627 26.92 329.984 27.0392 330.223C27.9921 332.725 29.3023 335.109 30.7317 337.373L20.2496 350.363L41.5713 367.523L52.0534 354.415C57.771 356.56 63.7267 357.394 69.6825 357.155L75.7574 372.886L101.248 362.995L95.1732 347.264C97.4364 345.477 99.4614 343.332 101.367 340.948C103.273 338.565 104.941 336.062 106.251 333.44L123.046 336.062L127.215 309.01L110.42 306.269C109.944 303.409 109.229 300.43 108.038 297.57ZM91.1233 324.86C91.0042 324.979 91.0042 325.098 90.8851 325.337C90.6469 325.933 90.2895 326.409 89.9322 327.005C89.813 327.244 89.5748 327.482 89.4557 327.72C89.2175 328.197 88.8601 328.554 88.6219 328.912C88.3837 329.269 88.1454 329.508 87.9072 329.865C87.669 330.223 87.4307 330.461 87.0734 330.819C86.716 331.176 86.3587 331.534 86.0014 331.891C85.7631 332.13 85.5249 332.368 85.4058 332.487C84.9293 332.964 84.4529 333.321 83.9764 333.798C83.8573 333.917 83.7382 334.036 83.619 334.155C81.5941 335.705 79.3309 337.016 76.9486 337.969C63.3694 343.212 48.1226 336.539 42.7624 322.834C41.4521 319.497 40.8566 316.041 40.9757 312.705C40.9757 312.585 40.9757 312.347 40.9757 312.228C40.9757 311.632 41.0948 311.036 41.0948 310.44C41.0948 310.083 41.2139 309.725 41.2139 309.368C41.2139 309.01 41.333 308.653 41.4521 308.295C41.5712 307.7 41.6904 307.104 41.8095 306.508C41.8095 306.389 41.9286 306.15 41.9286 306.031C42.8815 302.813 44.43 299.715 46.6932 296.974C55.8651 285.653 72.4222 283.865 83.7382 292.922C85.7631 294.591 87.5499 296.497 88.9792 298.643C89.0984 298.762 89.0984 298.881 89.2175 299C89.5748 299.477 89.9322 300.073 90.1704 300.668C90.2895 300.907 90.4086 301.145 90.5277 301.503C90.766 301.979 91.0042 302.456 91.1233 302.933C91.2424 303.29 91.4807 303.648 91.5998 304.005C91.7189 304.363 91.838 304.72 91.9571 305.197C92.0762 305.674 92.3145 306.15 92.4336 306.627C92.5527 306.865 92.5527 307.223 92.6718 307.461C92.7909 308.057 92.91 308.653 93.0292 309.368C93.0292 309.487 93.0292 309.725 93.1483 309.845C93.5056 312.347 93.5056 314.969 93.1483 317.591C93.0292 320.212 92.1954 322.596 91.1233 324.86Z" fill="white"/>
<path d="M241.209 61.4922H3.097C1.31027 61.4922 0 60.1813 0 58.3938C0 56.7254 1.31027 55.2953 3.097 55.2953H241.328C242.996 55.2953 244.425 56.6062 244.425 58.3938C244.306 60.1813 242.877 61.4922 241.209 61.4922Z" fill="#373744"/>
<path d="M241.209 83.3005H3.097C1.42939 83.3005 0 81.9896 0 80.2021C0 78.5337 1.31027 77.1036 3.097 77.1036H241.328C242.996 77.1036 244.425 78.4145 244.425 80.2021C244.306 81.9896 242.877 83.3005 241.209 83.3005Z" fill="#373744"/>
<path d="M241.209 105.228H3.097C1.42939 105.228 0 103.917 0 102.13C0 100.461 1.31027 99.0311 3.097 99.0311H241.328C242.996 99.0311 244.425 100.342 244.425 102.13C244.306 103.798 242.877 105.228 241.209 105.228Z" fill="#373744"/>
<path d="M241.209 127.036H3.097C1.42939 127.036 0 125.725 0 123.938C0 122.269 1.31027 120.839 3.097 120.839H241.328C242.996 120.839 244.425 122.15 244.425 123.938C244.306 125.725 242.877 127.036 241.209 127.036Z" fill="#373744"/>
<path d="M241.209 148.845H3.097C1.42939 148.845 0 147.534 0 145.746C0 144.078 1.31027 142.648 3.097 142.648H241.328C242.996 142.648 244.425 143.959 244.425 145.746C244.306 147.534 242.877 148.845 241.209 148.845Z" fill="#373744"/>
<path d="M241.209 170.772H3.097C1.42939 170.772 0 169.461 0 167.674C0 166.005 1.31027 164.575 3.097 164.575H241.328C242.996 164.575 244.425 165.886 244.425 167.674C244.306 169.342 242.877 170.772 241.209 170.772Z" fill="#373744"/>
<path d="M241.209 192.58H3.097C1.42939 192.58 0 191.269 0 189.482C0 187.813 1.31027 186.383 3.097 186.383H241.328C242.996 186.383 244.425 187.694 244.425 189.482C244.306 191.269 242.877 192.58 241.209 192.58Z" fill="#373744"/>
<path d="M241.209 214.508H3.097C1.42939 214.508 0 213.197 0 211.409C0 209.741 1.31027 208.311 3.097 208.311H241.328C242.996 208.311 244.425 209.622 244.425 211.409C244.306 213.078 242.877 214.508 241.209 214.508Z" fill="#373744"/>
<path d="M241.209 236.316H3.097C1.42939 236.316 0 235.005 0 233.218C0 231.549 1.31027 230.119 3.097 230.119H241.328C242.996 230.119 244.425 231.43 244.425 233.218C244.306 234.886 242.877 236.316 241.209 236.316Z" fill="#373744"/>
<path d="M242.043 391.953C343.09 391.953 425.004 384.217 425.004 374.674C425.004 365.13 343.09 357.394 242.043 357.394C140.996 357.394 59.0813 365.13 59.0813 374.674C59.0813 384.217 140.996 391.953 242.043 391.953Z" fill="#373744"/>
<path d="M295.049 375.627H189.036L207.261 323.073H276.825L295.049 375.627Z" fill="#5353CB"/>
<path d="M393.677 349.528H90.4088C80.2839 349.528 72.1841 341.306 72.1841 331.295V163.026H411.902V331.295C411.902 341.425 403.683 349.528 393.677 349.528Z" fill="#8E8DBC"/>
<path d="M411.902 306.389H72.1841V128.943C72.1841 118.813 80.4031 110.71 90.4088 110.71H393.677C403.802 110.71 411.902 118.933 411.902 128.943V306.389Z" fill="#3D3D89"/>
<path d="M398.799 129.181H85.8823V287.679H398.799V129.181Z" fill="#3D3D60"/>
<path d="M242.043 335.705C247.503 335.705 251.929 331.276 251.929 325.813C251.929 320.351 247.503 315.922 242.043 315.922C236.583 315.922 232.156 320.351 232.156 325.813C232.156 331.276 236.583 335.705 242.043 335.705Z" fill="#5353CB"/>
<path d="M322.684 375.627H161.402C161.402 370.264 165.809 365.855 171.169 365.855H312.797C318.277 365.855 322.684 370.145 322.684 375.627Z" fill="#5353CB"/>
<path d="M394.63 414C435.549 414 468.72 409.251 468.72 403.394C468.72 397.536 435.549 392.788 394.63 392.788C353.711 392.788 320.54 397.536 320.54 403.394C320.54 409.251 353.711 414 394.63 414Z" fill="#373744"/>
<path d="M431.675 399.223H357.466C351.629 399.223 346.865 394.456 346.865 388.617V246.207C346.865 240.368 351.629 235.601 357.466 235.601H431.675C437.511 235.601 442.276 240.368 442.276 246.207V388.736C442.276 394.575 437.511 399.223 431.675 399.223Z" fill="#4B4BA0"/>
<path d="M442.276 246.922H346.984V387.187H442.276V246.922Z" fill="#3D3D60"/>
<g filter="url(#filter0_d_29_19)">
<path d="M418.334 351.793H370.807C364.97 351.793 360.205 347.026 360.205 341.187V293.637C360.205 287.798 364.97 283.031 370.807 283.031H418.334C424.17 283.031 428.935 287.798 428.935 293.637V341.187C428.935 347.026 424.17 351.793 418.334 351.793Z" fill="#FF5C00"/>
</g>
<path d="M394.63 343.689C380.098 343.689 368.305 331.891 368.305 317.352C368.305 302.813 380.098 291.016 394.63 291.016C409.162 291.016 420.954 302.813 420.954 317.352C420.835 331.891 409.043 343.689 394.63 343.689ZM394.63 296.021C382.837 296.021 373.189 305.674 373.189 317.472C373.189 329.269 382.837 338.922 394.63 338.922C406.422 338.922 416.071 329.269 416.071 317.472C416.071 305.554 406.422 296.021 394.63 296.021Z" fill="white"/>
<path d="M392.724 327.363L383.552 319.259L387.364 314.969L392.129 319.14L401.3 308.653L405.708 312.585L392.724 327.363Z" fill="white"/>
<path d="M406.541 252.523H382.599C378.907 252.523 375.929 249.544 375.929 245.85H413.212C413.212 249.544 410.234 252.523 406.541 252.523Z" fill="#4B4BA0"/>
<path opacity="0.15" d="M403.206 246.922H385.934C385.339 246.922 384.862 246.446 384.862 245.85C384.862 245.254 385.339 244.777 385.934 244.777H403.206C403.802 244.777 404.278 245.254 404.278 245.85C404.278 246.446 403.802 246.922 403.206 246.922Z" fill="white"/>
<g filter="url(#filter1_d_29_19)">
<path d="M324.59 228.808H137.102C131.265 228.808 126.5 224.041 126.5 218.202V104.751C126.5 98.9119 131.265 94.1451 137.102 94.1451H324.59C330.426 94.1451 335.191 98.9119 335.191 104.751V218.202C335.191 224.041 330.426 228.808 324.59 228.808Z" fill="#FF5C00"/>
</g>
<path d="M324.59 104.751H137.102V218.202H324.59V104.751Z" fill="#3D3D89"/>
<path d="M176.648 119.886H157.113V122.508H176.648V119.886Z" fill="#FFFDF6"/>
<path d="M222.746 119.886H182.842V122.508H222.746V119.886Z" fill="#FFFDF6"/>
<path d="M184.986 130.611H165.451V133.233H184.986V130.611Z" fill="white"/>
<path d="M305.055 130.611H191.061V133.233H305.055V130.611Z" fill="#FF5C00"/>
<path d="M184.986 140.503H165.451V143.124H184.986V140.503Z" fill="white"/>
<path d="M305.055 140.503H191.061V143.124H305.055V140.503Z" fill="#FF5C00"/>
<path d="M184.986 150.394H165.451V153.016H184.986V150.394Z" fill="white"/>
<path d="M305.055 150.394H191.061V153.016H305.055V150.394Z" fill="#FF5C00"/>
<path d="M184.986 160.404H165.451V163.026H184.986V160.404Z" fill="white"/>
<path d="M176.648 170.891H157.113V173.513H176.648V170.891Z" fill="#FFFDF6"/>
<path d="M222.746 170.891H182.842V173.513H222.746V170.891Z" fill="#FFFDF6"/>
<path d="M264.556 181.497H191.061V184.119H264.556V181.497Z" fill="white"/>
<path d="M264.556 191.389H191.061V194.01H264.556V191.389Z" fill="white"/>
<path d="M184.867 191.389H178.435V194.01H184.867V191.389Z" fill="#FF5C00"/>
<path d="M184.986 201.28H165.451V203.902H184.986V201.28Z" fill="#FF5C00"/>
<path d="M264.556 201.28H191.061V203.902H264.556V201.28Z" fill="white"/>
<path d="M305.889 181.497H269.916V184.119H305.889V181.497Z" fill="white"/>
<path d="M305.889 191.389H269.916V194.01H305.889V191.389Z" fill="white"/>
<path d="M305.889 201.28H269.916V203.902H305.889V201.28Z" fill="white"/>
<path d="M305.055 160.404H191.061V163.026H305.055V160.404Z" fill="#FF5C00"/>
<g filter="url(#filter2_d_29_19)">
<path d="M92.5527 228.808H32.1611C26.3244 228.808 21.5598 224.041 21.5598 218.202V157.782C21.5598 151.943 26.3244 147.176 32.1611 147.176H92.5527C98.3893 147.176 103.154 151.943 103.154 157.782V218.202C103.154 224.041 98.3893 228.808 92.5527 228.808Z" fill="#FF5C00"/>
</g>
<path d="M81.1175 187.933C81.1175 186.622 80.9984 185.43 80.7602 184.119L87.0733 180.425L81.1175 170.176L74.8044 173.751C72.8985 172.083 70.6353 170.772 68.1339 169.938V162.668H56.3415V169.938C55.2694 170.295 54.1974 170.772 53.1253 171.368C53.0062 171.487 52.8871 171.487 52.768 171.606C52.6489 171.725 52.5298 171.725 52.4107 171.845C51.4577 172.44 50.5048 173.155 49.671 173.87L43.3579 170.295L37.4021 180.544L43.7152 184.119C43.477 185.311 43.3579 186.383 43.3579 187.575C43.3579 187.694 43.3579 187.813 43.3579 187.933C43.3579 188.052 43.3579 188.171 43.3579 188.29C43.3579 189.482 43.477 190.554 43.7152 191.746L37.4021 195.321L43.3579 205.57L49.671 201.995C51.5769 203.782 53.84 204.974 56.3415 205.808V213.078H68.1339V205.808C69.3251 205.451 70.5162 204.855 71.5883 204.259C72.7794 203.544 73.7323 202.829 74.6853 201.995L80.9984 205.689L86.9542 195.44L80.641 191.746C80.9984 190.554 81.1175 189.244 81.1175 187.933ZM70.0398 196.275L69.9206 196.394C69.6824 196.632 69.5633 196.751 69.3251 196.87C69.206 196.99 69.0868 196.99 68.9677 197.109C68.8486 197.228 68.6104 197.347 68.3721 197.466C68.253 197.585 68.1339 197.705 67.8957 197.705C67.7766 197.824 67.5383 197.824 67.4192 197.943C67.181 198.062 67.0619 198.181 66.8236 198.181C66.7045 198.181 66.5854 198.301 66.4663 198.301C66.2281 198.42 65.9898 198.539 65.7516 198.539C65.6325 198.539 65.6325 198.539 65.5134 198.658C64.4413 199.016 63.3693 199.135 62.1781 199.135C55.865 199.135 50.8622 194.01 50.8622 187.813C50.8622 186.264 51.2195 184.834 51.696 183.523C51.696 183.404 51.696 183.404 51.8151 183.285C51.9342 183.047 52.0533 182.808 52.1724 182.57C52.2915 182.451 52.2915 182.332 52.4107 182.093C52.5298 181.974 52.5298 181.855 52.6489 181.736C52.768 181.497 52.8871 181.259 53.1253 181.14L53.2445 181.021C54.0783 179.829 55.2694 178.876 56.5797 178.161C62.059 175.062 68.9677 176.85 72.0647 182.332C72.6603 183.285 73.0176 184.358 73.2559 185.43C73.2559 185.549 73.2559 185.549 73.2559 185.668C73.2559 185.907 73.375 186.264 73.375 186.503C73.375 186.622 73.375 186.741 73.375 186.86C73.375 187.098 73.375 187.337 73.375 187.456C73.375 187.575 73.375 187.813 73.375 187.933C73.375 188.052 73.375 188.29 73.375 188.409C73.375 188.648 73.375 188.886 73.375 189.005C73.375 189.124 73.375 189.244 73.375 189.363C73.375 189.601 73.2559 189.959 73.2559 190.197C73.2559 190.316 73.2559 190.316 73.2559 190.435C73.0176 191.508 72.6603 192.58 72.0647 193.534C71.5883 194.606 70.8736 195.44 70.0398 196.275Z" fill="white"/>
<g filter="url(#filter3_d_29_19)">
<path d="M186.773 318.425H105.179C99.3423 318.425 94.5776 313.658 94.5776 307.819V258.005C94.5776 252.166 99.3423 247.399 105.179 247.399H186.773C192.61 247.399 197.374 252.166 197.374 258.005V307.819C197.374 313.658 192.61 318.425 186.773 318.425Z" fill="#FF5C00"/>
</g>
<path d="M131.146 266.109L111.73 282.912L131.146 299.596V290.539L122.212 282.912L131.146 275.166V266.109Z" fill="white"/>
<path d="M160.806 299.596L180.103 282.912L160.806 266.109V275.166L169.62 282.912L160.806 290.539V299.596Z" fill="white"/>
<path d="M144.13 305.078H135.911L147.822 260.627H156.041L144.13 305.078Z" fill="white"/>
<g filter="url(#filter4_d_29_19)">
<path d="M461.453 165.529H369.258C363.421 165.529 358.657 160.762 358.657 154.922V62.6839C358.657 56.8446 363.421 52.0777 369.258 52.0777H461.453C467.29 52.0777 472.055 56.8446 472.055 62.6839V154.922C472.055 160.762 467.409 165.529 461.453 165.529Z" fill="#FF5C00"/>
</g>
<path d="M443.467 87.829C441.085 87.829 438.941 88.3057 436.916 89.2591C434.176 79.6062 425.362 72.456 414.76 72.456C404.397 72.456 395.583 79.3679 392.724 88.7824C391.056 88.1865 389.15 87.829 387.245 87.829C378.787 87.829 371.879 94.7409 371.879 103.202H458.714C458.833 94.7409 451.924 87.829 443.467 87.829Z" fill="white"/>
<path d="M399.394 129.062L415.475 145.031L431.436 129.062H420.597V110.233H410.234V129.062H399.394Z" fill="white"/>
<g filter="url(#filter5_d_29_19)">
<path d="M92.5527 128.585H32.1611C26.3244 128.585 21.5598 123.819 21.5598 117.979V57.5596C21.5598 51.7202 26.3244 46.9534 32.1611 46.9534H92.5527C98.3893 46.9534 103.154 51.7202 103.154 57.5596V117.979C103.154 123.819 98.3893 128.585 92.5527 128.585Z" fill="#FF5C00"/>
</g>
<path d="M93.5057 56.6062H31.2083V118.933H93.5057V56.6062Z" fill="#3D3D89"/>
<path d="M47.4077 68.7617H41.6902V71.3834H47.4077V68.7617Z" fill="white"/>
<path d="M79.8073 68.7617H50.5049V71.3834H79.8073V68.7617Z" fill="#FF5C00"/>
<path d="M50.6239 77.5803H41.6902V80.2021H50.6239V77.5803Z" fill="white"/>
<path d="M82.9042 77.5803H53.6018V80.2021H82.9042V77.5803Z" fill="#FF5C00"/>
<path d="M47.4077 94.2642H41.6902V96.886H47.4077V94.2642Z" fill="white"/>
<path d="M79.8073 94.2642H50.5049V96.886H79.8073V94.2642Z" fill="#FF5C00"/>
<path d="M50.6239 103.083H41.6902V105.705H50.6239V103.083Z" fill="white"/>
<path d="M82.9042 103.083H53.6018V105.705H82.9042V103.083Z" fill="#FF5C00"/>
<path d="M45.3829 86.399H36.4492V89.0207H45.3829V86.399Z" fill="white"/>
<path d="M88.2645 86.399H48.3608V89.0207H88.2645V86.399Z" fill="#FF5C00"/>
<path d="M268.129 245.135H244.187V269.088H268.129V245.135Z" fill="#5353CB"/>
<path d="M302.911 245.135H278.969V269.088H302.911V245.135Z" fill="#5353CB"/>
<path d="M337.573 245.135H313.631V269.088H337.573V245.135Z" fill="#5353CB"/>
<path d="M385.101 180.187H349.128V182.808H385.101V180.187Z" fill="#5353CB"/>
<path d="M385.101 190.078H349.128V192.699H385.101V190.078Z" fill="#5353CB"/>
<path d="M385.101 199.969H349.128V202.591H385.101V199.969Z" fill="#5353CB"/>
</g>
<defs>
<filter id="filter0_d_29_19" x="345.205" y="272.031" width="98.7297" height="98.7617" filterUnits="userSpaceOnUse" color-interpolation-filters="sRGB">
<feFlood flood-opacity="0" result="BackgroundImageFix"/>
<feColorMatrix in="SourceAlpha" type="matrix" values="0 0 0 0 0 0 0 0 0 0 0 0 0 0 0 0 0 0 127 0" result="hardAlpha"/>
<feOffset dy="4"/>
<feGaussianBlur stdDeviation="7.5"/>
<feComposite in2="hardAlpha" operator="out"/>
<feColorMatrix type="matrix" values="0 0 0 0 0 0 0 0 0 0 0 0 0 0 0 0 0 0 0.25 0"/>
<feBlend mode="normal" in2="BackgroundImageFix" result="effect1_dropShadow_29_19"/>
<feBlend mode="normal" in="SourceGraphic" in2="effect1_dropShadow_29_19" result="shape"/>
</filter>
<filter id="filter1_d_29_19" x="111.5" y="83.1451" width="238.69" height="164.663" filterUnits="userSpaceOnUse" color-interpolation-filters="sRGB">
<feFlood flood-opacity="0" result="BackgroundImageFix"/>
<feColorMatrix in="SourceAlpha" type="matrix" values="0 0 0 0 0 0 0 0 0 0 0 0 0 0 0 0 0 0 127 0" result="hardAlpha"/>
<feOffset dy="4"/>
<feGaussianBlur stdDeviation="7.5"/>
<feComposite in2="hardAlpha" operator="out"/>
<feColorMatrix type="matrix" values="0 0 0 0 0 0 0 0 0 0 0 0 0 0 0 0 0 0 0.25 0"/>
<feBlend mode="normal" in2="BackgroundImageFix" result="effect1_dropShadow_29_19"/>
<feBlend mode="normal" in="SourceGraphic" in2="effect1_dropShadow_29_19" result="shape"/>
</filter>
<filter id="filter2_d_29_19" x="6.55981" y="136.176" width="111.594" height="111.632" filterUnits="userSpaceOnUse" color-interpolation-filters="sRGB">
<feFlood flood-opacity="0" result="BackgroundImageFix"/>
<feColorMatrix in="SourceAlpha" type="matrix" values="0 0 0 0 0 0 0 0 0 0 0 0 0 0 0 0 0 0 127 0" result="hardAlpha"/>
<feOffset dy="4"/>
<feGaussianBlur stdDeviation="7.5"/>
<feComposite in2="hardAlpha" operator="out"/>
<feColorMatrix type="matrix" values="0 0 0 0 0 0 0 0 0 0 0 0 0 0 0 0 0 0 0.25 0"/>
<feBlend mode="normal" in2="BackgroundImageFix" result="effect1_dropShadow_29_19"/>
<feBlend mode="normal" in="SourceGraphic" in2="effect1_dropShadow_29_19" result="shape"/>
</filter>
<filter id="filter3_d_29_19" x="79.5776" y="236.399" width="132.797" height="101.026" filterUnits="userSpaceOnUse" color-interpolation-filters="sRGB">
<feFlood flood-opacity="0" result="BackgroundImageFix"/>
<feColorMatrix in="SourceAlpha" type="matrix" values="0 0 0 0 0 0 0 0 0 0 0 0 0 0 0 0 0 0 127 0" result="hardAlpha"/>
<feOffset dy="4"/>
<feGaussianBlur stdDeviation="7.5"/>
<feComposite in2="hardAlpha" operator="out"/>
<feColorMatrix type="matrix" values="0 0 0 0 0 0 0 0 0 0 0 0 0 0 0 0 0 0 0.25 0"/>
<feBlend mode="normal" in2="BackgroundImageFix" result="effect1_dropShadow_29_19"/>
<feBlend mode="normal" in="SourceGraphic" in2="effect1_dropShadow_29_19" result="shape"/>
</filter>
<filter id="filter4_d_29_19" x="343.657" y="41.0777" width="143.398" height="143.451" filterUnits="userSpaceOnUse" color-interpolation-filters="sRGB">
<feFlood flood-opacity="0" result="BackgroundImageFix"/>
<feColorMatrix in="SourceAlpha" type="matrix" values="0 0 0 0 0 0 0 0 0 0 0 0 0 0 0 0 0 0 127 0" result="hardAlpha"/>
<feOffset dy="4"/>
<feGaussianBlur stdDeviation="7.5"/>
<feComposite in2="hardAlpha" operator="out"/>
<feColorMatrix type="matrix" values="0 0 0 0 0 0 0 0 0 0 0 0 0 0 0 0 0 0 0.25 0"/>
<feBlend mode="normal" in2="BackgroundImageFix" result="effect1_dropShadow_29_19"/>
<feBlend mode="normal" in="SourceGraphic" in2="effect1_dropShadow_29_19" result="shape"/>
</filter>
<filter id="filter5_d_29_19" x="6.55981" y="35.9534" width="111.594" height="111.632" filterUnits="userSpaceOnUse" color-interpolation-filters="sRGB">
<feFlood flood-opacity="0" result="BackgroundImageFix"/>
<feColorMatrix in="SourceAlpha" type="matrix" values="0 0 0 0 0 0 0 0 0 0 0 0 0 0 0 0 0 0 127 0" result="hardAlpha"/>
<feOffset dy="4"/>
<feGaussianBlur stdDeviation="7.5"/>
<feComposite in2="hardAlpha" operator="out"/>
<feColorMatrix type="matrix" values="0 0 0 0 0 0 0 0 0 0 0 0 0 0 0 0 0 0 0.25 0"/>
<feBlend mode="normal" in2="BackgroundImageFix" result="effect1_dropShadow_29_19"/>
<feBlend mode="normal" in="SourceGraphic" in2="effect1_dropShadow_29_19" result="shape"/>
</filter>
<clipPath id="clip0_29_19">
<rect width="501" height="414" fill="white"/>
</clipPath>
</defs>
</svg>
