<svg width="567" height="496" viewBox="0 0 567 496" fill="none" xmlns="http://www.w3.org/2000/svg">
<path d="M510.254 116.433C510.254 114.305 510.056 112.244 509.661 110.182L520 104.196L510.32 87.3037L500.046 93.2893C496.951 90.496 493.263 88.3013 489.18 86.9712V75H469.885V86.9712C468.107 87.5697 466.329 88.3678 464.683 89.2324C464.485 89.3654 464.288 89.4319 464.09 89.5649C463.893 89.6979 463.695 89.7644 463.498 89.8974C461.917 90.895 460.402 92.0256 458.954 93.2893L448.68 87.3037L439 104.196L449.273 110.182C448.878 112.044 448.68 113.973 448.615 115.835C448.615 116.034 448.615 116.3 448.615 116.5C448.615 116.7 448.615 116.966 448.615 117.165C448.68 119.027 448.878 120.956 449.273 122.818L439 128.804L448.68 145.696L458.954 139.711C462.115 142.571 465.868 144.699 469.82 146.029V158H489.115V145.962C491.024 145.297 492.934 144.433 494.778 143.369C496.622 142.304 498.334 141.041 499.915 139.644L510.254 145.696L519.934 128.87L509.595 122.818C510.056 120.756 510.254 118.628 510.254 116.433ZM492.144 130.2C492.078 130.267 491.946 130.333 491.881 130.4C491.551 130.732 491.222 130.998 490.827 131.264C490.629 131.397 490.498 131.53 490.3 131.663C490.037 131.863 489.707 132.062 489.444 132.262C489.18 132.395 488.983 132.595 488.72 132.728C488.456 132.861 488.259 132.994 487.995 133.127C487.666 133.26 487.337 133.459 487.007 133.592C486.81 133.659 486.612 133.792 486.415 133.858C486.02 134.058 485.559 134.191 485.163 134.324C485.032 134.39 484.966 134.39 484.834 134.457C483.122 134.989 481.344 135.255 479.434 135.255C469.161 135.255 460.863 126.875 460.863 116.5C460.863 113.973 461.39 111.512 462.246 109.317C462.312 109.184 462.312 109.118 462.378 108.985C462.576 108.586 462.707 108.187 462.905 107.854C463.037 107.588 463.168 107.389 463.3 107.123C463.432 106.923 463.563 106.657 463.695 106.458C463.893 106.125 464.156 105.726 464.42 105.393C464.485 105.327 464.551 105.194 464.617 105.127C466.066 103.199 467.91 101.603 470.083 100.339C478.973 95.1514 490.366 98.2107 495.502 107.189C496.424 108.852 497.083 110.581 497.478 112.31C497.478 112.443 497.544 112.51 497.544 112.643C497.61 113.108 497.741 113.507 497.807 113.973C497.807 114.172 497.873 114.372 497.873 114.571C497.939 114.904 497.939 115.303 497.939 115.635C497.939 115.901 497.939 116.234 497.939 116.5C497.939 116.766 497.939 117.099 497.939 117.365C497.939 117.697 497.873 118.096 497.873 118.429C497.873 118.628 497.807 118.828 497.807 119.027C497.741 119.493 497.676 119.892 497.61 120.357C497.61 120.49 497.544 120.557 497.544 120.69C497.149 122.419 496.49 124.148 495.568 125.811C494.646 127.54 493.461 128.937 492.144 130.2Z" fill="white"/>
<path d="M511.66 340.829C511.66 338.684 511.422 336.539 511.065 334.513L521.547 328.435L511.66 311.394L501.178 317.472C497.962 314.611 494.27 312.466 490.101 311.036V299H470.447V311.036C468.66 311.632 466.873 312.466 465.205 313.301C464.967 313.42 464.848 313.539 464.61 313.658C464.372 313.777 464.252 313.896 464.014 314.016C462.347 314.969 460.798 316.161 459.369 317.472L448.887 311.394L439 328.435L449.482 334.513C449.125 336.42 448.887 338.326 448.887 340.233C448.887 340.472 448.887 340.71 448.887 340.948C448.887 341.187 448.887 341.425 448.887 341.663C448.887 343.57 449.125 345.477 449.482 347.383L439 353.461L448.887 370.503L459.369 364.425C462.585 367.285 466.397 369.43 470.447 370.86V383.016H490.101V370.86C492.006 370.145 494.031 369.311 495.818 368.238C497.724 367.166 499.511 365.855 501.059 364.425L511.66 370.503L521.547 353.461L510.946 347.383C511.422 345.238 511.66 343.093 511.66 340.829ZM493.198 354.772C493.078 354.891 493.078 354.891 492.959 355.01C492.602 355.368 492.245 355.606 491.887 355.845C491.768 355.964 491.53 356.083 491.411 356.202C491.173 356.44 490.815 356.56 490.458 356.798C490.22 356.917 489.981 357.155 489.743 357.275C489.505 357.394 489.267 357.513 489.029 357.632C488.671 357.751 488.433 357.99 488.076 358.109C487.837 358.228 487.718 358.228 487.48 358.347C487.004 358.466 486.646 358.705 486.17 358.824C486.051 358.824 485.932 358.943 485.812 358.943C484.026 359.42 482.239 359.777 480.333 359.777C469.851 359.777 461.394 351.316 461.394 340.829C461.394 338.207 461.87 335.824 462.823 333.56C462.823 333.44 462.942 333.321 462.942 333.202C463.061 332.845 463.3 332.368 463.538 332.01C463.657 331.772 463.776 331.534 463.895 331.295C464.014 331.057 464.133 330.819 464.372 330.58C464.61 330.223 464.848 329.865 465.086 329.508C465.205 329.389 465.205 329.269 465.325 329.269C466.754 327.363 468.66 325.694 470.923 324.383C479.976 319.14 491.649 322.238 496.89 331.295C497.843 332.964 498.558 334.751 498.915 336.42C498.915 336.539 498.915 336.658 499.034 336.777C499.153 337.254 499.153 337.731 499.272 338.088C499.272 338.326 499.272 338.565 499.392 338.684C499.392 339.041 499.511 339.399 499.511 339.756C499.511 339.995 499.511 340.352 499.511 340.591C499.511 340.829 499.511 341.187 499.511 341.425C499.511 341.782 499.511 342.14 499.392 342.497C499.392 342.736 499.392 342.974 499.272 343.093C499.153 343.57 499.153 344.047 499.034 344.404C499.034 344.523 499.034 344.642 498.915 344.762C498.558 346.549 497.843 348.218 496.89 349.886C495.699 352.031 494.508 353.461 493.198 354.772Z" fill="white"/>
<path d="M210.295 379.497C209.223 376.756 207.913 374.135 206.364 371.632L216.966 358.523L195.644 341.363L185.043 354.472C179.444 352.326 173.489 351.373 167.414 351.731L161.339 336L135.848 345.891L141.923 361.622C139.898 363.29 137.992 365.197 136.205 367.223C135.967 367.461 135.848 367.699 135.61 367.938C135.372 368.176 135.252 368.415 135.014 368.653C133.347 370.798 131.917 373.062 130.726 375.446L114.169 372.943L110 399.995L126.557 402.617C127.034 405.238 127.629 407.86 128.582 410.363C128.701 410.72 128.82 410.959 128.939 411.316C129.058 411.554 129.178 411.912 129.297 412.15C130.25 414.653 131.56 417.036 132.989 419.301L122.507 432.29L143.829 449.451L154.311 436.342C160.029 438.487 165.984 439.321 171.94 439.083L178.015 454.813L203.506 444.922L197.431 429.192C199.694 427.404 201.719 425.259 203.625 422.876C205.531 420.492 207.198 417.99 208.509 415.368L225.304 417.99L229.473 390.938L212.678 388.197C212.201 385.337 211.486 382.358 210.295 379.497ZM193.381 406.788C193.262 406.907 193.262 407.026 193.143 407.264C192.904 407.86 192.547 408.337 192.19 408.933C192.071 409.171 191.832 409.409 191.713 409.648C191.475 410.124 191.118 410.482 190.879 410.839C190.641 411.197 190.403 411.435 190.165 411.793C189.927 412.15 189.688 412.389 189.331 412.746C188.974 413.104 188.616 413.461 188.259 413.819C188.021 414.057 187.782 414.295 187.663 414.415C187.187 414.891 186.71 415.249 186.234 415.725C186.115 415.845 185.996 415.964 185.877 416.083C183.852 417.632 181.588 418.943 179.206 419.896C165.627 425.14 150.38 418.466 145.02 404.762C143.71 401.425 143.114 397.969 143.233 394.632C143.233 394.513 143.233 394.275 143.233 394.155C143.233 393.56 143.352 392.964 143.352 392.368C143.352 392.01 143.471 391.653 143.471 391.295C143.471 390.938 143.591 390.58 143.71 390.223C143.829 389.627 143.948 389.031 144.067 388.435C144.067 388.316 144.186 388.078 144.186 387.959C145.139 384.741 146.688 381.642 148.951 378.902C158.123 367.58 174.68 365.793 185.996 374.85C188.021 376.518 189.807 378.425 191.237 380.57C191.356 380.689 191.356 380.808 191.475 380.927C191.832 381.404 192.19 382 192.428 382.596C192.547 382.834 192.666 383.073 192.785 383.43C193.024 383.907 193.262 384.383 193.381 384.86C193.5 385.218 193.738 385.575 193.857 385.933C193.976 386.29 194.096 386.648 194.215 387.124C194.334 387.601 194.572 388.078 194.691 388.554C194.81 388.793 194.81 389.15 194.929 389.389C195.049 389.984 195.168 390.58 195.287 391.295C195.287 391.415 195.287 391.653 195.406 391.772C195.763 394.275 195.763 396.896 195.406 399.518C195.287 402.14 194.453 404.523 193.381 406.788Z" fill="white"/>
<path d="M363.321 441.767H220.795C203.679 441.767 189.695 427.879 189.695 410.631V74.9609C189.695 57.8246 203.567 43.8243 220.795 43.8243H363.321C380.438 43.8243 394.422 57.7126 394.422 74.9609V410.743C394.422 427.879 380.438 441.767 363.321 441.767Z" fill="url(#paint0_linear_35_680)"/>
<path d="M363.321 43.8243H220.795C203.679 43.8243 189.807 57.7126 189.807 74.9609V410.743C189.807 427.879 203.679 441.879 220.795 441.879H363.321C380.438 441.879 394.422 427.991 394.422 410.743V74.9609C394.422 57.8246 380.438 43.8243 363.321 43.8243ZM390.618 411.863C390.618 426.647 378.648 438.631 363.881 438.631H220.348C205.581 438.631 193.61 426.647 193.61 411.863V73.8409C193.61 59.0566 205.581 47.0724 220.348 47.0724H363.769C378.536 47.0724 390.506 59.0566 390.506 73.8409V411.863H390.618Z" fill="url(#paint1_linear_35_680)"/>
<path d="M386.591 74.9609V410.743C386.591 423.287 376.634 433.591 364.216 433.927C363.881 433.927 363.657 433.927 363.433 433.927H220.795C220.46 433.927 220.236 433.927 220.012 433.927C207.594 433.479 197.638 423.287 197.638 410.743V74.9609C197.638 62.1927 208.042 51.6645 220.795 51.6645H363.321C376.187 51.6645 386.591 62.0807 386.591 74.9609Z" fill="url(#paint2_linear_35_680)"/>
<g opacity="0.45">
<path d="M386.591 74.9609V410.743C386.591 423.287 376.634 433.591 364.216 433.927C363.881 433.927 363.657 433.927 363.433 433.927H220.795C220.46 433.927 220.236 433.927 220.012 433.927C207.594 433.479 197.638 423.287 197.638 410.743V74.9609C197.638 62.1927 208.042 51.6645 220.795 51.6645H363.321C376.187 51.6645 386.591 62.0807 386.591 74.9609Z" fill="#26265F"/>
</g>
<path d="M386.591 74.9609V410.743C386.591 423.287 376.634 433.591 364.216 433.927C363.881 433.927 363.657 433.927 363.433 433.927H220.795C220.46 433.927 220.236 433.927 220.012 433.927C207.594 433.479 197.638 423.287 197.638 410.743V74.9609C197.638 62.1927 208.042 51.6645 220.795 51.6645H363.321C376.187 51.6645 386.591 62.0807 386.591 74.9609Z" fill="url(#paint3_linear_35_680)"/>
<path d="M348.89 231.204H235.339C226.836 231.204 220.012 224.371 220.012 215.859V137.234C220.012 128.722 226.836 121.89 235.339 121.89H348.89C357.392 121.89 364.216 128.722 364.216 137.234V215.859C364.104 224.371 357.28 231.204 348.89 231.204Z" fill="#5353CB"/>
<path d="M344.191 109.457H239.926C234.891 109.457 230.752 105.313 230.752 100.273C230.752 95.2332 234.891 91.0892 239.926 91.0892H344.191C349.225 91.0892 353.365 95.2332 353.365 100.273C353.365 105.425 349.225 109.457 344.191 109.457Z" stroke="#5353CB" stroke-miterlimit="10"/>
<path d="M370.929 70.2568H360.412C359.853 70.2568 359.406 69.8088 359.406 69.2488V69.0248C359.406 68.4648 359.853 68.0168 360.412 68.0168H370.929C371.488 68.0168 371.935 68.4648 371.935 69.0248V69.2488C371.935 69.8088 371.488 70.2568 370.929 70.2568Z" fill="#5353CB"/>
<path d="M370.929 74.7369H360.412C359.853 74.7369 359.406 74.2889 359.406 73.7289V73.5049C359.406 72.9448 359.853 72.4968 360.412 72.4968H370.929C371.488 72.4968 371.935 72.9448 371.935 73.5049V73.7289C371.935 74.2889 371.488 74.7369 370.929 74.7369Z" fill="#5353CB"/>
<path d="M370.929 79.329H360.412C359.853 79.329 359.406 78.8809 359.406 78.3209V78.0969C359.406 77.5369 359.853 77.0889 360.412 77.0889H370.929C371.488 77.0889 371.935 77.5369 371.935 78.0969V78.3209C371.935 78.7689 371.488 79.329 370.929 79.329Z" fill="#5353CB"/>
<path d="M227.396 72.7208L220.572 66.7847C220.46 66.6727 220.236 66.6727 220.012 66.7847L213.188 72.7208C212.964 72.9448 213.076 73.3929 213.412 73.3929H214.866C215.09 73.3929 215.314 73.6169 215.314 73.8409V79.329C215.314 79.553 215.537 79.777 215.761 79.777H218.446C218.67 79.777 218.894 79.553 218.894 79.329V76.3049C218.894 76.0809 219.117 75.8569 219.341 75.8569H221.69C221.914 75.8569 222.138 76.0809 222.138 76.3049V79.329C222.138 79.553 222.362 79.777 222.585 79.777H225.27C225.494 79.777 225.718 79.553 225.718 79.329V73.8409C225.718 73.6169 225.941 73.3929 226.165 73.3929H227.62C227.508 73.3929 227.62 72.9448 227.396 72.7208Z" fill="#5353CB"/>
<path d="M319.803 258.308H264.314C260.622 258.308 257.601 255.284 257.601 251.588C257.601 247.892 260.622 244.868 264.314 244.868H319.803C323.494 244.868 326.515 247.892 326.515 251.588C326.515 255.396 323.494 258.308 319.803 258.308Z" fill="#5353CB"/>
<path d="M312.083 268.5H272.145V272.308H312.083V268.5Z" fill="#5353CB"/>
<path d="M323.942 277.124H260.175V280.932H323.942V277.124Z" fill="#5353CB"/>
<path opacity="0.3" d="M364.104 314.981V433.927C363.769 433.927 363.545 433.927 363.321 433.927H220.795C220.46 433.927 220.236 433.927 220.012 433.927V314.981C220.012 308.261 225.494 302.773 232.206 302.773H351.91C358.734 302.773 364.104 308.261 364.104 314.981Z" fill="#5353CB"/>
<path d="M337.367 357.206H246.75C242.722 357.206 239.59 353.958 239.59 350.038V326.965C239.59 322.933 242.834 319.797 246.75 319.797H337.367C341.394 319.797 344.527 323.045 344.527 326.965V350.038C344.527 353.958 341.394 357.206 337.367 357.206Z" fill="#5353CB"/>
<path d="M337.367 405.255H246.75C242.722 405.255 239.59 402.007 239.59 398.087V375.014C239.59 370.982 242.834 367.846 246.75 367.846H337.367C341.394 367.846 344.527 371.094 344.527 375.014V398.087C344.527 402.007 341.394 405.255 337.367 405.255Z" fill="#5353CB"/>
<path d="M344.527 420.935V433.927H239.59V420.935C239.59 416.903 242.834 413.767 246.75 413.767H337.367C341.394 413.767 344.527 417.015 344.527 420.935Z" fill="#5353CB"/>
<path d="M377.082 410.743C377.865 410.743 378.424 410.183 378.424 409.399V102.625C378.424 101.841 377.865 101.281 377.082 101.281C376.298 101.281 375.739 101.841 375.739 102.625V409.399C375.739 410.071 376.41 410.743 377.082 410.743Z" fill="#5353CB"/>
<path d="M377.193 265.812C375.515 265.812 374.173 264.468 374.173 262.788V244.868C374.173 243.188 375.515 241.844 377.193 241.844C378.871 241.844 380.214 243.188 380.214 244.868V262.788C380.102 264.468 378.76 265.812 377.193 265.812Z" fill="#5353CB"/>
<path d="M474.858 60.4006H342.513C335.241 60.4006 329.312 54.4645 329.312 47.1844C329.312 39.9043 335.241 33.9682 342.513 33.9682H474.858C482.13 33.9682 488.059 39.9043 488.059 47.1844C488.059 54.5765 482.13 60.4006 474.858 60.4006Z" fill="white"/>
<path d="M473.628 52.3365L470.383 48.6404C471.838 46.7364 471.838 44.1603 470.16 42.2563C468.37 40.2403 465.237 40.0163 463.112 41.8083C461.098 43.6003 460.874 46.7364 462.664 48.8644C464.23 50.6565 466.915 50.9925 468.929 49.8724L472.173 53.5685C472.509 53.9045 473.068 54.0165 473.404 53.6805C473.963 53.3445 473.963 52.6725 473.628 52.3365ZM464.007 47.9684C462.776 46.5124 462.888 44.3844 464.342 43.0403C465.797 41.8083 467.922 41.9203 469.265 43.3763C470.495 44.8324 470.383 46.9604 468.929 48.3044C467.363 49.5364 465.237 49.3124 464.007 47.9684Z" fill="#7171F2"/>
<g filter="url(#filter0_d_35_680)">
<path d="M473.18 273.764V442.439C473.18 450.951 466.244 457.896 457.742 457.896H353.588C345.086 457.896 338.15 450.951 338.15 442.439V273.764C338.15 265.252 345.086 258.308 353.588 258.308H457.742C466.244 258.308 473.18 265.252 473.18 273.764Z" fill="#FF5C00"/>
</g>
<path opacity="0.5" d="M454.05 321.477H357.28C353.924 321.477 351.239 318.789 351.239 315.429V280.932C351.239 277.572 353.924 274.884 357.28 274.884H454.05C457.406 274.884 460.091 277.572 460.091 280.932V315.429C460.091 318.789 457.406 321.477 454.05 321.477Z" fill="#AF3E3E"/>
<path opacity="0.5" d="M454.05 374.902H357.28C353.924 374.902 351.239 372.214 351.239 368.854V334.357C351.239 330.997 353.924 328.309 357.28 328.309H454.05C457.406 328.309 460.091 330.997 460.091 334.357V368.854C460.091 372.214 457.406 374.902 454.05 374.902Z" fill="#AF3E3E"/>
<path opacity="0.5" d="M454.05 428.327H357.28C353.924 428.327 351.239 425.639 351.239 422.279V387.782C351.239 384.422 353.924 381.734 357.28 381.734H454.05C457.406 381.734 460.091 384.422 460.091 387.782V422.279C460.091 425.639 457.406 428.327 454.05 428.327Z" fill="#AF3E3E"/>
<path opacity="0.5" d="M420.376 288.101H396.324C394.645 288.101 393.191 286.645 393.191 284.965C393.191 283.285 394.645 281.828 396.324 281.828H420.376C422.054 281.828 423.509 283.285 423.509 284.965C423.509 286.757 422.166 288.101 420.376 288.101Z" fill="white"/>
<path opacity="0.5" d="M424.851 294.261H393.191V297.509H424.851V294.261Z" fill="white"/>
<path opacity="0.5" d="M437.269 300.869H393.191V304.117H437.269V300.869Z" fill="white"/>
<path d="M448.344 305.237L449.463 307.589C449.575 307.925 449.911 308.037 450.246 308.149L452.819 308.485C453.602 308.597 453.938 309.605 453.379 310.165L451.477 312.069C451.253 312.293 451.141 312.629 451.141 312.965L451.589 315.541C451.701 316.325 450.917 316.997 450.134 316.549L447.785 315.317C447.449 315.205 447.114 315.205 446.89 315.317L444.541 316.549C443.869 316.885 442.974 316.325 443.086 315.541L443.534 312.965C443.534 312.629 443.534 312.293 443.198 312.069L441.296 310.165C440.737 309.605 441.073 308.597 441.856 308.485L444.429 308.149C444.764 308.149 444.988 307.925 445.212 307.589L446.331 305.237C447.002 304.565 448.009 304.565 448.344 305.237Z" fill="url(#paint4_linear_35_680)"/>
<path d="M383.234 309.941H361.867C360.077 309.941 358.622 308.485 358.622 306.693V285.301C358.622 283.509 360.077 282.052 361.867 282.052H383.234C385.024 282.052 386.479 283.509 386.479 285.301V306.693C386.591 308.373 385.024 309.941 383.234 309.941Z" fill="white"/>
<path d="M376.186 290.789C376.186 292.805 374.508 294.373 372.607 294.373C370.593 294.373 369.027 292.693 369.027 290.789C369.027 288.885 370.705 287.205 372.607 287.205C374.62 287.093 376.186 288.773 376.186 290.789Z" fill="#FF5C00"/>
<path d="M377.865 305.573H367.125C366.23 305.573 365.559 304.901 365.559 304.005V301.877C365.559 299.077 367.796 296.837 370.593 296.837H374.397C377.193 296.837 379.431 299.077 379.431 301.877V304.005C379.431 304.901 378.76 305.573 377.865 305.573Z" fill="#FF5C00"/>
<path opacity="0.5" d="M420.376 340.406H396.324C394.645 340.406 393.191 338.949 393.191 337.269C393.191 335.589 394.645 334.133 396.324 334.133H420.376C422.054 334.133 423.509 335.589 423.509 337.269C423.509 339.061 422.166 340.406 420.376 340.406Z" fill="white"/>
<path opacity="0.5" d="M424.851 346.566H393.191V349.814H424.851V346.566Z" fill="white"/>
<path opacity="0.5" d="M437.269 353.174H393.191V356.422H437.269V353.174Z" fill="white"/>
<path d="M448.344 357.542L449.463 359.894C449.575 360.23 449.911 360.342 450.246 360.454L452.819 360.79C453.602 360.902 453.938 361.91 453.379 362.47L451.477 364.374C451.253 364.598 451.141 364.934 451.141 365.27L451.589 367.846C451.701 368.63 450.917 369.302 450.134 368.854L447.785 367.622C447.449 367.51 447.114 367.51 446.89 367.622L444.541 368.854C443.869 369.19 442.974 368.63 443.086 367.846L443.534 365.27C443.534 364.934 443.534 364.598 443.198 364.374L441.296 362.47C440.737 361.91 441.073 360.902 441.856 360.79L444.429 360.454C444.764 360.454 444.988 360.23 445.212 359.894L446.331 357.542C447.002 356.87 448.009 356.87 448.344 357.542Z" fill="url(#paint5_linear_35_680)"/>
<path d="M383.234 362.246H361.867C360.077 362.246 358.622 360.79 358.622 358.998V337.605C358.622 335.813 360.077 334.357 361.867 334.357H383.234C385.024 334.357 386.479 335.813 386.479 337.605V358.886C386.591 360.678 385.024 362.246 383.234 362.246Z" fill="#5353CB"/>
<path d="M376.186 343.094C376.186 345.11 374.508 346.678 372.607 346.678C370.593 346.678 369.027 344.998 369.027 343.094C369.027 341.078 370.705 339.51 372.607 339.51C374.62 339.398 376.186 341.078 376.186 343.094Z" fill="white"/>
<path d="M377.865 357.878H367.125C366.23 357.878 365.559 357.206 365.559 356.31V354.182C365.559 351.382 367.796 349.142 370.593 349.142H374.397C377.193 349.142 379.431 351.382 379.431 354.182V356.31C379.431 357.206 378.76 357.878 377.865 357.878Z" fill="white"/>
<path opacity="0.5" d="M420.376 394.502H396.324C394.645 394.502 393.191 393.046 393.191 391.366C393.191 389.686 394.645 388.23 396.324 388.23H420.376C422.054 388.23 423.509 389.686 423.509 391.366C423.509 393.158 422.166 394.502 420.376 394.502Z" fill="white"/>
<path opacity="0.5" d="M424.851 400.663H393.191V403.911H424.851V400.663Z" fill="white"/>
<path opacity="0.5" d="M437.269 407.271H393.191V410.519H437.269V407.271Z" fill="white"/>
<path d="M448.344 411.751L449.463 414.103C449.575 414.439 449.911 414.551 450.246 414.663L452.819 414.999C453.602 415.111 453.938 416.119 453.379 416.679L451.477 418.583C451.253 418.807 451.141 419.143 451.141 419.479L451.589 422.055C451.701 422.839 450.917 423.511 450.134 423.063L447.785 421.831C447.449 421.719 447.114 421.719 446.89 421.831L444.541 423.063C443.869 423.399 442.974 422.839 443.086 422.055L443.534 419.479C443.534 419.143 443.534 418.807 443.198 418.583L441.296 416.679C440.737 416.119 441.073 415.111 441.856 414.999L444.429 414.663C444.764 414.663 444.988 414.439 445.212 414.103L446.331 411.751C447.002 410.967 448.009 410.967 448.344 411.751Z" fill="url(#paint6_linear_35_680)"/>
<path d="M383.234 416.343H361.867C360.077 416.343 358.622 414.887 358.622 413.095V391.702C358.622 389.91 360.077 388.454 361.867 388.454H383.234C385.024 388.454 386.479 389.91 386.479 391.702V413.095C386.591 414.887 385.024 416.343 383.234 416.343Z" fill="#4B82DD"/>
<path d="M376.186 397.19C376.186 399.207 374.508 400.775 372.607 400.775C370.593 400.775 369.027 399.095 369.027 397.19C369.027 395.174 370.705 393.606 372.607 393.606C374.62 393.494 376.186 395.174 376.186 397.19Z" fill="white"/>
<path d="M377.865 411.975H367.125C366.23 411.975 365.559 411.303 365.559 410.407V408.279C365.559 405.479 367.796 403.239 370.593 403.239H374.397C377.193 403.239 379.431 405.479 379.431 408.279V410.407C379.431 411.303 378.76 411.975 377.865 411.975Z" fill="white"/>
<path opacity="0.5" d="M398.337 441.767C398.337 443.223 397.107 444.343 395.764 444.343C394.31 444.343 393.191 443.111 393.191 441.767C393.191 440.311 394.422 439.191 395.764 439.191C397.107 439.191 398.337 440.311 398.337 441.767Z" fill="#AF3E82"/>
<path opacity="0.5" d="M418.139 441.767C418.139 443.223 416.908 444.343 415.566 444.343C414.111 444.343 412.993 443.111 412.993 441.767C412.993 440.311 414.223 439.191 415.566 439.191C417.02 439.191 418.139 440.311 418.139 441.767Z" fill="#AF3E82"/>
<path opacity="0.5" d="M408.518 441.767C408.518 443.335 407.175 444.679 405.609 444.679C404.043 444.679 402.7 443.335 402.7 441.767C402.7 440.199 404.043 438.855 405.609 438.855C407.175 438.855 408.518 440.199 408.518 441.767Z" fill="#F1CEB9"/>
<g filter="url(#filter1_d_35_680)">
<path d="M238.359 104.641V208.243C238.359 215.747 232.318 221.795 224.823 221.795H85.5412C78.0458 221.795 72.0046 215.747 72.0046 208.243V104.641C72.0046 97.1373 78.0458 91.0892 85.5412 91.0892H224.823C232.318 91.0892 238.359 97.2493 238.359 104.641Z" fill="#FF5C00"/>
</g>
<path opacity="0.55" d="M221.578 196.147C221.578 196.931 221.243 197.603 220.795 198.051C220.348 198.499 219.677 198.835 218.893 198.835H98.8541C97.3997 198.835 96.1691 197.603 96.1691 196.147C96.1691 195.363 96.5047 194.691 96.9522 194.243C97.3997 193.795 98.071 193.459 98.8541 193.459H218.893C220.348 193.459 221.578 194.691 221.578 196.147Z" fill="#BF4B5C"/>
<path d="M172.914 196.147C172.914 196.931 172.578 197.603 172.131 198.051C171.683 198.499 171.012 198.835 170.229 198.835H98.8541C97.3997 198.835 96.1691 197.603 96.1691 196.147C96.1691 195.363 96.5047 194.691 96.9522 194.243C97.3997 193.795 98.071 193.459 98.8541 193.459H170.229C171.683 193.459 172.914 194.691 172.914 196.147Z" fill="white"/>
<path d="M178.284 196.147C178.284 199.171 175.822 201.523 172.914 201.523C169.893 201.523 167.544 199.059 167.544 196.147C167.544 193.123 170.005 190.771 172.914 190.771C175.822 190.659 178.284 193.123 178.284 196.147Z" fill="#FCF7F8"/>
<path d="M175.599 196.147C175.599 197.603 174.368 198.835 172.914 198.835C171.459 198.835 170.229 197.603 170.229 196.147C170.229 194.691 171.459 193.459 172.914 193.459C174.368 193.459 175.599 194.691 175.599 196.147Z" fill="url(#paint7_linear_35_680)"/>
<path d="M180.969 208.803H129.395V213.731H180.969V208.803Z" fill="white"/>
<path d="M95.3861 107.105C96.4982 107.105 97.3998 106.203 97.3998 105.089C97.3998 103.976 96.4982 103.073 95.3861 103.073C94.2739 103.073 93.3723 103.976 93.3723 105.089C93.3723 106.203 94.2739 107.105 95.3861 107.105Z" fill="white"/>
<path d="M88.45 107.105C87.3312 107.105 86.4362 106.209 86.4362 105.089C86.4362 103.969 87.3312 103.073 88.45 103.073C89.5687 103.073 90.4637 103.969 90.4637 105.089C90.4637 106.209 89.5687 107.105 88.45 107.105Z" fill="white"/>
<path d="M81.6257 107.105C82.7378 107.105 83.6394 106.203 83.6394 105.089C83.6394 103.976 82.7378 103.073 81.6257 103.073C80.5136 103.073 79.612 103.976 79.612 105.089C79.612 106.203 80.5136 107.105 81.6257 107.105Z" fill="white"/>
<path d="M153.672 185.507C147.071 185.507 141.813 180.131 141.813 173.635C141.813 167.026 147.183 161.762 153.672 161.762C160.16 161.762 165.53 167.138 165.53 173.635C165.642 180.243 160.272 185.507 153.672 185.507ZM153.672 163.554C148.19 163.554 143.603 168.035 143.603 173.635C143.603 179.123 148.078 183.715 153.672 183.715C159.154 183.715 163.74 179.235 163.74 173.635C163.74 168.147 159.265 163.554 153.672 163.554Z" fill="white"/>
<path d="M158.93 174.531L152.553 178.563C151.882 179.011 150.987 178.451 150.987 177.667V169.603C150.987 168.819 151.882 168.259 152.553 168.707L158.93 172.739C159.601 173.187 159.601 174.083 158.93 174.531Z" fill="white"/>
<path d="M182.759 174.419L177.277 177.891C176.718 178.227 175.934 177.891 175.934 177.107V170.275C175.934 169.603 176.718 169.155 177.277 169.491L182.759 172.963C183.318 173.187 183.318 174.083 182.759 174.419Z" fill="white"/>
<path d="M188.017 174.419L182.535 177.891C181.976 178.227 181.192 177.891 181.192 177.107V170.275C181.192 169.603 181.976 169.155 182.535 169.491L188.017 172.963C188.576 173.187 188.576 174.083 188.017 174.419Z" fill="white"/>
<path d="M127.605 172.851L133.087 169.379C133.647 169.043 134.43 169.379 134.43 170.163V176.995C134.43 177.667 133.647 178.115 133.087 177.779L127.605 174.307C127.046 174.083 127.046 173.187 127.605 172.851Z" fill="white"/>
<path d="M122.347 172.851L127.829 169.379C128.389 169.043 129.172 169.379 129.172 170.163V176.995C129.172 177.667 128.389 178.115 127.829 177.779L122.347 174.307C121.788 174.083 121.788 173.187 122.347 172.851Z" fill="white"/>
<path d="M146.176 110.241C143.603 110.241 141.589 112.258 141.589 114.834V143.394C140.918 143.17 140.135 143.058 139.352 143.058C136.331 143.058 133.758 144.962 133.758 147.202C133.758 149.442 136.22 151.346 139.352 151.346C142.373 151.346 144.946 149.442 144.946 147.202C144.946 147.09 144.946 146.978 144.946 146.866V118.418H170.453V143.282C169.781 143.058 168.998 142.946 168.103 142.946C165.083 142.946 162.51 144.85 162.51 147.09C162.51 149.33 164.971 151.234 168.103 151.234C171.124 151.234 173.473 149.442 173.585 147.202V110.241H146.176Z" fill="white"/>
<path d="M106.685 261.668C106.685 250.58 115.635 241.62 126.71 241.62H147.295C151.658 241.62 155.238 238.036 155.238 233.668V221.795" stroke="white" stroke-width="2" stroke-miterlimit="10"/>
<path d="M203.791 261.668C203.791 250.58 194.841 241.62 183.765 241.62H163.181C158.818 241.62 155.238 238.036 155.238 233.668V221.795V263.684" stroke="white" stroke-width="2" stroke-miterlimit="10"/>
<path d="M164.411 298.181H145.505C139.352 298.181 134.43 293.253 134.43 287.093V268.164C134.43 262.004 139.352 257.076 145.505 257.076H164.411C170.564 257.076 175.487 262.004 175.487 268.164V287.093C175.487 293.141 170.453 298.181 164.411 298.181Z" fill="#FF5C00"/>
<path d="M155.126 289.445C148.526 289.445 143.268 284.069 143.268 277.572C143.268 270.964 148.637 265.7 155.126 265.7C161.727 265.7 166.985 271.076 166.985 277.572C167.096 284.181 161.727 289.445 155.126 289.445ZM155.126 267.492C149.644 267.492 145.058 271.972 145.058 277.572C145.058 283.06 149.532 287.653 155.126 287.653C160.608 287.653 165.195 283.172 165.195 277.572C165.195 272.084 160.72 267.492 155.126 267.492Z" fill="white"/>
<path d="M160.384 278.468L154.007 282.5C153.336 282.949 152.441 282.388 152.441 281.604V273.652C152.441 272.868 153.336 272.308 154.007 272.756L160.384 276.788C161.055 277.124 161.055 278.02 160.384 278.468Z" fill="white"/>
<path d="M214.53 298.181H195.624C189.471 298.181 184.549 293.253 184.549 287.093V268.164C184.549 262.004 189.471 257.076 195.624 257.076H214.53C220.683 257.076 225.606 262.004 225.606 268.164V287.093C225.606 293.141 220.683 298.181 214.53 298.181Z" fill="#4B82DD"/>
<path d="M205.916 278.692L198.085 283.621C197.19 284.181 196.183 283.509 196.183 282.5V272.644C196.183 271.636 197.302 271.076 198.085 271.524L205.916 276.452C206.699 277.012 206.699 278.132 205.916 278.692Z" fill="white"/>
<path d="M213.524 278.692L205.692 283.621C204.798 284.181 203.791 283.509 203.791 282.5V272.644C203.791 271.636 204.909 271.076 205.692 271.524L213.524 276.452C214.307 277.012 214.307 278.132 213.524 278.692Z" fill="white"/>
<path d="M114.628 298.181H95.7216C89.5686 298.181 84.6462 293.253 84.6462 287.093V268.164C84.6462 262.004 89.5686 257.076 95.7216 257.076H114.628C120.781 257.076 125.704 262.004 125.704 268.164V287.093C125.815 293.141 120.781 298.181 114.628 298.181Z" fill="#4B82DD"/>
<path d="M104.448 276.452L112.279 271.524C113.174 270.964 114.181 271.636 114.181 272.644V282.5C114.181 283.509 113.062 284.069 112.279 283.621L104.448 278.692C103.553 278.132 103.553 277.012 104.448 276.452Z" fill="white"/>
<path d="M96.8404 276.452L104.671 271.524C105.566 270.964 106.573 271.636 106.573 272.644V282.5C106.573 283.509 105.455 284.069 104.671 283.621L96.8404 278.692C96.0572 278.132 96.0572 277.012 96.8404 276.452Z" fill="white"/>
<g filter="url(#filter2_d_35_680)">
<path d="M458.637 231.428H388.716C380.773 231.428 374.285 224.931 374.285 216.979V131.298C374.285 123.346 380.773 116.85 388.716 116.85H458.637C466.58 116.85 473.068 123.346 473.068 131.298V216.979C473.18 224.931 466.692 231.428 458.637 231.428Z" fill="#5353CB"/>
</g>
<path d="M447.449 154.93C447.449 163.218 443.31 170.499 436.933 174.755C433.13 177.331 428.655 178.787 423.732 178.787C418.81 178.787 414.335 177.331 410.531 174.755C404.155 170.499 400.015 163.218 400.015 154.93C400.015 141.826 410.643 131.186 423.732 131.186C436.822 131.074 447.449 141.714 447.449 154.93Z" fill="#282669"/>
<path d="M431.773 151.639C433.036 147.175 430.444 142.532 425.986 141.268C421.527 140.004 416.889 142.599 415.627 147.063C414.364 151.526 416.956 156.17 421.414 157.433C425.873 158.697 430.511 156.103 431.773 151.639Z" fill="white"/>
<path d="M436.933 174.643C433.13 177.219 428.655 178.675 423.732 178.675C418.81 178.675 414.335 177.219 410.531 174.643C410.867 167.698 416.684 162.098 423.732 162.098C430.78 162.21 436.598 167.698 436.933 174.643Z" fill="white"/>
<path d="M445.659 198.051H401.805C398.785 198.051 396.435 195.587 396.435 192.675C396.435 189.651 398.897 187.299 401.805 187.299H445.659C448.68 187.299 451.029 189.763 451.029 192.675C451.029 195.699 448.68 198.051 445.659 198.051Z" fill="#FF5C00"/>
<path opacity="0.5" d="M448.904 205.443H398.449V209.027H448.904V205.443Z" fill="white"/>
<path opacity="0.5" d="M438.835 213.507H408.63V217.091H438.835V213.507Z" fill="white"/>
<path d="M396.771 129.506C395.764 129.506 394.981 128.722 394.981 127.714C394.981 126.706 395.764 125.922 396.771 125.922C397.778 125.922 398.561 126.706 398.561 127.714C398.449 128.722 397.666 129.506 396.771 129.506Z" fill="white"/>
<path d="M390.618 129.506C389.611 129.506 388.828 128.722 388.828 127.714C388.828 126.706 389.611 125.922 390.618 125.922C391.625 125.922 392.408 126.706 392.408 127.714C392.296 128.722 391.513 129.506 390.618 129.506Z" fill="white"/>
<path d="M384.465 129.506C383.458 129.506 382.675 128.722 382.675 127.714C382.675 126.706 383.458 125.922 384.465 125.922C385.472 125.922 386.255 126.706 386.255 127.714C386.143 128.722 385.36 129.506 384.465 129.506Z" fill="white"/>
<path d="M293.177 82.465V132.642H290.94V82.465C290.94 76.3049 286.017 71.3768 279.864 71.3768H167.432C161.279 71.3768 156.357 76.3049 156.357 82.465V91.2012H154.119V82.465C154.119 75.0729 160.048 69.1368 167.432 69.1368H279.864C287.248 69.1368 293.177 75.0729 293.177 82.465Z" fill="url(#paint8_linear_35_680)"/>
<path d="M295.414 132.642C295.414 134.434 293.96 136.002 292.058 136.002C290.268 136.002 288.702 134.546 288.702 132.642C288.702 130.85 290.156 129.282 292.058 129.282C293.96 129.282 295.414 130.738 295.414 132.642Z" fill="white"/>
<path d="M399.568 478.728H291.835C282.997 478.728 275.837 471.56 275.837 462.712V346.678H278.074V462.712C278.074 470.328 284.227 476.488 291.835 476.488H399.568C407.175 476.488 413.328 470.328 413.328 462.712V457.896H415.566V462.712C415.566 471.56 408.406 478.728 399.568 478.728Z" fill="url(#paint9_linear_35_680)"/>
<path d="M277.067 349.926C278.921 349.926 280.423 348.421 280.423 346.566C280.423 344.71 278.921 343.206 277.067 343.206C275.214 343.206 273.711 344.71 273.711 346.566C273.711 348.421 275.214 349.926 277.067 349.926Z" fill="white"/>
<path d="M494.995 298.629H460.091V296.389H494.995C503.162 296.389 509.763 289.781 509.763 281.604V192.339C509.763 184.163 503.162 177.555 494.995 177.555H479.557V175.315H494.995C504.393 175.315 512 182.931 512 192.339V281.604C512 291.013 504.393 298.629 494.995 298.629Z" fill="url(#paint10_linear_35_680)"/>
<path d="M480.452 180.019C482.305 180.019 483.808 178.514 483.808 176.659C483.808 174.803 482.305 173.299 480.452 173.299C478.598 173.299 477.096 174.803 477.096 176.659C477.096 178.514 478.598 180.019 480.452 180.019Z" fill="white"/>
<path d="M369.027 97.4733C369.027 99.2653 367.572 100.833 365.67 100.833C363.769 100.833 362.314 99.3773 362.314 97.4733C362.314 95.6812 363.769 94.1132 365.67 94.1132C367.572 94.1132 369.027 95.6812 369.027 97.4733Z" fill="white"/>
<path d="M399.792 98.7053H365.67V96.4653H399.792C405.05 96.4653 409.413 92.2092 409.413 86.8331V60.4006H411.65V86.8331C411.65 93.4412 406.392 98.7053 399.792 98.7053Z" fill="url(#paint11_linear_35_680)"/>
<defs>
<filter id="filter0_d_35_680" x="323.15" y="247.308" width="165.03" height="229.587" filterUnits="userSpaceOnUse" color-interpolation-filters="sRGB">
<feFlood flood-opacity="0" result="BackgroundImageFix"/>
<feColorMatrix in="SourceAlpha" type="matrix" values="0 0 0 0 0 0 0 0 0 0 0 0 0 0 0 0 0 0 127 0" result="hardAlpha"/>
<feOffset dy="4"/>
<feGaussianBlur stdDeviation="7.5"/>
<feComposite in2="hardAlpha" operator="out"/>
<feColorMatrix type="matrix" values="0 0 0 0 0 0 0 0 0 0 0 0 0 0 0 0 0 0 0.25 0"/>
<feBlend mode="normal" in2="BackgroundImageFix" result="effect1_dropShadow_35_680"/>
<feBlend mode="normal" in="SourceGraphic" in2="effect1_dropShadow_35_680" result="shape"/>
</filter>
<filter id="filter1_d_35_680" x="57.0046" y="80.0892" width="196.355" height="160.706" filterUnits="userSpaceOnUse" color-interpolation-filters="sRGB">
<feFlood flood-opacity="0" result="BackgroundImageFix"/>
<feColorMatrix in="SourceAlpha" type="matrix" values="0 0 0 0 0 0 0 0 0 0 0 0 0 0 0 0 0 0 127 0" result="hardAlpha"/>
<feOffset dy="4"/>
<feGaussianBlur stdDeviation="7.5"/>
<feComposite in2="hardAlpha" operator="out"/>
<feColorMatrix type="matrix" values="0 0 0 0 0 0 0 0 0 0 0 0 0 0 0 0 0 0 0.25 0"/>
<feBlend mode="normal" in2="BackgroundImageFix" result="effect1_dropShadow_35_680"/>
<feBlend mode="normal" in="SourceGraphic" in2="effect1_dropShadow_35_680" result="shape"/>
</filter>
<filter id="filter2_d_35_680" x="359.285" y="105.85" width="128.785" height="144.578" filterUnits="userSpaceOnUse" color-interpolation-filters="sRGB">
<feFlood flood-opacity="0" result="BackgroundImageFix"/>
<feColorMatrix in="SourceAlpha" type="matrix" values="0 0 0 0 0 0 0 0 0 0 0 0 0 0 0 0 0 0 127 0" result="hardAlpha"/>
<feOffset dy="4"/>
<feGaussianBlur stdDeviation="7.5"/>
<feComposite in2="hardAlpha" operator="out"/>
<feColorMatrix type="matrix" values="0 0 0 0 0 0 0 0 0 0 0 0 0 0 0 0 0 0 0.25 0"/>
<feBlend mode="normal" in2="BackgroundImageFix" result="effect1_dropShadow_35_680"/>
<feBlend mode="normal" in="SourceGraphic" in2="effect1_dropShadow_35_680" result="shape"/>
</filter>
<linearGradient id="paint0_linear_35_680" x1="294.957" y1="63.6135" x2="288.961" y2="436.081" gradientUnits="userSpaceOnUse">
<stop stop-color="#3F3AB7"/>
<stop offset="0.9951" stop-color="#2A2876"/>
</linearGradient>
<linearGradient id="paint1_linear_35_680" x1="229.879" y1="46.0384" x2="354.551" y2="439.581" gradientUnits="userSpaceOnUse">
<stop stop-color="#909DFB"/>
<stop offset="0.9951" stop-color="#2A2876" stop-opacity="0"/>
</linearGradient>
<linearGradient id="paint2_linear_35_680" x1="294.183" y1="-2.19344" x2="290.187" y2="462.494" gradientUnits="userSpaceOnUse">
<stop stop-color="#3C37AC"/>
<stop offset="0.9951" stop-color="#18183C"/>
</linearGradient>
<linearGradient id="paint3_linear_35_680" x1="198.117" y1="242.828" x2="208.794" y2="242.828" gradientUnits="userSpaceOnUse">
<stop offset="0.00492611" stop-color="#333090"/>
<stop offset="1" stop-color="#3C37AC" stop-opacity="0"/>
</linearGradient>
<linearGradient id="paint4_linear_35_680" x1="449.587" y1="315.304" x2="446.224" y2="307.189" gradientUnits="userSpaceOnUse">
<stop stop-color="#F3D35B"/>
<stop offset="1" stop-color="#F2CF85"/>
</linearGradient>
<linearGradient id="paint5_linear_35_680" x1="449.587" y1="367.608" x2="446.224" y2="359.493" gradientUnits="userSpaceOnUse">
<stop stop-color="#F3D35B"/>
<stop offset="1" stop-color="#F2CF85"/>
</linearGradient>
<linearGradient id="paint6_linear_35_680" x1="449.587" y1="421.716" x2="446.224" y2="413.602" gradientUnits="userSpaceOnUse">
<stop stop-color="#F3D35B"/>
<stop offset="1" stop-color="#F2CF85"/>
</linearGradient>
<linearGradient id="paint7_linear_35_680" x1="173.863" y1="198.082" x2="171.821" y2="194.003" gradientUnits="userSpaceOnUse">
<stop stop-color="#454490" stop-opacity="0"/>
<stop offset="1" stop-color="#E1727F"/>
</linearGradient>
<linearGradient id="paint8_linear_35_680" x1="283.758" y1="145.11" x2="170.475" y2="30.2677" gradientUnits="userSpaceOnUse">
<stop stop-color="white"/>
<stop offset="1" stop-color="#5353CB" stop-opacity="0"/>
</linearGradient>
<linearGradient id="paint9_linear_35_680" x1="275.819" y1="412.712" x2="415.533" y2="412.712" gradientUnits="userSpaceOnUse">
<stop stop-color="white"/>
<stop offset="1" stop-color="#5353CB" stop-opacity="0"/>
</linearGradient>
<linearGradient id="paint10_linear_35_680" x1="490.51" y1="189.374" x2="485.021" y2="311.823" gradientUnits="userSpaceOnUse">
<stop stop-color="white"/>
<stop offset="1" stop-color="#5353CB" stop-opacity="0"/>
</linearGradient>
<linearGradient id="paint11_linear_35_680" x1="379.492" y1="102.522" x2="424.598" y2="62.0535" gradientUnits="userSpaceOnUse">
<stop stop-color="white"/>
<stop offset="1" stop-color="#5353CB" stop-opacity="0"/>
</linearGradient>
</defs>
</svg>
