<svg width="731" height="427" viewBox="0 0 731 427" fill="none" xmlns="http://www.w3.org/2000/svg">
<path d="M676.295 46.4974C675.223 43.7565 673.913 41.1347 672.364 38.6321L682.966 25.5233L661.644 8.36269L651.043 21.4715C645.444 19.3264 639.489 18.3731 633.414 18.7306L627.339 3L601.848 12.8912L607.923 28.6218C605.898 30.2902 603.992 32.1969 602.205 34.2228C601.967 34.4611 601.848 34.6995 601.61 34.9378C601.372 35.1762 601.252 35.4145 601.014 35.6529C599.347 37.7979 597.917 40.0622 596.726 42.4456L580.169 39.943L576 66.9948L592.557 69.6166C593.034 72.2384 593.629 74.8601 594.582 77.3627C594.701 77.7202 594.82 77.9585 594.939 78.3161C595.058 78.5544 595.178 78.9119 595.297 79.1503C596.25 81.6529 597.56 84.0363 598.989 86.3005L588.507 99.2902L609.829 116.451L620.311 103.342C626.029 105.487 631.984 106.321 637.94 106.083L644.015 121.813L669.506 111.922L663.431 96.1917C665.694 94.4041 667.719 92.2591 669.625 89.8757C671.531 87.4922 673.198 84.9896 674.509 82.3679L691.304 84.9896L695.473 57.9378L678.678 55.1969C678.201 52.3368 677.486 49.3575 676.295 46.4974ZM659.381 73.7876C659.262 73.9067 659.262 74.0259 659.143 74.2643C658.904 74.8601 658.547 75.3368 658.19 75.9326C658.071 76.171 657.832 76.4093 657.713 76.6477C657.475 77.1244 657.118 77.4819 656.879 77.8394C656.641 78.1969 656.403 78.4352 656.165 78.7927C655.927 79.1503 655.688 79.3886 655.331 79.7461C654.974 80.1036 654.616 80.4611 654.259 80.8187C654.021 81.057 653.782 81.2953 653.663 81.4145C653.187 81.8912 652.71 82.2487 652.234 82.7254C652.115 82.8446 651.996 82.9637 651.877 83.0829C649.852 84.6321 647.588 85.943 645.206 86.8964C631.627 92.1399 616.38 85.4663 611.02 71.7617C609.71 68.4249 609.114 64.9689 609.233 61.6321C609.233 61.513 609.233 61.2746 609.233 61.1554C609.233 60.5596 609.352 59.9637 609.352 59.3679C609.352 59.0104 609.471 58.6529 609.471 58.2953C609.471 57.9378 609.591 57.5803 609.71 57.2228C609.829 56.627 609.948 56.0311 610.067 55.4353C610.067 55.3161 610.186 55.0777 610.186 54.9585C611.139 51.7409 612.688 48.6425 614.951 45.9016C624.123 34.5803 640.68 32.7928 651.996 41.8498C654.021 43.5181 655.807 45.4249 657.237 47.57C657.356 47.6891 657.356 47.8083 657.475 47.9275C657.832 48.4041 658.19 49 658.428 49.5959C658.547 49.8342 658.666 50.0725 658.785 50.4301C659.024 50.9067 659.262 51.3834 659.381 51.8601C659.5 52.2176 659.738 52.5751 659.857 52.9327C659.976 53.2902 660.096 53.6477 660.215 54.1244C660.334 54.601 660.572 55.0777 660.691 55.5544C660.81 55.7927 660.81 56.1503 660.929 56.3886C661.049 56.9845 661.168 57.5803 661.287 58.2953C661.287 58.4145 661.287 58.6529 661.406 58.772C661.763 61.2746 661.763 63.8964 661.406 66.5181C661.287 69.1399 660.453 71.5233 659.381 73.7876Z" fill="white"/>
<path d="M572.751 358.779C571.898 356.588 570.856 354.491 569.625 352.49L578.055 342.009L561.101 328.288L552.671 338.769C548.219 337.054 543.484 336.292 538.653 336.578L533.823 324L513.553 331.909L518.384 344.486C516.774 345.82 515.258 347.345 513.837 348.965C513.648 349.155 513.553 349.346 513.364 349.537C513.174 349.727 513.08 349.918 512.89 350.108C511.564 351.823 510.428 353.634 509.481 355.54L496.315 353.539L493 375.169L506.166 377.265C506.544 379.361 507.018 381.457 507.776 383.458C507.87 383.744 507.965 383.935 508.06 384.221C508.155 384.411 508.249 384.697 508.344 384.888C509.102 386.889 510.144 388.794 511.28 390.605L502.945 400.991L519.899 414.712L528.234 404.231C532.781 405.946 537.516 406.613 542.252 406.422L547.083 419L567.352 411.091L562.521 398.514C564.321 397.084 565.931 395.369 567.447 393.463C568.962 391.558 570.288 389.557 571.33 387.46L584.685 389.557L588 367.927L574.645 365.735C574.266 363.448 573.698 361.066 572.751 358.779ZM559.301 380.6C559.206 380.695 559.206 380.79 559.112 380.981C558.922 381.457 558.638 381.839 558.354 382.315C558.259 382.506 558.07 382.696 557.975 382.887C557.786 383.268 557.501 383.554 557.312 383.84C557.123 384.125 556.933 384.316 556.744 384.602C556.554 384.888 556.365 385.078 556.081 385.364C555.797 385.65 555.512 385.936 555.228 386.222C555.039 386.412 554.849 386.603 554.755 386.698C554.376 387.079 553.997 387.365 553.618 387.746C553.523 387.842 553.429 387.937 553.334 388.032C551.724 389.271 549.924 390.319 548.03 391.081C537.232 395.274 525.109 389.938 520.846 378.98C519.805 376.312 519.331 373.549 519.426 370.881C519.426 370.785 519.426 370.595 519.426 370.5C519.426 370.023 519.52 369.547 519.52 369.07C519.52 368.784 519.615 368.499 519.615 368.213C519.615 367.927 519.71 367.641 519.805 367.355C519.899 366.879 519.994 366.402 520.089 365.926C520.089 365.831 520.183 365.64 520.183 365.545C520.941 362.972 522.172 360.494 523.972 358.303C531.265 349.251 544.431 347.821 553.429 355.063C555.039 356.397 556.46 357.922 557.596 359.637C557.691 359.732 557.691 359.827 557.786 359.923C558.07 360.304 558.354 360.78 558.543 361.257C558.638 361.447 558.733 361.638 558.828 361.924C559.017 362.305 559.206 362.686 559.301 363.067C559.396 363.353 559.585 363.639 559.68 363.925C559.775 364.211 559.869 364.497 559.964 364.878C560.059 365.259 560.248 365.64 560.343 366.021C560.438 366.212 560.438 366.497 560.532 366.688C560.627 367.164 560.722 367.641 560.817 368.213C560.817 368.308 560.817 368.499 560.911 368.594C561.195 370.595 561.195 372.691 560.911 374.787C560.817 376.884 560.154 378.789 559.301 380.6Z" fill="white"/>
<path d="M119.751 195.779C118.898 193.588 117.856 191.491 116.625 189.49L125.055 179.009L108.101 165.288L99.671 175.769C95.2193 174.054 90.4836 173.292 85.653 173.578L80.8225 161L60.5533 168.909L65.3838 181.486C63.7737 182.82 62.2582 184.345 60.8375 185.965C60.6481 186.155 60.5533 186.346 60.3639 186.537C60.1745 186.727 60.0798 186.918 59.8903 187.108C58.5643 188.823 57.4277 190.634 56.4806 192.54L43.3151 190.539L40 212.169L53.1655 214.265C53.5444 216.361 54.0179 218.457 54.7757 220.458C54.8704 220.744 54.9651 220.935 55.0598 221.221C55.1545 221.411 55.2493 221.697 55.344 221.888C56.1017 223.889 57.1436 225.794 58.2802 227.605L49.9452 237.991L66.8993 251.712L75.2343 241.231C79.7807 242.946 84.5164 243.613 89.2522 243.422L94.0827 256L114.352 248.091L109.521 235.514C111.321 234.084 112.931 232.369 114.447 230.463C115.962 228.558 117.288 226.557 118.33 224.46L131.685 226.557L135 204.927L121.645 202.735C121.266 200.448 120.698 198.066 119.751 195.779ZM106.301 217.6C106.206 217.695 106.206 217.79 106.112 217.981C105.922 218.457 105.638 218.839 105.354 219.315C105.259 219.506 105.07 219.696 104.975 219.887C104.786 220.268 104.501 220.554 104.312 220.84C104.123 221.125 103.933 221.316 103.744 221.602C103.554 221.888 103.365 222.078 103.081 222.364C102.797 222.65 102.512 222.936 102.228 223.222C102.039 223.412 101.849 223.603 101.755 223.698C101.376 224.079 100.997 224.365 100.618 224.746C100.523 224.842 100.429 224.937 100.334 225.032C98.7238 226.271 96.9242 227.319 95.0299 228.081C84.2323 232.274 72.1087 226.938 67.8465 215.98C66.8046 213.312 66.331 210.549 66.4257 207.881C66.4257 207.785 66.4257 207.595 66.4257 207.5C66.4257 207.023 66.5204 206.547 66.5204 206.07C66.5204 205.784 66.6152 205.499 66.6152 205.213C66.6152 204.927 66.7099 204.641 66.8046 204.355C66.8993 203.879 66.994 203.402 67.0887 202.926C67.0887 202.831 67.1835 202.64 67.1835 202.545C67.9412 199.972 69.1725 197.494 70.9721 195.303C78.2652 186.251 91.4307 184.821 100.429 192.063C102.039 193.397 103.46 194.922 104.596 196.637C104.691 196.732 104.691 196.827 104.786 196.923C105.07 197.304 105.354 197.78 105.543 198.257C105.638 198.447 105.733 198.638 105.828 198.924C106.017 199.305 106.206 199.686 106.301 200.067C106.396 200.353 106.585 200.639 106.68 200.925C106.775 201.211 106.869 201.497 106.964 201.878C107.059 202.259 107.248 202.64 107.343 203.021C107.438 203.212 107.438 203.497 107.532 203.688C107.627 204.164 107.722 204.641 107.817 205.213C107.817 205.308 107.817 205.499 107.911 205.594C108.195 207.595 108.195 209.691 107.911 211.787C107.817 213.884 107.154 215.789 106.301 217.6Z" fill="white"/>
<path d="M624.331 342.424C624.331 341.941 624.654 341.458 625.137 341.458C625.621 341.458 626.105 341.78 626.105 342.263C626.105 342.746 625.782 343.229 625.299 343.229C624.654 343.229 624.331 342.907 624.331 342.424ZM615.945 342.907C615.461 342.907 615.139 342.424 615.139 341.941C615.139 341.458 615.623 341.135 616.106 341.135C616.59 341.135 616.913 341.619 616.913 342.102C616.913 342.585 616.59 342.907 615.945 342.907C616.106 342.907 616.106 342.907 615.945 342.907ZM633.362 341.458C633.201 340.974 633.523 340.491 634.007 340.33C634.491 340.169 634.975 340.491 635.136 340.974C635.297 341.458 634.975 341.941 634.491 342.102H634.329C633.846 342.263 633.362 341.941 633.362 341.458ZM606.914 340.974C606.431 340.813 606.108 340.33 606.269 339.847C606.431 339.364 606.914 339.042 607.398 339.203C607.882 339.364 608.204 339.847 608.043 340.33C607.882 340.813 607.559 340.974 607.237 340.974C607.237 340.974 607.076 340.974 606.914 340.974ZM642.07 339.042C641.909 338.558 642.07 338.075 642.554 337.914C643.038 337.753 643.522 337.914 643.683 338.397C643.844 338.88 643.683 339.364 643.199 339.525C643.038 339.525 643.038 339.525 642.877 339.525C642.554 339.686 642.231 339.525 642.07 339.042ZM598.367 337.592C597.883 337.431 597.722 336.787 597.883 336.303C598.045 335.82 598.69 335.659 599.174 335.82C599.657 335.981 599.819 336.626 599.657 337.109C599.496 337.431 599.174 337.592 598.851 337.592C598.69 337.592 598.529 337.592 598.367 337.592ZM590.465 332.76C589.981 332.438 589.981 331.955 590.304 331.471C590.627 330.988 591.11 330.988 591.594 331.31C592.078 331.632 592.078 332.116 591.755 332.599C591.594 332.76 591.272 332.921 590.949 332.921C590.788 332.921 590.627 332.921 590.465 332.76ZM583.531 326.8C583.208 326.478 583.208 325.834 583.531 325.512C583.853 325.19 584.498 325.19 584.821 325.512C585.143 325.834 585.143 326.478 584.821 326.8C584.66 326.961 584.337 327.123 584.176 327.123C583.853 326.961 583.692 326.961 583.531 326.8ZM577.564 319.713C577.241 319.23 577.403 318.747 577.725 318.425C578.209 318.103 578.693 318.264 579.015 318.586C579.338 319.069 579.177 319.552 578.854 319.875C578.693 320.036 578.532 320.036 578.37 320.036C578.048 320.036 577.725 319.875 577.564 319.713ZM572.887 311.821C572.726 311.338 572.887 310.855 573.371 310.533C573.855 310.372 574.339 310.533 574.661 311.016C574.823 311.499 574.661 311.982 574.177 312.304C574.016 312.304 573.855 312.304 573.855 312.304C573.371 312.304 573.049 312.143 572.887 311.821ZM674.001 308.6C673.517 308.439 673.356 307.956 673.517 307.472C673.678 306.989 674.162 306.828 674.646 306.989C675.13 307.15 675.291 307.633 675.13 308.117C674.968 308.439 674.646 308.761 674.323 308.761C674.323 308.6 674.162 308.6 674.001 308.6ZM569.501 303.124C569.339 302.64 569.662 302.157 570.146 301.996C570.63 301.835 571.113 302.157 571.275 302.64C571.436 303.124 571.113 303.607 570.63 303.768C570.63 303.768 570.468 303.768 570.307 303.768C569.985 303.768 569.662 303.607 569.501 303.124ZM676.742 299.902C676.258 299.741 675.936 299.258 676.097 298.775C676.258 298.292 676.742 297.969 677.226 298.13C677.71 298.292 678.032 298.775 677.871 299.258C677.871 299.741 677.387 299.902 677.065 299.902C676.904 299.902 676.904 299.902 676.742 299.902ZM567.727 294.104C567.727 293.621 568.049 293.137 568.533 293.137C569.017 293.137 569.501 293.459 569.501 293.943C569.501 294.426 569.178 294.909 568.694 294.909C568.694 294.909 568.694 294.909 568.533 294.909C568.211 294.909 567.727 294.587 567.727 294.104ZM678.194 290.882C677.71 290.882 677.226 290.399 677.387 289.916C677.387 289.433 677.871 288.95 678.355 289.111C678.839 289.111 679.161 289.594 679.161 290.077C679 290.56 678.677 290.882 678.194 290.882ZM568.211 285.889C567.727 285.889 567.243 285.406 567.404 284.923C567.404 284.44 567.888 283.957 568.372 284.118C568.856 284.118 569.34 284.601 569.178 285.084C569.178 285.406 568.856 285.889 568.211 285.889C568.372 285.889 568.211 285.889 568.211 285.889ZM676.904 281.057C676.904 280.574 677.226 280.091 677.71 280.091C678.194 280.091 678.677 280.413 678.677 280.896C678.677 281.379 678.355 281.863 677.871 281.863C677.871 281.863 677.871 281.863 677.71 281.863C677.387 281.863 676.904 281.541 676.904 281.057ZM569.339 276.87C568.856 276.708 568.533 276.225 568.694 275.742C568.856 275.259 569.339 274.937 569.823 275.098C570.307 275.259 570.63 275.742 570.468 276.225C570.307 276.709 569.985 277.031 569.662 277.031C569.339 276.87 569.339 276.87 569.339 276.87ZM675.13 272.36C674.968 271.876 675.291 271.393 675.775 271.232C676.258 271.071 676.742 271.393 676.904 271.876C677.065 272.36 676.742 272.843 676.258 273.004H676.097C675.613 273.004 675.291 272.682 675.13 272.36ZM571.758 268.172C571.275 268.011 571.113 267.528 571.275 267.044C571.436 266.561 571.92 266.4 572.404 266.561C572.887 266.722 573.049 267.206 572.887 267.689C572.726 268.011 572.404 268.333 572.081 268.333C572.081 268.172 571.92 268.172 571.758 268.172ZM671.904 263.984C671.743 263.501 671.904 263.018 672.388 262.696C672.872 262.535 673.356 262.696 673.678 263.179C673.839 263.662 673.678 264.145 673.194 264.467C673.033 264.467 672.872 264.628 672.711 264.628C672.388 264.467 672.066 264.306 671.904 263.984ZM575.629 259.958C575.145 259.635 575.145 259.152 575.306 258.669C575.629 258.186 576.113 258.025 576.596 258.347C577.08 258.669 577.241 259.152 576.919 259.635C576.758 259.958 576.435 260.119 576.113 260.119C575.951 260.119 575.79 259.958 575.629 259.958ZM667.389 256.414C667.066 255.931 667.228 255.448 667.55 255.125C668.034 254.803 668.518 254.964 668.84 255.287C669.163 255.77 669.002 256.253 668.679 256.575C668.518 256.736 668.356 256.736 668.195 256.736C667.873 256.736 667.55 256.575 667.389 256.414ZM580.951 252.548C580.628 252.226 580.467 251.582 580.789 251.26C581.112 250.938 581.757 250.777 582.079 251.099C582.402 251.421 582.563 252.065 582.241 252.387C582.079 252.548 581.757 252.709 581.596 252.709C581.273 252.709 581.112 252.71 580.951 252.548ZM661.583 249.488C661.261 249.166 661.261 248.522 661.583 248.2C661.906 247.877 662.551 247.877 662.873 248.2C663.196 248.522 663.196 249.166 662.873 249.488C662.712 249.649 662.39 249.81 662.228 249.81C662.067 249.81 661.906 249.649 661.583 249.488ZM587.24 245.945C586.917 245.623 586.917 244.978 587.401 244.656C587.724 244.334 588.369 244.334 588.691 244.817C589.014 245.139 589.014 245.784 588.53 246.106C588.369 246.267 588.208 246.267 587.885 246.267C587.724 246.267 587.401 246.267 587.24 245.945ZM654.81 243.69C654.326 243.368 654.326 242.884 654.649 242.401C654.971 241.918 655.455 241.918 655.939 242.24C656.423 242.562 656.423 243.045 656.1 243.529C655.939 243.851 655.617 243.851 655.294 243.851C655.294 243.851 654.971 243.851 654.81 243.69ZM594.497 240.629C594.174 240.146 594.336 239.663 594.819 239.341C595.303 239.019 595.787 239.18 596.11 239.663C596.432 240.146 596.271 240.629 595.787 240.952C595.626 241.113 595.464 241.113 595.303 241.113C594.981 241.113 594.658 240.952 594.497 240.629ZM647.231 239.18C646.747 239.019 646.586 238.375 646.747 237.891C646.908 237.408 647.553 237.247 648.037 237.408C648.521 237.569 648.682 238.213 648.521 238.697C648.36 239.019 648.037 239.18 647.714 239.18C647.553 239.18 647.392 239.18 647.231 239.18ZM602.721 236.603C602.56 236.12 602.721 235.636 603.205 235.475C603.689 235.314 604.173 235.475 604.334 235.959C604.495 236.442 604.334 236.925 603.85 237.086C603.689 237.086 603.689 237.086 603.528 237.086C603.205 237.086 602.883 236.925 602.721 236.603ZM639.006 235.797C638.522 235.636 638.2 235.153 638.361 234.67C638.522 234.187 639.006 233.865 639.49 234.026C639.974 234.187 640.296 234.67 640.135 235.153C639.974 235.636 639.651 235.797 639.329 235.797C639.167 235.797 639.006 235.797 639.006 235.797ZM611.268 233.865C611.107 233.381 611.43 232.898 611.914 232.737C612.397 232.576 612.881 232.898 613.042 233.381C613.204 233.865 612.881 234.348 612.397 234.509H612.236C611.752 234.67 611.43 234.348 611.268 233.865ZM630.137 234.026C629.653 234.026 629.33 233.542 629.33 233.059C629.33 232.576 629.814 232.254 630.298 232.254C630.782 232.254 631.104 232.737 631.104 233.22C631.104 233.704 630.782 234.026 630.137 234.026C630.298 234.026 630.298 234.026 630.137 234.026ZM620.299 232.737C620.299 232.254 620.622 231.771 621.106 231.771C621.589 231.771 622.073 232.093 622.073 232.576C622.073 233.059 621.751 233.543 621.267 233.543C620.783 233.543 620.299 233.22 620.299 232.737Z" fill="#FF5C00"/>
<path d="M123.279 369C113.12 369 104.734 360.786 104.734 350.477V61.5227C104.734 51.2144 113.12 43 123.279 43H606.269C616.429 43 624.815 51.2144 624.815 61.5227V350.638C624.815 360.786 616.59 369.161 606.269 369.161H123.279V369Z" fill="#262563"/>
<path d="M196.333 83.2668H142.631V95.0247H196.333V83.2668Z" fill="#284D89"/>
<path d="M261 83.2668H207.299V95.0247H261V83.2668Z" fill="#284D89"/>
<path d="M424.523 83.2668H370.822V95.0247H424.523V83.2668Z" fill="#284D89"/>
<path d="M588.208 83.2668H534.506V95.0247H588.208V83.2668Z" fill="#284D89"/>
<path d="M364.049 83.2668H268.096V95.0247H364.049V83.2668Z" fill="#FF5C00"/>
<path d="M526.927 83.2668H430.974V95.0247H526.927V83.2668Z" fill="#2889DB"/>
<path d="M152.307 73.9249H142.954V79.7233H152.307V73.9249Z" fill="#2889DB"/>
<path d="M241.003 104.85H142.954V110.648H241.003V104.85Z" fill="white"/>
<path d="M171.981 114.997H142.954V120.795H171.981V114.997Z" fill="white"/>
<path d="M246.809 327.606H155.855C149.082 327.606 143.599 322.13 143.599 315.365V150.915C143.599 144.15 149.082 138.674 155.855 138.674H246.809C253.582 138.674 259.065 144.15 259.065 150.915V315.204C259.065 322.129 253.582 327.606 246.809 327.606Z" fill="#284D89"/>
<path d="M196.816 166.377H158.113V172.337H196.816V166.377Z" fill="white"/>
<path d="M196.816 179.585H158.113V185.544H196.816V179.585Z" fill="white"/>
<path d="M196.816 192.792H158.113V198.752H196.816V192.792Z" fill="white"/>
<path d="M181.819 247.716H158.113V253.676H181.819V247.716Z" fill="white"/>
<path d="M181.819 260.924H158.113V266.883H181.819V260.924Z" fill="white"/>
<path d="M222.458 260.924H198.752V266.883H222.458V260.924Z" fill="white"/>
<path d="M172.949 232.737H158.113V238.697H172.949V232.737Z" fill="white"/>
<path d="M229.714 232.737H221.812V238.697H229.714V232.737Z" fill="white"/>
<path d="M218.748 232.737H178.11V238.697H218.748V232.737Z" fill="#FF5C00"/>
<path d="M163.757 210.51H158.113V216.469H163.757V210.51Z" fill="#2889DB"/>
<path d="M163.757 220.979H158.113V226.939H163.757V220.979Z" fill="#FF5C00"/>
<path d="M189.721 268.011H187.463L192.623 260.441H194.72L189.721 268.011Z" fill="white"/>
<path d="M245.841 278.158H158.113V283.151H245.841V278.158Z" fill="#282E5C"/>
<path d="M245.841 289.433H158.113V294.426H245.841V289.433Z" fill="#282E5C"/>
<path d="M667.873 216.792H426.62C420.653 216.792 415.654 211.96 415.654 205.839V140.607C415.654 134.647 420.492 129.654 426.62 129.654H667.873C673.84 129.654 678.839 134.486 678.839 140.607V206C678.839 211.96 674.001 216.792 667.873 216.792Z" fill="#FF5C00"/>
<path d="M616.59 191.343C602.238 191.343 590.304 184.256 578.048 176.847C568.049 170.726 557.567 164.445 545.311 162.029C508.381 154.458 495.319 185.061 494.835 186.35L493.222 185.705C493.384 185.383 507.252 152.365 545.795 160.257C558.374 162.834 568.856 169.277 579.177 175.397C599.819 187.799 619.171 199.557 651.746 176.203L652.875 177.652C638.522 187.638 626.911 191.343 616.59 191.343Z" fill="white"/>
<path d="M617.558 187.799H612.075V193.276H617.558V187.799Z" fill="#FF5C00"/>
<path d="M618.525 194.081H611.268V186.833H618.525V194.081ZM613.042 192.309H616.752V188.605H613.042V192.309Z" fill="white"/>
<path d="M569.662 159.129H500.64V160.096H569.662V159.129Z" fill="white"/>
<path d="M649.327 191.504H580.306V192.47H649.327V191.504Z" fill="white"/>
<path d="M535.151 156.875H529.668V162.351H535.151V156.875Z" fill="#FF5C00"/>
<path d="M536.119 163.317H528.862V156.069H536.119V163.317ZM530.636 161.384H534.345V157.68H530.636V161.384Z" fill="white"/>
<path d="M461.775 239.18H409.687C405.333 239.18 401.785 235.636 401.785 231.288V153.331C401.785 148.982 405.333 145.439 409.687 145.439H461.775C466.13 145.439 469.677 148.982 469.677 153.331V231.449C469.677 235.636 466.13 239.18 461.775 239.18Z" fill="#284D89"/>
<path d="M451.132 158.646H412.428V163.961H451.132V158.646Z" fill="white"/>
<path d="M451.132 170.565H412.428V175.88H451.132V170.565Z" fill="white"/>
<path d="M426.942 182.484H412.428V187.799H426.942V182.484Z" fill="white"/>
<path d="M437.586 194.725H412.428V200.041H437.586V194.725Z" fill="#FF5C00"/>
<path d="M429.361 206.644H412.428V211.96H429.361V206.644Z" fill="#FF5C00"/>
<path d="M429.361 218.402H412.428V223.717H429.361V218.402Z" fill="white"/>
<path d="M282.448 298.292L281.965 296.681L300.51 290.238H311.154L329.377 279.125L343.89 279.608L356.308 275.581L372.434 266.561L388.4 269.46L388.561 269.622L405.171 282.507L420.33 281.379L434.199 276.87L449.842 274.454L468.71 267.044L488.546 268.333L501.608 271.232L512.735 267.044L529.184 273.004C533.055 276.225 537.732 279.608 538.538 279.769C539.667 279.769 551.117 280.574 552.407 280.574L565.63 278.158L574.823 270.91L575.79 272.199L566.275 279.608L552.407 282.185H552.245C547.891 281.863 539.344 281.379 538.377 281.379C537.086 281.379 532.087 277.514 528.217 274.293L512.735 268.655L501.769 272.682L488.384 269.783L469.032 268.655L450.164 276.064L434.683 278.48L420.653 282.99L404.849 284.279L387.916 271.071L372.918 268.333L357.114 277.192L344.213 281.379L329.86 280.896L311.637 291.849H300.671L282.448 298.292Z" fill="#FF5C66"/>
<path d="M575.468 297.647H282.448V298.13H575.468V297.647Z" fill="#F7F7F7"/>
<path d="M282.61 294.104H279.546V301.513H282.61V294.104Z" fill="#F7F7F7"/>
<path d="M576.758 294.104H573.694V301.513H576.758V294.104Z" fill="#F7F7F7"/>
<path d="M575.468 273.165H574.984V297.808H575.468V273.165Z" fill="#F7F7F7"/>
<path d="M576.919 272.038C576.919 273.326 575.951 274.292 574.661 274.292C573.371 274.292 572.404 273.326 572.404 272.038C572.404 270.749 573.371 269.783 574.661 269.783C575.79 269.622 576.919 270.749 576.919 272.038Z" fill="#F7F7F7"/>
<path d="M532.41 308.439H350.18V311.66H532.41V308.439Z" fill="#28385E"/>
<path d="M462.098 308.439H350.18V311.66H462.098V308.439Z" fill="#FF5C00"/>
<path d="M439.843 314.72H350.18V317.942H439.843V314.72Z" fill="#28385E"/>
<path d="M293.253 324.545H304.38L305.832 321.485H283.416V326.478H291.318L293.253 324.545Z" fill="#FF5C00"/>
<path d="M316.314 321.324H315.024V322.613H316.314V321.324Z" fill="#F7F7F7"/>
<path d="M323.894 321.324H322.603V322.613H323.894V321.324Z" fill="#F7F7F7"/>
<path d="M331.473 321.324H330.183V322.613H331.473V321.324Z" fill="#F7F7F7"/>
<path d="M545.472 318.264H542.731L538.377 308.439H541.118L545.472 318.264Z" fill="#28385E"/>
<path d="M552.568 318.264H549.826L545.472 308.439H548.214L552.568 318.264Z" fill="#28385E"/>
<path d="M559.664 318.264H556.922L552.568 308.439H555.309L559.664 318.264Z" fill="#28385E"/>
<path d="M566.759 318.264H564.018L559.664 308.439H562.405L566.759 318.264Z" fill="#28385E"/>
<path d="M573.694 318.264H570.952L566.598 308.439H569.34L573.694 318.264Z" fill="#28385E"/>
<path d="M96.348 76.1799H52V84.0722H96.348V76.1799Z" fill="#2889DB"/>
<path d="M118.925 90.3538H52V98.2461H118.925V90.3538Z" fill="#A9CCEA"/>
<path d="M134.568 104.528H52V112.42H134.568V104.528Z" fill="#A9CCEA"/>
<path d="M83.608 118.702H52V126.594H83.608V118.702Z" fill="#A9CCEA"/>
<path d="M263.903 218.402H252.937V160.901H263.903V218.402ZM254.872 216.469H262.129V162.673H254.872V216.469Z" fill="#FF5C00"/>
<path d="M628.152 318.354C645.209 315.606 656.807 299.569 654.056 282.532C651.305 265.496 635.248 253.912 618.19 256.66C601.133 259.407 589.535 275.445 592.286 292.481C595.037 309.518 611.094 321.101 628.152 318.354Z" fill="#FF5C00"/>
<path d="M620.944 284.601L608.527 289.111L620.944 293.621V298.292L603.205 291.527V286.695L620.944 279.93V284.601Z" fill="#F9FBFC"/>
<path d="M624.976 279.93L642.715 286.695V291.527L624.976 298.292V293.621L637.394 289.111L624.976 284.601V279.93Z" fill="#F9FBFC"/>
<path d="M671.421 318.103C668.679 318.103 666.421 315.848 666.421 313.11C666.421 310.372 668.679 308.117 671.421 308.117C674.162 308.117 676.42 310.372 676.42 313.11C676.42 315.848 674.162 318.103 671.421 318.103ZM671.421 309.888C669.647 309.888 668.195 311.338 668.195 313.11C668.195 314.881 669.647 316.331 671.421 316.331C673.194 316.331 674.646 314.881 674.646 313.11C674.646 311.338 673.194 309.888 671.421 309.888Z" fill="#FF5C00"/>
<path d="M387.271 137.546H278.739V143.023H387.271V137.546Z" fill="#284D89"/>
<path d="M327.925 137.546H278.739V143.023H327.925V137.546Z" fill="#2889DB"/>
<path d="M387.271 151.559H278.739V157.036H387.271V151.559Z" fill="#284D89"/>
<path d="M354.211 151.559H278.739V157.036H354.211V151.559Z" fill="#FF5C00"/>
<path d="M387.271 165.733H278.739V171.209H387.271V165.733Z" fill="#284D89"/>
<path d="M300.833 165.733H278.739V171.209H300.833V165.733Z" fill="#1AE5FF"/>
<path d="M281.319 128.043H279.223V130.137H281.319V128.043Z" fill="#284D89"/>
<path d="M288.576 128.043H286.48V130.137H288.576V128.043Z" fill="#284D89"/>
<path d="M295.833 128.043H293.737V130.137H295.833V128.043Z" fill="#284D89"/>
<path d="M484.675 202.134H481.127V205.678H484.675V202.134Z" fill="white"/>
<path d="M496.77 202.134H493.222V205.678H496.77V202.134Z" fill="white"/>
<path d="M508.865 202.134H505.317V205.678H508.865V202.134Z" fill="white"/>
<path d="M538.699 61.8448H532.087V68.4486H538.699V61.8448Z" fill="white"/>
<path d="M561.438 61.8448H554.826V68.4486H561.438V61.8448Z" fill="white"/>
<path d="M584.176 61.8448H577.564V68.4486H584.176V61.8448Z" fill="white"/>
<path d="M444.843 335.498H438.231V342.102H444.843V335.498Z" fill="white"/>
<path d="M467.581 335.498H460.969V342.102H467.581V335.498Z" fill="white"/>
<path d="M490.319 335.498H483.708V342.102H490.319V335.498Z" fill="white"/>
<path d="M163.596 152.204H160.048V155.747H163.596V152.204Z" fill="white"/>
<path d="M175.691 152.204H172.143V155.747H175.691V152.204Z" fill="white"/>
<path d="M187.786 152.204H184.238V155.747H187.786V152.204Z" fill="white"/>
<path d="M655.778 147.855H596.916V153.653H655.778V147.855Z" fill="white"/>
<path d="M614.333 158.002H596.916V163.8H614.333V158.002Z" fill="#287DD1"/>
<path d="M300.994 188.283C290.028 188.283 281.158 197.141 281.158 208.094C281.158 219.046 290.028 227.905 300.994 227.905C311.96 227.905 320.829 219.046 320.829 208.094C320.991 197.141 312.121 188.283 300.994 188.283ZM300.994 218.563C295.188 218.563 290.673 213.892 290.673 208.255C290.673 202.457 295.35 197.947 300.994 197.947C306.799 197.947 311.315 202.618 311.315 208.255C311.476 213.892 306.799 218.563 300.994 218.563Z" fill="#284D89"/>
<path d="M287.448 206.161C289.221 206.161 290.995 205.034 291.802 203.423C293.576 200.041 296.962 197.786 300.994 197.786C305.025 197.786 308.573 200.041 310.186 203.423C310.992 205.034 312.605 206.161 314.54 206.161C318.088 206.161 320.346 202.457 318.894 199.396C315.669 192.792 308.896 188.283 300.994 188.283C293.092 188.283 286.319 192.792 283.093 199.396C281.642 202.457 284.061 206.161 287.448 206.161Z" fill="#FF5C00"/>
<path d="M334.537 208.094C334.537 219.046 343.407 227.905 354.373 227.905C365.339 227.905 374.208 219.046 374.208 208.094C374.208 197.141 365.339 188.283 354.373 188.283C343.407 188.283 334.537 197.141 334.537 208.094ZM364.694 208.094C364.694 213.892 360.017 218.402 354.373 218.402C348.567 218.402 344.052 213.731 344.052 208.094C344.052 202.295 348.728 197.786 354.373 197.786C360.178 197.786 364.694 202.457 364.694 208.094Z" fill="#284D89"/>
<path d="M352.438 221.624C352.438 219.852 351.309 218.08 349.696 217.275C346.309 215.503 344.052 212.121 344.052 208.094C344.052 204.067 346.309 200.524 349.696 198.913C351.309 198.108 352.438 196.497 352.438 194.564C352.438 191.021 348.728 188.766 345.664 190.215C339.052 193.437 334.537 200.202 334.537 208.094C334.537 215.986 339.052 222.751 345.664 225.972C348.728 227.583 352.438 225.167 352.438 221.624Z" fill="#FF5C00"/>
<path d="M245.196 217.758H206.976V128.688H245.196V217.758ZM208.75 215.986H243.261V130.621H208.75V215.986Z" fill="#FF5C00"/>
<path d="M223.586 146.405H212.943V149.465H223.586V146.405Z" fill="#1AE5FF"/>
<path d="M223.586 153.492H212.943V156.552H223.586V153.492Z" fill="#1AE5FF"/>
<path d="M223.586 160.418H212.943V163.478H223.586V160.418Z" fill="#1AE5FF"/>
<path d="M223.586 196.819H212.943V199.879H223.586V196.819Z" fill="#1AE5FF"/>
<path d="M228.424 170.726H212.943V173.787H228.424V170.726Z" fill="#1AE5FF"/>
<path d="M228.424 177.652H212.943V180.713H228.424V177.652Z" fill="white"/>
<path d="M228.424 184.578H212.943V187.638H228.424V184.578Z" fill="white"/>
<path d="M123.602 289H77.4799V335.065H123.602V289Z" fill="#FF5C00"/>
<path d="M100.218 346.662H52.3225V298.825H100.218V346.662ZM54.2577 344.89H98.4445V300.758H54.2577V344.89Z" fill="#FF5C00"/>
<path d="M513.058 351.283H417.75L408.719 342.102H392.754V340.33H409.525L418.556 349.35H512.413L526.927 334.854H578.209V336.626H527.733L513.058 351.283Z" fill="white"/>
<path d="M387.916 347.095C384.852 347.095 382.272 344.518 382.272 341.458C382.272 338.397 384.852 335.82 387.916 335.82C390.98 335.82 393.56 338.397 393.56 341.458C393.56 344.518 391.141 347.095 387.916 347.095ZM387.916 337.592C385.819 337.592 384.046 339.364 384.046 341.458C384.046 343.551 385.819 345.323 387.916 345.323C390.012 345.323 391.786 343.551 391.786 341.458C391.786 339.364 390.012 337.592 387.916 337.592Z" fill="white"/>
<path d="M583.047 341.296C579.983 341.296 577.403 338.719 577.403 335.659C577.403 332.599 579.983 330.022 583.047 330.022C586.111 330.022 588.691 332.599 588.691 335.659C588.691 338.719 586.272 341.296 583.047 341.296ZM583.047 331.632C580.951 331.632 579.177 333.404 579.177 335.498C579.177 337.592 580.951 339.364 583.047 339.364C585.144 339.364 586.917 337.592 586.917 335.498C586.917 333.404 585.305 331.632 583.047 331.632Z" fill="white"/>
</svg>
