<svg width="49" height="49" viewBox="0 0 49 49" fill="none" xmlns="http://www.w3.org/2000/svg">
<g clip-path="url(#clip0_17_105)">
<path fill-rule="evenodd" clip-rule="evenodd" d="M0 5.32928V43.6781C0 46.6184 2.38164 49.0074 5.32928 49.0074H43.6781C46.6184 49.0074 49.0074 46.6257 49.0074 43.6781V5.32928C49.0074 3.91794 48.4487 2.56541 47.449 1.56571C46.4419 0.558656 45.0894 0 43.6781 0H5.32928C3.91059 0 2.55806 0.558656 1.55836 1.55836C0.558656 2.55806 0 3.91059 0 5.32928ZM2.13171 10.6512H46.8756V43.6781C46.8756 45.4422 45.4422 46.8756 43.6781 46.8756H5.32928C3.56511 46.8756 2.13171 45.4422 2.13171 43.6781V10.6512ZM46.8683 8.5195H2.13171V5.32928C2.13171 4.48395 2.46985 3.66802 3.06526 3.07261C3.66802 2.46985 4.4766 2.13171 5.32928 2.13171H43.6781C44.5234 2.13171 45.3393 2.46985 45.9347 3.06526C46.5375 3.66067 46.8683 4.4766 46.8683 5.32193V8.5195Z" fill="#FF5C00"/>
<path fill-rule="evenodd" clip-rule="evenodd" d="M6.3949 5.32928C6.3949 5.91734 5.9171 6.39514 5.32904 6.39514C4.74098 6.39514 4.26318 5.91734 4.26318 5.32928C4.26318 4.74123 4.74098 4.26343 5.32904 4.26343C5.9171 4.26343 6.3949 4.74123 6.3949 5.32928Z" fill="#FF5C00"/>
<path fill-rule="evenodd" clip-rule="evenodd" d="M10.6512 5.32928C10.6512 5.91734 10.1734 6.39514 9.58539 6.39514C8.99733 6.39514 8.51953 5.91734 8.51953 5.32928C8.51953 4.74123 8.99733 4.26343 9.58539 4.26343C10.1734 4.26343 10.6512 4.74123 10.6512 5.32928Z" fill="#FF5C00"/>
<path fill-rule="evenodd" clip-rule="evenodd" d="M14.9144 5.32928C14.9144 5.91734 14.4366 6.39514 13.8486 6.39514C13.2605 6.39514 12.7827 5.91734 12.7827 5.32928C12.7827 4.74123 13.2605 4.26343 13.8486 4.26343C14.4366 4.26343 14.9144 4.74123 14.9144 5.32928Z" fill="#FF5C00"/>
<path fill-rule="evenodd" clip-rule="evenodd" d="M19.1781 5.32928C19.1781 5.91734 18.7003 6.39514 18.1122 6.39514C17.5242 6.39514 17.0464 5.91734 17.0464 5.32928C17.0464 4.74123 17.5242 4.26343 18.1122 4.26343C18.7003 4.26343 19.1781 4.74123 19.1781 5.32928Z" fill="#FF5C00"/>
<path fill-rule="evenodd" clip-rule="evenodd" d="M22.3681 6.39514H43.6705C44.2586 6.39514 44.7364 5.91734 44.7364 5.32928C44.7364 4.74123 44.2659 4.26343 43.6779 4.26343H22.3681C21.78 4.26343 21.3022 4.74123 21.3022 5.32928C21.3022 5.91734 21.78 6.39514 22.3681 6.39514Z" fill="#FF5C00"/>
<path fill-rule="evenodd" clip-rule="evenodd" d="M23.4339 24.5V15.9805C23.4339 14.2164 22.0005 12.783 20.2364 12.783H7.45343C5.68925 12.783 4.25586 14.2164 4.25586 15.9805V24.5C4.25586 26.2642 5.68925 27.6976 7.45343 27.6976H20.2364C22.0079 27.6976 23.4339 26.2642 23.4339 24.5ZM21.3022 15.9805V24.5C21.3022 25.0881 20.8244 25.5659 20.2364 25.5659H7.45343C6.86537 25.5659 6.38757 25.0881 6.38757 24.5V15.9805C6.38757 15.3925 6.86537 14.9147 7.45343 14.9147H20.2364C20.8244 14.9147 21.3022 15.3925 21.3022 15.9805Z" fill="#FF5C00"/>
<path fill-rule="evenodd" clip-rule="evenodd" d="M14.9144 41.5463V33.0195C14.9144 31.2553 13.481 29.8219 11.7169 29.8219H7.45343C5.68925 29.8219 4.25586 31.2553 4.25586 33.0195V41.539C4.25586 43.3031 5.68925 44.7365 7.45343 44.7365H11.7169C13.481 44.7439 14.9144 43.3105 14.9144 41.5463ZM12.7827 33.0195V41.539C12.7827 42.127 12.3049 42.6048 11.7169 42.6048H7.45343C6.86537 42.6048 6.38757 42.127 6.38757 41.539V33.0195C6.38757 32.4314 6.86537 31.9536 7.45343 31.9536H11.7169C12.3049 31.961 12.7827 32.4388 12.7827 33.0195Z" fill="#FF5C00"/>
<path fill-rule="evenodd" clip-rule="evenodd" d="M44.744 41.5463V33.0194C44.744 32.1741 44.4058 31.3582 43.8104 30.7628C43.215 30.16 42.3991 29.8292 41.5537 29.8292H20.2366C19.3913 29.8292 18.5753 30.1674 17.9799 30.7628C17.3772 31.3582 17.0464 32.1741 17.0464 33.0194V41.5389C17.0464 42.3843 17.3845 43.2002 17.9799 43.7956C18.5753 44.3984 19.3913 44.7292 20.2366 44.7292H41.539C42.3844 44.7292 43.2003 44.391 43.7957 43.7956C44.4058 43.2076 44.744 42.3916 44.744 41.5463ZM42.6122 33.0194V41.5389C42.6122 41.8183 42.502 42.0903 42.3035 42.2887C42.105 42.4872 41.8331 42.5975 41.5537 42.5975H20.2366C19.9573 42.5975 19.6853 42.4872 19.4868 42.2887C19.2884 42.0903 19.1781 41.8183 19.1781 41.5389V33.0194C19.1781 32.7401 19.2884 32.4681 19.4868 32.2697C19.6853 32.0712 19.9573 31.9609 20.2366 31.9609H41.539C41.8184 31.9609 42.0903 32.0712 42.2888 32.2697C42.502 32.4681 42.6122 32.7401 42.6122 33.0194Z" fill="#FF5C00"/>
<path fill-rule="evenodd" clip-rule="evenodd" d="M26.6318 14.9147H30.8952C31.4833 14.9147 31.9611 14.4369 31.9611 13.8488C31.9611 13.2608 31.4833 12.783 30.8952 12.783H26.6318C26.0437 12.783 25.5659 13.2608 25.5659 13.8488C25.5659 14.4369 26.0437 14.9147 26.6318 14.9147Z" fill="#FF5C00"/>
<path fill-rule="evenodd" clip-rule="evenodd" d="M35.1513 14.9147H43.6708C44.2589 14.9147 44.7367 14.4369 44.7367 13.8488C44.7367 13.2608 44.2589 12.783 43.6708 12.783H35.1513C34.5632 12.783 34.0854 13.2608 34.0854 13.8488C34.0854 14.4369 34.5632 14.9147 35.1513 14.9147Z" fill="#FF5C00"/>
<path fill-rule="evenodd" clip-rule="evenodd" d="M26.6318 19.1781H43.6781C44.2662 19.1781 44.744 18.7003 44.744 18.1122C44.744 17.5242 44.2662 17.0464 43.6781 17.0464H26.6318C26.0437 17.0464 25.5659 17.5242 25.5659 18.1122C25.5659 18.7003 26.0437 19.1781 26.6318 19.1781Z" fill="#FF5C00"/>
<path fill-rule="evenodd" clip-rule="evenodd" d="M26.6318 23.4342H43.6781C44.2662 23.4342 44.744 22.9564 44.744 22.3683C44.744 21.7803 44.2662 21.3025 43.6781 21.3025H26.6318C26.0437 21.3025 25.5659 21.7803 25.5659 22.3683C25.5659 22.9564 26.0437 23.4342 26.6318 23.4342Z" fill="#FF5C00"/>
<path fill-rule="evenodd" clip-rule="evenodd" d="M26.6318 27.6976H37.283C37.8711 27.6976 38.3488 27.2198 38.3488 26.6318C38.3488 26.0437 37.8711 25.5659 37.283 25.5659H26.6318C26.0437 25.5659 25.5659 26.0437 25.5659 26.6318C25.5659 27.2198 26.0437 27.6976 26.6318 27.6976Z" fill="#FF5C00"/>
<path fill-rule="evenodd" clip-rule="evenodd" d="M43.678 25.5659H41.5463C40.9583 25.5659 40.4805 26.0437 40.4805 26.6318C40.4805 27.2198 40.9583 27.6976 41.5463 27.6976H43.678C44.2661 27.6976 44.7439 27.2198 44.7439 26.6318C44.7439 26.0437 44.2661 25.5659 43.678 25.5659Z" fill="#FF5C00"/>
</g>
<defs>
<clipPath id="clip0_17_105">
<rect width="49" height="49" fill="white"/>
</clipPath>
</defs>
</svg>
