<svg width="50" height="55" viewBox="0 0 50 55" fill="none" xmlns="http://www.w3.org/2000/svg">
<path fill-rule="evenodd" clip-rule="evenodd" d="M0 5.32957V43.6804C0 46.6209 2.38164 49.01 5.32928 49.01H43.6781C46.6184 49.01 49.0074 46.6282 49.0074 43.6804V5.32957C49.0074 3.91815 48.4487 2.56554 47.449 1.56579C46.4419 0.558686 45.0894 0 43.6781 0H5.32928C3.91059 0 2.55806 0.558686 1.55836 1.55844C0.558656 2.55819 0 3.9108 0 5.32957ZM2.13171 10.6518H46.8756V43.6804C46.8756 45.4447 45.4422 46.8782 43.6781 46.8782H5.32928C3.56511 46.8782 2.13171 45.4447 2.13171 43.6804V10.6518ZM46.8683 8.51996H2.13171V5.32957C2.13171 4.48419 2.46985 3.66821 3.06526 3.07277C3.66802 2.46998 4.4766 2.13183 5.32928 2.13183H43.6781C44.5234 2.13183 45.3393 2.46998 45.9347 3.06542C46.5375 3.66086 46.8683 4.47684 46.8683 5.32222V8.51996V8.51996Z" fill="#FF5C00"/>
<path fill-rule="evenodd" clip-rule="evenodd" d="M6.3949 5.32959C6.3949 5.91768 5.9171 6.3955 5.32904 6.3955C4.74098 6.3955 4.26318 5.91768 4.26318 5.32959C4.26318 4.7415 4.74098 4.26367 5.32904 4.26367C5.9171 4.26367 6.3949 4.7415 6.3949 5.32959Z" fill="#FF5C00"/>
<path fill-rule="evenodd" clip-rule="evenodd" d="M10.6512 5.32959C10.6512 5.91768 10.1734 6.3955 9.58539 6.3955C8.99733 6.3955 8.51953 5.91768 8.51953 5.32959C8.51953 4.7415 8.99733 4.26367 9.58539 4.26367C10.1734 4.26367 10.6512 4.7415 10.6512 5.32959Z" fill="#FF5C00"/>
<path fill-rule="evenodd" clip-rule="evenodd" d="M14.9144 5.32959C14.9144 5.91768 14.4366 6.3955 13.8486 6.3955C13.2605 6.3955 12.7827 5.91768 12.7827 5.32959C12.7827 4.7415 13.2605 4.26367 13.8486 4.26367C14.4366 4.26367 14.9144 4.7415 14.9144 5.32959Z" fill="#FF5C00"/>
<path fill-rule="evenodd" clip-rule="evenodd" d="M19.1781 5.32959C19.1781 5.91768 18.7003 6.3955 18.1122 6.3955C17.5242 6.3955 17.0464 5.91768 17.0464 5.32959C17.0464 4.7415 17.5242 4.26367 18.1122 4.26367C18.7003 4.26367 19.1781 4.7415 19.1781 5.32959Z" fill="#FF5C00"/>
<path fill-rule="evenodd" clip-rule="evenodd" d="M22.3681 6.3955H43.6705C44.2586 6.3955 44.7364 5.91768 44.7364 5.32959C44.7364 4.7415 44.2659 4.26367 43.6779 4.26367H22.3681C21.78 4.26367 21.3022 4.7415 21.3022 5.32959C21.3022 5.91768 21.78 6.3955 22.3681 6.3955Z" fill="#FF5C00"/>
<path fill-rule="evenodd" clip-rule="evenodd" d="M23.4339 24.5013V15.9813C23.4339 14.217 22.0005 12.7836 20.2364 12.7836H7.45343C5.68925 12.7836 4.25586 14.217 4.25586 15.9813V24.5013C4.25586 26.2655 5.68925 27.699 7.45343 27.699H20.2364C22.0079 27.699 23.4339 26.2655 23.4339 24.5013ZM21.3022 15.9813V24.5013C21.3022 25.0894 20.8244 25.5672 20.2364 25.5672H7.45343C6.86537 25.5672 6.38757 25.0894 6.38757 24.5013V15.9813C6.38757 15.3932 6.86537 14.9154 7.45343 14.9154H20.2364C20.8244 14.9154 21.3022 15.3932 21.3022 15.9813Z" fill="#FF5C00"/>
<path fill-rule="evenodd" clip-rule="evenodd" d="M14.9144 41.5487V33.0214C14.9144 31.2571 13.481 29.8236 11.7169 29.8236H7.45343C5.68925 29.8236 4.25586 31.2571 4.25586 33.0214V41.5413C4.25586 43.3056 5.68925 44.7391 7.45343 44.7391H11.7169C13.481 44.7464 14.9144 43.3129 14.9144 41.5487ZM12.7827 33.0214V41.5413C12.7827 42.1294 12.3049 42.6072 11.7169 42.6072H7.45343C6.86537 42.6072 6.38757 42.1294 6.38757 41.5413V33.0214C6.38757 32.4333 6.86537 31.9554 7.45343 31.9554H11.7169C12.3049 31.9628 12.7827 32.4406 12.7827 33.0214Z" fill="#FF5C00"/>
<path fill-rule="evenodd" clip-rule="evenodd" d="M44.744 41.5485V33.0212C44.744 32.1758 44.4058 31.3598 43.8104 30.7644C43.215 30.1616 42.3991 29.8308 41.5537 29.8308H20.2366C19.3913 29.8308 18.5753 30.169 17.9799 30.7644C17.3772 31.3598 17.0464 32.1758 17.0464 33.0212V41.5412C17.0464 42.3865 17.3845 43.2025 17.9799 43.798C18.5753 44.4008 19.3913 44.7316 20.2366 44.7316H41.539C42.3844 44.7316 43.2003 44.3934 43.7957 43.798C44.4058 43.2099 44.744 42.3939 44.744 41.5485ZM42.6122 33.0212V41.5412C42.6122 41.8205 42.502 42.0925 42.3035 42.291C42.105 42.4895 41.8331 42.5997 41.5537 42.5997H20.2366C19.9573 42.5997 19.6853 42.4895 19.4868 42.291C19.2884 42.0925 19.1781 41.8205 19.1781 41.5412V33.0212C19.1781 32.7419 19.2884 32.4699 19.4868 32.2714C19.6853 32.0729 19.9573 31.9626 20.2366 31.9626H41.539C41.8184 31.9626 42.0903 32.0729 42.2888 32.2714C42.502 32.4699 42.6122 32.7419 42.6122 33.0212Z" fill="#FF5C00"/>
<path fill-rule="evenodd" clip-rule="evenodd" d="M26.6318 14.9154H30.8952C31.4833 14.9154 31.9611 14.4376 31.9611 13.8495C31.9611 13.2614 31.4833 12.7836 30.8952 12.7836H26.6318C26.0437 12.7836 25.5659 13.2614 25.5659 13.8495C25.5659 14.4376 26.0437 14.9154 26.6318 14.9154Z" fill="#FF5C00"/>
<path fill-rule="evenodd" clip-rule="evenodd" d="M35.1513 14.9154H43.6708C44.2589 14.9154 44.7367 14.4376 44.7367 13.8495C44.7367 13.2614 44.2589 12.7836 43.6708 12.7836H35.1513C34.5632 12.7836 34.0854 13.2614 34.0854 13.8495C34.0854 14.4376 34.5632 14.9154 35.1513 14.9154Z" fill="#FF5C00"/>
<path fill-rule="evenodd" clip-rule="evenodd" d="M26.6318 19.1791H43.6781C44.2662 19.1791 44.744 18.7012 44.744 18.1132C44.744 17.5251 44.2662 17.0472 43.6781 17.0472H26.6318C26.0437 17.0472 25.5659 17.5251 25.5659 18.1132C25.5659 18.7012 26.0437 19.1791 26.6318 19.1791Z" fill="#FF5C00"/>
<path fill-rule="evenodd" clip-rule="evenodd" d="M26.6318 23.4354H43.6781C44.2662 23.4354 44.744 22.9576 44.744 22.3695C44.744 21.7814 44.2662 21.3036 43.6781 21.3036H26.6318C26.0437 21.3036 25.5659 21.7814 25.5659 22.3695C25.5659 22.9576 26.0437 23.4354 26.6318 23.4354Z" fill="#FF5C00"/>
<path fill-rule="evenodd" clip-rule="evenodd" d="M26.6318 27.6991H37.283C37.8711 27.6991 38.3488 27.2213 38.3488 26.6332C38.3488 26.0451 37.8711 25.5673 37.283 25.5673H26.6318C26.0437 25.5673 25.5659 26.0451 25.5659 26.6332C25.5659 27.2213 26.0437 27.6991 26.6318 27.6991Z" fill="#FF5C00"/>
<path fill-rule="evenodd" clip-rule="evenodd" d="M43.678 25.5673H41.5463C40.9583 25.5673 40.4805 26.0451 40.4805 26.6332C40.4805 27.2213 40.9583 27.6991 41.5463 27.6991H43.678C44.2661 27.6991 44.7439 27.2213 44.7439 26.6332C44.7439 26.0451 44.2661 25.5673 43.678 25.5673Z" fill="#FF5C00"/>
</svg>
