<svg width="49" height="55" viewBox="0 0 49 55" fill="none" xmlns="http://www.w3.org/2000/svg">
<path d="M47.7127 0.562529L47.69 0.547528C47.1751 0.18751 46.5693 0 45.9484 0C45.5925 0 45.2442 0.0600031 44.9034 0.180009L27.9189 6.29282L27.8356 6.32282H4.83109C3.54381 6.32282 2.32468 6.81785 1.41601 7.72539C0.499768 8.62544 0 9.833 0 11.1081V27.9314C0 29.2065 0.499768 30.4141 1.41601 31.3141C2.32468 32.2216 3.54381 32.7167 4.83109 32.7167H10.7223V43.8622C10.7223 45.5648 11.6461 47.1549 13.1378 48.0099C13.8724 48.43 14.7053 48.6475 15.5534 48.6475C16.4015 48.6475 17.2344 48.4225 17.9689 48.0099C19.4607 47.1549 20.3845 45.5723 20.3845 43.8622V32.7167H27.8962L27.9643 32.7392L45.1457 37.3744C45.4108 37.4419 45.6758 37.4794 45.9484 37.4794H45.956C46.7662 37.4794 47.531 37.1644 48.1065 36.5944C48.682 36.0243 49 35.2668 49 34.4643V3.01515C49 2.0401 48.5229 1.12506 47.7127 0.562529ZM17.8781 43.8622C17.8781 44.6798 17.4313 45.4448 16.7195 45.8498C16.3712 46.0523 15.9699 46.1574 15.561 46.1574C15.1521 46.1574 14.7507 46.0523 14.4024 45.8498C13.6906 45.4373 13.2439 44.6798 13.2439 43.8622V32.7167H17.8781V43.8622V43.8622ZM26.8133 30.2265H4.83109C4.21017 30.2265 3.62711 29.9865 3.18792 29.5515C2.74873 29.1165 2.50641 28.539 2.50641 27.9314V11.1081C2.50641 10.493 2.74873 9.91551 3.18792 9.48048C3.62711 9.04546 4.21017 8.80545 4.83109 8.80545H26.8133V30.2265ZM46.4784 35.1543L45.8121 34.9743L29.7211 30.6241L29.3273 30.5191V8.43793L29.6756 8.31042L45.7667 2.52013L46.4784 2.26512V35.1543V35.1543Z" fill="#FF5C00"/>
<path d="M16.9392 48.9999C17.0376 48.9774 17.1361 48.9474 17.2345 48.9099C17.1361 48.9474 17.0376 48.9774 16.9392 48.9999Z" fill="#FF5C00"/>
</svg>
