<svg width="48" height="48" viewBox="0 0 48 48" fill="none" xmlns="http://www.w3.org/2000/svg">
<g clip-path="url(#clip0_17_75)">
<path fill-rule="evenodd" clip-rule="evenodd" d="M14.2527 24L2.99635 35.2564C2.55893 35.6938 2.26731 36.2406 2.15067 36.8457L0.561361 44.7558C0.415553 45.4994 0.648846 46.2722 1.18834 46.8117C1.72782 47.3512 2.50061 47.5844 3.24423 47.4386L11.1616 45.8566C11.7667 45.7327 12.3135 45.4411 12.7509 45.0109L24 33.7546L37.3414 47.096C37.9247 47.6792 38.712 48.0073 39.5358 48.0073C40.3597 48.0073 41.147 47.6792 41.7303 47.096C43.2394 45.5869 45.5796 43.2467 47.0887 41.7375C47.6719 41.1543 48 40.367 48 39.5431C48 38.7193 47.6719 37.932 47.0887 37.3487L33.7473 24.0073L47.0887 10.6659C47.6719 10.0826 48 9.29526 48 8.47145C48 7.64763 47.6719 6.85298 47.0887 6.26974C45.5796 4.76063 43.2394 2.42041 41.7303 0.9113C41.147 0.328068 40.3597 0 39.5358 0C38.712 0 37.9247 0.328068 37.3414 0.9113L24 14.2527L10.6586 0.9113C10.0753 0.328068 9.28797 0 8.46416 0C7.64034 0 6.85298 0.328068 6.26974 0.9113C4.76063 2.42041 2.42041 4.76063 0.9113 6.26974C0.328068 6.85298 0 7.64034 0 8.46416C0 9.28797 0.328068 10.0753 0.9113 10.6586L14.2527 24ZM36.8603 43.6768L38.8068 45.6233C39.0036 45.8202 39.2661 45.9295 39.5358 45.9295C39.8129 45.9295 40.0753 45.8202 40.2649 45.6233L45.6233 40.2649C45.8202 40.068 45.9295 39.8056 45.9295 39.5358C45.9295 39.2661 45.8202 38.9964 45.6233 38.8068L9.1932 2.37667C8.99635 2.17983 8.7339 2.07047 8.46416 2.07047C8.18712 2.07047 7.92467 2.17983 7.73512 2.37667L2.37667 7.72782C2.17983 7.92467 2.07047 8.18712 2.07047 8.45686C2.07047 8.72661 2.17983 8.99635 2.37667 9.1859L4.32321 11.1324L6.69988 8.75577C7.10085 8.3548 7.75699 8.3548 8.16525 8.75577C8.56622 9.15674 8.56622 9.81288 8.16525 10.2211L5.78858 12.5978L7.42892 14.2382L9.80559 11.8615C10.2066 11.4605 10.8627 11.4605 11.271 11.8615C11.6719 12.2625 11.6719 12.9186 11.271 13.3269L8.89429 15.7108L10.5346 17.3512L12.9113 14.9745C13.3123 14.5735 13.9684 14.5735 14.3767 14.9745C14.7776 15.3755 14.7776 16.0316 14.3767 16.4399L12 18.8165L13.6403 20.4569L16.017 18.0802C16.418 17.6792 17.0741 17.6792 17.4824 18.0802C17.8834 18.4812 17.8834 19.1373 17.4824 19.5456L15.1057 21.9222L16.746 23.5626L19.1227 21.1859C19.5237 20.7849 20.1798 20.7849 20.5881 21.1859C20.9891 21.5869 20.9891 22.243 20.5881 22.6513L18.2114 25.0279L19.8518 26.6683L22.2284 24.2916C22.6294 23.8906 23.2855 23.8906 23.6938 24.2916C24.1021 24.6926 24.0948 25.3487 23.6938 25.757L21.3244 28.1409L22.9648 29.7813L25.3414 27.4046C25.7424 27.0036 26.3985 27.0036 26.8068 27.4046C27.2078 27.8056 27.2078 28.4617 26.8068 28.87L24.4301 31.2467L26.0705 32.887L28.4471 30.5103C28.8481 30.1094 29.5042 30.1094 29.9125 30.5103C30.3208 30.9113 30.3135 31.5674 29.9125 31.9757L27.5358 34.3524L29.1762 35.9927L31.5529 33.616C31.9538 33.2151 32.61 33.2151 33.0182 33.616C33.4192 34.017 33.4192 34.6731 33.0182 35.0814L30.6416 37.4581L32.2819 39.0984L34.6586 36.7217C35.0595 36.3208 35.7157 36.3208 36.1239 36.7217C36.5322 37.1227 36.5249 37.7789 36.1239 38.1871L33.7546 40.5711L35.3949 42.2114L37.7716 39.8348C38.1725 39.4338 38.8287 39.4338 39.2369 39.8348C39.6379 40.2357 39.6379 40.8919 39.2369 41.3001L36.8603 43.6768ZM3.92224 38.5298L9.47023 44.0778L2.83597 45.4046C2.77035 45.4192 2.69745 45.3973 2.64642 45.3463C2.59538 45.2953 2.57351 45.2296 2.58809 45.1567L3.92224 38.5298ZM15.7181 25.4654L4.75334 36.4301L11.5772 43.2539L22.5419 32.2892L15.7181 25.4654ZM25.4654 15.7108L32.2892 22.5346L39.113 15.7108L32.2892 8.89429L25.4654 15.7108ZM40.5711 14.2527L33.7546 7.42892L38.8068 2.37667C39.0036 2.17983 39.2661 2.07047 39.5358 2.07047C39.8129 2.07047 40.0753 2.17983 40.2649 2.37667L45.6233 7.73512C45.8202 7.93196 45.9295 8.19441 45.9295 8.46416C45.9295 8.7339 45.8202 9.00364 45.6233 9.1932L40.5711 14.2527Z" fill="#FF5C00"/>
</g>
<defs>
<clipPath id="clip0_17_75">
<rect width="48" height="48" fill="white"/>
</clipPath>
</defs>
</svg>
