<svg width="48" height="55" viewBox="0 0 48 55" fill="none" xmlns="http://www.w3.org/2000/svg">
<path fill-rule="evenodd" clip-rule="evenodd" d="M14.2527 24.0014L2.99635 35.2584C2.55893 35.6958 2.26731 36.2426 2.15067 36.8478L0.561361 44.7583C0.415553 45.502 0.648846 46.2748 1.18834 46.8143C1.72782 47.3538 2.50061 47.5871 3.24423 47.4413L11.1616 45.8592C11.7667 45.7353 12.3135 45.4436 12.7509 45.0135L24 33.7565L37.3414 47.0986C37.9247 47.6819 38.712 48.01 39.5358 48.01C40.3597 48.01 41.147 47.6819 41.7303 47.0986C43.2394 45.5894 45.5796 43.2491 47.0887 41.7399C47.6719 41.1566 48 40.3692 48 39.5454C48 38.7215 47.6719 37.9341 47.0887 37.3508L33.7473 24.0086L47.0887 10.6665C47.6719 10.0832 48 9.29578 48 8.47192C48 7.64806 47.6719 6.85336 47.0887 6.2701C45.5796 4.7609 43.2394 2.42055 41.7303 0.911351C41.147 0.328087 40.3597 0 39.5358 0C38.712 0 37.9247 0.328087 37.3414 0.911351L24 14.2535L10.6586 0.911351C10.0753 0.328087 9.28797 0 8.46415 0C7.64034 0 6.85298 0.328087 6.26974 0.911351C4.76063 2.42055 2.42041 4.7609 0.9113 6.2701C0.328068 6.85336 0 7.64077 0 8.46463C0 9.28849 0.328068 10.0759 0.9113 10.6592L14.2527 24.0014ZM36.8603 43.6793L38.8068 45.6259C39.0036 45.8228 39.2661 45.9321 39.5358 45.9321C39.8129 45.9321 40.0753 45.8228 40.2649 45.6259L45.6233 40.2672C45.8202 40.0703 45.9295 39.8078 45.9295 39.5381C45.9295 39.2683 45.8202 38.9986 45.6233 38.809L9.1932 2.3768C8.99635 2.17995 8.7339 2.07059 8.46415 2.07059C8.18712 2.07059 7.92467 2.17995 7.73511 2.3768L2.37667 7.72826C2.17983 7.92511 2.07047 8.18758 2.07047 8.45734C2.07047 8.7271 2.17983 8.99686 2.37667 9.18642L4.32321 11.1331L6.69988 8.75626C7.10085 8.35527 7.75699 8.35527 8.16525 8.75626C8.56622 9.15726 8.56622 9.81343 8.16525 10.2217L5.78858 12.5985L7.42892 14.239L9.80559 11.8622C10.2066 11.4612 10.8627 11.4612 11.271 11.8622C11.6719 12.2631 11.6719 12.9193 11.271 13.3276L8.89429 15.7117L10.5346 17.3521L12.9113 14.9753C13.3123 14.5743 13.9684 14.5743 14.3767 14.9753C14.7776 15.3763 14.7776 16.0325 14.3767 16.4408L12 18.8176L13.6403 20.458L16.017 18.0812C16.418 17.6802 17.0741 17.6802 17.4824 18.0812C17.8834 18.4822 17.8834 19.1384 17.4824 19.5467L15.1057 21.9235L16.746 23.5639L19.1227 21.1871C19.5237 20.7861 20.1798 20.7861 20.5881 21.1871C20.9891 21.5881 20.9891 22.2443 20.5881 22.6526L18.2114 25.0294L19.8518 26.6698L22.2284 24.293C22.6294 23.892 23.2855 23.892 23.6938 24.293C24.1021 24.694 24.0948 25.3502 23.6938 25.7584L21.3244 28.1425L22.9648 29.783L25.3414 27.4062C25.7424 27.0052 26.3985 27.0052 26.8068 27.4062C27.2078 27.8072 27.2078 28.4633 26.8068 28.8716L24.4301 31.2484L26.0705 32.8889L28.4471 30.512C28.8481 30.1111 29.5043 30.1111 29.9125 30.512C30.3208 30.913 30.3135 31.5692 29.9125 31.9775L27.5358 34.3543L29.1762 35.9947L31.5529 33.6179C31.9538 33.2169 32.61 33.2169 33.0182 33.6179C33.4192 34.0189 33.4192 34.6751 33.0182 35.0834L30.6416 37.4602L32.2819 39.1006L34.6586 36.7238C35.0595 36.3228 35.7157 36.3228 36.1239 36.7238C36.5322 37.1248 36.5249 37.781 36.1239 38.1893L33.7546 40.5734L35.3949 42.2138L37.7716 39.837C38.1725 39.436 38.8287 39.436 39.2369 39.837C39.6379 40.238 39.6379 40.8942 39.2369 41.3024L36.8603 43.6793ZM3.92224 38.5319L9.47023 44.0802L2.83597 45.4072C2.77035 45.4218 2.69745 45.3999 2.64642 45.3488C2.59538 45.2978 2.57351 45.2322 2.58809 45.1593L3.92224 38.5319ZM15.7181 25.4668L4.75334 36.4322L11.5772 43.2564L22.5419 32.291L15.7181 25.4668ZM25.4654 15.7117L32.2892 22.5359L39.113 15.7117L32.2892 8.89479L25.4654 15.7117ZM40.5711 14.2535L33.7546 7.42934L38.8068 2.3768C39.0036 2.17995 39.2661 2.07059 39.5358 2.07059C39.8129 2.07059 40.0753 2.17995 40.2649 2.3768L45.6233 7.73555C45.8202 7.9324 45.9295 8.19487 45.9295 8.46463C45.9295 8.73439 45.8202 9.00415 45.6233 9.19371L40.5711 14.2535Z" fill="#FF5C00"/>
</svg>
