<svg width="49" height="51" viewBox="0 0 49 51" fill="none" xmlns="http://www.w3.org/2000/svg">
<g clip-path="url(#clip0_17_82)">
<path d="M48.6819 12.7238C48.6597 12.1479 48.4303 11.6018 48.0234 11.1979C47.5942 10.764 46.9948 10.5172 46.3659 10.5321C44.1756 10.6069 42.4441 12.4695 42.5107 14.6911L42.6291 18.4013L42.0075 20.9371C42.0001 20.9371 41.9927 20.9371 41.9927 20.9371C41.2157 20.9371 40.4832 21.2438 39.9356 21.7973L35.8585 25.9264L34.4451 26.1732C33.535 26.3303 32.6692 26.7791 32.0107 27.4449L29.1988 30.2873C28.3701 31.1251 27.9039 32.2322 27.8743 33.4141L27.7707 38.1191C26.461 38.5604 25.5064 39.8022 25.4916 41.2683L25.4251 47.432C25.4029 49.287 26.8828 50.8055 28.7105 50.828L38.8257 50.9402H38.8627C39.7358 50.9402 40.5572 50.5961 41.1861 49.9827C41.8225 49.3544 42.1777 48.5166 42.1851 47.619L42.2517 41.4403C42.2591 40.5427 41.9261 39.6974 41.3045 39.0616C40.9494 38.6951 40.535 38.4258 40.0762 38.2612L40.0984 38.1191C40.2538 37.0719 40.7274 36.1219 41.4673 35.3739L46.2105 30.5791C47.424 29.3523 48.1861 27.7366 48.3637 26.0236L48.8669 21.1839C48.9039 21.0119 48.9187 20.8324 48.9261 20.6528V20.6379C48.9261 20.6304 48.9261 20.6154 48.9261 20.608C48.9261 20.578 48.9335 20.5481 48.9335 20.5182L48.6819 12.7238ZM40.572 41.4179L40.5054 47.5816C40.498 48.0229 40.3278 48.4343 40.0096 48.7485C39.6914 49.0626 39.2771 49.2272 38.8405 49.2272L28.7253 49.115C27.8151 49.1075 27.09 48.352 27.0974 47.432L27.164 41.2683C27.1714 40.3557 27.9113 39.6226 28.8067 39.6226H28.8215L38.9367 39.7348C39.3733 39.7423 39.7802 39.9144 40.091 40.236C40.4092 40.5577 40.5794 40.9765 40.572 41.4179ZM45.0191 29.3673L40.276 34.1621C39.2845 35.1644 38.6481 36.4435 38.4335 37.8573L38.4113 38.0294L29.4578 37.9321L29.5614 33.429C29.5762 32.6885 29.8722 31.9853 30.3976 31.4617L33.2094 28.6193C33.6238 28.2004 34.164 27.9161 34.7411 27.8189L36.4208 27.5271C36.48 27.5197 36.5392 27.4972 36.591 27.4748C36.5984 27.4748 36.5984 27.4673 36.6058 27.4673C36.7094 27.4224 36.7982 27.3626 36.8722 27.2878C36.8722 27.2878 36.8722 27.2878 36.8796 27.2878L41.1491 22.9717C41.6079 22.5005 42.4293 22.5079 42.8881 22.9717C43.1174 23.2036 43.2432 23.5178 43.2432 23.8544C43.2432 24.191 43.1174 24.4977 42.8881 24.737L37.9599 29.7039C37.6344 30.033 37.6344 30.5716 37.9599 30.9007C38.1227 31.0653 38.3373 31.1476 38.5519 31.1476C38.7665 31.1476 38.9811 31.0653 39.1439 30.9007L44.0424 25.9488C44.59 25.3953 44.8933 24.6548 44.8933 23.8693C44.8933 23.0839 44.59 22.3434 44.0424 21.7898C43.9092 21.6552 43.7612 21.5355 43.6058 21.4308L44.2718 18.693C44.2718 18.6856 44.2718 18.6781 44.2792 18.6631C44.2866 18.6332 44.2866 18.6033 44.294 18.5734C44.294 18.5434 44.3014 18.5135 44.3014 18.4836C44.3014 18.4761 44.3014 18.4686 44.3014 18.4537L44.1756 14.6313C44.1386 13.3447 45.1375 12.2601 46.4028 12.2227C46.5656 12.2227 46.7136 12.2825 46.8246 12.3947C46.8986 12.4695 46.9874 12.5967 46.9948 12.7837L47.239 20.5107L47.1798 21.0568C47.1798 21.0717 47.1724 21.0942 47.1724 21.1091L46.6766 25.8366C46.5582 27.1606 45.9589 28.4173 45.0191 29.3673Z" fill="#FF5C00"/>
<path d="M46.425 10.5321C47.0317 10.5321 47.6015 10.7789 48.0233 11.1978C48.4229 11.6017 48.6597 12.1478 48.6818 12.7238L48.926 20.5107C48.926 20.5406 48.9186 20.5705 48.9186 20.6004C48.9186 20.6079 48.9186 20.6229 48.9186 20.6303V20.6453C48.9186 20.8323 48.8964 21.0044 48.8594 21.1764L48.3563 26.0161C48.1787 27.7291 47.4165 29.3523 46.203 30.5715L41.4599 35.3663C40.7199 36.1144 40.2463 37.0643 40.0909 38.1116L40.0687 38.2537C40.5275 38.4257 40.9419 38.695 41.2971 39.0541C41.9186 39.6974 42.259 40.5426 42.2442 41.4328L42.1776 47.5965C42.1702 48.4866 41.815 49.3319 41.1787 49.9602C40.5497 50.5811 39.7284 50.9177 38.8552 50.9177H38.8182L28.703 50.8055C26.8679 50.783 25.3954 49.2645 25.4176 47.4095L25.4842 41.2458C25.499 39.7722 26.4535 38.5379 27.7632 38.0966L27.8668 33.3916C27.8964 32.2097 28.3626 31.1026 29.1914 30.2648L32.0032 27.4224C32.6618 26.7566 33.5201 26.3078 34.4377 26.1507L35.851 25.9039L39.9281 21.7748C40.4757 21.2213 41.2083 20.9146 41.9852 20.9146C41.9926 20.9146 42 20.9146 42 20.9146L42.6216 18.3788L42.5032 14.6686C42.4366 12.447 44.1681 10.5844 46.3584 10.5096C46.388 10.5321 46.4102 10.5321 46.425 10.5321ZM38.5518 31.1475C38.3372 31.1475 38.1227 31.0652 37.9599 30.9007C37.6343 30.5715 37.6343 30.033 37.9599 29.7038L42.8584 24.7519C43.0878 24.5201 43.2136 24.2059 43.2136 23.8693C43.2136 23.5327 43.0878 23.226 42.8584 22.9866C42.629 22.7547 42.3108 22.635 41.9852 22.635C41.667 22.635 41.3489 22.7547 41.1121 22.9866L36.8573 27.3027C36.8573 27.3027 36.8573 27.3027 36.8499 27.3027C36.7759 27.3775 36.6871 27.4373 36.5835 27.4822C36.5761 27.4822 36.5761 27.4897 36.5687 27.4897C36.5169 27.5121 36.4577 27.5271 36.3985 27.5421L34.7188 27.8338C34.1417 27.931 33.6015 28.2153 33.1871 28.6342L30.3753 31.4766C29.8573 32.0002 29.5613 32.7034 29.5391 33.4439L29.4355 37.947L38.389 38.0443L38.4112 37.8722C38.6184 36.4584 39.2548 35.1868 40.2537 34.177L44.9969 29.3822C45.9366 28.4322 46.536 27.1755 46.6692 25.844L47.1649 21.1166C47.1649 21.1016 47.1723 21.0792 47.1723 21.0642L47.2315 20.5181L46.9873 12.7911C46.9799 12.6041 46.8911 12.4769 46.8172 12.4021C46.7062 12.2899 46.5508 12.2376 46.3954 12.2301C45.1301 12.275 44.1311 13.3521 44.1681 14.6387L44.2939 18.4611C44.2939 18.4686 44.2939 18.476 44.2939 18.491C44.2939 18.5209 44.2939 18.5509 44.2865 18.5808C44.2865 18.6107 44.2791 18.6406 44.2717 18.6705C44.2717 18.678 44.2717 18.693 44.2643 18.7005L43.5983 21.4382C43.7537 21.5429 43.8943 21.6626 44.0349 21.7973C44.5825 22.3508 44.8859 23.0913 44.8859 23.8768C44.8859 24.6622 44.5825 25.4027 44.0349 25.9562L39.1364 30.9081C38.981 31.0652 38.7664 31.1475 38.5518 31.1475ZM38.8478 49.2271C39.2844 49.2271 39.6988 49.0626 40.0169 48.7484C40.3351 48.4342 40.5053 48.0228 40.5127 47.5815L40.5793 41.4178C40.5867 40.9765 40.4165 40.5576 40.1057 40.236C39.795 39.9143 39.388 39.7423 38.9514 39.7348L28.8362 39.6226H28.8214C27.926 39.6226 27.1861 40.3556 27.1787 41.2682L27.1121 47.4319C27.1047 48.352 27.8298 49.1 28.74 49.1149L38.8478 49.2271ZM46.425 10.4573C46.4028 10.4573 46.3806 10.4573 46.3584 10.4573C44.1237 10.5321 42.3626 12.432 42.4292 14.6911L42.5476 18.3863L41.9408 20.8548C41.1565 20.8622 40.4239 21.1764 39.8689 21.7374L35.8066 25.844L34.4155 26.0834C33.4831 26.2405 32.61 26.7043 31.944 27.3775L29.1322 30.22C28.2886 31.0727 27.815 32.2022 27.7854 33.399L27.6818 38.0517C26.3277 38.5305 25.4176 39.8096 25.4028 41.2533L25.3362 47.4169C25.314 49.3094 26.8235 50.8653 28.6956 50.8878L38.8108 51H38.8478C39.7358 51 40.5793 50.6484 41.2231 50.0201C41.8742 49.3768 42.2368 48.524 42.2442 47.604L42.3256 41.4403C42.333 40.5277 41.9926 39.66 41.3563 39.0017C41.0159 38.6502 40.6163 38.3809 40.1575 38.2013L40.1723 38.1191C40.3277 37.0868 40.7865 36.1518 41.5191 35.4187L46.2622 30.6239C47.4831 29.3897 48.2601 27.7515 48.4377 26.0236L48.9408 21.1914C48.9778 21.0118 48.9926 20.8323 49 20.6528V20.6378C49 20.6303 49 20.6229 49 20.6079V20.6004C49 20.5855 49 20.5705 49 20.563C49 20.5481 49 20.5256 49 20.5107L48.7558 12.7163C48.7336 12.1179 48.4969 11.5569 48.0751 11.138C47.6385 10.6966 47.0539 10.4573 46.425 10.4573ZM44.3827 18.4536L44.2569 14.6312C44.2199 13.382 45.1892 12.3348 46.4102 12.2974C46.5582 12.2974 46.684 12.3498 46.7802 12.447C46.8468 12.5143 46.9207 12.6191 46.9281 12.7836L47.1723 20.5032L47.1131 21.0418C47.1131 21.0492 47.1131 21.0567 47.1131 21.0642C47.1131 21.0792 47.1131 21.0866 47.1131 21.1016L46.6174 25.8291C46.4768 27.1381 45.8922 28.3798 44.9673 29.3223L40.2241 34.1171C39.2178 35.1345 38.574 36.4285 38.3668 37.8498L38.352 37.962L29.5391 37.8647L29.6353 33.4364C29.6501 32.7109 29.9387 32.0302 30.4493 31.5215L33.2611 28.679C33.6607 28.2751 34.1935 27.9983 34.7484 27.9011L36.4281 27.6094C36.4873 27.6019 36.5539 27.5795 36.6131 27.557C36.6205 27.557 36.6205 27.5495 36.6279 27.5495C36.7315 27.5047 36.8277 27.4448 36.9091 27.3625L36.9165 27.355L41.1861 23.039C41.3933 22.8295 41.6892 22.7098 42.0074 22.7098C42.3182 22.7098 42.6216 22.8295 42.8288 23.039C43.0434 23.2559 43.1618 23.5551 43.1618 23.8693C43.1618 24.1834 43.0434 24.4752 42.8214 24.6996L37.9229 29.6515C37.7527 29.8235 37.6565 30.0554 37.6565 30.3022C37.6565 30.5491 37.7527 30.781 37.9229 30.953C38.0931 31.1251 38.3224 31.2223 38.5666 31.2223C38.8108 31.2223 39.0402 31.1251 39.2104 30.953L44.1089 26.0011C44.6713 25.4326 44.9821 24.6771 44.9821 23.8693C44.9821 23.0614 44.6713 22.3059 44.1089 21.7374C43.9905 21.6177 43.8499 21.4981 43.7093 21.4008L44.3679 18.7079C44.3679 18.7005 44.3679 18.693 44.3753 18.678C44.3753 18.678 44.3753 18.678 44.3753 18.6705C44.3827 18.6406 44.3827 18.6032 44.3901 18.5808C44.3901 18.5509 44.3975 18.5209 44.3975 18.4835C44.3827 18.476 44.3827 18.4611 44.3827 18.4536ZM38.8478 49.1523L28.7326 49.0401C27.8668 49.0327 27.1713 48.3071 27.1787 47.4319L27.2453 41.2682C27.2527 40.4005 27.963 39.6974 28.814 39.6974H28.8288L38.944 39.8096C39.3584 39.8171 39.7506 39.9816 40.0465 40.2883C40.3351 40.5875 40.4979 40.984 40.4979 41.3954V41.4178L40.4313 47.5815C40.4239 48.0004 40.2611 48.3969 39.9577 48.6961C39.6618 48.9878 39.2696 49.1523 38.8478 49.1523Z" fill="#FF5C00"/>
<path d="M40.0024 42.1958C40.0024 42.9962 39.3586 43.6469 38.5669 43.6469C37.7751 43.6469 37.1313 42.9962 37.1313 42.1958C37.1313 41.3954 37.7751 40.7446 38.5669 40.7446C39.3586 40.7446 40.0024 41.3954 40.0024 42.1958Z" fill="#FF5C00"/>
<path d="M38.5668 43.6844C37.7528 43.6844 37.0942 43.0187 37.0942 42.1958C37.0942 41.373 37.7528 40.7073 38.5668 40.7073C39.3807 40.7073 40.0393 41.373 40.0393 42.1958C40.0393 43.0187 39.3807 43.6844 38.5668 43.6844ZM38.5668 40.7821C37.7972 40.7821 37.1682 41.4179 37.1682 42.1958C37.1682 42.9738 37.7972 43.6096 38.5668 43.6096C39.3363 43.6096 39.9653 42.9738 39.9653 42.1958C39.9653 41.4179 39.3363 40.7821 38.5668 40.7821Z" fill="#FF5C00"/>
<path d="M21.2296 38.1041L21.126 33.399C21.0964 32.2172 20.6302 31.1101 19.8015 30.2723L16.9897 27.4298C16.3311 26.7641 15.4727 26.3153 14.5626 26.1582L13.1493 25.9114L9.0721 21.7823C8.52454 21.2288 7.79198 20.9221 7.01502 20.9221C7.00762 20.9221 7.00022 20.9221 7.00022 20.9221L6.37866 18.3863L6.49705 14.6761C6.56365 12.4545 4.83215 10.5919 2.63447 10.5171C2.04251 10.4947 1.42094 10.749 0.984367 11.1829C0.57739 11.5868 0.348003 12.1328 0.325804 12.7163L0.0742188 20.5181C0.0742188 20.5481 0.0816183 20.5855 0.0816183 20.6154V20.6229V20.6303C0.0816183 20.8174 0.103817 20.9969 0.140815 21.1764L0.643986 26.0086C0.821576 27.7216 1.58373 29.3448 2.79726 30.5641L7.54039 35.3589C8.28035 36.1069 8.75392 37.0569 8.90931 38.0966L8.93151 38.2387C8.47274 38.4108 8.05836 38.6801 7.70318 39.0391C7.08162 39.6824 6.74124 40.5277 6.75604 41.4178L6.82263 47.5815C6.83003 48.4791 7.18521 49.3169 7.82158 49.9453C8.45054 50.5661 9.27189 50.9027 10.145 50.9027H10.182L20.2973 50.7905C22.125 50.7681 23.6049 49.2496 23.5827 47.3945L23.5161 41.2308C23.4939 39.7871 22.5393 38.5454 21.2296 38.1041ZM8.72432 34.1695L3.9812 29.3747C3.04145 28.4247 2.44208 27.168 2.30889 25.8366L1.81312 21.1091C1.81312 21.0941 1.80572 21.0717 1.80572 21.0567L1.74652 20.5107L1.99811 12.7836C2.00551 12.5966 2.0943 12.4694 2.1683 12.3946C2.27929 12.2824 2.43468 12.2226 2.58268 12.2226C3.8554 12.2675 4.85435 13.3446 4.81735 14.6312L4.69156 18.4536C4.69156 18.4611 4.69156 18.4686 4.69156 18.4835C4.69156 18.5135 4.69155 18.5434 4.69895 18.5733C4.69895 18.6032 4.70635 18.6331 4.71375 18.6631C4.71375 18.6705 4.71375 18.678 4.72115 18.693L5.38712 21.4307C5.23172 21.5355 5.09113 21.6551 4.95054 21.7898C4.40297 22.3433 4.09959 23.0839 4.09959 23.8693C4.09959 24.6547 4.40297 25.3952 4.95054 25.9488L9.84906 30.9007C10.0119 31.0652 10.2264 31.1475 10.441 31.1475C10.6556 31.1475 10.8702 31.0652 11.033 30.9007C11.3586 30.5715 11.3586 30.033 11.033 29.7038L6.13447 24.7519C5.90509 24.5201 5.77929 24.2059 5.77929 23.8693C5.77929 23.5327 5.90509 23.226 6.13447 22.9866C6.59325 22.5228 7.4146 22.5228 7.87337 22.9866L12.1429 27.3027C12.1429 27.3027 12.1429 27.3027 12.1503 27.3027C12.2243 27.3775 12.3131 27.4373 12.4167 27.4822C12.4241 27.4822 12.4241 27.4897 12.4315 27.4897C12.4833 27.5121 12.5425 27.5271 12.6017 27.5421L14.2814 27.8338C14.8512 27.931 15.3987 28.2153 15.8057 28.6342L18.6176 31.4766C19.1355 32.0003 19.4315 32.7034 19.4537 33.4439L19.5573 37.947L10.6038 38.0443L10.5816 37.8647C10.3596 36.451 9.72327 35.1719 8.72432 34.1695ZM20.2677 49.1224L10.1524 49.2346C9.70107 49.2346 9.30149 49.0701 8.98331 48.7559C8.66513 48.4417 8.49494 48.0303 8.48754 47.589L8.42094 41.4253C8.41354 40.984 8.58373 40.5651 8.89451 40.2434C9.2053 39.9218 9.61227 39.7497 10.0488 39.7423L20.1641 39.6301H20.1789C21.0742 39.6301 21.8142 40.3631 21.8216 41.2757L21.8882 47.4394C21.9104 48.352 21.1778 49.1075 20.2677 49.1224Z" fill="#FF5C00"/>
<path d="M2.55285 10.5246C2.57505 10.5246 2.60465 10.5246 2.62685 10.5246C4.83192 10.5994 6.55603 12.462 6.48943 14.6836L6.37104 18.3938L6.9926 20.9296C7 20.9296 7.0074 20.9296 7.0074 20.9296C7.78435 20.9296 8.51691 21.2363 9.06448 21.7898L13.1416 25.9189L14.555 26.1657C15.4651 26.3228 16.3309 26.7716 16.982 27.4374L19.7939 30.2798C20.6226 31.1176 21.0888 32.2247 21.1184 33.4066L21.222 38.1116C22.5317 38.5529 23.4863 39.7872 23.5011 41.2608L23.5677 47.4244C23.5899 49.2795 22.1099 50.798 20.2822 50.8205L10.167 50.9327H10.1374C9.26427 50.9327 8.44292 50.5961 7.81395 49.9752C7.17759 49.3469 6.82241 48.5091 6.81501 47.6115L6.74841 41.4403C6.74101 40.5501 7.074 39.6974 7.69556 39.0616C8.05074 38.6951 8.46512 38.4258 8.92389 38.2612L8.90169 38.1191C8.7463 37.0719 8.27273 36.1219 7.53277 35.3813L2.78964 30.5865C1.57611 29.3598 0.813954 27.744 0.636364 26.0311L0.133192 21.1989C0.0961945 21.0194 0.0813953 20.8398 0.0739958 20.6528V20.6453V20.6379C0.0739958 20.6079 0.0665962 20.5705 0.0665962 20.5406L0.310782 12.7462C0.332981 12.1628 0.562368 11.6242 0.969345 11.2128C1.39112 10.7715 1.98309 10.5246 2.55285 10.5246ZM10.5888 38.0443L19.5423 37.947L19.4387 33.444C19.4239 32.7034 19.1279 32.0003 18.6025 31.4767L15.7907 28.6342C15.3763 28.2153 14.8362 27.9311 14.2664 27.8338L12.5867 27.5421C12.5275 27.5346 12.4683 27.5122 12.4165 27.4897C12.4091 27.4897 12.4091 27.4822 12.4017 27.4822C12.2981 27.4374 12.2093 27.3775 12.1353 27.3027C12.1353 27.3027 12.1353 27.3027 12.1279 27.3027L7.85835 22.9866C7.62896 22.7548 7.31078 22.6351 6.9852 22.6351C6.66702 22.6351 6.34144 22.7548 6.11205 22.9866C5.88266 23.2185 5.75687 23.5327 5.75687 23.8693C5.75687 24.2059 5.88266 24.5126 6.11205 24.752L11.0106 29.7039C11.3362 30.033 11.3362 30.5716 11.0106 30.9007C10.8478 31.0653 10.6332 31.1475 10.4186 31.1475C10.204 31.1475 9.98943 31.0653 9.82664 30.9007L4.92812 25.9488C4.38055 25.3953 4.07717 24.6547 4.07717 23.8693C4.07717 23.0839 4.38055 22.3433 4.92812 21.7898C5.06131 21.6552 5.2093 21.5355 5.36469 21.4308L4.69873 18.693C4.69873 18.6855 4.69873 18.6706 4.69133 18.6631C4.68393 18.6332 4.68393 18.6032 4.67653 18.5733C4.67653 18.5434 4.66913 18.5135 4.66913 18.4836C4.66913 18.4761 4.66913 18.4686 4.66913 18.4536L4.79493 14.6313C4.83192 13.3447 3.83298 12.2675 2.56025 12.2226C2.56025 12.2226 2.56025 12.2226 2.55285 12.2226C2.40486 12.2226 2.24947 12.2825 2.14588 12.3947C2.07188 12.4695 1.98309 12.5966 1.97569 12.7837L1.7315 20.5032L1.7907 21.0493C1.7907 21.0642 1.7981 21.0867 1.7981 21.1016L2.29387 25.8291C2.42706 27.1606 3.02643 28.4173 3.96617 29.3673L8.7093 34.1621C9.70824 35.1644 10.3372 36.4435 10.5518 37.8573L10.5888 38.0443ZM10.1522 49.2272L20.2674 49.115C21.1702 49.1075 21.9027 48.352 21.8953 47.4319L21.8288 41.2682C21.8214 40.3557 21.0814 39.6226 20.186 39.6226H20.1712L10.056 39.7348C9.61945 39.7423 9.21247 39.9143 8.90169 40.236C8.59091 40.5576 8.42812 40.9765 8.42812 41.4179L8.49471 47.5815C8.50211 48.0229 8.6723 48.4343 8.99049 48.7484C9.30127 49.0626 9.70824 49.2272 10.1522 49.2272ZM2.55285 10.4498C1.96089 10.4498 1.35412 10.7042 0.924947 11.138C0.510571 11.5569 0.266385 12.1179 0.244186 12.7163L0 20.5182C0 20.5406 0 20.5556 0 20.578C0 20.593 0 20.6079 0 20.6154C0 20.6229 0 20.6229 0 20.6304V20.6379C0 20.8174 0.0221987 21.0044 0.0591966 21.1914L0.562368 26.0236C0.739958 27.7515 1.51691 29.3897 2.73784 30.6239L7.48097 35.4187C8.20613 36.1518 8.6723 37.0868 8.8277 38.1191L8.84249 38.2088C8.38372 38.3884 7.98414 38.6577 7.64376 39.0092C7.0074 39.6675 6.66702 40.5277 6.67442 41.4478L6.74101 47.6115C6.74841 48.524 7.11099 49.3843 7.76216 50.0276C8.39852 50.6634 9.24207 51.0075 10.1374 51.0075H10.1744L20.2896 50.8953C22.1617 50.8728 23.6712 49.3169 23.649 47.4244L23.5825 41.2608C23.5677 39.8171 22.6575 38.538 21.3034 38.0592L21.1998 33.4066C21.1702 32.2097 20.6966 31.0802 19.8531 30.2275L17.0412 27.385C16.3753 26.7118 15.4947 26.2555 14.5698 26.0909L13.1786 25.8441L9.11628 21.7374C8.56131 21.1764 7.82875 20.8697 7.0518 20.8548L6.44503 18.3863L6.56342 14.6836C6.63002 12.4246 4.86152 10.5246 2.62685 10.4498C2.60465 10.4498 2.57505 10.4498 2.55285 10.4498ZM1.8277 20.4957L2.07188 12.7837C2.07928 12.6191 2.15328 12.5069 2.21987 12.447C2.30867 12.3498 2.44186 12.2974 2.57505 12.2974H2.58245C3.81078 12.3423 4.78013 13.3821 4.74313 14.6313L4.61734 18.4536C4.61734 18.4611 4.61734 18.4686 4.61734 18.4761C4.61734 18.4761 4.61734 18.4761 4.61734 18.4836C4.61734 18.521 4.61734 18.5509 4.62474 18.5808C4.62474 18.6032 4.63214 18.6406 4.63953 18.678V18.6855C4.63953 18.693 4.63953 18.7005 4.64693 18.708L5.3055 21.4008C5.1649 21.5056 5.02431 21.6178 4.90592 21.7374C4.34355 22.3059 4.03277 23.0614 4.03277 23.8693C4.03277 24.6772 4.34355 25.4327 4.90592 26.0012L9.80444 30.9531C9.97463 31.1251 10.204 31.2223 10.4482 31.2223C10.6924 31.2223 10.9218 31.1251 11.092 30.9531C11.2622 30.781 11.3584 30.5491 11.3584 30.3023C11.3584 30.0554 11.2622 29.8235 11.092 29.6515L6.19345 24.6996C5.97886 24.4827 5.86046 24.1835 5.86046 23.8693C5.86046 23.5551 5.97886 23.2634 6.19345 23.039C6.40063 22.8296 6.69662 22.7099 7.0148 22.7099C7.32558 22.7099 7.62896 22.8296 7.82875 23.039L12.0983 27.3551L12.1057 27.3626C12.1871 27.4374 12.2759 27.5047 12.3795 27.5496C12.3869 27.5496 12.3869 27.557 12.3943 27.557C12.4535 27.5795 12.5127 27.6019 12.5793 27.6094L14.259 27.9011C14.814 27.9984 15.3467 28.2751 15.7463 28.6791L18.5581 31.5216C19.0687 32.0377 19.3573 32.7184 19.3721 33.4365L19.4683 37.8648L10.6554 37.962L10.6406 37.8498C10.4334 36.4585 9.81924 35.2018 8.86469 34.1995L8.7833 34.1172L4.04017 29.3224C3.10782 28.3799 2.52326 27.1456 2.39006 25.8291L1.89429 21.1016C1.89429 21.0867 1.89429 21.0792 1.89429 21.0642C1.89429 21.0568 1.89429 21.0493 1.89429 21.0493L1.8277 20.4957ZM10.1522 49.1524C9.72304 49.1524 9.33827 48.9953 9.03488 48.6961C8.7315 48.3969 8.56131 48.0004 8.56131 47.5815L8.49471 41.4179C8.48732 40.999 8.65011 40.595 8.94609 40.2883C9.24207 39.9817 9.63425 39.8171 10.0486 39.8096L20.1638 39.6974H20.1786C21.037 39.6974 21.74 40.4005 21.7474 41.2682L21.814 47.4319C21.8214 47.8583 21.6586 48.2548 21.3626 48.5614C21.0666 48.8681 20.6744 49.0327 20.26 49.0402L10.1522 49.1524Z" fill="#FF5C00"/>
<path d="M11.8691 42.1958C11.8691 42.9962 11.2253 43.6469 10.4336 43.6469C9.64181 43.6469 8.99805 42.9962 8.99805 42.1958C8.99805 41.3954 9.64181 40.7446 10.4336 40.7446C11.2253 40.7446 11.8691 41.3954 11.8691 42.1958Z" fill="#FF5C00"/>
<path d="M10.4335 43.6844C9.6195 43.6844 8.96094 43.0187 8.96094 42.1958C8.96094 41.373 9.6195 40.7073 10.4335 40.7073C11.2474 40.7073 11.906 41.373 11.906 42.1958C11.906 43.0187 11.2474 43.6844 10.4335 43.6844ZM10.4335 40.7821C9.6639 40.7821 9.03493 41.4179 9.03493 42.1958C9.03493 42.9738 9.6639 43.6096 10.4335 43.6096C11.203 43.6096 11.832 42.9738 11.832 42.1958C11.832 41.4179 11.203 40.7821 10.4335 40.7821Z" fill="#FF5C00"/>
<path d="M13.2232 16.1647H14.7993C14.9991 16.8529 15.2728 17.5187 15.6132 18.147L14.4959 19.2765C13.8077 19.9722 13.8077 21.1017 14.4959 21.7973L16.0646 23.3831C16.405 23.7272 16.8638 23.9067 17.3151 23.9067C17.7665 23.9067 18.2179 23.7347 18.5657 23.3831L19.683 22.2536C20.3046 22.5977 20.9557 22.867 21.6439 23.0764V24.6697C21.6439 25.6571 22.4356 26.4575 23.4124 26.4575H25.6027C26.5794 26.4575 27.3712 25.6571 27.3712 24.6697V23.0764C28.0519 22.8745 28.7105 22.5977 29.332 22.2536L30.4494 23.3831C30.7898 23.7347 31.2485 23.9067 31.6999 23.9067C32.1513 23.9067 32.6027 23.7347 32.9504 23.3831L34.5191 21.7973C35.2073 21.1017 35.2073 19.9722 34.5191 19.2765L33.4018 18.147C33.7422 17.5187 34.0086 16.8604 34.2158 16.1647H35.7919C36.7686 16.1647 37.5604 15.3644 37.5604 14.377V12.1479C37.5604 11.1605 36.7686 10.3601 35.7919 10.3601H34.2158C34.016 9.67193 33.7422 9.00619 33.4018 8.37785L34.5191 7.24834C35.2073 6.55268 35.2073 5.42317 34.5191 4.72751L32.943 3.14171C32.2771 2.46849 31.1079 2.46849 30.4494 3.14171L29.332 4.27122C28.7105 3.92713 28.0593 3.65784 27.3712 3.4484V1.8626C27.3712 0.87521 26.5794 0.0748291 25.6027 0.0748291H23.3976C22.4208 0.0748291 21.6291 0.87521 21.6291 1.8626V3.45588C20.9483 3.65784 20.2898 3.93461 19.6682 4.2787L18.5509 3.14919C17.8849 2.47597 16.7232 2.47597 16.0572 3.14919L14.4885 4.73499C13.8003 5.43065 13.8003 6.56016 14.4885 7.25582L15.6058 8.38533C15.2654 9.01367 14.9991 9.67193 14.7919 10.3676H13.2158C12.239 10.3676 11.4473 11.168 11.4473 12.1554V14.3845C11.4547 15.3644 12.2464 16.1647 13.2232 16.1647ZM13.1344 12.1479C13.1344 12.0955 13.1714 12.0581 13.2232 12.0581H15.4356C15.4356 12.0581 15.4356 12.0581 15.443 12.0581C15.5318 12.0581 15.6132 12.0431 15.6872 12.0132C15.702 12.0057 15.7168 12.0057 15.7242 11.9983C15.7982 11.9683 15.8722 11.9309 15.9314 11.8786C15.9462 11.8711 15.9536 11.8636 15.9684 11.8487C16.035 11.7963 16.0868 11.7365 16.1312 11.6617C16.1386 11.6542 16.1386 11.6467 16.146 11.6392C16.1904 11.5644 16.2274 11.4821 16.2422 11.3999C16.2422 11.3924 16.2422 11.3924 16.2496 11.3924C16.4568 10.4274 16.8342 9.52232 17.3521 8.6995C17.3743 8.6621 17.3965 8.61722 17.4187 8.57234C17.4187 8.56486 17.4261 8.55738 17.4261 8.55738C17.4631 8.46013 17.4853 8.35541 17.4853 8.25817C17.4853 8.25069 17.4853 8.24321 17.4853 8.23573C17.4853 8.131 17.4631 8.03376 17.4261 7.93652C17.4261 7.92904 17.4261 7.92156 17.4187 7.91408C17.3817 7.81684 17.3151 7.72707 17.2411 7.64479C17.2411 7.64479 17.2411 7.63731 17.2337 7.63731L17.2263 7.62983L15.665 6.05151C15.628 6.01411 15.628 5.96175 15.665 5.92435L17.2411 4.34602C17.2707 4.3161 17.3373 4.3161 17.3669 4.34602L18.943 5.93183C18.943 5.93183 18.9504 5.93931 18.9578 5.93931C19.0318 6.00663 19.1132 6.05899 19.202 6.10387C19.2242 6.11135 19.239 6.11883 19.2612 6.12631C19.35 6.15623 19.4462 6.17867 19.5424 6.17867C19.6386 6.17867 19.7274 6.15623 19.8236 6.12631C19.8532 6.11883 19.8754 6.10387 19.8976 6.08891C19.9272 6.07395 19.9642 6.06647 19.9938 6.04403C20.8077 5.52041 21.7031 5.13892 22.6576 4.92948C22.6798 4.922 22.6946 4.91452 22.7094 4.91452C22.739 4.90704 22.776 4.89956 22.8056 4.8846C22.8278 4.87712 22.85 4.86216 22.8796 4.8472C22.9018 4.83224 22.9314 4.82476 22.9536 4.80232C22.9758 4.78735 22.998 4.76491 23.0202 4.74247C23.035 4.72751 23.0572 4.71255 23.072 4.69759C23.0942 4.67515 23.109 4.65271 23.1238 4.63027C23.1386 4.60783 23.1534 4.59287 23.1682 4.57043C23.183 4.54799 23.1978 4.52555 23.2052 4.49563C23.22 4.47319 23.2348 4.45075 23.2422 4.42083C23.257 4.3909 23.257 4.36098 23.2718 4.33106C23.2792 4.30862 23.2866 4.28618 23.294 4.26374C23.3014 4.22634 23.3014 4.18894 23.3088 4.15154C23.3088 4.13658 23.3162 4.12162 23.3162 4.09918V4.0917V1.8626C23.3162 1.81024 23.3532 1.77283 23.405 1.77283H25.6027C25.6545 1.77283 25.6915 1.81024 25.6915 1.8626V4.0917V4.09918C25.6915 4.11414 25.6988 4.1291 25.6988 4.15154C25.6988 4.18894 25.7063 4.22634 25.7136 4.26374C25.721 4.28618 25.7284 4.30862 25.7358 4.33106C25.7432 4.36098 25.7506 4.3909 25.7654 4.42083C25.7728 4.44327 25.7876 4.46571 25.8024 4.49563C25.8172 4.51807 25.8246 4.54799 25.8394 4.57043C25.8542 4.59287 25.869 4.60783 25.8838 4.63027C25.8986 4.65271 25.9208 4.67515 25.9356 4.69759C25.9504 4.71255 25.9726 4.72751 25.9874 4.74247C26.0096 4.76491 26.0318 4.77987 26.054 4.80232C26.0762 4.81728 26.0984 4.83224 26.128 4.83972C26.1502 4.85468 26.1724 4.86964 26.202 4.87712C26.2316 4.89208 26.2686 4.89956 26.2982 4.90704C26.3204 4.91452 26.3352 4.922 26.3574 4.922C27.312 5.13144 28.2073 5.51293 29.0213 6.03655C29.0509 6.05899 29.0879 6.06647 29.1175 6.08143C29.1397 6.09639 29.1693 6.10387 29.1915 6.11883C29.2802 6.14875 29.3764 6.17119 29.4726 6.17119C29.5688 6.17119 29.665 6.14875 29.7538 6.11883C29.776 6.11135 29.7908 6.10387 29.813 6.09639C29.9018 6.05899 29.9832 6.00663 30.0572 5.93183C30.0572 5.93183 30.0646 5.92435 30.072 5.92435L31.6407 4.33854C31.6703 4.30862 31.7369 4.30862 31.7665 4.33854L33.3352 5.92435C33.3722 5.96175 33.3722 6.01411 33.3352 6.05151L31.7591 7.62983L31.7517 7.63731C31.7517 7.63731 31.7517 7.64479 31.7443 7.64479C31.6703 7.71959 31.6111 7.81684 31.5667 7.91408C31.5667 7.92156 31.5593 7.92904 31.5593 7.93652C31.5223 8.03376 31.5001 8.131 31.5001 8.23573C31.5001 8.24321 31.5001 8.25069 31.5001 8.25817C31.5001 8.36289 31.5223 8.46013 31.5593 8.55738C31.5593 8.56486 31.5667 8.57234 31.5667 8.57234C31.5815 8.61722 31.6037 8.65462 31.6333 8.6995C32.1513 9.52232 32.5287 10.4274 32.7358 11.3924C32.7358 11.3999 32.7358 11.3999 32.7432 11.4073C32.7654 11.4971 32.795 11.5719 32.8394 11.6467C32.8468 11.6542 32.8468 11.6617 32.8542 11.6691C32.8986 11.7365 32.9578 11.7963 33.017 11.8561C33.0318 11.8636 33.0392 11.8786 33.054 11.8861C33.1206 11.9384 33.1872 11.9758 33.2612 12.0057C33.276 12.0132 33.2908 12.0132 33.3056 12.0207C33.387 12.0431 33.4684 12.0656 33.5498 12.0656C33.5498 12.0656 33.5498 12.0656 33.5572 12.0656H35.7697C35.8215 12.0656 35.8585 12.103 35.8585 12.1554V14.3845C35.8585 14.4368 35.8215 14.4742 35.7697 14.4742H33.5646H33.5572H33.5498C33.535 14.4742 33.5276 14.4742 33.5202 14.4742C33.4758 14.4742 33.4314 14.4817 33.387 14.4892C33.3722 14.4892 33.3648 14.4967 33.35 14.4967C33.3056 14.5041 33.2686 14.5191 33.2242 14.5341C33.2094 14.5415 33.202 14.549 33.1872 14.549C33.1502 14.564 33.1132 14.5864 33.0836 14.6089C33.0688 14.6163 33.0614 14.6238 33.0466 14.6388C33.017 14.6612 32.9874 14.6837 32.9578 14.7136C32.943 14.7285 32.9356 14.7435 32.9208 14.751C32.8986 14.7809 32.8764 14.8033 32.8542 14.8333C32.8394 14.8557 32.832 14.8781 32.8172 14.9006C32.8024 14.923 32.7876 14.9529 32.7728 14.9754C32.758 15.0053 32.7506 15.0352 32.7432 15.0726C32.7358 15.0951 32.7284 15.11 32.721 15.1325C32.5139 16.0974 32.1365 17.0025 31.6185 17.8253C31.5963 17.8627 31.5741 17.9076 31.5519 17.9525C31.5519 17.96 31.5445 17.9675 31.5445 17.9675C31.5075 18.0647 31.4853 18.1694 31.4853 18.2667C31.4853 18.2742 31.4853 18.2816 31.4853 18.2891C31.4853 18.3938 31.5075 18.4911 31.5445 18.5883C31.5445 18.5958 31.5445 18.6033 31.5519 18.6108C31.5889 18.708 31.6555 18.7978 31.7295 18.8801C31.7295 18.8801 31.7295 18.8875 31.7369 18.8875L31.7443 18.895L33.3056 20.4733C33.3426 20.5107 33.3426 20.5631 33.3056 20.6005L31.7443 22.1788C31.7073 22.2162 31.6555 22.2162 31.6185 22.1788L30.0572 20.6005C30.0572 20.6005 30.0572 20.6005 30.0498 20.593L30.0424 20.5855C30.0424 20.5855 30.0424 20.5855 30.035 20.5855C29.9536 20.5107 29.8648 20.4509 29.7686 20.406C29.7612 20.406 29.7538 20.3985 29.7464 20.3985C29.6502 20.3611 29.554 20.3387 29.4504 20.3387C29.443 20.3387 29.4356 20.3387 29.4282 20.3387C29.332 20.3387 29.2285 20.3611 29.1323 20.3985C29.1249 20.3985 29.1175 20.406 29.1175 20.406C29.0731 20.421 29.0361 20.4434 28.9917 20.4733C28.1777 20.9969 27.2824 21.371 26.3278 21.5879C26.313 21.5954 26.2982 21.6028 26.276 21.6028C26.239 21.6103 26.202 21.6253 26.1724 21.6402C26.1502 21.6477 26.128 21.6627 26.1058 21.6776C26.0836 21.6926 26.054 21.7076 26.0318 21.7225C26.0096 21.7375 25.9874 21.7599 25.9652 21.7749C25.943 21.7898 25.9282 21.8048 25.906 21.8272C25.8838 21.8497 25.869 21.8721 25.8542 21.8946C25.8394 21.917 25.8172 21.932 25.8024 21.9544C25.7876 21.9769 25.7802 21.9993 25.7654 22.0292C25.7506 22.0517 25.7358 22.0741 25.7284 22.104C25.7137 22.1339 25.7136 22.1639 25.6988 22.1863C25.6915 22.2087 25.6841 22.2312 25.6767 22.2611C25.6693 22.2985 25.6693 22.3359 25.6619 22.3733C25.6619 22.3883 25.6545 22.4032 25.6545 22.4257V22.4331V24.6622C25.6545 24.7146 25.6175 24.752 25.5657 24.752H23.3606C23.3088 24.752 23.2718 24.7146 23.2718 24.6622V22.4331V22.4257C23.2718 22.4107 23.2644 22.3883 23.2644 22.3733C23.2644 22.3359 23.257 22.2985 23.2496 22.2611C23.2422 22.2387 23.2348 22.2162 23.2274 22.1863C23.22 22.1564 23.2126 22.1265 23.1978 22.104C23.1904 22.0816 23.1756 22.0517 23.1608 22.0292C23.146 22.0068 23.1386 21.9843 23.1238 21.9619C23.109 21.9395 23.0942 21.917 23.072 21.8946C23.0572 21.8721 23.0424 21.8497 23.0202 21.8272C23.0054 21.8123 22.9832 21.7898 22.961 21.7749C22.9388 21.7599 22.9166 21.7375 22.8944 21.7225C22.8722 21.7076 22.8426 21.6926 22.8204 21.6776C22.7982 21.6627 22.776 21.6552 22.7538 21.6402C22.7168 21.6253 22.6872 21.6178 22.6502 21.6028C22.6354 21.5954 22.6206 21.5879 22.5984 21.5879C21.6439 21.371 20.7485 20.9969 19.9346 20.4733C19.8976 20.4509 19.8532 20.4285 19.8088 20.406C19.8014 20.406 19.8014 20.3985 19.794 20.3985C19.6978 20.3611 19.5942 20.3387 19.498 20.3387C19.4906 20.3387 19.4832 20.3387 19.4758 20.3387C19.3722 20.3387 19.276 20.3611 19.1798 20.3985C19.1724 20.3985 19.165 20.406 19.1576 20.406C19.0614 20.4434 18.9726 20.5107 18.8912 20.5855C18.8912 20.5855 18.8838 20.5855 18.8838 20.593L18.8764 20.6005L17.3151 22.1788C17.2781 22.2162 17.2263 22.2162 17.1893 22.1788L15.6206 20.593C15.5836 20.5556 15.5836 20.5033 15.6206 20.4659L17.1819 18.8875L17.1893 18.8801C17.1893 18.8801 17.1893 18.8726 17.1967 18.8726C17.2707 18.7978 17.3299 18.7005 17.3743 18.6033C17.3743 18.5958 17.3817 18.5883 17.3817 18.5808C17.4187 18.4836 17.4409 18.3864 17.4409 18.2816C17.4409 18.2742 17.4409 18.2667 17.4409 18.2592C17.4409 18.1545 17.4187 18.0572 17.3817 17.96C17.3817 17.9525 17.3743 17.945 17.3743 17.945C17.3595 17.9001 17.3373 17.8627 17.3077 17.8179C16.7898 16.995 16.4124 16.0899 16.2052 15.125C16.1978 15.1025 16.1904 15.0801 16.183 15.0651C16.1756 15.0352 16.1682 15.0053 16.1534 14.9754C16.1386 14.9455 16.1238 14.9155 16.1016 14.8856C16.0942 14.8707 16.0868 14.8482 16.072 14.8333C16.0498 14.7959 16.0202 14.7659 15.9906 14.736C15.9832 14.7285 15.9758 14.7211 15.9684 14.7136C15.9388 14.6837 15.9018 14.6537 15.8648 14.6238C15.8574 14.6163 15.8574 14.6163 15.85 14.6089C15.813 14.5789 15.7686 14.564 15.7242 14.5415C15.7168 14.5415 15.7094 14.5341 15.7094 14.5341C15.665 14.5191 15.6206 14.5041 15.5762 14.4892C15.5688 14.4892 15.5614 14.4817 15.554 14.4817C15.5096 14.4742 15.4652 14.4667 15.4208 14.4667C15.4134 14.4667 15.3986 14.4667 15.3912 14.4667H15.3838H15.3764H13.1714C13.1196 14.4667 13.0826 14.4293 13.0826 14.377L13.1344 12.1479Z" fill="#FF5C00"/>
<path d="M25.6024 0.074802C26.5792 0.074802 27.3709 0.875183 27.3709 1.86257V3.45585C28.0517 3.65782 28.7103 3.93459 29.3318 4.27867L30.4418 3.14168C30.7747 2.80507 31.2335 2.64051 31.6923 2.64051C32.1511 2.64051 32.6098 2.80507 32.9428 3.14168L34.5115 4.72749C35.1997 5.42314 35.1997 6.55265 34.5115 7.24831L33.3942 8.37782C33.7346 9.00616 34.0084 9.66442 34.2081 10.3601H35.7843C36.761 10.3601 37.5527 11.1605 37.5527 12.1478V14.3769C37.5527 15.3643 36.761 16.1647 35.7843 16.1647H34.2081C34.0084 16.8529 33.7346 17.5186 33.3942 18.147L34.5115 19.2765C35.1997 19.9721 35.1997 21.1016 34.5115 21.7973L32.9428 23.3831C32.595 23.7272 32.1437 23.9067 31.6923 23.9067C31.2409 23.9067 30.7895 23.7347 30.4418 23.3831L29.3244 22.2536C28.7029 22.5977 28.0517 22.867 27.3635 23.0764V24.6697C27.3635 25.6571 26.5718 26.4575 25.595 26.4575H23.39C22.4132 26.4575 21.6215 25.6571 21.6215 24.6697V23.0764C20.9407 22.8745 20.2821 22.5977 19.6606 22.2536L18.5432 23.3831C18.2029 23.7272 17.7515 23.9067 17.2927 23.9067C16.8413 23.9067 16.39 23.7347 16.0422 23.3831L14.4735 21.7973C13.7853 21.1016 13.7853 19.9721 14.4735 19.2765L15.5908 18.147C15.2504 17.5186 14.9766 16.8604 14.7769 16.1647H13.2007C12.224 16.1647 11.4322 15.3643 11.4322 14.3769V12.1478C11.4322 11.1605 12.224 10.3601 13.2007 10.3601H14.7991C14.9988 9.6719 15.2726 9.00616 15.613 8.37782L14.4957 7.24831C13.8075 6.55265 13.8075 5.42314 14.4957 4.72749L16.057 3.14916C16.39 2.81255 16.8487 2.64051 17.3075 2.64051C17.7663 2.64051 18.2251 2.81255 18.558 3.14916L19.6754 4.27867C20.2969 3.93459 20.9481 3.65782 21.6363 3.45585V1.86257C21.6289 0.875183 22.4206 0.074802 23.3974 0.074802H25.6024ZM19.5348 6.17864C19.4386 6.17864 19.3498 6.1562 19.2536 6.12628C19.2314 6.1188 19.2166 6.11132 19.1944 6.10384C19.1056 6.06644 19.0242 6.01408 18.9502 5.93928C18.9502 5.93928 18.9428 5.9318 18.9354 5.9318L17.3667 4.346C17.3519 4.33104 17.3297 4.32356 17.3001 4.32356C17.2705 4.32356 17.2483 4.33104 17.2335 4.346L15.6648 5.9318C15.6278 5.9692 15.6278 6.02156 15.6648 6.05896L17.2409 7.6298L17.2483 7.63728C17.2483 7.63728 17.2483 7.64476 17.2557 7.64476C17.3297 7.71957 17.3889 7.81681 17.4333 7.91405C17.4333 7.92153 17.4407 7.92901 17.4407 7.93649C17.4777 8.03373 17.4999 8.13098 17.4999 8.2357C17.4999 8.24318 17.4999 8.25066 17.4999 8.25814C17.4999 8.36286 17.4777 8.46011 17.4407 8.55735C17.4407 8.56483 17.4333 8.57231 17.4333 8.57231C17.4185 8.61719 17.3963 8.65459 17.3667 8.69947C16.8487 9.52229 16.4714 10.4274 16.2642 11.3923C16.2642 11.3998 16.2642 11.3998 16.2568 11.3998C16.2346 11.4896 16.205 11.5644 16.1606 11.6392C16.1532 11.6467 16.1532 11.6542 16.1458 11.6616C16.1014 11.729 16.0422 11.7963 15.983 11.8486C15.9682 11.8561 15.9608 11.8711 15.946 11.8786C15.8794 11.9309 15.8128 11.9683 15.7388 11.9982C15.724 12.0057 15.7092 12.0057 15.7018 12.0132C15.6204 12.0356 15.539 12.0581 15.4576 12.0581C15.4576 12.0581 15.4576 12.0581 15.4502 12.0581H13.2377C13.1859 12.0581 13.1489 12.0955 13.1489 12.1478V14.3769C13.1489 14.4293 13.1859 14.4667 13.2377 14.4667H15.4428H15.4502H15.4576C15.465 14.4667 15.4798 14.4667 15.4872 14.4667C15.5316 14.4667 15.576 14.4742 15.6204 14.4817C15.6278 14.4817 15.6352 14.4891 15.6426 14.4891C15.687 14.4966 15.7314 14.5116 15.7758 14.534C15.7832 14.534 15.7906 14.5415 15.7906 14.5415C15.835 14.5639 15.8794 14.5864 15.9164 14.6088C15.9238 14.6163 15.9312 14.6163 15.9312 14.6238C15.9682 14.6537 16.0052 14.6762 16.0348 14.7136C16.0422 14.721 16.0496 14.7285 16.057 14.736C16.0866 14.7659 16.1162 14.8033 16.1384 14.8332C16.1532 14.8482 16.1606 14.8706 16.168 14.8856C16.1828 14.9155 16.205 14.9454 16.2198 14.9754C16.2346 15.0053 16.242 15.0352 16.2494 15.0651C16.2568 15.0876 16.2642 15.11 16.2716 15.125C16.4788 16.0899 16.8561 16.995 17.3741 17.8178C17.3963 17.8552 17.4185 17.9001 17.4407 17.945C17.4407 17.9525 17.4481 17.96 17.4481 17.96C17.4851 18.0572 17.5073 18.1619 17.5073 18.2592C17.5073 18.2666 17.5073 18.2741 17.5073 18.2816C17.5073 18.3863 17.4851 18.4836 17.4481 18.5808C17.4481 18.5883 17.4481 18.5958 17.4407 18.6033C17.4037 18.7005 17.3371 18.7903 17.2631 18.8725C17.2631 18.8725 17.2631 18.88 17.2557 18.88L17.2483 18.8875L15.687 20.4658C15.65 20.4957 15.65 20.5556 15.687 20.593L17.2557 22.1788C17.2705 22.1938 17.2927 22.2012 17.3223 22.2012C17.3519 22.2012 17.3667 22.1938 17.3815 22.1788L18.9428 20.6005L18.9502 20.593C18.9502 20.593 18.9576 20.593 18.9576 20.5855C19.039 20.5107 19.1278 20.4509 19.224 20.406C19.2314 20.406 19.2388 20.3985 19.2462 20.3985C19.3424 20.3611 19.4386 20.3387 19.5422 20.3387C19.5496 20.3387 19.557 20.3387 19.5644 20.3387C19.6606 20.3387 19.7642 20.3611 19.8604 20.3985C19.8678 20.3985 19.8678 20.406 19.8752 20.406C19.9196 20.4209 19.964 20.4434 20.001 20.4733C20.8149 20.9969 21.7103 21.3709 22.6648 21.5879C22.6796 21.5953 22.6944 21.6028 22.7166 21.6028C22.7536 21.6103 22.7906 21.6253 22.8202 21.6402C22.8424 21.6477 22.8646 21.6627 22.8868 21.6776C22.909 21.6926 22.9386 21.7075 22.9608 21.7225C22.983 21.7375 23.0052 21.7599 23.0274 21.7749C23.0496 21.7898 23.0718 21.8048 23.0866 21.8272C23.1088 21.8497 23.1236 21.8721 23.1384 21.8945C23.1532 21.917 23.1754 21.9394 23.1902 21.9619C23.205 21.9843 23.2124 22.0067 23.2272 22.0292C23.242 22.0516 23.2568 22.0741 23.2642 22.104C23.2716 22.1339 23.279 22.1638 23.2938 22.1863C23.3012 22.2087 23.3086 22.2312 23.316 22.2611C23.3234 22.2985 23.3234 22.3359 23.3308 22.3733C23.3308 22.3882 23.3382 22.4107 23.3382 22.4256V22.4331V24.6622C23.3382 24.7146 23.3752 24.752 23.427 24.752H25.6024C25.6542 24.752 25.6912 24.7146 25.6912 24.6622V22.4331V22.4256C25.6912 22.4107 25.6986 22.3882 25.6986 22.3733C25.6986 22.3359 25.706 22.2985 25.7134 22.2611C25.7208 22.2386 25.7282 22.2162 25.7356 22.1863C25.743 22.1564 25.7504 22.1264 25.7652 22.104C25.7726 22.0815 25.7874 22.0516 25.8022 22.0292C25.817 22.0067 25.8244 21.9768 25.8392 21.9544C25.854 21.9319 25.8688 21.9095 25.891 21.8945C25.9058 21.8721 25.928 21.8497 25.9428 21.8272C25.9576 21.8123 25.9798 21.7898 26.002 21.7749C26.0242 21.7524 26.0464 21.7375 26.0686 21.7225C26.0908 21.7075 26.1204 21.6926 26.1426 21.6776C26.1648 21.6627 26.187 21.6477 26.2092 21.6402C26.2388 21.6253 26.2758 21.6178 26.3128 21.6028C26.3276 21.5953 26.3424 21.5879 26.3646 21.5879C27.3191 21.3709 28.2145 20.9969 29.0284 20.4733C29.0654 20.4509 29.1098 20.4284 29.1542 20.406C29.1616 20.406 29.169 20.3985 29.169 20.3985C29.2652 20.3611 29.3614 20.3461 29.465 20.3387C29.4724 20.3387 29.4798 20.3387 29.4872 20.3387C29.5908 20.3387 29.687 20.3611 29.7832 20.3985C29.7906 20.3985 29.798 20.406 29.8054 20.406C29.9016 20.4434 29.9904 20.5032 30.0718 20.5855C30.0718 20.5855 30.0718 20.5855 30.0792 20.5855L30.0866 20.593C30.0866 20.593 30.0866 20.593 30.094 20.6005L31.6553 22.1788C31.6701 22.1938 31.6923 22.2012 31.7219 22.2012C31.7441 22.2012 31.7663 22.1938 31.7885 22.1788L33.3498 20.6005C33.3868 20.5705 33.3868 20.5107 33.3498 20.4733L31.7885 18.895L31.7811 18.8875C31.7811 18.8875 31.7811 18.88 31.7737 18.88C31.6997 18.8052 31.6405 18.708 31.5961 18.6107C31.5961 18.6033 31.5887 18.5958 31.5887 18.5883C31.5517 18.4911 31.5295 18.3938 31.5295 18.2891C31.5295 18.2816 31.5295 18.2741 31.5295 18.2666C31.5295 18.1619 31.5517 18.0647 31.5887 17.9674C31.5887 17.96 31.5961 17.9525 31.5961 17.9525C31.6109 17.9076 31.6331 17.8702 31.6627 17.8253C32.1807 17.0025 32.558 16.0974 32.7652 15.1324C32.7726 15.11 32.78 15.095 32.7874 15.0726C32.7948 15.0427 32.8022 15.0053 32.817 14.9754C32.8318 14.9454 32.8466 14.923 32.8614 14.9006C32.8762 14.8781 32.8836 14.8557 32.8984 14.8332C32.9206 14.8033 32.9428 14.7734 32.965 14.751C32.9798 14.736 32.9872 14.721 33.002 14.7136C33.0316 14.6836 33.0612 14.6612 33.0908 14.6388C33.1056 14.6313 33.113 14.6238 33.1278 14.6088C33.1648 14.5864 33.1944 14.5639 33.2314 14.549C33.2462 14.5415 33.2536 14.534 33.2684 14.534C33.3054 14.5191 33.3498 14.5041 33.3942 14.4966C33.409 14.4966 33.4164 14.4891 33.4312 14.4891C33.4756 14.4817 33.52 14.4742 33.5644 14.4742C33.5718 14.4742 33.5866 14.4742 33.594 14.4742H33.6014H33.6088H35.8138C35.8656 14.4742 35.9026 14.4368 35.9026 14.3844V12.1553C35.9026 12.103 35.8656 12.0656 35.8138 12.0656H33.6014C33.6014 12.0656 33.6014 12.0656 33.594 12.0656C33.5052 12.0656 33.4238 12.0506 33.3498 12.0207C33.335 12.0132 33.3202 12.0132 33.3054 12.0057C33.2314 11.9758 33.1574 11.9384 33.0982 11.886C33.0834 11.8786 33.076 11.8636 33.0612 11.8561C32.9946 11.8038 32.9428 11.7439 32.8984 11.6691C32.891 11.6616 32.891 11.6542 32.8836 11.6467C32.8392 11.5719 32.8022 11.4896 32.7874 11.4073C32.7874 11.3998 32.7874 11.3998 32.78 11.3923C32.5728 10.4274 32.1955 9.52229 31.6775 8.69947C31.6553 8.66207 31.6331 8.61719 31.6109 8.57231C31.6109 8.56483 31.6035 8.55735 31.6035 8.55735C31.5665 8.46011 31.5443 8.35538 31.5443 8.25814C31.5443 8.25066 31.5443 8.24318 31.5443 8.2357C31.5443 8.13098 31.5665 8.03373 31.6035 7.93649C31.6035 7.92901 31.6035 7.92153 31.6109 7.91405C31.6479 7.81681 31.7145 7.72705 31.7885 7.64476C31.7885 7.64476 31.7885 7.63728 31.7959 7.63728L31.8033 7.6298L33.3646 6.05148C33.4016 6.02156 33.4016 5.96172 33.3646 5.92432L31.7959 4.33852C31.7811 4.32356 31.7589 4.31608 31.7293 4.31608C31.6997 4.31608 31.6849 4.32356 31.6701 4.33852L30.1014 5.92432C30.1014 5.92432 30.094 5.9318 30.0866 5.9318C30.0126 5.99912 29.9312 6.05148 29.8424 6.09636C29.8202 6.10384 29.8054 6.11132 29.7832 6.1188C29.6944 6.14872 29.5982 6.17116 29.502 6.17116C29.4058 6.17116 29.317 6.14872 29.2208 6.1188C29.1912 6.11132 29.169 6.09636 29.1468 6.0814C29.1172 6.06644 29.0802 6.05896 29.0506 6.03652C28.2367 5.51291 27.3413 5.13142 26.3868 4.92197C26.3646 4.91449 26.3498 4.90701 26.3276 4.90701C26.298 4.89953 26.261 4.88457 26.2314 4.87709C26.2092 4.86213 26.187 4.85465 26.1574 4.83969C26.1352 4.82473 26.1056 4.81725 26.0834 4.80229C26.0612 4.78733 26.039 4.76489 26.0168 4.74245C26.002 4.72749 25.9798 4.71253 25.965 4.69757C25.9428 4.67512 25.928 4.65268 25.9132 4.63024C25.8984 4.6078 25.8836 4.59284 25.8688 4.5704C25.854 4.54796 25.8392 4.52552 25.8318 4.4956C25.817 4.47316 25.8096 4.45072 25.7948 4.4208C25.78 4.39088 25.78 4.36096 25.7652 4.33104C25.7578 4.3086 25.7504 4.28615 25.743 4.26371C25.7356 4.22631 25.7356 4.18891 25.7282 4.15151C25.7282 4.13655 25.7208 4.12159 25.7208 4.09915V4.09167V1.86257C25.7208 1.81021 25.6838 1.77281 25.632 1.77281H23.427C23.3752 1.77281 23.3382 1.81021 23.3382 1.86257V4.09167V4.09915C23.3382 4.11411 23.3308 4.13655 23.3308 4.15151C23.3308 4.18891 23.3234 4.22631 23.316 4.26371C23.3086 4.28615 23.3012 4.3086 23.2938 4.33104C23.2864 4.36096 23.279 4.39088 23.2642 4.4208C23.2568 4.44324 23.242 4.46568 23.2272 4.4956C23.2124 4.51804 23.205 4.54796 23.1902 4.5704C23.1754 4.59284 23.1606 4.6078 23.1458 4.63024C23.131 4.65268 23.1088 4.67512 23.094 4.69757C23.0792 4.71253 23.057 4.72749 23.0422 4.74245C23.02 4.76489 22.9978 4.77985 22.9756 4.80229C22.9534 4.81725 22.9312 4.83221 22.9016 4.84717C22.8794 4.86213 22.8572 4.87709 22.8276 4.88457C22.798 4.89953 22.761 4.90701 22.7314 4.91449C22.7166 4.92197 22.6944 4.92945 22.6796 4.92945C21.7251 5.1389 20.8297 5.52039 20.0158 6.044C19.9862 6.06644 19.9492 6.07392 19.9196 6.08888C19.89 6.10384 19.8678 6.11132 19.8456 6.12628C19.7198 6.1562 19.631 6.17864 19.5348 6.17864ZM25.6024 0H23.3974C22.3836 0 21.5549 0.837782 21.5549 1.86257V3.39601C20.9037 3.5905 20.2747 3.8523 19.6828 4.18143L18.6098 3.0968C18.2769 2.76019 17.8033 2.56571 17.3075 2.56571C16.8117 2.56571 16.3382 2.76019 16.0052 3.0968L14.4365 4.6826C13.7187 5.40818 13.7187 6.59006 14.4365 7.30815L15.5094 8.39278C15.1912 8.9912 14.9322 9.62702 14.7325 10.2853H13.2155C12.2018 10.2853 11.373 11.1231 11.373 12.1478V14.3769C11.373 15.3943 12.1796 16.2171 13.1859 16.2395H13.2155H14.7325C14.9248 16.8978 15.1838 17.5336 15.5094 18.132L14.4365 19.2166C14.0887 19.5682 13.8963 20.032 13.8963 20.5331C13.8963 21.0268 14.0887 21.4981 14.4365 21.8497L16.0052 23.4355C16.353 23.787 16.8117 23.9815 17.3075 23.9815C17.8033 23.9815 18.2621 23.787 18.6098 23.4355L19.6828 22.3508C20.2747 22.6725 20.9037 22.9343 21.5549 23.1363V24.6697C21.5549 25.6945 22.3836 26.5323 23.3974 26.5323H25.6024C26.6162 26.5323 27.4449 25.6945 27.4449 24.6697V23.1363C28.0961 22.9418 28.7251 22.6725 29.317 22.3508L30.39 23.4355C30.7377 23.787 31.1965 23.9815 31.6923 23.9815C32.1807 23.9815 32.6468 23.787 32.9946 23.4355L34.5633 21.8497C34.9111 21.4981 35.1035 21.0343 35.1035 20.5331C35.1035 20.0395 34.9111 19.5682 34.5633 19.2166L33.4904 18.132C33.8086 17.5336 34.0676 16.8978 34.2673 16.2395H35.7843C36.798 16.2395 37.6267 15.4017 37.6267 14.3769V12.1478C37.6267 11.1231 36.798 10.2853 35.7843 10.2853H34.2599C34.0675 9.62702 33.8086 8.9912 33.483 8.39278L34.5633 7.30067C35.2811 6.5751 35.2811 5.39322 34.5633 4.67512L32.9946 3.08932C32.6616 2.75271 32.1881 2.56571 31.6923 2.56571C31.1965 2.56571 30.7229 2.76019 30.39 3.08932L29.317 4.17395C28.7251 3.8523 28.0961 3.5905 27.4449 3.38853V1.86257C27.4449 1.36888 27.2525 0.897624 26.9048 0.546055C26.557 0.194485 26.0982 0 25.6024 0ZM19.5348 6.25345C19.631 6.25345 19.7272 6.23101 19.8382 6.19361C19.8604 6.18613 19.8826 6.17865 19.9048 6.16368L19.927 6.1562C19.9418 6.14872 19.9492 6.14872 19.9566 6.14124C19.9788 6.13376 20.001 6.12628 20.0306 6.10384C20.8371 5.58023 21.7251 5.2137 22.6722 4.99677C22.687 4.99677 22.7018 4.98929 22.7166 4.98181C22.724 4.98181 22.7314 4.97433 22.7314 4.97433L22.7536 4.96685C22.7832 4.95937 22.8054 4.95189 22.835 4.93693C22.8498 4.92945 22.872 4.92197 22.8868 4.90701C22.8942 4.89953 22.9016 4.89953 22.909 4.89205L22.9238 4.88457C22.946 4.87709 22.9682 4.86213 22.983 4.84717C23.0052 4.83221 23.02 4.81725 23.0348 4.80229C23.0422 4.79481 23.0496 4.79481 23.0496 4.78733C23.057 4.77985 23.0644 4.77237 23.0718 4.77237C23.0866 4.76489 23.1014 4.74993 23.1088 4.73497C23.1236 4.72001 23.1384 4.69757 23.1532 4.6826C23.1606 4.67512 23.1606 4.66764 23.168 4.66016L23.1828 4.6452C23.1976 4.63024 23.2124 4.6078 23.2198 4.59284C23.2346 4.5704 23.242 4.55544 23.2494 4.533C23.2494 4.52552 23.2568 4.51804 23.2568 4.51056L23.2642 4.4956C23.2716 4.47316 23.2864 4.4582 23.2938 4.43576C23.3012 4.41332 23.3086 4.39088 23.316 4.36844C23.316 4.36096 23.3234 4.35348 23.3234 4.346C23.3234 4.33852 23.3308 4.33104 23.3308 4.32356C23.3382 4.30859 23.3382 4.29363 23.3456 4.27119C23.353 4.23379 23.353 4.19639 23.3604 4.15899V4.14403C23.3604 4.13655 23.3604 4.13655 23.3604 4.12907C23.3604 4.12159 23.3604 4.10663 23.3604 4.09167V4.08419V1.85509C23.3604 1.84761 23.3604 1.84761 23.3604 1.84013C23.3604 1.84013 23.3678 1.83265 23.3752 1.83265H25.6024C25.6098 1.83265 25.6172 1.84013 25.6172 1.84761V4.07671V4.09167C25.6172 4.10663 25.6172 4.12159 25.6172 4.12907C25.6172 4.13655 25.6172 4.13655 25.6172 4.14403V4.15899C25.6172 4.19639 25.6246 4.23379 25.632 4.27119C25.632 4.29363 25.6394 4.3086 25.6468 4.33104C25.6468 4.33852 25.6542 4.346 25.6542 4.35348L25.6616 4.37592C25.669 4.39836 25.6764 4.4208 25.6838 4.45072C25.6912 4.47316 25.706 4.48812 25.7134 4.51056L25.7208 4.52552C25.7208 4.533 25.7282 4.54048 25.7282 4.54796C25.7356 4.5704 25.7504 4.58536 25.7578 4.6078C25.7726 4.63024 25.78 4.6452 25.7948 4.66016L25.8096 4.67512C25.817 4.6826 25.817 4.69009 25.8244 4.69009C25.8392 4.70505 25.854 4.72749 25.8688 4.74245C25.8836 4.75741 25.8984 4.76489 25.9132 4.77985C25.9206 4.78733 25.928 4.78733 25.928 4.79481L25.9428 4.80977C25.965 4.82473 25.9798 4.84717 26.002 4.86213C26.0242 4.87709 26.0464 4.88457 26.0686 4.89953L26.0834 4.90701C26.0908 4.90701 26.0982 4.91449 26.1056 4.91449C26.1204 4.92197 26.1426 4.93693 26.1648 4.94441C26.1944 4.95937 26.224 4.96685 26.2536 4.97433L26.2684 4.98181C26.2758 4.98181 26.2832 4.98929 26.2906 4.98929C26.3054 4.99677 26.3128 4.99677 26.335 5.00425C27.2821 5.2137 28.1701 5.58771 28.9766 6.11132C28.9988 6.12628 29.0284 6.14124 29.0506 6.14872C29.058 6.1562 29.0728 6.1562 29.0802 6.16368L29.095 6.17116C29.1172 6.17865 29.1394 6.19361 29.169 6.20109C29.28 6.23849 29.3762 6.26093 29.4724 6.26093C29.5686 6.26093 29.6648 6.23849 29.7758 6.20109H29.7832C29.8054 6.19361 29.8202 6.18612 29.8424 6.17864C29.9386 6.13376 30.0274 6.07392 30.1014 6.0066C30.1088 6.0066 30.1162 5.99912 30.1162 5.99164L31.6849 4.40584C31.6849 4.40584 31.6923 4.40584 31.6997 4.40584C31.7071 4.40584 31.7145 4.40584 31.7145 4.40584L33.2758 5.98416V5.99164C33.2758 5.99912 33.2758 5.99912 33.2758 5.99912L31.7145 7.57744L31.7071 7.58492L31.6997 7.5924V7.59988C31.6183 7.68217 31.5591 7.77941 31.5147 7.88413C31.5147 7.89161 31.5073 7.89909 31.5073 7.90657C31.4629 8.01877 31.4481 8.1235 31.4407 8.2357C31.4407 8.24318 31.4407 8.25066 31.4407 8.25814V8.26562C31.4407 8.37782 31.4629 8.48255 31.4999 8.58727C31.4999 8.59475 31.5073 8.60223 31.5073 8.60223C31.5221 8.64711 31.5443 8.69199 31.5739 8.73687C32.0919 9.55222 32.4618 10.4498 32.669 11.4073C32.669 11.4148 32.669 11.4148 32.6764 11.4148C32.6986 11.5045 32.7356 11.5943 32.78 11.6766C32.78 11.6766 32.78 11.6841 32.7874 11.6841C32.7874 11.6916 32.7948 11.6916 32.7948 11.699C32.8392 11.7738 32.8984 11.8412 32.9724 11.901C32.9798 11.9085 32.9798 11.9085 32.9872 11.9085C32.9946 11.916 33.002 11.9234 33.0168 11.9309C33.0834 11.9833 33.1648 12.0282 33.2462 12.0581C33.2536 12.0656 33.2684 12.0656 33.2832 12.0656H33.2906C33.3868 12.0955 33.4682 12.1104 33.557 12.1104H33.5644H35.7843C35.7917 12.1104 35.799 12.1179 35.799 12.1254V14.3545C35.799 14.362 35.7991 14.3695 35.7843 14.3695H33.5792H33.5718H33.5644C33.557 14.3695 33.5422 14.3695 33.5348 14.3695H33.5274C33.483 14.3695 33.4312 14.3769 33.3868 14.3844C33.3794 14.3844 33.372 14.3919 33.3646 14.3919H33.3572C33.298 14.4069 33.261 14.4218 33.224 14.4368C33.2166 14.4443 33.2092 14.4443 33.1944 14.4517L33.187 14.4592C33.1426 14.4817 33.1056 14.5041 33.0686 14.5265C33.0612 14.534 33.0538 14.5415 33.039 14.549C33.0316 14.549 33.0316 14.5565 33.0242 14.5565C32.9946 14.5789 32.9576 14.6088 32.928 14.6388C32.9206 14.6462 32.9058 14.6612 32.8984 14.6687C32.8984 14.6762 32.891 14.6762 32.891 14.6836L32.8836 14.6911C32.8614 14.721 32.8392 14.7435 32.817 14.7809C32.8022 14.7958 32.7948 14.8108 32.7874 14.8332C32.7874 14.8407 32.78 14.8482 32.78 14.8557C32.7726 14.8632 32.7726 14.8706 32.7652 14.8781C32.7578 14.9006 32.743 14.9155 32.7356 14.938C32.7208 14.9679 32.7134 14.9978 32.706 15.0277L32.6986 15.0427C32.6986 15.0502 32.6986 15.0502 32.6912 15.0576C32.6838 15.0726 32.6838 15.0876 32.6764 15.1025C32.4692 16.06 32.0993 16.9576 31.5813 17.773C31.5517 17.8178 31.5295 17.8702 31.5147 17.9076C31.5073 17.9151 31.5073 17.9226 31.5073 17.93C31.4703 18.0273 31.4481 18.1395 31.4481 18.2517C31.4481 18.2592 31.4481 18.2666 31.4481 18.2741C31.4481 18.3863 31.4703 18.4911 31.5073 18.6033C31.5073 18.6107 31.5147 18.6182 31.5147 18.6257C31.5591 18.7304 31.6183 18.8277 31.6997 18.9099L31.7071 18.9174L31.7145 18.9249L33.2758 20.5032V20.5107C33.2758 20.5182 33.2758 20.5182 33.2758 20.5182L31.7071 22.104L31.6997 22.1115C31.6923 22.1115 31.6923 22.1115 31.6923 22.104L30.131 20.5257L30.1236 20.5182V20.5107L30.1162 20.5032C30.0348 20.4209 29.9386 20.3536 29.8276 20.3162C29.8202 20.3162 29.8128 20.3087 29.8128 20.3087C29.7092 20.2713 29.5982 20.2489 29.4946 20.2489C29.4872 20.2489 29.4798 20.2489 29.4724 20.2489H29.465C29.354 20.2489 29.243 20.2713 29.1468 20.3087C29.1394 20.3087 29.132 20.3162 29.132 20.3162C29.095 20.3312 29.0432 20.3536 28.9988 20.3835C28.1923 20.9072 27.3043 21.2737 26.3572 21.4906C26.3424 21.4906 26.3276 21.4981 26.3202 21.5056C26.3128 21.5056 26.3128 21.5131 26.3054 21.5131L26.2906 21.5205C26.261 21.528 26.224 21.543 26.1944 21.5505C26.1722 21.5579 26.1574 21.5729 26.1426 21.5804C26.1352 21.5879 26.1278 21.5879 26.1204 21.5953L26.0982 21.6028C26.076 21.6103 26.0612 21.6253 26.039 21.6402C26.0168 21.6552 25.9946 21.6776 25.9724 21.6926L25.965 21.7001C25.9576 21.7075 25.9576 21.7075 25.9502 21.715C25.9354 21.73 25.9206 21.7375 25.9058 21.7524C25.891 21.7674 25.8762 21.7823 25.8688 21.7973C25.8614 21.8048 25.8614 21.8123 25.854 21.8197L25.8392 21.8347C25.8244 21.8497 25.8096 21.8721 25.7948 21.8945C25.78 21.917 25.7726 21.9394 25.7578 21.9619L25.7504 21.9768L25.743 21.9918C25.7356 22.0067 25.7208 22.0292 25.7134 22.0516C25.706 22.0741 25.6986 22.0965 25.6912 22.1264L25.6838 22.1489C25.6838 22.1564 25.6764 22.1638 25.6764 22.1713C25.669 22.1863 25.6616 22.2087 25.6616 22.2237C25.6542 22.2611 25.6542 22.2985 25.6468 22.3359V22.3508C25.6468 22.3583 25.6468 22.3583 25.6468 22.3658C25.6468 22.3733 25.6468 22.3882 25.6468 22.4032V22.4107V24.6398C25.6468 24.6473 25.6468 24.6547 25.632 24.6547H23.427C23.4196 24.6547 23.4122 24.6473 23.4122 24.6398V22.4107V22.3957C23.4122 22.3808 23.4122 22.3658 23.4122 22.3583C23.4122 22.3508 23.4122 22.3508 23.4122 22.3434V22.3284C23.4122 22.291 23.4048 22.2536 23.3974 22.2162C23.39 22.1938 23.39 22.1713 23.3826 22.1564L23.3752 22.1414C23.3752 22.1339 23.3678 22.1264 23.3678 22.119C23.3604 22.0965 23.353 22.0741 23.3456 22.0516C23.3382 22.0292 23.3234 22.0067 23.316 21.9918C23.316 21.9843 23.3086 21.9768 23.3086 21.9693C23.3012 21.9619 23.3012 21.9544 23.3012 21.9469C23.2938 21.9319 23.2864 21.9095 23.2716 21.8945C23.2568 21.8721 23.242 21.8571 23.2346 21.8422L23.2198 21.8272C23.2124 21.8197 23.2124 21.8123 23.205 21.8048C23.1902 21.7898 23.1828 21.7749 23.1606 21.7524C23.1458 21.7375 23.1236 21.7225 23.1088 21.7075L23.094 21.7001L23.0792 21.6851C23.0644 21.6701 23.0422 21.6552 23.02 21.6402C22.9978 21.6253 22.9756 21.6178 22.9534 21.6028L22.9386 21.5953L22.9238 21.5879C22.909 21.5804 22.8868 21.5654 22.8646 21.5579C22.835 21.543 22.798 21.5355 22.7684 21.528L22.7536 21.5205C22.7462 21.5205 22.7462 21.5205 22.7388 21.5131C22.7314 21.5056 22.7166 21.5056 22.7018 21.4981C21.7547 21.2886 20.8667 20.9146 20.0602 20.391C20.0232 20.3686 19.9788 20.3461 19.927 20.3237C19.9196 20.3162 19.9122 20.3162 19.9048 20.3162C19.8012 20.2788 19.6976 20.2564 19.5792 20.2489C19.5718 20.2489 19.5644 20.2489 19.557 20.2489C19.446 20.2489 19.3424 20.2713 19.2388 20.3087H19.2314C19.224 20.3087 19.2166 20.3162 19.2092 20.3162C19.1056 20.3611 19.0094 20.4209 18.928 20.5032L18.9206 20.5107L18.9132 20.5182L18.9058 20.5257V20.5331L17.3149 22.119H17.3075C17.3001 22.119 17.3001 22.1189 17.2927 22.1115L15.724 20.5257V20.5182C15.724 20.5107 15.724 20.5107 15.724 20.5107L17.2853 18.9324L17.2927 18.9249L17.3001 18.9174V18.9099C17.3815 18.8277 17.4407 18.7304 17.4851 18.6257C17.4851 18.6182 17.4925 18.6107 17.4925 18.6033C17.5369 18.4911 17.5517 18.3863 17.5591 18.2741C17.5591 18.2666 17.5591 18.2592 17.5591 18.2517V18.2442C17.5591 18.132 17.5369 18.0273 17.4999 17.9226C17.4999 17.9151 17.4925 17.9076 17.4925 17.9076C17.4777 17.8627 17.4555 17.8178 17.4259 17.773C16.9079 16.9576 16.538 16.06 16.3308 15.1025C16.3234 15.0876 16.3234 15.0651 16.316 15.0576C16.316 15.0502 16.3086 15.0427 16.3086 15.0352C16.3086 15.0277 16.3012 15.0202 16.3012 15.0128C16.2938 14.9903 16.2864 14.9604 16.2716 14.938C16.2642 14.908 16.2494 14.8856 16.2346 14.8632C16.2272 14.8557 16.2272 14.8482 16.2198 14.8407C16.2198 14.8332 16.2124 14.8332 16.2124 14.8258C16.205 14.8108 16.1976 14.7958 16.1902 14.7809C16.168 14.7435 16.1384 14.7136 16.1014 14.6687V14.6612C16.094 14.6537 16.0866 14.6462 16.0792 14.6388C16.0496 14.6088 16.0126 14.5789 15.9682 14.5415C15.9608 14.534 15.9534 14.5265 15.946 14.5265C15.909 14.5041 15.8646 14.4742 15.8128 14.4517C15.8054 14.4443 15.798 14.4443 15.7906 14.4443C15.7536 14.4293 15.7018 14.4143 15.65 14.3994H15.6426C15.6352 14.3994 15.6278 14.3919 15.6204 14.3919C15.576 14.3844 15.5316 14.3769 15.4724 14.3769H15.465C15.4576 14.3769 15.4502 14.3769 15.4354 14.3769H15.428H15.4206H13.2155C13.2081 14.3769 13.2007 14.3695 13.2007 14.362V12.1329C13.2007 12.1254 13.2007 12.1179 13.2155 12.1179H15.428C15.4354 12.1179 15.4354 12.1179 15.4354 12.1179C15.5242 12.1179 15.6056 12.103 15.7018 12.073C15.7092 12.073 15.7092 12.073 15.7166 12.0656C15.724 12.0656 15.7388 12.0581 15.7462 12.0581C15.8276 12.0282 15.9016 11.9833 15.9756 11.9309C15.983 11.9234 15.9978 11.916 16.0052 11.901L16.0126 11.8935C16.0866 11.8337 16.1458 11.7664 16.1902 11.6916C16.1976 11.6841 16.1976 11.6766 16.205 11.6691V11.6616C16.2568 11.5793 16.2864 11.4971 16.3086 11.4073C16.3086 11.3998 16.316 11.3923 16.316 11.3849C16.5232 10.4274 16.8931 9.52977 17.4111 8.71443C17.4407 8.66955 17.4629 8.61719 17.4777 8.57979C17.4851 8.57231 17.4851 8.56483 17.4851 8.55735C17.5221 8.46011 17.5443 8.3479 17.5443 8.2357C17.5443 8.22822 17.5443 8.22074 17.5443 8.21326C17.5443 8.10106 17.5221 7.99633 17.4851 7.88413C17.4851 7.87665 17.4777 7.86917 17.4777 7.86169C17.4333 7.75697 17.3741 7.65972 17.2927 7.57744L17.2853 7.56996L17.2779 7.56248L15.7166 5.98416L15.7092 5.97668C15.7092 5.9692 15.7092 5.9692 15.7092 5.9692L17.2779 4.3834H17.2853C17.2927 4.3834 17.3001 4.3834 17.3001 4.3834L18.891 5.98416C18.8984 5.99164 18.9058 5.99164 18.9058 5.99912C18.9798 6.06644 19.0612 6.12628 19.1648 6.17116C19.187 6.17865 19.2092 6.18613 19.224 6.19361C19.3424 6.23849 19.4386 6.25345 19.5348 6.25345Z" fill="#FF5C00"/>
<path d="M24.5004 16.9352C26.5057 16.9352 28.1336 15.2895 28.1336 13.2624C28.1336 11.2352 26.5057 9.5896 24.5004 9.5896C22.4951 9.5896 20.8672 11.2352 20.8672 13.2624C20.8672 15.2895 22.4951 16.9352 24.5004 16.9352ZM24.5004 11.2876C25.5807 11.2876 26.4539 12.1777 26.4539 13.2624C26.4539 14.3545 25.5733 15.2371 24.5004 15.2371C23.42 15.2371 22.5469 14.347 22.5469 13.2624C22.5469 12.1703 23.42 11.2876 24.5004 11.2876Z" fill="#FF5C00"/>
<path d="M24.5002 9.58957C26.5054 9.58957 28.1333 11.2352 28.1333 13.2624C28.1333 15.2895 26.5054 16.9351 24.5002 16.9351C22.4949 16.9351 20.867 15.2895 20.867 13.2624C20.867 11.2352 22.4949 9.58957 24.5002 9.58957ZM24.5002 15.2371C25.5805 15.2371 26.4536 14.347 26.4536 13.2624C26.4536 12.1702 25.5731 11.2876 24.5002 11.2876C23.4272 11.2876 22.5467 12.1777 22.5467 13.2624C22.5467 14.3545 23.4198 15.2371 24.5002 15.2371ZM24.5002 9.51477C22.4579 9.51477 20.793 11.1978 20.793 13.2624C20.793 15.3269 22.4579 17.0099 24.5002 17.0099C26.5424 17.0099 28.2073 15.3269 28.2073 13.2624C28.2073 11.1978 26.5424 9.51477 24.5002 9.51477ZM24.5002 15.1623C23.4642 15.1623 22.6207 14.3096 22.6207 13.2624C22.6207 12.2151 23.4642 11.3624 24.5002 11.3624C25.5361 11.3624 26.3796 12.2151 26.3796 13.2624C26.3796 14.3096 25.5361 15.1623 24.5002 15.1623Z" fill="#FF5C00"/>
<path d="M24.5003 20.3238C28.3555 20.3238 31.4855 17.1597 31.4855 13.2625C31.4855 9.3653 28.3555 6.20117 24.5003 6.20117C20.6452 6.20117 17.5151 9.3653 17.5151 13.2625C17.5151 17.1597 20.6452 20.3238 24.5003 20.3238ZM24.5003 7.8917C27.4306 7.8917 29.8132 10.3003 29.8132 13.2625C29.8132 16.2246 27.4306 18.6258 24.5003 18.6258C21.5701 18.6258 19.1874 16.2172 19.1874 13.255C19.1874 10.2928 21.5701 7.8917 24.5003 7.8917Z" fill="#FF5C00"/>
<path d="M24.5001 6.20114C28.3553 6.20114 31.4853 9.36527 31.4853 13.2625C31.4853 17.1596 28.3553 20.3238 24.5001 20.3238C20.6449 20.3238 17.5149 17.1596 17.5149 13.2625C17.5149 9.36527 20.6449 6.20114 24.5001 6.20114ZM24.5001 18.6258C27.4303 18.6258 29.813 16.2171 29.813 13.255C29.813 10.2928 27.4303 7.88419 24.5001 7.88419C21.5699 7.88419 19.1872 10.2928 19.1872 13.255C19.1872 16.2171 21.5699 18.6258 24.5001 18.6258ZM24.5001 6.12634C20.6079 6.12634 17.4409 9.32787 17.4409 13.2625C17.4409 17.197 20.6079 20.3986 24.5001 20.3986C28.3923 20.3986 31.5593 17.197 31.5593 13.2625C31.5593 9.32787 28.3923 6.12634 24.5001 6.12634ZM24.5001 18.551C21.6143 18.551 19.2612 16.1797 19.2612 13.255C19.2612 10.3302 21.6069 7.95899 24.5001 7.95899C27.3934 7.95899 29.739 10.3302 29.739 13.255C29.739 16.1797 27.386 18.551 24.5001 18.551Z" fill="#FF5C00"/>
</g>
<defs>
<clipPath id="clip0_17_82">
<rect width="49" height="51" fill="white"/>
</clipPath>
</defs>
</svg>
