<svg width="49" height="55" viewBox="0 0 49 55" fill="none" xmlns="http://www.w3.org/2000/svg">
<path d="M48.6819 12.7244C48.6597 12.1484 48.4303 11.6023 48.0234 11.1984C47.5942 10.7645 46.9948 10.5177 46.3659 10.5326C44.1756 10.6074 42.4441 12.4701 42.5107 14.6918L42.6291 18.4022L42.0075 20.9381C42.0001 20.9381 41.9927 20.9381 41.9927 20.9381C41.2157 20.9381 40.4832 21.2448 39.9356 21.7984L35.8585 25.9276L34.4451 26.1745C33.535 26.3316 32.6692 26.7804 32.0107 27.4462L29.1988 30.2888C28.3701 31.1266 27.9039 32.2338 27.8743 33.4157L27.7707 38.121C26.461 38.5623 25.5064 39.8041 25.4916 41.2703L25.4251 47.4343C25.4029 49.2894 26.8828 50.808 28.7105 50.8304L38.8257 50.9427H38.8627C39.7358 50.9427 40.5572 50.5986 41.1861 49.9851C41.8225 49.3568 42.1777 48.5189 42.1851 47.6213L42.2517 41.4423C42.2591 40.5447 41.9261 39.6994 41.3045 39.0635C40.9494 38.697 40.535 38.4277 40.0762 38.2631L40.0984 38.121C40.2538 37.0737 40.7274 36.1236 41.4673 35.3756L46.2105 30.5805C47.424 29.3537 48.1861 27.7379 48.3637 26.0249L48.8669 21.185C48.9039 21.0129 48.9187 20.8334 48.9261 20.6538V20.6389C48.9261 20.6314 48.9261 20.6164 48.9261 20.609C48.9261 20.579 48.9335 20.5491 48.9335 20.5192L48.6819 12.7244ZM40.572 41.4199L40.5054 47.5839C40.498 48.0252 40.3278 48.4367 40.0096 48.7508C39.6914 49.065 39.2771 49.2296 38.8405 49.2296L28.7253 49.1174C27.8151 49.1099 27.09 48.3544 27.0974 47.4343L27.164 41.2703C27.1714 40.3577 27.9113 39.6246 28.8067 39.6246H28.8215L38.9367 39.7368C39.3733 39.7442 39.7802 39.9163 40.091 40.238C40.4092 40.5596 40.5794 40.9785 40.572 41.4199ZM45.0191 29.3687L40.276 34.1637C39.2845 35.1661 38.6481 36.4453 38.4335 37.8591L38.4113 38.0312L29.4578 37.9339L29.5614 33.4306C29.5762 32.6901 29.8722 31.9869 30.3976 31.4633L33.2094 28.6206C33.6238 28.2017 34.164 27.9175 34.7411 27.8202L36.4208 27.5285C36.48 27.521 36.5392 27.4986 36.591 27.4761C36.5984 27.4761 36.5984 27.4686 36.6058 27.4686C36.7094 27.4237 36.7982 27.3639 36.8722 27.2891C36.8722 27.2891 36.8722 27.2891 36.8796 27.2891L41.1491 22.9728C41.6079 22.5015 42.4293 22.509 42.8881 22.9728C43.1174 23.2047 43.2432 23.5189 43.2432 23.8555C43.2432 24.1921 43.1174 24.4988 42.8881 24.7382L37.9599 29.7053C37.6344 30.0345 37.6344 30.5731 37.9599 30.9022C38.1227 31.0668 38.3373 31.1491 38.5519 31.1491C38.7665 31.1491 38.9811 31.0668 39.1439 30.9022L44.0424 25.9501C44.59 25.3965 44.8933 24.6559 44.8933 23.8705C44.8933 23.085 44.59 22.3444 44.0424 21.7909C43.9092 21.6562 43.7612 21.5365 43.6058 21.4318L44.2718 18.6939C44.2718 18.6864 44.2718 18.679 44.2792 18.664C44.2866 18.6341 44.2866 18.6042 44.294 18.5742C44.294 18.5443 44.3014 18.5144 44.3014 18.4845C44.3014 18.477 44.3014 18.4695 44.3014 18.4545L44.1756 14.632C44.1386 13.3453 45.1375 12.2606 46.4028 12.2232C46.5656 12.2232 46.7136 12.2831 46.8246 12.3953C46.8986 12.4701 46.9874 12.5973 46.9948 12.7843L47.239 20.5117L47.1798 21.0578C47.1798 21.0727 47.1724 21.0952 47.1724 21.1101L46.6766 25.8379C46.5582 27.1619 45.9589 28.4187 45.0191 29.3687Z" fill="#FF5C00"/>
<path d="M46.425 10.5326C47.0317 10.5326 47.6015 10.7794 48.0233 11.1983C48.4229 11.6023 48.6597 12.1484 48.6818 12.7244L48.926 20.5116C48.926 20.5416 48.9186 20.5715 48.9186 20.6014C48.9186 20.6089 48.9186 20.6239 48.9186 20.6313V20.6463C48.9186 20.8333 48.8964 21.0054 48.8594 21.1774L48.3563 26.0173C48.1787 27.7304 47.4165 29.3537 46.203 30.573L41.4599 35.3681C40.7199 36.1161 40.2463 37.0661 40.0909 38.1134L40.0687 38.2556C40.5275 38.4276 40.9419 38.6969 41.2971 39.056C41.9186 39.6993 42.259 40.5446 42.2442 41.4348L42.1776 47.5988C42.1702 48.489 41.815 49.3343 41.1787 49.9626C40.5497 50.5835 39.7284 50.9202 38.8552 50.9202H38.8182L28.703 50.808C26.8679 50.7855 25.3954 49.267 25.4176 47.4118L25.4842 41.2478C25.499 39.7741 26.4535 38.5398 27.7632 38.0985L27.8668 33.3932C27.8964 32.2113 28.3626 31.1041 29.1914 30.2663L32.0032 27.4237C32.6618 26.7579 33.5201 26.3091 34.4377 26.152L35.851 25.9051L39.9281 21.7759C40.4757 21.2223 41.2083 20.9156 41.9852 20.9156C41.9926 20.9156 42 20.9156 42 20.9156L42.6216 18.3797L42.5032 14.6693C42.4366 12.4476 44.1681 10.5849 46.3584 10.5101C46.388 10.5326 46.4102 10.5326 46.425 10.5326ZM38.5518 31.149C38.3372 31.149 38.1226 31.0667 37.9599 30.9022C37.6343 30.573 37.6343 30.0344 37.9599 29.7053L42.8584 24.7531C43.0878 24.5212 43.2136 24.207 43.2136 23.8704C43.2136 23.5338 43.0878 23.2271 42.8584 22.9877C42.629 22.7558 42.3108 22.6361 41.9852 22.6361C41.667 22.6361 41.3489 22.7558 41.1121 22.9877L36.8573 27.304C36.8573 27.304 36.8573 27.304 36.8499 27.304C36.7759 27.3788 36.6871 27.4387 36.5835 27.4835C36.5761 27.4835 36.5761 27.491 36.5687 27.491C36.5169 27.5135 36.4577 27.5284 36.3985 27.5434L34.7188 27.8351C34.1417 27.9324 33.6015 28.2166 33.1871 28.6355L30.3753 31.4782C29.8573 32.0018 29.5613 32.705 29.5391 33.4455L29.4355 37.9489L38.389 38.0461L38.4112 37.874C38.6184 36.4602 39.2548 35.1885 40.2537 34.1786L44.9969 29.3836C45.9366 28.4336 46.536 27.1768 46.6692 25.8453L47.1649 21.1176C47.1649 21.1026 47.1723 21.0802 47.1723 21.0652L47.2315 20.5191L46.9873 12.7917C46.9799 12.6047 46.8912 12.4775 46.8172 12.4027C46.7062 12.2905 46.5508 12.2381 46.3954 12.2307C45.13 12.2755 44.1311 13.3527 44.1681 14.6394L44.2939 18.462C44.2939 18.4695 44.2939 18.4769 44.2939 18.4919C44.2939 18.5218 44.2939 18.5517 44.2865 18.5817C44.2865 18.6116 44.2791 18.6415 44.2717 18.6714C44.2717 18.6789 44.2717 18.6939 44.2643 18.7013L43.5983 21.4392C43.7537 21.544 43.8943 21.6637 44.0349 21.7983C44.5825 22.3519 44.8859 23.0924 44.8859 23.8779C44.8859 24.6634 44.5825 25.4039 44.0349 25.9575L39.1364 30.9096C38.981 31.0667 38.7664 31.149 38.5518 31.149ZM38.8478 49.2295C39.2844 49.2295 39.6988 49.065 40.0169 48.7508C40.3351 48.4366 40.5053 48.0252 40.5127 47.5838L40.5793 41.4198C40.5867 40.9785 40.4165 40.5596 40.1057 40.2379C39.795 39.9162 39.388 39.7442 38.9514 39.7367L28.8362 39.6245H28.8214C27.926 39.6245 27.1861 40.3576 27.1787 41.2702L27.1121 47.4342C27.1047 48.3543 27.8298 49.1024 28.74 49.1173L38.8478 49.2295ZM46.425 10.4578C46.4028 10.4578 46.3806 10.4578 46.3584 10.4578C44.1237 10.5326 42.3626 12.4326 42.4292 14.6918L42.5476 18.3872L41.9408 20.8558C41.1565 20.8632 40.4239 21.1774 39.8689 21.7385L35.8066 25.8453L34.4155 26.0847C33.4831 26.2418 32.61 26.7056 31.944 27.3788L29.1322 30.2214C28.2886 31.0742 27.815 32.2038 27.7854 33.4007L27.6818 38.0536C26.3277 38.5323 25.4176 39.8115 25.4028 41.2553L25.3362 47.4193C25.314 49.3118 26.8235 50.8678 28.6956 50.8902L38.8108 51.0024H38.8478C39.7358 51.0024 40.5793 50.6509 41.2231 50.0225C41.8742 49.3792 42.2368 48.5264 42.2442 47.6063L42.3256 41.4423C42.333 40.5296 41.9926 39.6619 41.3563 39.0036C41.0159 38.652 40.6163 38.3827 40.1575 38.2032L40.1723 38.1209C40.3277 37.0886 40.7865 36.1535 41.5191 35.4204L46.2622 30.6254C47.4831 29.3911 48.2601 27.7528 48.4377 26.0248L48.9408 21.1924C48.9778 21.0128 48.9926 20.8333 49 20.6538V20.6388C49 20.6313 49 20.6239 49 20.6089V20.6014C49 20.5865 49 20.5715 49 20.564C49 20.549 49 20.5266 49 20.5116L48.7558 12.7169C48.7336 12.1184 48.4969 11.5574 48.0751 11.1385C47.6385 10.6971 47.0539 10.4578 46.425 10.4578ZM44.3827 18.4545L44.2569 14.6319C44.2199 13.3827 45.1892 12.3354 46.4102 12.298C46.5582 12.298 46.684 12.3503 46.7802 12.4476C46.8468 12.5149 46.9207 12.6196 46.9281 12.7842L47.1723 20.5042L47.1131 21.0428C47.1131 21.0502 47.1131 21.0577 47.1131 21.0652C47.1131 21.0802 47.1131 21.0877 47.1131 21.1026L46.6174 25.8303C46.4768 27.1394 45.8922 28.3812 44.9673 29.3238L40.2241 34.1188C39.2178 35.1362 38.574 36.4303 38.3668 37.8516L38.352 37.9638L29.5391 37.8666L29.6353 33.4381C29.6501 32.7125 29.9387 32.0317 30.4493 31.523L33.2611 28.6804C33.6607 28.2765 34.1935 27.9997 34.7484 27.9024L36.4281 27.6107C36.4873 27.6032 36.5539 27.5808 36.6131 27.5583C36.6205 27.5583 36.6205 27.5509 36.6279 27.5509C36.7315 27.506 36.8277 27.4461 36.9091 27.3638L36.9165 27.3564L41.1861 23.0401C41.3933 22.8306 41.6892 22.7109 42.0074 22.7109C42.3182 22.7109 42.6216 22.8306 42.8288 23.0401C43.0434 23.257 43.1618 23.5562 43.1618 23.8704C43.1618 24.1846 43.0434 24.4763 42.8214 24.7008L37.9229 29.6529C37.7527 29.825 37.6565 30.0569 37.6565 30.3037C37.6565 30.5506 37.7527 30.7825 37.9229 30.9545C38.0931 31.1266 38.3224 31.2238 38.5666 31.2238C38.8108 31.2238 39.0402 31.1266 39.2104 30.9545L44.1089 26.0024C44.6713 25.4339 44.9821 24.6783 44.9821 23.8704C44.9821 23.0625 44.6713 22.307 44.1089 21.7385C43.9905 21.6188 43.8499 21.4991 43.7093 21.4018L44.3679 18.7088C44.3679 18.7014 44.3679 18.6939 44.3753 18.6789C44.3753 18.6789 44.3753 18.6789 44.3753 18.6714C44.3827 18.6415 44.3827 18.6041 44.3901 18.5817C44.3901 18.5517 44.3975 18.5218 44.3975 18.4844C44.3827 18.4769 44.3827 18.462 44.3827 18.4545ZM38.8478 49.1547L28.7326 49.0425C27.8668 49.0351 27.1713 48.3094 27.1787 47.4342L27.2453 41.2702C27.2527 40.4025 27.963 39.6993 28.814 39.6993H28.8288L38.944 39.8115C39.3584 39.819 39.7506 39.9836 40.0465 40.2903C40.3351 40.5895 40.4979 40.986 40.4979 41.3974V41.4198L40.4313 47.5838C40.4239 48.0027 40.2611 48.3992 39.9577 48.6984C39.6618 48.9902 39.2696 49.1547 38.8478 49.1547Z" fill="#FF5C00"/>
<path d="M40.0024 42.1979C40.0024 42.9984 39.3586 43.6492 38.5669 43.6492C37.7751 43.6492 37.1313 42.9984 37.1313 42.1979C37.1313 41.3975 37.7751 40.7467 38.5669 40.7467C39.3586 40.7467 40.0024 41.3975 40.0024 42.1979Z" fill="#FF5C00"/>
<path d="M38.5668 43.6866C37.7528 43.6866 37.0942 43.0208 37.0942 42.198C37.0942 41.3751 37.7528 40.7094 38.5668 40.7094C39.3807 40.7094 40.0393 41.3751 40.0393 42.198C40.0393 43.0208 39.3807 43.6866 38.5668 43.6866ZM38.5668 40.7842C37.7972 40.7842 37.1682 41.42 37.1682 42.198C37.1682 42.976 37.7972 43.6118 38.5668 43.6118C39.3363 43.6118 39.9653 42.976 39.9653 42.198C39.9653 41.42 39.3363 40.7842 38.5668 40.7842Z" fill="#FF5C00"/>
<path d="M21.2296 38.1061L21.126 33.4008C21.0964 32.2189 20.6302 31.1117 19.8015 30.2739L16.9897 27.4313C16.3311 26.7655 15.4727 26.3167 14.5626 26.1596L13.1493 25.9127L9.0721 21.7835C8.52454 21.2299 7.79198 20.9232 7.01502 20.9232C7.00762 20.9232 7.00022 20.9232 7.00022 20.9232L6.37866 18.3873L6.49705 14.6769C6.56365 12.4552 4.83215 10.5925 2.63447 10.5177C2.04251 10.4953 1.42094 10.7496 0.984367 11.1835C0.57739 11.5874 0.348003 12.1335 0.325804 12.717L0.0742188 20.5192C0.0742188 20.5492 0.0816183 20.5866 0.0816183 20.6165V20.624V20.6315C0.0816183 20.8185 0.103817 20.998 0.140815 21.1775L0.643986 26.01C0.821576 27.723 1.58373 29.3463 2.79726 30.5657L7.54039 35.3607C8.28035 36.1088 8.75392 37.0588 8.90931 38.0986L8.93151 38.2407C8.47274 38.4128 8.05836 38.6821 7.70318 39.0411C7.08162 39.6845 6.74124 40.5298 6.75604 41.42L6.82263 47.5839C6.83003 48.4816 7.18521 49.3194 7.82158 49.9478C8.45054 50.5687 9.27189 50.9053 10.145 50.9053H10.182L20.2973 50.7931C22.125 50.7707 23.6049 49.2521 23.5827 47.3969L23.5161 41.2329C23.4939 39.7892 22.5393 38.5474 21.2296 38.1061ZM8.72432 34.1713L3.9812 29.3762C3.04145 28.4262 2.44208 27.1695 2.30889 25.8379L1.81312 21.1102C1.81312 21.0953 1.80572 21.0728 1.80572 21.0578L1.74652 20.5118L1.99811 12.7843C2.00551 12.5973 2.0943 12.4702 2.1683 12.3954C2.27929 12.2831 2.43468 12.2233 2.58268 12.2233C3.8554 12.2682 4.85435 13.3454 4.81735 14.632L4.69155 18.4546C4.69155 18.4621 4.69155 18.4696 4.69155 18.4845C4.69155 18.5145 4.69155 18.5444 4.69895 18.5743C4.69895 18.6042 4.70635 18.6341 4.71375 18.6641C4.71375 18.6715 4.71375 18.679 4.72115 18.694L5.38712 21.4319C5.23172 21.5366 5.09113 21.6563 4.95054 21.7909C4.40297 22.3445 4.09959 23.0851 4.09959 23.8705C4.09959 24.656 4.40297 25.3966 4.95054 25.9501L9.84906 30.9023C10.0119 31.0669 10.2264 31.1491 10.441 31.1491C10.6556 31.1491 10.8702 31.0669 11.033 30.9023C11.3586 30.5731 11.3586 30.0345 11.033 29.7054L6.13447 24.7532C5.90509 24.5214 5.77929 24.2072 5.77929 23.8705C5.77929 23.5339 5.90509 23.2272 6.13447 22.9878C6.59325 22.524 7.4146 22.524 7.87337 22.9878L12.1429 27.3041C12.1429 27.3041 12.1429 27.3041 12.1503 27.3041C12.2243 27.3789 12.3131 27.4388 12.4167 27.4837C12.4241 27.4837 12.4241 27.4911 12.4315 27.4911C12.4833 27.5136 12.5425 27.5285 12.6017 27.5435L14.2814 27.8352C14.8512 27.9325 15.3987 28.2168 15.8057 28.6357L18.6176 31.4783C19.1355 32.0019 19.4315 32.7051 19.4537 33.4457L19.5573 37.949L10.6038 38.0462L10.5816 37.8667C10.3596 36.4529 9.72327 35.1737 8.72432 34.1713ZM20.2677 49.1249L10.1524 49.2372C9.70107 49.2372 9.30149 49.0726 8.98331 48.7584C8.66513 48.4442 8.49494 48.0328 8.48754 47.5914L8.42094 41.4274C8.41354 40.9861 8.58373 40.5672 8.89451 40.2455C9.2053 39.9238 9.61227 39.7518 10.0488 39.7443L20.1641 39.6321H20.1789C21.0742 39.6321 21.8142 40.3652 21.8216 41.2778L21.8882 47.4418C21.9104 48.3544 21.1778 49.11 20.2677 49.1249Z" fill="#FF5C00"/>
<path d="M2.55285 10.5251C2.57505 10.5251 2.60465 10.5251 2.62685 10.5251C4.83192 10.5999 6.55602 12.4626 6.48943 14.6843L6.37104 18.3947L6.9926 20.9306C7 20.9306 7.0074 20.9306 7.0074 20.9306C7.78435 20.9306 8.51691 21.2373 9.06448 21.7909L13.1416 25.9201L14.555 26.167C15.4651 26.3241 16.3309 26.7729 16.982 27.4387L19.7939 30.2813C20.6226 31.1191 21.0888 32.2263 21.1184 33.4082L21.222 38.1135C22.5317 38.5548 23.4863 39.7891 23.5011 41.2628L23.5677 47.4268C23.5899 49.2819 22.1099 50.8005 20.2822 50.8229L10.167 50.9352H10.1374C9.26427 50.9352 8.44292 50.5985 7.81395 49.9776C7.17759 49.3493 6.82241 48.5114 6.81501 47.6138L6.74841 41.4423C6.74101 40.5521 7.074 39.6993 7.69556 39.0635C8.05074 38.6969 8.46512 38.4276 8.92389 38.2631L8.90169 38.1209C8.7463 37.0737 8.27273 36.1236 7.53277 35.383L2.78964 30.588C1.57611 29.3612 0.813953 27.7454 0.636364 26.0323L0.133192 21.1999C0.0961945 21.0204 0.0813953 20.8408 0.0739958 20.6538V20.6463V20.6389C0.0739958 20.6089 0.0665962 20.5715 0.0665962 20.5416L0.310782 12.7469C0.332981 12.1634 0.562368 11.6248 0.969345 11.2133C1.39112 10.772 1.98309 10.5251 2.55285 10.5251ZM10.5888 38.0461L19.5423 37.9489L19.4387 33.4456C19.4239 32.705 19.1279 32.0018 18.6025 31.4782L15.7907 28.6356C15.3763 28.2167 14.8362 27.9324 14.2664 27.8352L12.5867 27.5434C12.5275 27.5359 12.4683 27.5135 12.4165 27.4911C12.4091 27.4911 12.4091 27.4836 12.4017 27.4836C12.2981 27.4387 12.2093 27.3788 12.1353 27.304C12.1353 27.304 12.1353 27.304 12.1279 27.304L7.85835 22.9877C7.62896 22.7559 7.31078 22.6362 6.9852 22.6362C6.66702 22.6362 6.34144 22.7559 6.11205 22.9877C5.88266 23.2196 5.75687 23.5338 5.75687 23.8705C5.75687 24.2071 5.88266 24.5138 6.11205 24.7532L11.0106 29.7053C11.3362 30.0344 11.3362 30.573 11.0106 30.9022C10.8478 31.0668 10.6332 31.149 10.4186 31.149C10.204 31.149 9.98943 31.0668 9.82664 30.9022L4.92812 25.9501C4.38055 25.3965 4.07717 24.6559 4.07717 23.8705C4.07717 23.085 4.38055 22.3444 4.92812 21.7909C5.06131 21.6562 5.2093 21.5365 5.36469 21.4318L4.69873 18.6939C4.69873 18.6864 4.69873 18.6715 4.69133 18.664C4.68393 18.6341 4.68393 18.6041 4.67653 18.5742C4.67653 18.5443 4.66913 18.5144 4.66913 18.4844C4.66913 18.477 4.66913 18.4695 4.66913 18.4545L4.79493 14.632C4.83192 13.3453 3.83298 12.2681 2.56025 12.2232C2.56025 12.2232 2.56025 12.2232 2.55285 12.2232C2.40486 12.2232 2.24947 12.2831 2.14588 12.3953C2.07188 12.4701 1.98309 12.5972 1.97569 12.7843L1.7315 20.5042L1.7907 21.0503C1.7907 21.0652 1.7981 21.0877 1.7981 21.1026L2.29387 25.8304C2.42706 27.1619 3.02643 28.4186 3.96617 29.3687L8.7093 34.1637C9.70824 35.1661 10.3372 36.4453 10.5518 37.8591L10.5888 38.0461ZM10.1522 49.2296L20.2674 49.1174C21.1702 49.1099 21.9027 48.3544 21.8953 47.4342L21.8288 41.2703C21.8214 40.3576 21.0814 39.6245 20.186 39.6245H20.1712L10.056 39.7367C9.61945 39.7442 9.21247 39.9163 8.90169 40.2379C8.59091 40.5596 8.42812 40.9785 8.42812 41.4199L8.49471 47.5839C8.50211 48.0252 8.6723 48.4366 8.99049 48.7508C9.30127 49.065 9.70824 49.2296 10.1522 49.2296ZM2.55285 10.4503C1.96089 10.4503 1.35412 10.7047 0.924947 11.1385C0.510571 11.5574 0.266385 12.1185 0.244186 12.7169L0 20.5192C0 20.5416 0 20.5566 0 20.579C0 20.594 0 20.6089 0 20.6164C0 20.6239 0 20.6239 0 20.6314V20.6389C0 20.8184 0.0221987 21.0054 0.0591966 21.1924L0.562368 26.0249C0.739958 27.7529 1.51691 29.3911 2.73784 30.6254L7.48097 35.4205C8.20613 36.1535 8.6723 37.0886 8.8277 38.1209L8.84249 38.2107C8.38372 38.3902 7.98414 38.6595 7.64376 39.0111C7.0074 39.6694 6.66702 40.5297 6.67442 41.4498L6.74101 47.6138C6.74841 48.5264 7.11099 49.3867 7.76216 50.03C8.39852 50.6658 9.24207 51.01 10.1374 51.01H10.1744L20.2896 50.8977C22.1617 50.8753 23.6712 49.3193 23.649 47.4268L23.5825 41.2628C23.5677 39.819 22.6575 38.5398 21.3034 38.0611L21.1998 33.4082C21.1702 32.2113 20.6966 31.0817 19.8531 30.2289L17.0412 27.3863C16.3753 26.7131 15.4947 26.2568 14.5698 26.0922L13.1786 25.8453L9.11628 21.7385C8.56131 21.1775 7.82875 20.8707 7.0518 20.8558L6.44503 18.3872L6.56342 14.6843C6.63002 12.4252 4.86152 10.5251 2.62685 10.4503C2.60465 10.4503 2.57505 10.4503 2.55285 10.4503ZM1.8277 20.4967L2.07188 12.7843C2.07928 12.6197 2.15328 12.5075 2.21987 12.4476C2.30867 12.3504 2.44186 12.298 2.57505 12.298H2.58245C3.81078 12.3429 4.78013 13.3827 4.74313 14.632L4.61734 18.4545C4.61734 18.462 4.61734 18.4695 4.61734 18.477C4.61734 18.477 4.61734 18.477 4.61734 18.4844C4.61734 18.5219 4.61734 18.5518 4.62474 18.5817C4.62474 18.6041 4.63214 18.6415 4.63953 18.6789V18.6864C4.63953 18.6939 4.63953 18.7014 4.64693 18.7089L5.3055 21.4019C5.1649 21.5066 5.02431 21.6188 4.90592 21.7385C4.34355 22.307 4.03277 23.0626 4.03277 23.8705C4.03277 24.6784 4.34355 25.4339 4.90592 26.0024L9.80444 30.9546C9.97463 31.1266 10.204 31.2239 10.4482 31.2239C10.6924 31.2239 10.9218 31.1266 11.092 30.9546C11.2622 30.7825 11.3584 30.5506 11.3584 30.3037C11.3584 30.0569 11.2622 29.825 11.092 29.6529L6.19345 24.7008C5.97886 24.4839 5.86046 24.1846 5.86046 23.8705C5.86046 23.5563 5.97886 23.2645 6.19345 23.0401C6.40063 22.8307 6.69662 22.711 7.0148 22.711C7.32558 22.711 7.62896 22.8307 7.82875 23.0401L12.0983 27.3564L12.1057 27.3639C12.1871 27.4387 12.2759 27.506 12.3795 27.5509C12.3869 27.5509 12.3869 27.5584 12.3943 27.5584C12.4535 27.5808 12.5127 27.6033 12.5793 27.6107L14.259 27.9025C14.814 27.9997 15.3467 28.2765 15.7463 28.6805L18.5581 31.5231C19.0687 32.0392 19.3573 32.72 19.3721 33.4381L19.4683 37.8666L10.6554 37.9638L10.6406 37.8516C10.4334 36.4603 9.81924 35.2035 8.86469 34.2011L8.7833 34.1188L4.04017 29.3238C3.10782 28.3812 2.52326 27.1469 2.39006 25.8304L1.89429 21.1026C1.89429 21.0877 1.89429 21.0802 1.89429 21.0652C1.89429 21.0578 1.89429 21.0503 1.89429 21.0503L1.8277 20.4967ZM10.1522 49.1548C9.72304 49.1548 9.33827 48.9977 9.03488 48.6985C8.7315 48.3992 8.56131 48.0028 8.56131 47.5839L8.49471 41.4199C8.48731 41.001 8.65011 40.597 8.94609 40.2903C9.24207 39.9836 9.63425 39.819 10.0486 39.8115L20.1638 39.6993H20.1786C21.037 39.6993 21.74 40.4025 21.7474 41.2703L21.814 47.4342C21.8214 47.8606 21.6586 48.2571 21.3626 48.5638C21.0666 48.8705 20.6744 49.0351 20.26 49.0426L10.1522 49.1548Z" fill="#FF5C00"/>
<path d="M11.8691 42.1979C11.8691 42.9984 11.2253 43.6492 10.4336 43.6492C9.64181 43.6492 8.99805 42.9984 8.99805 42.1979C8.99805 41.3975 9.64181 40.7467 10.4336 40.7467C11.2253 40.7467 11.8691 41.3975 11.8691 42.1979Z" fill="#FF5C00"/>
<path d="M10.4335 43.6866C9.6195 43.6866 8.96094 43.0208 8.96094 42.198C8.96094 41.3751 9.6195 40.7094 10.4335 40.7094C11.2474 40.7094 11.906 41.3751 11.906 42.198C11.906 43.0208 11.2474 43.6866 10.4335 43.6866ZM10.4335 40.7842C9.6639 40.7842 9.03493 41.42 9.03493 42.198C9.03493 42.976 9.6639 43.6118 10.4335 43.6118C11.203 43.6118 11.832 42.976 11.832 42.198C11.832 41.42 11.203 40.7842 10.4335 40.7842Z" fill="#FF5C00"/>
<path d="M13.2232 16.1655H14.7993C14.9991 16.8537 15.2728 17.5195 15.6132 18.1479L14.4959 19.2774C13.8077 19.9731 13.8077 21.1027 14.4959 21.7984L16.0646 23.3843C16.405 23.7284 16.8638 23.9079 17.3151 23.9079C17.7665 23.9079 18.2179 23.7359 18.5657 23.3843L19.683 22.2547C20.3046 22.5988 20.9557 22.8681 21.6439 23.0776V24.6709C21.6439 25.6584 22.4356 26.4588 23.4124 26.4588H25.6027C26.5794 26.4588 27.3712 25.6584 27.3712 24.6709V23.0776C28.0519 22.8756 28.7105 22.5988 29.332 22.2547L30.4494 23.3843C30.7898 23.7359 31.2485 23.9079 31.6999 23.9079C32.1513 23.9079 32.6027 23.7359 32.9504 23.3843L34.5191 21.7984C35.2073 21.1027 35.2073 19.9731 34.5191 19.2774L33.4018 18.1479C33.7422 17.5195 34.0086 16.8612 34.2158 16.1655H35.7919C36.7686 16.1655 37.5604 15.3651 37.5604 14.3777V12.1485C37.5604 11.161 36.7686 10.3606 35.7919 10.3606H34.2158C34.016 9.6724 33.7422 9.00663 33.4018 8.37826L34.5191 7.24869C35.2073 6.553 35.2073 5.42344 34.5191 4.72774L32.943 3.14186C32.2771 2.46861 31.1079 2.46861 30.4494 3.14186L29.332 4.27143C28.7105 3.92732 28.0593 3.65802 27.3712 3.44857V1.86268C27.3712 0.87525 26.5794 0.0748291 25.6027 0.0748291H23.3976C22.4208 0.0748291 21.6291 0.87525 21.6291 1.86268V3.45605C20.9483 3.65802 20.2898 3.9348 19.6682 4.27891L18.5509 3.14934C17.8849 2.47609 16.7232 2.47609 16.0572 3.14934L14.4885 4.73522C13.8003 5.43092 13.8003 6.56048 14.4885 7.25617L15.6058 8.38574C15.2654 9.01411 14.9991 9.6724 14.7919 10.3681H13.2158C12.239 10.3681 11.4473 11.1685 11.4473 12.1559V14.3852C11.4547 15.3651 12.2464 16.1655 13.2232 16.1655ZM13.1344 12.1485C13.1344 12.0961 13.1714 12.0587 13.2232 12.0587H15.4356C15.4356 12.0587 15.4356 12.0587 15.443 12.0587C15.5318 12.0587 15.6132 12.0437 15.6872 12.0138C15.702 12.0063 15.7168 12.0063 15.7242 11.9989C15.7982 11.9689 15.8722 11.9315 15.9314 11.8792C15.9462 11.8717 15.9536 11.8642 15.9684 11.8492C16.035 11.7969 16.0868 11.737 16.1312 11.6622C16.1386 11.6547 16.1386 11.6473 16.146 11.6398C16.1904 11.565 16.2274 11.4827 16.2422 11.4004C16.2422 11.3929 16.2422 11.3929 16.2496 11.3929C16.4568 10.4279 16.8342 9.52279 17.3521 8.69992C17.3743 8.66252 17.3965 8.61764 17.4187 8.57275C17.4187 8.56527 17.4261 8.55779 17.4261 8.55779C17.4631 8.46055 17.4853 8.35582 17.4853 8.25857C17.4853 8.25109 17.4853 8.24361 17.4853 8.23613C17.4853 8.1314 17.4631 8.03415 17.4261 7.93691C17.4261 7.92943 17.4261 7.92195 17.4187 7.91447C17.3817 7.81722 17.3151 7.72745 17.2411 7.64516C17.2411 7.64516 17.2411 7.63768 17.2337 7.63768L17.2263 7.6302L15.665 6.0518C15.628 6.0144 15.628 5.96204 15.665 5.92463L17.2411 4.34623C17.2707 4.31631 17.3373 4.31631 17.3669 4.34623L18.943 5.93211C18.943 5.93211 18.9504 5.93959 18.9578 5.93959C19.0318 6.00692 19.1132 6.05928 19.202 6.10417C19.2242 6.11165 19.239 6.11913 19.2612 6.12661C19.35 6.15653 19.4462 6.17897 19.5424 6.17897C19.6386 6.17897 19.7274 6.15653 19.8236 6.12661C19.8532 6.11913 19.8754 6.10417 19.8976 6.08921C19.9272 6.07425 19.9642 6.06676 19.9938 6.04432C20.8077 5.52068 21.7031 5.13917 22.6576 4.92972C22.6798 4.92224 22.6946 4.91476 22.7094 4.91476C22.739 4.90728 22.776 4.8998 22.8056 4.88483C22.8278 4.87735 22.85 4.86239 22.8796 4.84743C22.9018 4.83247 22.9314 4.82499 22.9536 4.80255C22.9758 4.78759 22.998 4.76515 23.0202 4.7427C23.035 4.72774 23.0572 4.71278 23.072 4.69782C23.0942 4.67538 23.109 4.65294 23.1238 4.6305C23.1386 4.60805 23.1534 4.59309 23.1682 4.57065C23.183 4.54821 23.1978 4.52577 23.2052 4.49584C23.22 4.4734 23.2348 4.45096 23.2422 4.42104C23.257 4.39112 23.257 4.36119 23.2718 4.33127C23.2792 4.30883 23.2866 4.28639 23.294 4.26395C23.3014 4.22654 23.3014 4.18914 23.3088 4.15174C23.3088 4.13678 23.3162 4.12182 23.3162 4.09937V4.09189V1.86268C23.3162 1.81032 23.3532 1.77292 23.405 1.77292H25.6027C25.6545 1.77292 25.6915 1.81032 25.6915 1.86268V4.09189V4.09937C25.6915 4.11434 25.6989 4.1293 25.6989 4.15174C25.6989 4.18914 25.7063 4.22654 25.7137 4.26395C25.721 4.28639 25.7284 4.30883 25.7358 4.33127C25.7432 4.36119 25.7506 4.39112 25.7654 4.42104C25.7728 4.44348 25.7876 4.46592 25.8024 4.49584C25.8172 4.51829 25.8246 4.54821 25.8394 4.57065C25.8542 4.59309 25.869 4.60805 25.8838 4.6305C25.8986 4.65294 25.9208 4.67538 25.9356 4.69782C25.9504 4.71278 25.9726 4.72774 25.9874 4.7427C26.0096 4.76515 26.0318 4.78011 26.054 4.80255C26.0762 4.81751 26.0984 4.83247 26.128 4.83995C26.1502 4.85491 26.1724 4.86987 26.202 4.87735C26.2316 4.89231 26.2686 4.8998 26.2982 4.90728C26.3204 4.91476 26.3352 4.92224 26.3574 4.92224C27.312 5.13169 28.2073 5.5132 29.0213 6.03684C29.0509 6.05928 29.0879 6.06676 29.1175 6.08173C29.1397 6.09669 29.1693 6.10417 29.1915 6.11913C29.2802 6.14905 29.3764 6.17149 29.4726 6.17149C29.5688 6.17149 29.665 6.14905 29.7538 6.11913C29.776 6.11165 29.7908 6.10417 29.813 6.09669C29.9018 6.05928 29.9832 6.00692 30.0572 5.93211C30.0572 5.93211 30.0646 5.92463 30.072 5.92463L31.6407 4.33875C31.6703 4.30883 31.7369 4.30883 31.7665 4.33875L33.3352 5.92463C33.3722 5.96204 33.3722 6.0144 33.3352 6.0518L31.7591 7.6302L31.7517 7.63768C31.7517 7.63768 31.7517 7.64516 31.7443 7.64516C31.6703 7.71997 31.6111 7.81722 31.5667 7.91447C31.5667 7.92195 31.5593 7.92943 31.5593 7.93691C31.5223 8.03415 31.5001 8.1314 31.5001 8.23613C31.5001 8.24361 31.5001 8.25109 31.5001 8.25857C31.5001 8.3633 31.5223 8.46055 31.5593 8.55779C31.5593 8.56527 31.5667 8.57275 31.5667 8.57275C31.5815 8.61764 31.6037 8.65504 31.6333 8.69992C32.1513 9.52279 32.5287 10.4279 32.7358 11.3929C32.7358 11.4004 32.7358 11.4004 32.7432 11.4079C32.7654 11.4977 32.795 11.5725 32.8394 11.6473C32.8468 11.6547 32.8468 11.6622 32.8542 11.6697C32.8986 11.737 32.9578 11.7969 33.017 11.8567C33.0318 11.8642 33.0392 11.8792 33.054 11.8866C33.1206 11.939 33.1872 11.9764 33.2612 12.0063C33.276 12.0138 33.2908 12.0138 33.3056 12.0213C33.387 12.0437 33.4684 12.0662 33.5498 12.0662C33.5498 12.0662 33.5498 12.0662 33.5572 12.0662H35.7697C35.8215 12.0662 35.8585 12.1036 35.8585 12.1559V14.3852C35.8585 14.4375 35.8215 14.4749 35.7697 14.4749H33.5646H33.5572H33.5498C33.535 14.4749 33.5276 14.4749 33.5202 14.4749C33.4758 14.4749 33.4314 14.4824 33.387 14.4899C33.3722 14.4899 33.3648 14.4974 33.35 14.4974C33.3056 14.5048 33.2686 14.5198 33.2242 14.5348C33.2094 14.5422 33.202 14.5497 33.1872 14.5497C33.1502 14.5647 33.1132 14.5871 33.0836 14.6096C33.0688 14.6171 33.0614 14.6245 33.0466 14.6395C33.017 14.6619 32.9874 14.6844 32.9578 14.7143C32.943 14.7293 32.9356 14.7442 32.9208 14.7517C32.8986 14.7816 32.8764 14.8041 32.8542 14.834C32.8394 14.8564 32.832 14.8789 32.8172 14.9013C32.8024 14.9238 32.7876 14.9537 32.7728 14.9761C32.758 15.006 32.7506 15.036 32.7432 15.0734C32.7358 15.0958 32.7284 15.1108 32.721 15.1332C32.5139 16.0982 32.1365 17.0034 31.6185 17.8262C31.5963 17.8636 31.5741 17.9085 31.5519 17.9534C31.5519 17.9609 31.5445 17.9683 31.5445 17.9683C31.5075 18.0656 31.4853 18.1703 31.4853 18.2676C31.4853 18.2751 31.4853 18.2825 31.4853 18.29C31.4853 18.3947 31.5075 18.492 31.5445 18.5892C31.5445 18.5967 31.5445 18.6042 31.5519 18.6117C31.5889 18.7089 31.6555 18.7987 31.7295 18.881C31.7295 18.881 31.7295 18.8885 31.7369 18.8885L31.7443 18.8959L33.3056 20.4743C33.3426 20.5117 33.3426 20.5641 33.3056 20.6015L31.7443 22.1799C31.7073 22.2173 31.6555 22.2173 31.6185 22.1799L30.0572 20.6015C30.0572 20.6015 30.0572 20.6015 30.0498 20.594L30.0424 20.5865C30.0424 20.5865 30.0424 20.5865 30.035 20.5865C29.9536 20.5117 29.8648 20.4519 29.7686 20.407C29.7612 20.407 29.7538 20.3995 29.7464 20.3995C29.6502 20.3621 29.554 20.3397 29.4504 20.3397C29.443 20.3397 29.4356 20.3397 29.4282 20.3397C29.332 20.3397 29.2285 20.3621 29.1323 20.3995C29.1249 20.3995 29.1175 20.407 29.1175 20.407C29.0731 20.422 29.0361 20.4444 28.9917 20.4743C28.1777 20.998 27.2824 21.372 26.3278 21.5889C26.313 21.5964 26.2982 21.6039 26.276 21.6039C26.239 21.6114 26.202 21.6263 26.1724 21.6413C26.1502 21.6488 26.128 21.6637 26.1058 21.6787C26.0836 21.6937 26.054 21.7086 26.0318 21.7236C26.0096 21.7386 25.9874 21.761 25.9652 21.776C25.943 21.7909 25.9282 21.8059 25.906 21.8283C25.8838 21.8508 25.869 21.8732 25.8542 21.8956C25.8394 21.9181 25.8172 21.9331 25.8024 21.9555C25.7876 21.9779 25.7802 22.0004 25.7654 22.0303C25.7506 22.0527 25.7358 22.0752 25.7285 22.1051C25.7137 22.135 25.7136 22.1649 25.6989 22.1874C25.6915 22.2098 25.6841 22.2323 25.6767 22.2622C25.6693 22.2996 25.6693 22.337 25.6619 22.3744C25.6619 22.3894 25.6545 22.4043 25.6545 22.4268V22.4342V24.6635C25.6545 24.7158 25.6175 24.7532 25.5657 24.7532H23.3606C23.3088 24.7532 23.2718 24.7158 23.2718 24.6635V22.4342V22.4268C23.2718 22.4118 23.2644 22.3894 23.2644 22.3744C23.2644 22.337 23.257 22.2996 23.2496 22.2622C23.2422 22.2398 23.2348 22.2173 23.2274 22.1874C23.22 22.1575 23.2126 22.1275 23.1978 22.1051C23.1904 22.0827 23.1756 22.0527 23.1608 22.0303C23.146 22.0079 23.1386 21.9854 23.1238 21.963C23.109 21.9405 23.0942 21.9181 23.072 21.8956C23.0572 21.8732 23.0424 21.8508 23.0202 21.8283C23.0054 21.8134 22.9832 21.7909 22.961 21.776C22.9388 21.761 22.9166 21.7386 22.8944 21.7236C22.8722 21.7086 22.8426 21.6937 22.8204 21.6787C22.7982 21.6637 22.776 21.6563 22.7538 21.6413C22.7168 21.6263 22.6872 21.6189 22.6502 21.6039C22.6354 21.5964 22.6206 21.5889 22.5984 21.5889C21.6439 21.372 20.7485 20.998 19.9346 20.4743C19.8976 20.4519 19.8532 20.4295 19.8088 20.407C19.8014 20.407 19.8014 20.3995 19.794 20.3995C19.6978 20.3621 19.5942 20.3397 19.498 20.3397C19.4906 20.3397 19.4832 20.3397 19.4758 20.3397C19.3722 20.3397 19.276 20.3621 19.1798 20.3995C19.1724 20.3995 19.165 20.407 19.1576 20.407C19.0614 20.4444 18.9726 20.5117 18.8912 20.5865C18.8912 20.5865 18.8838 20.5865 18.8838 20.594L18.8764 20.6015L17.3151 22.1799C17.2781 22.2173 17.2263 22.2173 17.1893 22.1799L15.6206 20.594C15.5836 20.5566 15.5836 20.5043 15.6206 20.4669L17.1819 18.8885L17.1893 18.881C17.1893 18.881 17.1893 18.8735 17.1967 18.8735C17.2707 18.7987 17.3299 18.7014 17.3743 18.6042C17.3743 18.5967 17.3817 18.5892 17.3817 18.5818C17.4187 18.4845 17.4409 18.3873 17.4409 18.2825C17.4409 18.2751 17.4409 18.2676 17.4409 18.2601C17.4409 18.1554 17.4187 18.0581 17.3817 17.9609C17.3817 17.9534 17.3743 17.9459 17.3743 17.9459C17.3595 17.901 17.3373 17.8636 17.3077 17.8187C16.7898 16.9959 16.4124 16.0907 16.2052 15.1257C16.1978 15.1033 16.1904 15.0808 16.183 15.0659C16.1756 15.036 16.1682 15.006 16.1534 14.9761C16.1386 14.9462 16.1238 14.9163 16.1016 14.8864C16.0942 14.8714 16.0868 14.849 16.072 14.834C16.0498 14.7966 16.0202 14.7667 15.9906 14.7367C15.9832 14.7293 15.9758 14.7218 15.9684 14.7143C15.9388 14.6844 15.9018 14.6545 15.8648 14.6245C15.8574 14.6171 15.8574 14.6171 15.85 14.6096C15.813 14.5797 15.7686 14.5647 15.7242 14.5422C15.7168 14.5422 15.7094 14.5348 15.7094 14.5348C15.665 14.5198 15.6206 14.5048 15.5762 14.4899C15.5688 14.4899 15.5614 14.4824 15.554 14.4824C15.5096 14.4749 15.4652 14.4674 15.4208 14.4674C15.4134 14.4674 15.3986 14.4674 15.3912 14.4674H15.3838H15.3764H13.1714C13.1196 14.4674 13.0826 14.43 13.0826 14.3777L13.1344 12.1485Z" fill="#FF5C00"/>
<path d="M25.6024 0.0748057C26.5792 0.0748057 27.3709 0.875226 27.3709 1.86266V3.45602C28.0517 3.658 28.7103 3.93478 29.3318 4.27889L30.4418 3.14184C30.7747 2.80521 31.2335 2.64064 31.6923 2.64064C32.1511 2.64064 32.6098 2.80521 32.9428 3.14184L34.5115 4.72772C35.1997 5.42341 35.1997 6.55298 34.5115 7.24867L33.3942 8.37824C33.7346 9.0066 34.0084 9.66489 34.2081 10.3606H35.7843C36.761 10.3606 37.5527 11.161 37.5527 12.1484V14.3777C37.5527 15.3651 36.761 16.1655 35.7843 16.1655H34.2081C34.0084 16.8537 33.7346 17.5195 33.3942 18.1479L34.5115 19.2774C35.1997 19.9731 35.1997 21.1027 34.5115 21.7984L32.9428 23.3843C32.595 23.7284 32.1437 23.9079 31.6923 23.9079C31.2409 23.9079 30.7895 23.7358 30.4418 23.3843L29.3244 22.2547C28.7029 22.5988 28.0517 22.8681 27.3635 23.0776V24.6709C27.3635 25.6583 26.5718 26.4588 25.595 26.4588H23.39C22.4132 26.4588 21.6215 25.6583 21.6215 24.6709V23.0776C20.9407 22.8756 20.2821 22.5988 19.6606 22.2547L18.5432 23.3843C18.2029 23.7284 17.7515 23.9079 17.2927 23.9079C16.8413 23.9079 16.39 23.7358 16.0422 23.3843L14.4735 21.7984C13.7853 21.1027 13.7853 19.9731 14.4735 19.2774L15.5908 18.1479C15.2504 17.5195 14.9766 16.8612 14.7769 16.1655H13.2007C12.224 16.1655 11.4322 15.3651 11.4322 14.3777V12.1484C11.4322 11.161 12.224 10.3606 13.2007 10.3606H14.7991C14.9988 9.67238 15.2726 9.0066 15.613 8.37824L14.4957 7.24867C13.8075 6.55298 13.8075 5.42341 14.4957 4.72772L16.057 3.14932C16.39 2.81269 16.8487 2.64064 17.3075 2.64064C17.7663 2.64064 18.2251 2.81269 18.558 3.14932L19.6754 4.27889C20.2969 3.93478 20.9481 3.658 21.6363 3.45602V1.86266C21.6289 0.875226 22.4206 0.0748057 23.3974 0.0748057H25.6024ZM19.5348 6.17895C19.4386 6.17895 19.3498 6.15651 19.2536 6.12659C19.2314 6.11911 19.2166 6.11162 19.1944 6.10414C19.1056 6.06674 19.0242 6.01438 18.9502 5.93957C18.9502 5.93957 18.9428 5.93209 18.9354 5.93209L17.3667 4.34621C17.3519 4.33125 17.3297 4.32377 17.3001 4.32377C17.2705 4.32377 17.2483 4.33125 17.2335 4.34621L15.6648 5.93209C15.6278 5.96949 15.6278 6.02186 15.6648 6.05926L17.2409 7.63018L17.2483 7.63766C17.2483 7.63766 17.2483 7.64514 17.2557 7.64514C17.3297 7.71995 17.3889 7.81719 17.4333 7.91444C17.4333 7.92192 17.4407 7.9294 17.4407 7.93688C17.4777 8.03413 17.4999 8.13138 17.4999 8.23611C17.4999 8.24359 17.4999 8.25107 17.4999 8.25855C17.4999 8.36328 17.4777 8.46052 17.4407 8.55777C17.4407 8.56525 17.4333 8.57273 17.4333 8.57273C17.4185 8.61761 17.3963 8.65502 17.3667 8.6999C16.8487 9.52276 16.4714 10.4279 16.2642 11.3929C16.2642 11.4004 16.2642 11.4004 16.2568 11.4004C16.2346 11.4902 16.205 11.565 16.1606 11.6398C16.1532 11.6472 16.1532 11.6547 16.1458 11.6622C16.1014 11.7295 16.0422 11.7969 15.983 11.8492C15.9682 11.8567 15.9608 11.8717 15.946 11.8791C15.8794 11.9315 15.8128 11.9689 15.7388 11.9988C15.724 12.0063 15.7092 12.0063 15.7018 12.0138C15.6204 12.0362 15.539 12.0587 15.4576 12.0587C15.4576 12.0587 15.4576 12.0587 15.4502 12.0587H13.2377C13.1859 12.0587 13.1489 12.0961 13.1489 12.1484V14.3777C13.1489 14.43 13.1859 14.4674 13.2377 14.4674H15.4428H15.4502H15.4576C15.465 14.4674 15.4798 14.4674 15.4872 14.4674C15.5316 14.4674 15.576 14.4749 15.6204 14.4824C15.6278 14.4824 15.6352 14.4899 15.6426 14.4899C15.687 14.4973 15.7314 14.5123 15.7758 14.5347C15.7832 14.5347 15.7906 14.5422 15.7906 14.5422C15.835 14.5647 15.8794 14.5871 15.9164 14.6096C15.9238 14.617 15.9312 14.617 15.9312 14.6245C15.9682 14.6544 16.0052 14.6769 16.0348 14.7143C16.0422 14.7218 16.0496 14.7292 16.057 14.7367C16.0866 14.7666 16.1162 14.804 16.1384 14.834C16.1532 14.8489 16.1606 14.8714 16.168 14.8863C16.1828 14.9163 16.205 14.9462 16.2198 14.9761C16.2346 15.006 16.242 15.0359 16.2494 15.0659C16.2568 15.0883 16.2642 15.1107 16.2716 15.1257C16.4788 16.0907 16.8561 16.9959 17.3741 17.8187C17.3963 17.8561 17.4185 17.901 17.4407 17.9459C17.4407 17.9534 17.4481 17.9608 17.4481 17.9608C17.4851 18.0581 17.5073 18.1628 17.5073 18.2601C17.5073 18.2675 17.5073 18.275 17.5073 18.2825C17.5073 18.3872 17.4851 18.4845 17.4481 18.5817C17.4481 18.5892 17.4481 18.5967 17.4407 18.6042C17.4037 18.7014 17.3371 18.7912 17.2631 18.8735C17.2631 18.8735 17.2631 18.881 17.2557 18.881L17.2483 18.8884L15.687 20.4668C15.65 20.4968 15.65 20.5566 15.687 20.594L17.2557 22.1799C17.2705 22.1948 17.2927 22.2023 17.3223 22.2023C17.3519 22.2023 17.3667 22.1948 17.3815 22.1799L18.9428 20.6015L18.9502 20.594C18.9502 20.594 18.9576 20.594 18.9576 20.5865C19.039 20.5117 19.1278 20.4519 19.224 20.407C19.2314 20.407 19.2388 20.3995 19.2462 20.3995C19.3424 20.3621 19.4386 20.3397 19.5422 20.3397C19.5496 20.3397 19.557 20.3397 19.5644 20.3397C19.6606 20.3397 19.7642 20.3621 19.8604 20.3995C19.8678 20.3995 19.8678 20.407 19.8752 20.407C19.9196 20.422 19.964 20.4444 20.001 20.4743C20.8149 20.998 21.7103 21.372 22.6648 21.5889C22.6796 21.5964 22.6944 21.6039 22.7166 21.6039C22.7536 21.6114 22.7906 21.6263 22.8202 21.6413C22.8424 21.6488 22.8646 21.6637 22.8868 21.6787C22.909 21.6936 22.9386 21.7086 22.9608 21.7236C22.983 21.7385 23.0052 21.761 23.0274 21.7759C23.0496 21.7909 23.0718 21.8059 23.0866 21.8283C23.1088 21.8507 23.1236 21.8732 23.1384 21.8956C23.1532 21.9181 23.1754 21.9405 23.1902 21.9629C23.205 21.9854 23.2124 22.0078 23.2272 22.0303C23.242 22.0527 23.2568 22.0752 23.2642 22.1051C23.2716 22.135 23.279 22.1649 23.2938 22.1874C23.3012 22.2098 23.3086 22.2322 23.316 22.2622C23.3234 22.2996 23.3234 22.337 23.3308 22.3744C23.3308 22.3893 23.3382 22.4118 23.3382 22.4267V22.4342V24.6634C23.3382 24.7158 23.3752 24.7532 23.427 24.7532H25.6024C25.6542 24.7532 25.6912 24.7158 25.6912 24.6634V22.4342V22.4267C25.6912 22.4118 25.6986 22.3893 25.6986 22.3744C25.6986 22.337 25.706 22.2996 25.7134 22.2622C25.7208 22.2397 25.7282 22.2173 25.7356 22.1874C25.743 22.1574 25.7504 22.1275 25.7652 22.1051C25.7726 22.0826 25.7874 22.0527 25.8022 22.0303C25.817 22.0078 25.8244 21.9779 25.8392 21.9555C25.854 21.933 25.8688 21.9106 25.891 21.8956C25.9058 21.8732 25.928 21.8507 25.9428 21.8283C25.9576 21.8133 25.9798 21.7909 26.002 21.7759C26.0242 21.7535 26.0464 21.7385 26.0686 21.7236C26.0908 21.7086 26.1204 21.6936 26.1426 21.6787C26.1648 21.6637 26.187 21.6488 26.2092 21.6413C26.2388 21.6263 26.2758 21.6188 26.3128 21.6039C26.3276 21.5964 26.3424 21.5889 26.3646 21.5889C27.3191 21.372 28.2145 20.998 29.0284 20.4743C29.0654 20.4519 29.1098 20.4294 29.1542 20.407C29.1616 20.407 29.169 20.3995 29.169 20.3995C29.2652 20.3621 29.3614 20.3471 29.465 20.3397C29.4724 20.3397 29.4798 20.3397 29.4872 20.3397C29.5908 20.3397 29.687 20.3621 29.7832 20.3995C29.7906 20.3995 29.798 20.407 29.8054 20.407C29.9016 20.4444 29.9904 20.5042 30.0718 20.5865C30.0718 20.5865 30.0718 20.5865 30.0792 20.5865L30.0866 20.594C30.0866 20.594 30.0866 20.594 30.094 20.6015L31.6553 22.1799C31.6701 22.1948 31.6923 22.2023 31.7219 22.2023C31.7441 22.2023 31.7663 22.1948 31.7885 22.1799L33.3498 20.6015C33.3868 20.5716 33.3868 20.5117 33.3498 20.4743L31.7885 18.8959L31.7811 18.8884C31.7811 18.8884 31.7811 18.881 31.7737 18.881C31.6997 18.8061 31.6405 18.7089 31.5961 18.6117C31.5961 18.6042 31.5887 18.5967 31.5887 18.5892C31.5517 18.492 31.5295 18.3947 31.5295 18.29C31.5295 18.2825 31.5295 18.275 31.5295 18.2675C31.5295 18.1628 31.5517 18.0656 31.5887 17.9683C31.5887 17.9608 31.5961 17.9534 31.5961 17.9534C31.6109 17.9085 31.6331 17.8711 31.6627 17.8262C32.1807 17.0033 32.558 16.0982 32.7652 15.1332C32.7726 15.1107 32.78 15.0958 32.7874 15.0733C32.7948 15.0434 32.8022 15.006 32.817 14.9761C32.8318 14.9462 32.8466 14.9237 32.8614 14.9013C32.8762 14.8789 32.8836 14.8564 32.8984 14.834C32.9206 14.804 32.9428 14.7741 32.965 14.7517C32.9798 14.7367 32.9872 14.7218 33.002 14.7143C33.0316 14.6844 33.0612 14.6619 33.0908 14.6395C33.1056 14.632 33.113 14.6245 33.1278 14.6096C33.1648 14.5871 33.1944 14.5647 33.2314 14.5497C33.2462 14.5422 33.2536 14.5347 33.2684 14.5347C33.3054 14.5198 33.3498 14.5048 33.3942 14.4973C33.409 14.4973 33.4164 14.4899 33.4312 14.4899C33.4756 14.4824 33.52 14.4749 33.5644 14.4749C33.5718 14.4749 33.5866 14.4749 33.594 14.4749H33.6014H33.6088H35.8138C35.8656 14.4749 35.9026 14.4375 35.9026 14.3851V12.1559C35.9026 12.1036 35.8656 12.0662 35.8138 12.0662H33.6014C33.6014 12.0662 33.6014 12.0662 33.594 12.0662C33.5052 12.0662 33.4238 12.0512 33.3498 12.0213C33.335 12.0138 33.3202 12.0138 33.3054 12.0063C33.2314 11.9764 33.1574 11.939 33.0982 11.8866C33.0834 11.8791 33.076 11.8642 33.0612 11.8567C32.9946 11.8043 32.9428 11.7445 32.8984 11.6697C32.891 11.6622 32.891 11.6547 32.8836 11.6472C32.8392 11.5724 32.8022 11.4902 32.7874 11.4079C32.7874 11.4004 32.7874 11.4004 32.78 11.3929C32.5728 10.4279 32.1955 9.52276 31.6775 8.6999C31.6553 8.6625 31.6331 8.61761 31.6109 8.57273C31.6109 8.56525 31.6035 8.55777 31.6035 8.55777C31.5665 8.46052 31.5443 8.3558 31.5443 8.25855C31.5443 8.25107 31.5443 8.24359 31.5443 8.23611C31.5443 8.13138 31.5665 8.03413 31.6035 7.93688C31.6035 7.9294 31.6035 7.92192 31.6109 7.91444C31.6479 7.81719 31.7145 7.72743 31.7885 7.64514C31.7885 7.64514 31.7885 7.63766 31.7959 7.63766L31.8033 7.63018L33.3646 6.05178C33.4016 6.02186 33.4016 5.96201 33.3646 5.92461L31.7959 4.33873C31.7811 4.32377 31.7589 4.31629 31.7293 4.31629C31.6997 4.31629 31.6849 4.32377 31.6701 4.33873L30.1014 5.92461C30.1014 5.92461 30.094 5.93209 30.0866 5.93209C30.0126 5.99942 29.9312 6.05178 29.8424 6.09666C29.8202 6.10414 29.8054 6.11162 29.7832 6.11911C29.6944 6.14903 29.5982 6.17147 29.502 6.17147C29.4058 6.17147 29.317 6.14903 29.2208 6.11911C29.1912 6.11162 29.169 6.09666 29.1468 6.0817C29.1172 6.06674 29.0802 6.05926 29.0506 6.03682C28.2367 5.51318 27.3413 5.13167 26.3868 4.92221C26.3646 4.91473 26.3498 4.90725 26.3276 4.90725C26.298 4.89977 26.261 4.88481 26.2314 4.87733C26.2092 4.86237 26.187 4.85489 26.1574 4.83993C26.1352 4.82497 26.1056 4.81749 26.0834 4.80252C26.0612 4.78756 26.039 4.76512 26.0168 4.74268C26.002 4.72772 25.9798 4.71276 25.965 4.6978C25.9428 4.67536 25.928 4.65291 25.9132 4.63047C25.8984 4.60803 25.8836 4.59307 25.8688 4.57063C25.854 4.54819 25.8392 4.52574 25.8318 4.49582C25.817 4.47338 25.8096 4.45094 25.7948 4.42102C25.78 4.39109 25.78 4.36117 25.7652 4.33125C25.7578 4.30881 25.7504 4.28637 25.743 4.26392C25.7356 4.22652 25.7356 4.18912 25.7282 4.15172C25.7282 4.13675 25.7208 4.12179 25.7208 4.09935V4.09187V1.86266C25.7208 1.8103 25.6838 1.77289 25.632 1.77289H23.427C23.3752 1.77289 23.3382 1.8103 23.3382 1.86266V4.09187V4.09935C23.3382 4.11431 23.3308 4.13675 23.3308 4.15172C23.3308 4.18912 23.3234 4.22652 23.316 4.26392C23.3086 4.28637 23.3012 4.30881 23.2938 4.33125C23.2864 4.36117 23.279 4.39109 23.2642 4.42102C23.2568 4.44346 23.242 4.4659 23.2272 4.49582C23.2124 4.51826 23.205 4.54819 23.1902 4.57063C23.1754 4.59307 23.1606 4.60803 23.1458 4.63047C23.131 4.65291 23.1088 4.67536 23.094 4.6978C23.0792 4.71276 23.057 4.72772 23.0422 4.74268C23.02 4.76512 22.9978 4.78008 22.9756 4.80252C22.9534 4.81749 22.9312 4.83245 22.9016 4.84741C22.8794 4.86237 22.8572 4.87733 22.8276 4.88481C22.798 4.89977 22.761 4.90725 22.7314 4.91473C22.7166 4.92221 22.6944 4.92969 22.6796 4.92969C21.7251 5.13915 20.8297 5.52066 20.0158 6.0443C19.9862 6.06674 19.9492 6.07422 19.9196 6.08918C19.89 6.10414 19.8678 6.11162 19.8456 6.12659C19.7198 6.15651 19.631 6.17895 19.5348 6.17895ZM25.6024 0H23.3974C22.3836 0 21.5549 0.837824 21.5549 1.86266V3.39618C20.9037 3.59067 20.2747 3.85249 19.6828 4.18164L18.6098 3.09696C18.2769 2.76033 17.8033 2.56583 17.3075 2.56583C16.8117 2.56583 16.3382 2.76033 16.0052 3.09696L14.4365 4.68284C13.7187 5.40845 13.7187 6.59038 14.4365 7.30852L15.5094 8.3932C15.1912 8.99164 14.9322 9.62749 14.7325 10.2858H13.2155C12.2018 10.2858 11.373 11.1236 11.373 12.1484V14.3777C11.373 15.395 12.1796 16.2179 13.1859 16.2403H13.2155H14.7325C14.9248 16.8986 15.1838 17.5345 15.5094 18.1329L14.4365 19.2176C14.0887 19.5692 13.8963 20.033 13.8963 20.5342C13.8963 21.0279 14.0887 21.4992 14.4365 21.8507L16.0052 23.4366C16.353 23.7882 16.8117 23.9827 17.3075 23.9827C17.8033 23.9827 18.2621 23.7882 18.6098 23.4366L19.6828 22.3519C20.2747 22.6736 20.9037 22.9354 21.5549 23.1374V24.6709C21.5549 25.6958 22.3836 26.5336 23.3974 26.5336H25.6024C26.6162 26.5336 27.4449 25.6958 27.4449 24.6709V23.1374C28.0961 22.9429 28.7251 22.6736 29.317 22.3519L30.39 23.4366C30.7377 23.7882 31.1965 23.9827 31.6923 23.9827C32.1807 23.9827 32.6468 23.7882 32.9946 23.4366L34.5633 21.8507C34.9111 21.4992 35.1035 21.0354 35.1035 20.5342C35.1035 20.0404 34.9111 19.5692 34.5633 19.2176L33.4904 18.1329C33.8086 17.5345 34.0676 16.8986 34.2673 16.2403H35.7843C36.798 16.2403 37.6267 15.4025 37.6267 14.3777V12.1484C37.6267 11.1236 36.798 10.2858 35.7843 10.2858H34.2599C34.0675 9.62749 33.8086 8.99164 33.483 8.3932L34.5633 7.30103C35.2811 6.57542 35.2811 5.39349 34.5633 4.67536L32.9946 3.08947C32.6616 2.75285 32.1881 2.56583 31.6923 2.56583C31.1965 2.56583 30.7229 2.76033 30.39 3.08947L29.317 4.17416C28.7251 3.85249 28.0961 3.59067 27.4449 3.3887V1.86266C27.4449 1.36894 27.2525 0.897668 26.9048 0.546082C26.557 0.194495 26.0982 0 25.6024 0ZM19.5348 6.25376C19.631 6.25376 19.7272 6.23131 19.8382 6.19391C19.8604 6.18643 19.8826 6.17895 19.9048 6.16399L19.927 6.15651C19.9418 6.14903 19.9492 6.14903 19.9566 6.14155C19.9788 6.13407 20.001 6.12659 20.0306 6.10414C20.8371 5.5805 21.7251 5.21396 22.6722 4.99702C22.687 4.99702 22.7018 4.98954 22.7166 4.98206C22.724 4.98206 22.7314 4.97458 22.7314 4.97458L22.7536 4.9671C22.7832 4.95962 22.8054 4.95214 22.835 4.93718C22.8498 4.92969 22.872 4.92221 22.8868 4.90725C22.8942 4.89977 22.9016 4.89977 22.909 4.89229L22.9238 4.88481C22.946 4.87733 22.9682 4.86237 22.983 4.84741C23.0052 4.83245 23.02 4.81749 23.0348 4.80252C23.0422 4.79504 23.0496 4.79504 23.0496 4.78756C23.057 4.78008 23.0644 4.7726 23.0718 4.7726C23.0866 4.76512 23.1014 4.75016 23.1088 4.7352C23.1236 4.72024 23.1384 4.6978 23.1532 4.68284C23.1606 4.67536 23.1606 4.66787 23.168 4.66039L23.1828 4.64543C23.1976 4.63047 23.2124 4.60803 23.2198 4.59307C23.2346 4.57063 23.242 4.55567 23.2494 4.53322C23.2494 4.52574 23.2568 4.51826 23.2568 4.51078L23.2642 4.49582C23.2716 4.47338 23.2864 4.45842 23.2938 4.43598C23.3012 4.41354 23.3086 4.39109 23.316 4.36865C23.316 4.36117 23.3234 4.35369 23.3234 4.34621C23.3234 4.33873 23.3308 4.33125 23.3308 4.32377C23.3382 4.30881 23.3382 4.29385 23.3456 4.2714C23.353 4.234 23.353 4.1966 23.3604 4.1592V4.14424C23.3604 4.13675 23.3604 4.13675 23.3604 4.12927C23.3604 4.12179 23.3604 4.10683 23.3604 4.09187V4.08439V1.85518C23.3604 1.8477 23.3604 1.8477 23.3604 1.84022C23.3604 1.84022 23.3678 1.83274 23.3752 1.83274H25.6024C25.6098 1.83274 25.6172 1.84022 25.6172 1.8477V4.07691V4.09187C25.6172 4.10683 25.6172 4.12179 25.6172 4.12927C25.6172 4.13675 25.6172 4.13675 25.6172 4.14424V4.1592C25.6172 4.1966 25.6246 4.234 25.632 4.2714C25.632 4.29385 25.6394 4.30881 25.6468 4.33125C25.6468 4.33873 25.6542 4.34621 25.6542 4.35369L25.6616 4.37613C25.669 4.39857 25.6764 4.42102 25.6838 4.45094C25.6912 4.47338 25.706 4.48834 25.7134 4.51078L25.7208 4.52574C25.7208 4.53322 25.7282 4.5407 25.7282 4.54819C25.7356 4.57063 25.7504 4.58559 25.7578 4.60803C25.7726 4.63047 25.78 4.64543 25.7948 4.66039L25.8096 4.67536C25.817 4.68284 25.817 4.69032 25.8244 4.69032C25.8392 4.70528 25.854 4.72772 25.8688 4.74268C25.8836 4.75764 25.8984 4.76512 25.9132 4.78008C25.9206 4.78756 25.928 4.78756 25.928 4.79504L25.9428 4.81001C25.965 4.82497 25.9798 4.84741 26.002 4.86237C26.0242 4.87733 26.0464 4.88481 26.0686 4.89977L26.0834 4.90725C26.0908 4.90725 26.0982 4.91473 26.1056 4.91473C26.1204 4.92221 26.1426 4.93718 26.1648 4.94466C26.1944 4.95962 26.224 4.9671 26.2536 4.97458L26.2684 4.98206C26.2758 4.98206 26.2832 4.98954 26.2906 4.98954C26.3054 4.99702 26.3128 4.99702 26.335 5.0045C27.2821 5.21396 28.1701 5.58798 28.9766 6.11162C28.9988 6.12659 29.0284 6.14155 29.0506 6.14903C29.058 6.15651 29.0728 6.15651 29.0802 6.16399L29.095 6.17147C29.1172 6.17895 29.1394 6.19391 29.169 6.20139C29.28 6.23879 29.3762 6.26124 29.4724 6.26124C29.5686 6.26124 29.6648 6.23879 29.7758 6.20139H29.7832C29.8054 6.19391 29.8202 6.18643 29.8424 6.17895C29.9386 6.13407 30.0274 6.07422 30.1014 6.0069C30.1088 6.0069 30.1162 5.99942 30.1162 5.99194L31.6849 4.40605C31.6849 4.40605 31.6923 4.40605 31.6997 4.40605C31.7071 4.40605 31.7145 4.40605 31.7145 4.40605L33.2758 5.98445V5.99194C33.2758 5.99942 33.2758 5.99942 33.2758 5.99942L31.7145 7.57782L31.7071 7.5853L31.6997 7.59278V7.60026C31.6183 7.68254 31.5591 7.77979 31.5147 7.88452C31.5147 7.892 31.5073 7.89948 31.5073 7.90696C31.4629 8.01917 31.4481 8.1239 31.4407 8.23611C31.4407 8.24359 31.4407 8.25107 31.4407 8.25855V8.26603C31.4407 8.37824 31.4629 8.48296 31.4999 8.58769C31.4999 8.59517 31.5073 8.60265 31.5073 8.60265C31.5221 8.64754 31.5443 8.69242 31.5739 8.7373C32.0919 9.55269 32.4618 10.4504 32.669 11.4079C32.669 11.4153 32.669 11.4153 32.6764 11.4153C32.6986 11.5051 32.7356 11.5949 32.78 11.6772C32.78 11.6772 32.78 11.6846 32.7874 11.6846C32.7874 11.6921 32.7948 11.6921 32.7948 11.6996C32.8392 11.7744 32.8984 11.8417 32.9724 11.9016C32.9798 11.9091 32.9798 11.9091 32.9872 11.9091C32.9946 11.9165 33.002 11.924 33.0168 11.9315C33.0834 11.9839 33.1648 12.0288 33.2462 12.0587C33.2536 12.0662 33.2684 12.0662 33.2832 12.0662H33.2906C33.3868 12.0961 33.4682 12.111 33.557 12.111H33.5644H35.7843C35.7917 12.111 35.799 12.1185 35.799 12.126V14.3552C35.799 14.3627 35.7991 14.3702 35.7843 14.3702H33.5792H33.5718H33.5644C33.557 14.3702 33.5422 14.3702 33.5348 14.3702H33.5274C33.483 14.3702 33.4312 14.3777 33.3868 14.3851C33.3794 14.3851 33.372 14.3926 33.3646 14.3926H33.3572C33.298 14.4076 33.261 14.4225 33.224 14.4375C33.2166 14.445 33.2092 14.445 33.1944 14.4525L33.187 14.4599C33.1426 14.4824 33.1056 14.5048 33.0686 14.5273C33.0612 14.5347 33.0538 14.5422 33.039 14.5497C33.0316 14.5497 33.0316 14.5572 33.0242 14.5572C32.9946 14.5796 32.9576 14.6095 32.928 14.6395C32.9206 14.647 32.9058 14.6619 32.8984 14.6694C32.8984 14.6769 32.891 14.6769 32.891 14.6844L32.8836 14.6918C32.8614 14.7218 32.8392 14.7442 32.817 14.7816C32.8022 14.7966 32.7948 14.8115 32.7874 14.834C32.7874 14.8414 32.78 14.8489 32.78 14.8564C32.7726 14.8639 32.7726 14.8714 32.7652 14.8789C32.7578 14.9013 32.743 14.9163 32.7356 14.9387C32.7208 14.9686 32.7134 14.9985 32.706 15.0285L32.6986 15.0434C32.6986 15.0509 32.6986 15.0509 32.6912 15.0584C32.6838 15.0733 32.6838 15.0883 32.6764 15.1033C32.4692 16.0608 32.0993 16.9584 31.5813 17.7738C31.5517 17.8187 31.5295 17.8711 31.5147 17.9085C31.5073 17.916 31.5073 17.9234 31.5073 17.9309C31.4703 18.0282 31.4481 18.1404 31.4481 18.2526C31.4481 18.2601 31.4481 18.2675 31.4481 18.275C31.4481 18.3872 31.4703 18.492 31.5073 18.6042C31.5073 18.6117 31.5147 18.6191 31.5147 18.6266C31.5591 18.7313 31.6183 18.8286 31.6997 18.9109L31.7071 18.9184L31.7145 18.9258L33.2758 20.5042V20.5117C33.2758 20.5192 33.2758 20.5192 33.2758 20.5192L31.7071 22.1051L31.6997 22.1126C31.6923 22.1126 31.6923 22.1126 31.6923 22.1051L30.131 20.5267L30.1236 20.5192V20.5117L30.1162 20.5042C30.0348 20.422 29.9386 20.3546 29.8276 20.3172C29.8202 20.3172 29.8128 20.3097 29.8128 20.3097C29.7092 20.2723 29.5982 20.2499 29.4946 20.2499C29.4872 20.2499 29.4798 20.2499 29.4724 20.2499H29.465C29.354 20.2499 29.243 20.2723 29.1468 20.3097C29.1394 20.3097 29.132 20.3172 29.132 20.3172C29.095 20.3322 29.0432 20.3546 28.9988 20.3845C28.1923 20.9082 27.3043 21.2747 26.3572 21.4917C26.3424 21.4917 26.3276 21.4992 26.3202 21.5066C26.3128 21.5066 26.3128 21.5141 26.3054 21.5141L26.2906 21.5216C26.261 21.5291 26.224 21.544 26.1944 21.5515C26.1722 21.559 26.1574 21.574 26.1426 21.5814C26.1352 21.5889 26.1278 21.5889 26.1204 21.5964L26.0982 21.6039C26.076 21.6114 26.0612 21.6263 26.039 21.6413C26.0168 21.6562 25.9946 21.6787 25.9724 21.6936L25.965 21.7011C25.9576 21.7086 25.9576 21.7086 25.9502 21.7161C25.9354 21.7311 25.9206 21.7385 25.9058 21.7535C25.891 21.7685 25.8762 21.7834 25.8688 21.7984C25.8614 21.8059 25.8614 21.8133 25.854 21.8208L25.8392 21.8358C25.8244 21.8507 25.8096 21.8732 25.7948 21.8956C25.78 21.9181 25.7726 21.9405 25.7578 21.9629L25.7504 21.9779L25.743 21.9929C25.7356 22.0078 25.7208 22.0303 25.7134 22.0527C25.706 22.0752 25.6986 22.0976 25.6912 22.1275L25.6838 22.15C25.6838 22.1574 25.6764 22.1649 25.6764 22.1724C25.669 22.1874 25.6616 22.2098 25.6616 22.2248C25.6542 22.2622 25.6542 22.2996 25.6468 22.337V22.3519C25.6468 22.3594 25.6468 22.3594 25.6468 22.3669C25.6468 22.3744 25.6468 22.3893 25.6468 22.4043V22.4118V24.641C25.6468 24.6485 25.6468 24.656 25.632 24.656H23.427C23.4196 24.656 23.4122 24.6485 23.4122 24.641V22.4118V22.3968C23.4122 22.3819 23.4122 22.3669 23.4122 22.3594C23.4122 22.3519 23.4122 22.3519 23.4122 22.3445V22.3295C23.4122 22.2921 23.4048 22.2547 23.3974 22.2173C23.39 22.1948 23.39 22.1724 23.3826 22.1574L23.3752 22.1425C23.3752 22.135 23.3678 22.1275 23.3678 22.12C23.3604 22.0976 23.353 22.0752 23.3456 22.0527C23.3382 22.0303 23.3234 22.0078 23.316 21.9929C23.316 21.9854 23.3086 21.9779 23.3086 21.9704C23.3012 21.9629 23.3012 21.9555 23.3012 21.948C23.2938 21.933 23.2864 21.9106 23.2716 21.8956C23.2568 21.8732 23.242 21.8582 23.2346 21.8433L23.2198 21.8283C23.2124 21.8208 23.2124 21.8133 23.205 21.8059C23.1902 21.7909 23.1828 21.7759 23.1606 21.7535C23.1458 21.7385 23.1236 21.7236 23.1088 21.7086L23.094 21.7011L23.0792 21.6862C23.0644 21.6712 23.0422 21.6562 23.02 21.6413C22.9978 21.6263 22.9756 21.6188 22.9534 21.6039L22.9386 21.5964L22.9238 21.5889C22.909 21.5814 22.8868 21.5665 22.8646 21.559C22.835 21.544 22.798 21.5366 22.7684 21.5291L22.7536 21.5216C22.7462 21.5216 22.7462 21.5216 22.7388 21.5141C22.7314 21.5066 22.7166 21.5066 22.7018 21.4992C21.7547 21.2897 20.8667 20.9157 20.0602 20.392C20.0232 20.3696 19.9788 20.3471 19.927 20.3247C19.9196 20.3172 19.9122 20.3172 19.9048 20.3172C19.8012 20.2798 19.6976 20.2574 19.5792 20.2499C19.5718 20.2499 19.5644 20.2499 19.557 20.2499C19.446 20.2499 19.3424 20.2723 19.2388 20.3097H19.2314C19.224 20.3097 19.2166 20.3172 19.2092 20.3172C19.1056 20.3621 19.0094 20.422 18.928 20.5042L18.9206 20.5117L18.9132 20.5192L18.9058 20.5267V20.5342L17.3149 22.12H17.3075C17.3001 22.12 17.3001 22.12 17.2927 22.1126L15.724 20.5267V20.5192C15.724 20.5117 15.724 20.5117 15.724 20.5117L17.2853 18.9333L17.2927 18.9258L17.3001 18.9184V18.9109C17.3815 18.8286 17.4407 18.7313 17.4851 18.6266C17.4851 18.6191 17.4925 18.6117 17.4925 18.6042C17.5369 18.492 17.5517 18.3872 17.5591 18.275C17.5591 18.2675 17.5591 18.2601 17.5591 18.2526V18.2451C17.5591 18.1329 17.5369 18.0282 17.4999 17.9234C17.4999 17.916 17.4925 17.9085 17.4925 17.9085C17.4777 17.8636 17.4555 17.8187 17.4259 17.7738C16.9079 16.9584 16.538 16.0608 16.3308 15.1033C16.3234 15.0883 16.3234 15.0659 16.316 15.0584C16.316 15.0509 16.3086 15.0434 16.3086 15.0359C16.3086 15.0285 16.3012 15.021 16.3012 15.0135C16.2938 14.9911 16.2864 14.9611 16.2716 14.9387C16.2642 14.9088 16.2494 14.8863 16.2346 14.8639C16.2272 14.8564 16.2272 14.8489 16.2198 14.8414C16.2198 14.834 16.2124 14.834 16.2124 14.8265C16.205 14.8115 16.1976 14.7966 16.1902 14.7816C16.168 14.7442 16.1384 14.7143 16.1014 14.6694V14.6619C16.094 14.6544 16.0866 14.647 16.0792 14.6395C16.0496 14.6095 16.0126 14.5796 15.9682 14.5422C15.9608 14.5347 15.9534 14.5273 15.946 14.5273C15.909 14.5048 15.8646 14.4749 15.8128 14.4525C15.8054 14.445 15.798 14.445 15.7906 14.445C15.7536 14.43 15.7018 14.4151 15.65 14.4001H15.6426C15.6352 14.4001 15.6278 14.3926 15.6204 14.3926C15.576 14.3851 15.5316 14.3777 15.4724 14.3777H15.465C15.4576 14.3777 15.4502 14.3777 15.4354 14.3777H15.428H15.4206H13.2155C13.2081 14.3777 13.2007 14.3702 13.2007 14.3627V12.1335C13.2007 12.126 13.2007 12.1185 13.2155 12.1185H15.428C15.4354 12.1185 15.4354 12.1185 15.4354 12.1185C15.5242 12.1185 15.6056 12.1036 15.7018 12.0736C15.7092 12.0736 15.7092 12.0736 15.7166 12.0662C15.724 12.0662 15.7388 12.0587 15.7462 12.0587C15.8276 12.0288 15.9016 11.9839 15.9756 11.9315C15.983 11.924 15.9978 11.9165 16.0052 11.9016L16.0126 11.8941C16.0866 11.8343 16.1458 11.7669 16.1902 11.6921C16.1976 11.6846 16.1976 11.6772 16.205 11.6697V11.6622C16.2568 11.5799 16.2864 11.4976 16.3086 11.4079C16.3086 11.4004 16.316 11.3929 16.316 11.3854C16.5232 10.4279 16.8931 9.53024 17.4111 8.71486C17.4407 8.66998 17.4629 8.61761 17.4777 8.58021C17.4851 8.57273 17.4851 8.56525 17.4851 8.55777C17.5221 8.46052 17.5443 8.34831 17.5443 8.23611C17.5443 8.22863 17.5443 8.22114 17.5443 8.21366C17.5443 8.10146 17.5221 7.99673 17.4851 7.88452C17.4851 7.87704 17.4777 7.86956 17.4777 7.86208C17.4333 7.75735 17.3741 7.6601 17.2927 7.57782L17.2853 7.57034L17.2779 7.56285L15.7166 5.98445L15.7092 5.97697C15.7092 5.96949 15.7092 5.96949 15.7092 5.96949L17.2779 4.38361H17.2853C17.2927 4.38361 17.3001 4.38361 17.3001 4.38361L18.891 5.98445C18.8984 5.99194 18.9058 5.99194 18.9058 5.99942C18.9798 6.06674 19.0612 6.12659 19.1648 6.17147C19.187 6.17895 19.2092 6.18643 19.224 6.19391C19.3424 6.23879 19.4386 6.25376 19.5348 6.25376Z" fill="#FF5C00"/>
<path d="M24.5004 16.936C26.5057 16.936 28.1336 15.2903 28.1336 13.263C28.1336 11.2358 26.5057 9.59009 24.5004 9.59009C22.4951 9.59009 20.8672 11.2358 20.8672 13.263C20.8672 15.2903 22.4951 16.936 24.5004 16.936ZM24.5004 11.2882C25.5807 11.2882 26.4539 12.1784 26.4539 13.263C26.4539 14.3552 25.5733 15.2379 24.5004 15.2379C23.42 15.2379 22.5469 14.3477 22.5469 13.263C22.5469 12.1709 23.42 11.2882 24.5004 11.2882Z" fill="#FF5C00"/>
<path d="M24.5002 9.59006C26.5054 9.59006 28.1333 11.2358 28.1333 13.263C28.1333 15.2903 26.5054 16.936 24.5002 16.936C22.4949 16.936 20.867 15.2903 20.867 13.263C20.867 11.2358 22.4949 9.59006 24.5002 9.59006ZM24.5002 15.2379C25.5805 15.2379 26.4536 14.3477 26.4536 13.263C26.4536 12.1709 25.5731 11.2882 24.5002 11.2882C23.4272 11.2882 22.5467 12.1783 22.5467 13.263C22.5467 14.3552 23.4198 15.2379 24.5002 15.2379ZM24.5002 9.51526C22.4579 9.51526 20.793 11.1984 20.793 13.263C20.793 15.3277 22.4579 17.0108 24.5002 17.0108C26.5424 17.0108 28.2073 15.3277 28.2073 13.263C28.2073 11.1984 26.5424 9.51526 24.5002 9.51526ZM24.5002 15.1631C23.4642 15.1631 22.6207 14.3103 22.6207 13.263C22.6207 12.2157 23.4642 11.363 24.5002 11.363C25.5361 11.363 26.3796 12.2157 26.3796 13.263C26.3796 14.3103 25.5361 15.1631 24.5002 15.1631Z" fill="#FF5C00"/>
<path d="M24.5003 20.3247C28.3555 20.3247 31.4855 17.1604 31.4855 13.2631C31.4855 9.3657 28.3555 6.20142 24.5003 6.20142C20.6452 6.20142 17.5151 9.3657 17.5151 13.2631C17.5151 17.1604 20.6452 20.3247 24.5003 20.3247ZM24.5003 7.89202C27.4306 7.89202 29.8132 10.3008 29.8132 13.2631C29.8132 16.2254 27.4306 18.6266 24.5003 18.6266C21.5701 18.6266 19.1874 16.2179 19.1874 13.2556C19.1874 10.2933 21.5701 7.89202 24.5003 7.89202Z" fill="#FF5C00"/>
<path d="M24.5001 6.20139C28.3553 6.20139 31.4853 9.36567 31.4853 13.263C31.4853 17.1604 28.3553 20.3247 24.5001 20.3247C20.6449 20.3247 17.5149 17.1604 17.5149 13.263C17.5149 9.36567 20.6449 6.20139 24.5001 6.20139ZM24.5001 18.6266C27.4303 18.6266 29.813 16.2179 29.813 13.2556C29.813 10.2933 27.4303 7.88452 24.5001 7.88452C21.5699 7.88452 19.1872 10.2933 19.1872 13.2556C19.1872 16.2179 21.5699 18.6266 24.5001 18.6266ZM24.5001 6.12659C20.6079 6.12659 17.4409 9.32827 17.4409 13.263C17.4409 17.1978 20.6079 20.3995 24.5001 20.3995C28.3923 20.3995 31.5593 17.1978 31.5593 13.263C31.5593 9.32827 28.3923 6.12659 24.5001 6.12659ZM24.5001 18.5518C21.6143 18.5518 19.2612 16.1805 19.2612 13.2556C19.2612 10.3307 21.6069 7.95933 24.5001 7.95933C27.3934 7.95933 29.739 10.3307 29.739 13.2556C29.739 16.1805 27.386 18.5518 24.5001 18.5518Z" fill="#FF5C00"/>
</svg>
