<svg width="37" height="56" viewBox="0 0 37 56" fill="none" xmlns="http://www.w3.org/2000/svg">
<g clip-path="url(#clip0_62_53)">
<path fill-rule="evenodd" clip-rule="evenodd" d="M35.0141 5.10987C35.0141 5.73557 34.4915 6.25698 33.8644 6.25698C33.1328 6.25698 32.6102 5.73557 32.6102 5.00559C32.6102 3.54562 31.4604 2.39851 29.9972 2.39851H7.00282C5.53954 2.39851 4.38982 3.54562 4.38982 5.00559V18.3538C4.38982 19.0838 3.86722 19.6052 3.13558 19.6052C2.40395 19.6052 1.88135 19.0838 1.88135 18.3538V5.10987C1.88135 2.29423 4.18078 0 7.00282 0H29.9972C32.8192 0 35.0141 2.29423 35.0141 5.10987Z" fill="#FF5C00"/>
<path fill-rule="evenodd" clip-rule="evenodd" d="M33.8644 24.8193C33.1328 24.8193 32.6102 25.3408 32.6102 26.0707V45.8845H4.38982V35.6648C4.38982 34.9348 3.86722 34.4134 3.13558 34.4134C2.40395 34.4134 1.88135 34.9348 1.88135 35.6648V50.9944C1.88135 53.81 4.18078 56.1043 7.00282 56.1043H29.9972C32.8192 56.1043 35.1186 53.81 35.1186 50.9944V26.0707C35.0141 25.445 34.4915 24.8193 33.8644 24.8193ZM32.6102 50.9944C32.6102 52.4543 31.4604 53.6015 29.9972 53.6015H7.00282C5.53954 53.6015 4.38982 52.4543 4.38982 50.9944V48.3873H32.5056V50.9944H32.6102Z" fill="#FF5C00"/>
<path fill-rule="evenodd" clip-rule="evenodd" d="M21.6355 6.98699C21.6355 7.71697 21.1129 8.23839 20.3812 8.23839H16.514C15.7824 8.23839 15.2598 7.71697 15.2598 6.98699C15.2598 6.25701 15.7824 5.7356 16.514 5.7356H20.3812C21.1129 5.7356 21.6355 6.25701 21.6355 6.98699Z" fill="#FF5C00"/>
<path fill-rule="evenodd" clip-rule="evenodd" d="M36.5819 9.90688C36.3729 9.69831 36.0593 9.48975 35.7458 9.48975C35.6412 9.48975 35.5367 9.48975 35.5367 9.48975L25.9209 11.4711H25.8164C25.3983 11.5754 25.0847 11.8883 24.9802 12.3054C24.8757 12.7225 24.9802 13.2439 25.2938 13.5568L27.8023 16.0596L28.3249 16.581L27.8023 17.1024L19.0226 25.8622L18.5 26.3836L17.9774 25.8622L11.7062 19.6052C11.4972 19.3966 11.1836 19.1881 10.7655 19.1881C10.452 19.1881 10.1384 19.2924 9.92938 19.6052L0.313559 29.1992C0.10452 29.3035 0 29.6164 0 29.9292C0 30.2421 0.10452 30.5549 0.418079 30.7635C0.627119 30.9721 0.940678 31.0763 1.25424 31.0763C1.5678 31.0763 1.88136 30.9721 2.19492 30.7635L10.452 22.5251L10.8701 22.0037L11.3927 22.5251L17.6638 28.7821C17.8729 28.9907 18.1864 29.095 18.5 29.095C18.8136 29.095 19.1271 28.9907 19.4407 28.7821L29.5791 18.6667L30.1017 18.1452L30.6243 18.6667L33.1328 21.1694C33.3418 21.378 33.6554 21.4823 33.9689 21.4823C34.0734 21.4823 34.178 21.4823 34.2825 21.4823C34.7006 21.378 35.1186 20.9609 35.1186 20.5437L37 10.9497C37 10.6369 36.8955 10.2197 36.5819 9.90688ZM33.9689 13.3482L33.3418 16.581L33.1328 17.8324L32.2966 16.9981L29.6836 14.391L28.8475 13.5568L30.1017 13.3482L33.3418 12.7225L34.2825 12.514L33.9689 13.3482Z" fill="#FF5C00"/>
<path fill-rule="evenodd" clip-rule="evenodd" d="M14.0055 37.5419V41.4004C14.0055 42.1304 13.4829 42.6518 12.7513 42.6518C12.1242 42.6518 11.4971 42.1304 11.4971 41.4004V37.5419C11.4971 36.8119 12.0197 36.2905 12.7513 36.2905C13.4829 36.2905 14.0055 36.9162 14.0055 37.5419Z" fill="#FF5C00"/>
<path fill-rule="evenodd" clip-rule="evenodd" d="M19.7543 33.7877V41.4003C19.7543 42.1303 19.2317 42.6517 18.5001 42.6517C17.873 42.6517 17.2458 42.1303 17.2458 41.4003V33.7877C17.2458 33.0577 17.7684 32.5363 18.5001 32.5363C19.2317 32.5363 19.7543 33.0577 19.7543 33.7877Z" fill="#FF5C00"/>
<path fill-rule="evenodd" clip-rule="evenodd" d="M25.5029 31.8063V41.4004C25.5029 42.1304 24.9803 42.6518 24.2486 42.6518C23.6215 42.6518 22.9944 42.1304 22.9944 41.4004V31.8063C22.9944 31.0763 23.517 30.5549 24.2486 30.5549C24.9803 30.5549 25.5029 31.1806 25.5029 31.8063Z" fill="#FF5C00"/>
</g>
<defs>
<clipPath id="clip0_62_53">
<rect width="37" height="56" fill="white"/>
</clipPath>
</defs>
</svg>
