<svg width="49" height="37" viewBox="0 0 49 37" fill="none" xmlns="http://www.w3.org/2000/svg">
<g clip-path="url(#clip0_17_30)">
<path d="M44.0363 36.8535H4.97111C2.31169 36.8535 0.14502 34.6697 0.14502 31.9729V5.02718C0.14502 2.33773 2.30444 0.146606 4.97111 0.146606H44.0363C46.6885 0.146606 48.8624 2.3304 48.8624 5.02718V31.9729C48.8552 34.6623 46.6885 36.8535 44.0363 36.8535ZM4.97111 2.08125C3.36966 2.08125 2.06531 3.40032 2.06531 5.01985V31.9656C2.06531 33.5851 3.36966 34.9042 4.97111 34.9042H44.0363C45.6378 34.9042 46.9421 33.5851 46.9421 31.9656V5.02718C46.9421 3.40765 45.6378 2.08858 44.0363 2.08858L4.97111 2.08125Z" fill="#FF5C00"/>
<path d="M44.0362 0.146564C46.6884 0.146564 48.8623 2.33036 48.8623 5.02713V31.9729C48.8623 34.655 46.6957 36.8534 44.0362 36.8534H4.97101C2.31159 36.8534 0.144928 34.6696 0.144928 31.9729V5.02713C0.144928 2.33769 2.30435 0.146564 4.97101 0.146564H44.0362ZM4.97101 34.9188H44.0362C45.6377 34.9188 46.942 33.5997 46.942 31.9802V5.02713C46.942 3.40761 45.6377 2.08853 44.0362 2.08853H4.97101C3.36957 2.08853 2.06522 3.40761 2.06522 5.02713V31.9729C2.05797 33.5924 3.36957 34.9188 4.97101 34.9188ZM44.0362 0H4.97101C2.23188 0 0 2.25708 0 5.02713V31.9729C0 34.7429 2.23188 37 4.97101 37H44.0362C46.7754 37 49.0072 34.7429 49.0072 31.9729V5.02713C49 2.25708 46.7754 0 44.0362 0ZM4.97101 34.7722C3.44928 34.7722 2.21014 33.5191 2.21014 31.9802V5.02713C2.21014 3.48822 3.44928 2.2351 4.97101 2.2351H44.0362C45.558 2.2351 46.7971 3.48822 46.7971 5.02713V31.9729C46.7971 33.5118 45.558 34.7649 44.0362 34.7649H4.97101V34.7722Z" fill="#FF5C00"/>
<path d="M47.8986 31.0495H1.1087C0.579714 31.0495 0.159424 30.6171 0.159424 30.0895C0.159424 29.5546 0.58696 29.1295 1.1087 29.1295H47.9058C48.4348 29.1295 48.8551 29.5619 48.8551 30.0895C48.8551 30.6245 48.4203 31.0495 47.8986 31.0495Z" fill="#FF5C00"/>
<path d="M47.9057 29.1221C48.4347 29.1221 48.855 29.5545 48.855 30.0821C48.855 30.6171 48.4202 31.0421 47.8912 31.0421H1.10861C0.579622 31.0421 0.159332 30.6098 0.159332 30.0821C0.159332 29.5472 0.586868 29.1221 1.10861 29.1221H47.9057ZM47.9057 28.9756H1.10861C0.499912 28.9756 0.0144043 29.4739 0.0144043 30.0821C0.0144043 30.6904 0.507158 31.1887 1.10861 31.1887H47.8985C48.5072 31.1887 49.0072 30.6904 49.0072 30.0821C48.9999 29.4739 48.5072 28.9756 47.9057 28.9756Z" fill="#FF5C00"/>
<path d="M14.2463 26.2276C14.0507 26.2276 13.8478 26.169 13.6811 26.0444C13.2536 25.7293 13.1666 25.121 13.4782 24.6887L16.9057 19.9767L13.913 15.8655L7.07966 25.2529C6.76806 25.6853 6.16662 25.7732 5.73908 25.4581C5.31154 25.143 5.22459 24.5348 5.53618 24.1024L13.1376 13.6598C13.3188 13.4106 13.6014 13.2714 13.9057 13.2714C14.2101 13.2714 14.4927 13.4179 14.6739 13.6598L18.8623 19.4124C19.1086 19.7495 19.1086 20.2112 18.8623 20.5629L15.0217 25.8539C14.8188 26.0884 14.5362 26.2276 14.2463 26.2276Z" fill="#FF5C00"/>
<path d="M13.9058 13.2713C14.2102 13.2713 14.4928 13.4179 14.6739 13.6597L18.8623 19.4123C19.1087 19.7494 19.1087 20.2111 18.8623 20.5629L15.0218 25.8538C14.8189 26.103 14.5362 26.2349 14.2391 26.2349C14.0435 26.2349 13.8406 26.1763 13.6739 26.0517C13.2464 25.7366 13.1594 25.1283 13.471 24.696L16.8986 19.9839L13.9058 15.8728L7.07972 25.2529C6.89132 25.5094 6.60146 25.6486 6.31161 25.6486C6.11595 25.6486 5.91306 25.59 5.74639 25.4581C5.31885 25.143 5.2319 24.5347 5.54349 24.1024L13.1449 13.6597C13.3189 13.4106 13.6015 13.2713 13.9058 13.2713ZM13.9058 13.1248C13.5507 13.1248 13.2319 13.286 13.0218 13.5718L5.4203 24.0144C5.24639 24.2563 5.17393 24.5494 5.2174 24.8425C5.26088 25.1356 5.41306 25.3921 5.65219 25.5753C5.84059 25.7146 6.06523 25.7952 6.30436 25.7952C6.65219 25.7952 6.98552 25.6266 7.19566 25.3408L13.9131 16.1147L16.7246 19.9766L13.3623 24.608C13 25.099 13.1087 25.8025 13.5942 26.1689C13.7391 26.2715 13.9058 26.3448 14.0797 26.3668V26.3814H14.2536C14.5942 26.3814 14.9203 26.2275 15.1449 25.9491L18.9855 20.6581C19.2681 20.2551 19.2681 19.7274 18.9855 19.3391L14.7971 13.5864C14.587 13.286 14.2609 13.1248 13.9058 13.1248Z" fill="#FF5C00"/>
<path d="M14.2464 26.2275C14.0508 26.2275 13.8479 26.1689 13.6812 26.0443C13.2537 25.7292 13.1667 25.121 13.4783 24.6886L19.8044 15.9974C19.9856 15.7482 20.2682 15.609 20.5725 15.609C20.8769 15.609 21.1595 15.7556 21.3406 15.9974L27.2392 24.1024C27.5508 24.5347 27.4638 25.1356 27.0363 25.4581C26.6088 25.7732 26.0146 25.6853 25.6957 25.2529L20.5653 18.2032L15.0073 25.8392C14.8189 26.0883 14.5363 26.2275 14.2464 26.2275Z" fill="#FF5C00"/>
<path d="M20.5652 15.6016C20.8696 15.6016 21.1522 15.7482 21.3334 15.99L27.2319 24.095C27.5435 24.5274 27.4566 25.1283 27.029 25.4507C26.8551 25.5753 26.6595 25.6413 26.4638 25.6413C26.1667 25.6413 25.8841 25.502 25.6957 25.2455L20.5652 18.1958L15.0073 25.8318C14.8116 26.0883 14.529 26.2202 14.2392 26.2202C14.0435 26.2202 13.8406 26.1616 13.6739 26.037C13.2464 25.7219 13.1595 25.1136 13.471 24.6813L19.7971 15.99C19.9783 15.7482 20.2609 15.6016 20.5652 15.6016ZM20.5652 15.4551C20.2102 15.4551 19.8913 15.6163 19.6812 15.9021L13.3551 24.5933C12.9928 25.0843 13.1015 25.7878 13.587 26.1542C13.7826 26.2935 14.0145 26.3667 14.2392 26.3667C14.587 26.3667 14.9131 26.2055 15.1232 25.9197L20.5652 18.445L25.5797 25.3335C25.7899 25.6193 26.116 25.7878 26.471 25.7878C26.7102 25.7878 26.9348 25.7145 27.1232 25.568C27.616 25.2016 27.7174 24.5054 27.3551 24.0071L21.4566 15.9021C21.2464 15.6236 20.9203 15.4551 20.5652 15.4551Z" fill="#FF5C00"/>
<path d="M35.4856 12.7071H30.7103C30.1813 12.7071 29.761 12.2747 29.761 11.7471C29.761 11.2121 30.1885 10.7871 30.7103 10.7871H35.4856C36.0146 10.7871 36.4349 11.2195 36.4349 11.7471C36.4421 12.2747 36.0146 12.7071 35.4856 12.7071Z" fill="#FF5C00"/>
<path d="M35.4855 10.7797C36.0145 10.7797 36.4348 11.2121 36.4348 11.7397C36.4348 12.2674 36.0073 12.6997 35.4855 12.6997H30.7102C30.1812 12.6997 29.7609 12.2674 29.7609 11.7397C29.7609 11.2121 30.1884 10.7797 30.7102 10.7797H35.4855ZM35.4855 10.6332H30.7102C30.1015 10.6332 29.616 11.1315 29.616 11.7397C29.616 12.3553 30.1087 12.8463 30.7102 12.8463H35.4855C36.0942 12.8463 36.5797 12.348 36.5797 11.7397C36.587 11.1315 36.0942 10.6332 35.4855 10.6332Z" fill="#FF5C00"/>
<path d="M43.1232 16.569H30.7029C30.174 16.569 29.7537 16.1367 29.7537 15.609C29.7537 15.0741 30.1812 14.649 30.7029 14.649H43.116C43.645 14.649 44.0653 15.0814 44.0653 15.609C44.0725 16.1367 43.645 16.569 43.1232 16.569Z" fill="#FF5C00"/>
<path d="M43.1231 14.6417C43.6521 14.6417 44.0724 15.074 44.0724 15.6017C44.0724 16.1293 43.6449 16.5617 43.1231 16.5617H30.7028C30.1739 16.5617 29.7536 16.1293 29.7536 15.6017C29.7536 15.074 30.1811 14.6417 30.7028 14.6417H43.1231ZM43.1231 14.4951H30.7028C30.0942 14.4951 29.6086 14.9934 29.6086 15.6017C29.6086 16.2099 30.1014 16.7082 30.7028 16.7082H43.1159C43.7246 16.7082 44.2101 16.2099 44.2101 15.6017C44.2101 14.9934 43.7246 14.4951 43.1231 14.4951Z" fill="#FF5C00"/>
<path d="M43.1232 20.431H30.7029C30.174 20.431 29.7537 19.9986 29.7537 19.471C29.7537 18.9433 30.1812 18.511 30.7029 18.511H43.116C43.645 18.511 44.0653 18.9433 44.0653 19.471C44.0653 19.9986 43.645 20.431 43.1232 20.431Z" fill="#FF5C00"/>
<path d="M43.1231 18.5036C43.6521 18.5036 44.0724 18.936 44.0724 19.4636C44.0724 19.9912 43.6449 20.4236 43.1231 20.4236H30.7028C30.1739 20.4236 29.7536 19.9912 29.7536 19.4636C29.7536 18.936 30.1811 18.5036 30.7028 18.5036H43.1231ZM43.1231 18.3571H30.7028C30.0942 18.3571 29.6086 18.8554 29.6086 19.4636C29.6086 20.0792 30.1014 20.5702 30.7028 20.5702H43.1159C43.7246 20.5702 44.2101 20.0719 44.2101 19.4636C44.2173 18.8554 43.7246 18.3571 43.1231 18.3571Z" fill="#FF5C00"/>
<path d="M43.1232 25.2603H30.7029C30.174 25.2603 29.7537 24.828 29.7537 24.3003C29.7537 23.7654 30.1812 23.3403 30.7029 23.3403H43.116C43.645 23.3403 44.0653 23.7727 44.0653 24.3003C44.087 24.828 43.645 25.2603 43.1232 25.2603Z" fill="#FF5C00"/>
<path d="M43.1231 23.333C43.6521 23.333 44.0724 23.7653 44.0724 24.293C44.0797 24.8279 43.6449 25.253 43.1231 25.253H30.7028C30.1739 25.253 29.7536 24.8206 29.7536 24.293C29.7536 23.758 30.1811 23.333 30.7028 23.333H43.1231ZM43.1231 23.1864H30.7028C30.0942 23.1864 29.6086 23.6847 29.6086 24.293C29.6086 24.9012 30.1014 25.3995 30.7028 25.3995H43.1159C43.413 25.3995 43.7028 25.2749 43.9057 25.0624C44.1086 24.8499 44.2173 24.5788 44.2101 24.2856C44.2173 23.6847 43.7246 23.1864 43.1231 23.1864Z" fill="#FF5C00"/>
<path d="M25.1813 26.2276H7.58708C6.11606 26.2276 4.92041 25.0184 4.92041 23.5308V10.5746C4.92041 9.08696 6.11606 7.87781 7.58708 7.87781H25.1813C26.6523 7.87781 27.8479 9.08696 27.8479 10.5746V23.5381C27.8479 25.0111 26.6523 26.2276 25.1813 26.2276ZM7.58708 9.81245C7.17403 9.81245 6.83345 10.1495 6.83345 10.5746V23.5381C6.83345 23.9558 7.16679 24.3003 7.58708 24.3003H25.1813C25.5943 24.3003 25.9349 23.9632 25.9349 23.5381V10.5746C25.9349 10.1569 25.6016 9.81245 25.1813 9.81245H7.58708Z" fill="#FF5C00"/>
<path d="M25.1812 7.87776C26.6522 7.87776 27.8479 9.08692 27.8479 10.5745V23.5381C27.8479 25.0111 26.6522 26.2202 25.1812 26.2202H7.58698C6.11597 26.2202 4.92032 25.0111 4.92032 23.5234V10.5745C4.92032 9.08692 6.11597 7.87776 7.58698 7.87776H25.1812ZM7.58698 24.3002H25.1812C25.5942 24.3002 25.9348 23.9631 25.9348 23.5381V10.5745C25.9348 10.1568 25.6015 9.8124 25.1812 9.8124H7.58698C7.17394 9.8124 6.83336 10.1495 6.83336 10.5745V23.5381C6.83336 23.9558 7.16669 24.3002 7.58698 24.3002ZM25.1812 7.7312H7.58698C6.03626 7.7312 4.77539 9.00631 4.77539 10.5745V23.5308C4.77539 25.099 6.03626 26.3741 7.58698 26.3741H25.1812C25.9276 26.3741 26.6377 26.081 27.1667 25.5387C27.6957 25.0037 27.9928 24.2929 27.9928 23.5381V10.5745C27.9928 9.00631 26.7319 7.7312 25.1812 7.7312ZM7.58698 24.1537C7.25365 24.1537 6.97829 23.8825 6.97829 23.5381V10.5745C6.97829 10.2374 7.2464 9.95897 7.58698 9.95897H25.1812C25.5145 9.95897 25.7899 10.2301 25.7899 10.5745V23.5381C25.7899 23.8752 25.5218 24.1537 25.1812 24.1537H7.58698Z" fill="#FF5C00"/>
</g>
<defs>
<clipPath id="clip0_17_30">
<rect width="49" height="37" fill="white"/>
</clipPath>
</defs>
</svg>
