<svg width="34" height="55" viewBox="0 0 34 55" fill="none" xmlns="http://www.w3.org/2000/svg">
<g clip-path="url(#clip0_17_58)">
<path d="M30.8252 0.160338H3.1669C1.55164 0.120245 0.198964 1.40323 0.15918 3.03102V51.9689C0.206921 53.6047 1.55164 54.8797 3.1669 54.8396H30.8252C32.4484 54.8797 33.7932 53.5967 33.8329 51.9689V3.03102C33.7932 1.40323 32.4484 0.120245 30.8252 0.160338ZM31.9631 51.9769C31.9153 52.5703 31.4061 53.0033 30.8173 52.9632H3.1669C2.57809 53.0033 2.0768 52.5623 2.0211 51.9769V45.4257H31.9631V51.9769ZM31.9631 43.5333H2.02906V8.33135H31.971L31.9631 43.5333ZM31.9631 6.44697H2.02906V3.03102C2.0768 2.43764 2.58605 2.00463 3.17486 2.04472H30.8332C31.4061 2.00463 31.9153 2.44566 31.9631 3.03102V6.44697Z" fill="#FF5C00"/>
<path d="M30.9048 0.160373C32.4882 0.160373 33.7931 1.42732 33.8329 3.03105V51.9689C33.7931 53.5727 32.4882 54.8396 30.9048 54.8396C30.8809 54.8396 30.8491 54.8396 30.8252 54.8396H3.16686C3.14299 54.8396 3.11116 54.8396 3.08729 54.8396C1.50386 54.8396 0.20688 53.5727 0.159139 51.9689V3.03105C0.198923 1.42732 1.50386 0.160373 3.08729 0.160373C3.11116 0.160373 3.14299 0.160373 3.16686 0.160373H30.8252C30.857 0.160373 30.8809 0.160373 30.9048 0.160373ZM2.02902 6.447H31.963V3.03105C31.9232 2.47777 31.4538 2.04476 30.9127 2.04476C30.8888 2.04476 30.865 2.04476 30.8331 2.04476H3.17482C3.15095 2.04476 3.11912 2.04476 3.09525 2.04476C2.54622 2.04476 2.07676 2.46975 2.02902 3.03105V6.447ZM2.02902 43.5333H31.963H31.971V8.33139H2.02902V43.5333ZM3.08729 52.9633C3.11116 52.9633 3.13503 52.9633 3.16686 52.9633H30.8172C30.8411 52.9633 30.8729 52.9633 30.8968 52.9633C31.4458 52.9633 31.9153 52.5383 31.963 51.977V45.4257H2.02106V51.977C2.0688 52.5303 2.53826 52.9633 3.08729 52.9633ZM30.9048 0C30.8809 0 30.8491 0 30.8252 0H3.17482C3.15095 0 3.11912 0 3.09525 0C2.28364 0 1.51978 0.312728 0.938919 0.882053C0.350105 1.45138 0.0238708 2.21315 0 3.03105V51.9689C0.0238708 52.7868 0.358062 53.5486 0.938919 54.1179C1.51978 54.6873 2.28364 55 3.08729 55C3.11116 55 3.14299 55 3.16686 55H30.8252C30.8491 55 30.8809 55 30.9048 55C31.7164 55 32.4802 54.6873 33.0611 54.1179C33.6419 53.5486 33.9761 52.7868 34 51.9689V3.03105C33.9761 2.21315 33.6499 1.45138 33.0611 0.882053C32.4802 0.312728 31.7164 0 30.9048 0ZM2.18816 3.03907C2.2359 2.56597 2.62579 2.20513 3.09525 2.20513C3.11912 2.20513 3.14299 2.20513 3.16686 2.20513H3.17482H3.18278H30.8411H30.8491H30.857C30.8809 2.20513 30.8968 2.20513 30.9207 2.20513C31.3822 2.20513 31.7721 2.56597 31.8118 3.03907V6.28663H2.18816V3.03907ZM2.18816 8.49176H31.8118V43.3729H2.18816V8.49176ZM2.1802 45.5861H31.8039V51.9689C31.7561 52.442 31.3742 52.8029 30.8968 52.8029C30.8729 52.8029 30.8491 52.8029 30.8252 52.8029H30.8172H30.8093H3.16686H3.15891H3.15095C3.12708 52.8029 3.10321 52.8029 3.08729 52.8029C2.61783 52.8029 2.21999 52.434 2.1802 51.9689V45.5861Z" fill="#FF5C00"/>
<path d="M17.3144 51.0789C18.1817 51.0789 18.874 50.3812 18.874 49.5072C18.874 48.6332 18.1817 47.9355 17.3144 47.9355C16.4471 47.9355 15.7549 48.6332 15.7549 49.5072C15.7549 50.3732 16.4471 51.0789 17.3144 51.0789Z" fill="#FF5C00"/>
<path d="M17.3144 47.9355C18.1817 47.9355 18.874 48.6331 18.874 49.5072C18.874 50.3812 18.1817 51.0788 17.3144 51.0788C16.4471 51.0788 15.7548 50.3732 15.7548 49.5072C15.7548 48.6331 16.4471 47.9355 17.3144 47.9355ZM17.3144 47.7751C16.3675 47.7751 15.5957 48.553 15.5957 49.5072C15.5957 50.4614 16.3675 51.2392 17.3144 51.2392C18.2613 51.2392 19.0331 50.4614 19.0331 49.5072C19.0331 48.553 18.2613 47.7751 17.3144 47.7751Z" fill="#FF5C00"/>
<path d="M14.7761 31.1525C15.2138 31.345 15.731 31.1766 15.9697 30.7516L19.7094 23.206C19.9402 22.7329 19.7492 22.1716 19.2877 21.9391C18.8262 21.7065 18.2692 21.899 18.0385 22.3561L14.2987 29.9016C14.0918 30.3908 14.2987 30.9521 14.7761 31.1525Z" fill="#FF5C00"/>
<path d="M18.874 21.8429C19.0172 21.8429 19.1525 21.8749 19.2877 21.9391C19.7572 22.1716 19.9402 22.7329 19.7095 23.206L15.9697 30.7516C15.7946 31.0563 15.4843 31.2327 15.1501 31.2327C15.0228 31.2327 14.8955 31.2087 14.7682 31.1525C14.2908 30.944 14.0839 30.3908 14.2908 29.9016L18.0305 22.3561C18.2056 22.0353 18.5318 21.8429 18.874 21.8429ZM18.874 21.6825C18.4602 21.6825 18.0862 21.915 17.8953 22.2919L14.1555 29.8375C14.0362 30.1181 14.0282 30.4228 14.1396 30.6955C14.243 30.9681 14.4499 31.1766 14.7205 31.2969C14.8637 31.361 15.0069 31.3931 15.166 31.3931C15.5639 31.3931 15.9299 31.1766 16.1209 30.8318L19.8606 23.2862C19.9879 23.0216 20.0118 22.7169 19.9163 22.4443C19.8209 22.1636 19.6299 21.9391 19.3593 21.8108C19.2082 21.7226 19.0411 21.6825 18.874 21.6825Z" fill="#FF5C00"/>
<path d="M22.8444 31.6337C23.2024 32.0186 23.7833 32.0346 24.1652 31.6818C24.1811 31.6657 24.197 31.6497 24.213 31.6337L28.5813 27.2314C28.9473 26.8626 28.9473 26.2692 28.5813 25.9003L24.213 21.4981C23.831 21.1372 23.2422 21.1613 22.8921 21.5462C22.5579 21.907 22.5579 22.4683 22.8921 22.8292L26.6 26.5659L22.8921 30.3026C22.5102 30.6474 22.4863 31.2488 22.8444 31.6337Z" fill="#FF5C00"/>
<path d="M23.5764 21.2414C23.7992 21.2414 24.0299 21.3216 24.213 21.498L28.5813 25.9003C28.9473 26.2691 28.9473 26.8625 28.5813 27.2314L24.213 31.6336C24.197 31.6497 24.1811 31.6657 24.1652 31.6817C23.9822 31.8501 23.7515 31.9303 23.5287 31.9303C23.282 31.9303 23.0274 31.8261 22.8444 31.6256C22.4863 31.2407 22.5102 30.6393 22.8921 30.2945L26.6 26.5578L22.8921 22.8211C22.5579 22.4603 22.5579 21.899 22.8921 21.5381C23.0751 21.3457 23.3297 21.2414 23.5764 21.2414ZM23.5764 21.0811C23.274 21.0811 22.9796 21.2094 22.7728 21.4339C22.3829 21.8508 22.3829 22.5164 22.7728 22.9334L26.3693 26.5578L22.7807 30.1742C22.5659 30.3747 22.4386 30.6393 22.4306 30.936C22.4226 31.2327 22.5261 31.5133 22.725 31.7298C22.9319 31.9544 23.2183 32.0827 23.5287 32.0827C23.8072 32.0827 24.0697 31.9784 24.2766 31.794L24.3244 31.7459L28.6927 27.3436C28.8996 27.1351 29.011 26.8625 29.011 26.5658C29.011 26.2691 28.8996 25.9965 28.6927 25.788L24.3244 21.3858C24.1175 21.1933 23.8549 21.0811 23.5764 21.0811Z" fill="#FF5C00"/>
<path d="M9.73931 31.8181C10.1212 32.179 10.7101 32.1549 11.0602 31.77C11.3944 31.4092 11.3944 30.8479 11.0602 30.487L7.3204 26.7182L11.0602 22.9415C11.3705 22.5806 11.3705 22.0434 11.0602 21.6825C10.6941 21.3137 10.1053 21.3137 9.73931 21.6825L5.37095 26.0848C5.00493 26.4536 5.00493 27.047 5.37095 27.4159L9.73931 31.8181Z" fill="#FF5C00"/>
<path d="M10.3996 21.4099C10.6383 21.4099 10.877 21.4981 11.06 21.6825C11.3704 22.0434 11.3704 22.5806 11.06 22.9414L7.32029 26.7182L11.06 30.487C11.3942 30.8478 11.3942 31.4092 11.06 31.77C10.8691 31.9705 10.6224 32.0747 10.3678 32.0747C10.145 32.0747 9.91425 31.9945 9.73124 31.8181L5.36288 27.4159C4.99686 27.047 4.99686 26.4536 5.36288 26.0848L9.73124 21.6825C9.92221 21.5061 10.1609 21.4099 10.3996 21.4099ZM10.3996 21.2495C10.1052 21.2495 9.83468 21.3618 9.6278 21.5703L5.25944 25.9725C5.05256 26.181 4.94116 26.4536 4.94116 26.7503C4.94116 27.047 5.05256 27.3196 5.25944 27.5281L9.6278 31.9304C9.83468 32.1228 10.0973 32.2271 10.3678 32.2271C10.6702 32.2271 10.9646 32.0988 11.1714 31.8742C11.5613 31.4573 11.5613 30.7917 11.1714 30.3747L7.54308 26.7182L11.1714 23.0537C11.5375 22.6367 11.5375 22.0033 11.1714 21.5863C10.9725 21.3618 10.694 21.2495 10.3996 21.2495Z" fill="#FF5C00"/>
</g>
<defs>
<clipPath id="clip0_17_58">
<rect width="34" height="55" fill="white"/>
</clipPath>
</defs>
</svg>
