<svg width="49" height="55" viewBox="0 0 49 55" fill="none" xmlns="http://www.w3.org/2000/svg">
<path d="M28.4137 0.350708C23.7073 0.350708 19.1481 1.98531 15.5219 4.98793C11.8956 7.98353 9.4267 12.1577 8.54294 16.7739C7.65917 21.3971 8.41668 26.1816 10.6822 30.3067L9.53191 31.4573C9.18121 31.815 8.94274 32.2711 8.86558 32.7621C8.78141 33.2532 8.85155 33.7653 9.06899 34.2143L1.52189 41.756C0.504859 42.7802 0.112074 44.2675 0.490831 45.6565C0.862575 47.0456 1.94975 48.133 3.34554 48.5118C4.73432 48.8837 6.22129 48.4908 7.24534 47.4806L14.7854 39.9389C15.2343 40.1564 15.7463 40.2336 16.2373 40.1494C16.7353 40.0652 17.1842 39.8267 17.5419 39.4689L18.6922 38.3184C22.3115 40.3038 26.4497 41.1386 30.553 40.7036C34.6562 40.2687 38.5279 38.592 41.6562 35.891C44.7774 33.1901 47.0009 29.6052 48.0249 25.6064C49.0489 21.6076 48.8245 17.3913 47.3866 13.5257C45.9417 9.65321 43.3465 6.31385 39.9588 3.96367C36.571 1.60648 32.5379 0.350708 28.4137 0.350708ZM6.09504 46.337C5.48482 46.9474 4.58702 47.1929 3.75235 46.9684C2.91768 46.7439 2.25837 46.0915 2.03392 45.2497C1.80947 44.4148 2.04795 43.5168 2.66518 42.9065L10.1 35.4701L13.5299 38.9007L6.09504 46.337ZM16.3916 38.3254C16.069 38.6341 15.571 38.6341 15.2483 38.3254L10.6752 33.7443C10.5209 33.59 10.4367 33.3865 10.4367 33.169C10.4367 32.9515 10.5209 32.7481 10.6752 32.5938L11.5449 31.7238C13.053 33.9969 14.9958 35.9401 17.2684 37.4485L16.3916 38.3254ZM28.4137 39.1953C23.4758 39.1953 18.7483 37.231 15.2554 33.7443C11.7624 30.2506 9.80546 25.5222 9.80546 20.5833C9.80546 15.6444 11.7694 10.916 15.2554 7.42229C18.7413 3.92859 23.4758 1.97128 28.4137 1.97128C33.3516 1.97128 38.079 3.93561 41.572 7.42229C45.065 10.916 47.0219 15.6444 47.0219 20.5833C47.0149 25.5152 45.0509 30.2506 41.565 33.7373C38.072 37.231 33.3445 39.1883 28.4137 39.1953Z" fill="#FF5C00"/>
<path d="M28.3995 0.350773H28.4066C28.4136 0.350773 28.4136 0.350773 28.4206 0.350773C32.5448 0.350773 36.5709 1.61356 39.9587 3.96373C43.3464 6.31391 45.9416 9.65327 47.3795 13.5188C48.8174 17.3843 49.0418 21.6006 48.0178 25.5994C46.9937 29.5982 44.7703 33.1901 41.6491 35.8841C38.5278 38.585 34.6561 40.2617 30.5458 40.6967C29.8374 40.7738 29.129 40.8089 28.4206 40.8089C25.0258 40.8089 21.6801 39.953 18.6851 38.3114L17.5348 39.462C17.1841 39.8197 16.7282 40.0583 16.2302 40.1425C16.0969 40.1635 15.9637 40.1775 15.8304 40.1775C15.4657 40.1775 15.108 40.0934 14.7783 39.932L7.24524 47.4806C6.48071 48.2453 5.44965 48.6522 4.39755 48.6522C4.04685 48.6522 3.69614 48.6031 3.34544 48.5119C1.95667 48.1401 0.869491 47.0527 0.490734 45.6566C0.11899 44.2675 0.511776 42.7803 1.5218 41.756L9.06188 34.2144C8.84444 33.7654 8.7743 33.2533 8.85847 32.7622C8.94264 32.2711 9.1741 31.8151 9.5248 31.4573L10.6751 30.3068C8.40957 26.1817 7.65206 21.3972 8.53582 16.774C9.41959 12.1508 11.8885 7.98359 15.5148 4.98799C19.148 1.99239 23.7002 0.350773 28.3995 0.350773ZM28.4136 39.1954C33.3444 39.1884 38.0789 37.224 41.5649 33.7373C45.0509 30.2507 47.0148 25.5152 47.0218 20.5834C47.0218 15.6445 45.0579 10.9161 41.5719 7.42236C38.0789 3.92866 33.3444 1.97134 28.4136 1.97134C23.4757 1.97134 18.7482 3.93567 15.2553 7.42236C11.7623 10.9161 9.80536 15.6445 9.80536 20.5834C9.80536 25.5222 11.7693 30.2507 15.2553 33.7444C18.7412 37.2381 23.4757 39.1954 28.4136 39.1954ZM15.8234 38.5499C16.0268 38.5499 16.2372 38.4728 16.3985 38.3184L17.2683 37.4485C14.9957 35.9402 13.0529 33.9969 11.5448 31.7239L10.6751 32.5938C10.5208 32.7482 10.4366 32.9516 10.4366 33.1691C10.4366 33.3866 10.5208 33.59 10.6751 33.7444L15.2482 38.3184C15.4096 38.4728 15.62 38.5499 15.8234 38.5499ZM4.38352 47.0457C5.0218 47.0457 5.63903 46.7931 6.10196 46.3371L13.5368 38.9007L10.1 35.4631L2.66508 42.8995C2.05486 43.5099 1.80937 44.4079 2.03382 45.2427C2.25827 46.0775 2.91057 46.737 3.75226 46.9615C3.96268 47.0176 4.1731 47.0457 4.38352 47.0457ZM28.4136 0H28.4066C23.637 0 18.9797 1.67669 15.3044 4.71439C11.622 7.7591 9.10396 12.0175 8.20616 16.7108C7.3224 21.313 8.05186 26.1115 10.2543 30.2436L9.29334 31.2048L9.37751 31.2889L9.29334 31.2048C8.88653 31.6117 8.61999 32.1308 8.52881 32.6991C8.44464 33.1831 8.49374 33.6742 8.66208 34.1302L1.2763 41.5105C0.175102 42.6189 -0.252753 44.2465 0.15406 45.7548C0.560874 47.2631 1.74624 48.4488 3.25426 48.8557C3.626 48.9539 4.01178 49.01 4.39755 49.01C5.56188 49.01 6.66308 48.554 7.49073 47.7332L14.8625 40.3599C15.1711 40.4792 15.5008 40.5353 15.8304 40.5353C15.9847 40.5353 16.139 40.5213 16.2933 40.4932C16.8615 40.395 17.3805 40.1284 17.7873 39.7145L18.7482 38.7534C21.7152 40.3319 25.0539 41.1667 28.4206 41.1667C29.143 41.1667 29.8655 41.1316 30.5809 41.0545C32.6571 40.837 34.6841 40.3038 36.599 39.469C38.5138 38.6411 40.2883 37.5257 41.8735 36.1577C43.4517 34.7897 44.8124 33.1972 45.9136 31.4222C47.0148 29.6473 47.8354 27.7181 48.3545 25.6906C48.8735 23.6631 49.0769 21.5796 48.9717 19.496C48.8595 17.4124 48.4386 15.3568 47.7092 13.3995C46.9797 11.4422 45.9627 9.61118 44.6791 7.96255C43.3955 6.31391 41.8805 4.86873 40.1621 3.6761C38.4507 2.48347 36.5709 1.56445 34.5789 0.940072C32.5939 0.322711 30.5458 0.00701546 28.4767 0H28.4136ZM28.4136 38.8446C23.5388 38.8446 18.9517 36.9434 15.5008 33.4988C12.0499 30.0472 10.1561 25.4661 10.1561 20.5834C10.1561 15.7076 12.0569 11.1195 15.5008 7.6679C18.9517 4.21629 23.5318 2.32212 28.4136 2.32212C33.2883 2.32212 37.8755 4.22331 41.3264 7.6679C44.7773 11.1195 46.6711 15.7006 46.6711 20.5834C46.6641 25.4591 44.7633 30.0402 41.3194 33.4918C37.9036 36.9083 33.3725 38.8025 28.5539 38.8446H28.4136ZM15.4937 38.0729L10.9206 33.4988C10.8364 33.4146 10.7873 33.2954 10.7873 33.1761C10.7873 33.0568 10.8364 32.9376 10.9206 32.8534L11.4887 32.2851C12.9126 34.3337 14.6661 36.0945 16.7142 37.5117L16.146 38.0799C16.0549 38.1641 15.9426 38.2062 15.8164 38.2062C15.7042 38.1992 15.5849 38.1571 15.4937 38.0729ZM4.38352 46.6949C4.20115 46.6949 4.01879 46.6738 3.84344 46.6247C3.12801 46.4353 2.56689 45.8741 2.37751 45.1585C2.18813 44.4429 2.39153 43.6782 2.91759 43.1521L10.1 35.9542L13.0388 38.8937L5.84945 46.0846C5.45667 46.4774 4.93763 46.6949 4.38352 46.6949Z" fill="#FF5C00"/>
<path d="M28.4137 3.58496C23.9107 3.58496 19.583 5.3739 16.3987 8.56594C13.2143 11.751 11.4187 16.0725 11.4187 20.5834C11.4187 25.0944 13.2073 29.4159 16.3987 32.6009C19.583 35.7859 23.9037 37.5819 28.4137 37.5819C32.9237 37.5819 37.2444 35.7929 40.4287 32.6009C43.6131 29.4159 45.4087 25.0944 45.4087 20.5834C45.4017 16.0795 43.6131 11.758 40.4287 8.57295C37.2373 5.38793 32.9167 3.59198 28.4137 3.58496ZM28.4137 35.9613C24.3385 35.9613 20.4247 34.3407 17.5419 31.4574C14.6592 28.574 13.0389 24.6664 13.0389 20.5834C13.0389 16.5004 14.6592 12.5928 17.5419 9.70946C20.4247 6.8261 24.3315 5.20553 28.4137 5.20553C32.4959 5.20553 36.4027 6.8261 39.2854 9.70946C42.1682 12.5928 43.7884 16.5004 43.7884 20.5834C43.7814 24.6594 42.1612 28.567 39.2784 31.4504C36.3957 34.3337 32.4888 35.9543 28.4137 35.9613Z" fill="#FF5C00"/>
<path d="M28.4136 3.58496C32.9166 3.59198 37.2373 5.38092 40.4216 8.56594C43.606 11.751 45.4016 16.0725 45.4016 20.5764C45.4016 25.0803 43.613 29.4089 40.4216 32.5939C37.2373 35.7789 32.9166 37.5749 28.4066 37.5749C23.9036 37.5749 19.576 35.7859 16.3916 32.5939C13.2072 29.4089 11.4116 25.0873 11.4116 20.5764C11.4116 16.0655 13.2002 11.7439 16.3916 8.55892C19.583 5.38092 23.9036 3.58496 28.4136 3.58496ZM28.4136 35.9613C32.4888 35.9543 36.3956 34.3337 39.2784 31.4504C42.1611 28.567 43.7814 24.6594 43.7884 20.5834C43.7884 16.5074 42.1681 12.5928 39.2854 9.70946C36.4026 6.8261 32.4958 5.20553 28.4136 5.20553C24.3385 5.20553 20.4247 6.8261 17.5419 9.70946C14.6591 12.5928 13.0389 16.5004 13.0389 20.5834C13.0389 24.6664 14.6591 28.574 17.5419 31.4574C20.4247 34.3407 24.3315 35.9613 28.4136 35.9613ZM28.4136 3.23419C26.1271 3.23419 23.8896 3.67616 21.7784 4.55309C19.6601 5.43003 17.7733 6.69281 16.1531 8.31338C14.5329 9.93395 13.2703 11.8281 12.3936 13.9398C11.5168 16.0514 11.075 18.2894 11.075 20.5764C11.075 22.8634 11.5168 25.1014 12.3936 27.213C13.2703 29.3317 14.5329 31.2189 16.1531 32.8394C17.7733 34.46 19.6671 35.7228 21.7784 36.5997C23.8896 37.4766 26.1271 37.9186 28.4136 37.9186C30.7002 37.9186 32.9377 37.4766 35.0489 36.5997C37.1671 35.7228 39.0539 34.46 40.6742 32.8394C42.2944 31.2189 43.5569 29.3247 44.4337 27.213C45.3104 25.1014 45.7523 22.8634 45.7523 20.5764C45.7523 18.2894 45.3034 16.0584 44.4267 13.9398C43.5499 11.8281 42.2874 9.93395 40.6671 8.31338C39.0469 6.69281 37.1601 5.43003 35.0419 4.55309C32.9727 3.69721 30.7914 3.24822 28.5539 3.22717L28.4136 3.23419ZM28.4136 35.6105C24.4016 35.6105 20.6281 34.0461 17.7944 31.2118C14.9537 28.3776 13.3966 24.6033 13.3966 20.5904C13.3966 16.5776 14.9607 12.8033 17.7944 9.96903C20.6281 7.12777 24.4016 5.57034 28.4136 5.57034C32.4257 5.57034 36.1992 7.13478 39.0329 9.96903C41.8736 12.8033 43.4307 16.5776 43.4307 20.5904C43.4237 24.6033 41.8595 28.3706 39.0259 31.2118C36.1992 34.0391 32.4397 35.6035 28.4487 35.6176H28.4136V35.6105Z" fill="#FF5C00"/>
</svg>
