<svg width="51" height="55" viewBox="0 0 51 55" fill="none" xmlns="http://www.w3.org/2000/svg">
<g clip-path="url(#clip0_77_11)">
<path d="M20.0035 19.3951C19.5247 18.9088 18.7203 18.9088 18.232 19.4535L12.3908 25.7175C11.912 26.2038 11.912 26.9722 12.3908 27.4586L18.232 33.7226C18.5001 33.9949 18.8257 34.1019 19.1417 34.1019C19.4577 34.1019 19.7832 33.9949 20.0035 33.7712C20.4823 33.2849 20.5397 32.4678 20.0609 31.9718L15.072 26.5832L20.0609 21.1946C20.5397 20.6985 20.4823 19.8815 20.0035 19.3951Z" fill="#FF5C00"/>
<path d="M32.7104 19.4437C32.2316 18.9574 31.4272 18.899 30.9389 19.3853C30.4601 19.8717 30.4026 20.6887 30.8814 21.1848L35.8703 26.5734L30.8814 31.962C30.4026 32.4483 30.4505 33.2654 30.9389 33.7614C31.207 33.9754 31.4751 34.0922 31.8007 34.0922C32.1262 34.0922 32.4422 33.9852 32.7104 33.7128L38.5515 27.4488C39.0303 26.9625 39.0303 26.1941 38.5515 25.7077L32.7104 19.4437Z" fill="#FF5C00"/>
<path d="M27.7215 17.761C27.0225 17.5956 26.3809 17.975 26.1702 18.685L22.3591 33.8781C22.1963 34.5882 22.5698 35.2399 23.2688 35.4539C23.3741 35.4539 23.4795 35.5122 23.5944 35.5122C24.1306 35.5122 24.6669 35.1329 24.8296 34.5298L28.5833 19.3367C28.794 18.6266 28.3631 17.9166 27.7215 17.761Z" fill="#FF5C00"/>
<path d="M46.059 0H4.88359C2.2024 0 0 2.23715 0 4.96063V37.0394C0 39.7629 2.2024 42 4.88359 42H46.1164C48.7976 42 51 39.7629 51 37.0394V4.96063C50.9425 2.23715 48.7401 0 46.059 0ZM4.88359 2.55813H46.1164C47.3996 2.55813 48.472 3.64752 48.472 4.9509V11.2149H2.5184V4.96063C2.5184 3.59889 3.59088 2.55813 4.88359 2.55813ZM46.059 39.3835H4.88359C3.60045 39.3835 2.52798 38.2941 2.52798 36.9907V13.7828H48.4337V36.9907C48.4241 38.3428 47.3517 39.3835 46.059 39.3835Z" fill="#FF5C00"/>
<path d="M9.17342 6.86712C9.17342 7.88843 8.35949 8.7152 7.35404 8.7152C6.3486 8.7152 5.53467 7.88843 5.53467 6.86712C5.53467 5.84581 6.3486 5.01904 7.35404 5.01904C8.35949 5.01904 9.17342 5.83609 9.17342 6.86712Z" fill="#FF5C00"/>
<path d="M14.6412 6.86712C14.6412 7.88843 13.8273 8.7152 12.8218 8.7152C11.8164 8.7152 11.0024 7.88843 11.0024 6.86712C11.0024 5.84581 11.8164 5.01904 12.8218 5.01904C13.8273 5.01904 14.6412 5.83609 14.6412 6.86712Z" fill="#FF5C00"/>
<path d="M20.109 6.86708C20.109 7.88839 19.295 8.71516 18.2896 8.71516C17.2841 8.71516 16.4702 7.88839 16.4702 6.86708C16.4702 5.84578 17.2841 5.01901 18.2896 5.01901C19.295 5.00928 20.109 5.83605 20.109 6.86708Z" fill="#FF5C00"/>
<path d="M34.645 8.17048H42.746C43.445 8.17048 44.0291 7.56743 44.0291 6.8671C44.0291 6.16678 43.4354 5.56372 42.746 5.56372H34.645C33.9459 5.56372 33.3618 6.16678 33.3618 6.8671C33.4097 7.56743 33.9459 8.17048 34.645 8.17048Z" fill="#FF5C00"/>
</g>
<defs>
<clipPath id="clip0_77_11">
<rect width="51" height="42" fill="white"/>
</clipPath>
</defs>
</svg>
