<svg width="49" height="56" viewBox="0 0 49 56" fill="none" xmlns="http://www.w3.org/2000/svg">
<path d="M35.7133 10.5082C37.2371 10.8225 38.5829 11.7299 39.4445 13.0302C40.3061 14.3376 40.6123 15.9237 40.3061 17.4597C40.242 17.7812 40.3061 18.117 40.4841 18.3885C40.6621 18.66 40.947 18.8529 41.2674 18.9172C41.9367 19.053 42.5847 18.6243 42.72 17.9527C43.1615 15.7736 42.72 13.516 41.4952 11.6656C40.2705 9.81514 38.3693 8.52199 36.1975 8.07903C35.5282 7.94329 34.8802 8.37195 34.7449 9.04354C34.6096 9.72226 35.044 10.3724 35.7133 10.5082Z" fill="#FF5C00"/>
<path d="M36.9237 4.51389C40.0354 5.14975 42.7697 6.99303 44.5285 9.65077C46.2873 12.3085 46.921 15.5521 46.2944 18.6814C46.2303 19.0029 46.2944 19.3387 46.4724 19.6102C46.6505 19.8817 46.9353 20.0746 47.2557 20.1389C47.925 20.2746 48.573 19.8459 48.7083 19.1744C49.4631 15.4092 48.7012 11.494 46.5792 8.28618C44.4644 5.08545 41.1605 2.85637 37.4079 2.08477C36.7386 1.94902 36.0906 2.37769 35.9553 3.04927C35.8271 3.72085 36.2544 4.37815 36.9237 4.51389Z" fill="#FF5C00"/>
<path d="M3.31433 38.9503C3.83413 39.7434 4.653 40.2935 5.57868 40.4793C5.81366 40.5293 6.05576 40.5507 6.29074 40.5507C6.99568 40.5507 7.67926 40.3435 8.26315 39.9506L10.086 38.736C10.8693 39.5148 11.8591 40.0435 12.9343 40.2578C13.3045 40.3364 13.689 40.3721 14.0664 40.3721C15.1773 40.3721 16.2596 40.0435 17.1781 39.429L18.3886 38.6217L24.8257 48.4025C25.5164 49.417 26.6699 50.01 27.9018 49.9886C28.7562 49.9814 29.5965 49.7242 30.3085 49.2455C32.1955 47.9953 32.8079 45.5733 31.6686 43.8586L25.2529 34.1064C28.9627 31.9273 32.3735 31.863 36.6744 32.5703L37.066 33.1562C37.6641 34.0635 38.5969 34.6922 39.6579 34.9066C40.7189 35.1209 41.8226 34.9066 42.7269 34.2993L42.7696 34.2707C43.6668 33.6706 44.2863 32.7346 44.4999 31.6701C44.7135 30.6056 44.4999 29.5053 43.9018 28.6051L26.8622 2.81356C26.264 1.91336 25.3312 1.28464 24.2774 1.07031C23.2164 0.855976 22.1198 1.07031 21.2155 1.6633L21.1728 1.69188C20.2756 2.29202 19.649 3.22794 19.4354 4.29247C19.2218 5.357 19.4354 6.46439 20.0335 7.3646L20.4251 7.95045C19.2858 12.5801 17.7549 15.838 13.625 18.5529L6.51148 23.3111C5.42915 24.0327 4.62452 25.1043 4.24 26.3475C3.85549 27.5906 3.90534 28.9338 4.38242 30.1412L2.55954 31.3558C1.77627 31.8845 1.23511 32.6989 1.04997 33.6277C0.864837 34.5565 1.04997 35.521 1.56978 36.3069L3.31433 38.9503ZM28.9343 47.1879C28.1937 47.6809 27.2538 47.6166 26.8693 47.045L20.4394 37.2643L23.1666 35.4496L29.625 45.2303C30.0024 45.7876 29.6962 46.7021 28.9343 47.1879ZM21.8635 4.79258C21.949 4.37106 22.1982 4.00669 22.5542 3.77092L22.5969 3.72091C22.9601 3.48514 23.3944 3.40656 23.8145 3.49943C24.2347 3.59231 24.5978 3.84951 24.8328 4.21388L41.8653 29.9983C42.1003 30.3555 42.1857 30.7913 42.1003 31.2129C42.0148 31.6344 41.7656 32.0059 41.4096 32.2417L41.3668 32.2703C41.0108 32.506 40.5765 32.5918 40.1563 32.506C39.7362 32.4203 39.366 32.1702 39.131 31.813L22.1056 6.01429C21.8635 5.65707 21.7781 5.21411 21.8635 4.79258ZM22.248 10.7011L34.8871 29.834C31.0064 29.441 27.5813 29.834 23.8786 32.0488L15.9249 20.0103C19.3784 17.4455 21.0874 14.4376 22.248 10.7011ZM6.53284 27.4192C6.69661 26.5904 7.18794 25.8545 7.89288 25.3901L13.8884 21.4035L21.8065 33.4134L15.811 37.3714C15.106 37.8501 14.2373 38.0216 13.4042 37.8501C12.5711 37.6786 11.8377 37.1857 11.3749 36.4712L7.0028 29.8197C6.52572 29.1124 6.36194 28.2479 6.53284 27.4192ZM3.94094 33.4134L5.66413 32.2631L8.6263 36.7141L6.88887 37.8644C6.38331 38.2002 5.69973 38.0573 5.36506 37.55L3.62763 34.9351C3.30008 34.4279 3.4425 33.7492 3.94094 33.4134Z" fill="#FF5C00"/>
</svg>
