<svg width="613" height="386" viewBox="0 0 613 386" fill="none" xmlns="http://www.w3.org/2000/svg">
<g filter="url(#filter0_bdii_39_4375)">
<rect x="78.6846" y="83.0662" width="456.864" height="283.348" rx="10" fill="white" fill-opacity="0.05" shape-rendering="crispEdges"/>
</g>
<path d="M108.986 98.3028C108.986 100.593 107.158 102.517 104.78 102.517C102.494 102.517 100.574 100.685 100.574 98.3028C100.574 95.9208 102.403 94.0885 104.78 94.0885C107.066 94.1802 108.986 96.0125 108.986 98.3028Z" fill="#FF5C00"/>
<path d="M125.171 98.3028C125.171 100.593 123.342 102.517 120.965 102.517C118.679 102.517 116.759 100.685 116.759 98.3028C116.759 95.9208 118.587 94.0885 120.965 94.0885C123.342 94.1802 125.171 96.0125 125.171 98.3028Z" fill="#EAD254"/>
<path d="M141.445 98.3028C141.445 100.593 139.616 102.517 137.239 102.517C134.862 102.517 133.033 100.685 133.033 98.3028C133.033 95.9208 134.862 94.0885 137.239 94.0885C139.616 94.0885 141.445 96.0125 141.445 98.3028Z" fill="#00857B"/>
<g filter="url(#filter1_bdii_39_4375)">
<rect x="484.785" y="109.832" width="112.601" height="98.7564" rx="10" fill="white" fill-opacity="0.05" shape-rendering="crispEdges"/>
</g>
<path d="M513.4 185.337H569.175C572.193 185.337 574.661 182.863 574.661 179.84V134.033C574.661 131.009 572.193 128.536 569.175 128.536H513.4C510.383 128.536 507.914 131.009 507.914 134.033V179.84C507.914 182.863 510.383 185.337 513.4 185.337Z" fill="#FF5C00"/>
<path d="M556.558 166.373H530.407H525.744V145.668H556.558V150.798V166.373Z" stroke="white" stroke-width="1.6466" stroke-miterlimit="10" stroke-linecap="round" stroke-linejoin="round"/>
<path d="M525.744 145.668L541.105 157.853L556.558 145.668" stroke="white" stroke-width="1.6466" stroke-miterlimit="10" stroke-linecap="round" stroke-linejoin="round"/>
<g filter="url(#filter2_bdii_39_4375)">
<rect x="15" y="197.513" width="112.601" height="98.7564" rx="10" fill="white" fill-opacity="0.05" shape-rendering="crispEdges"/>
</g>
<path d="M97.6487 278.051H44.6167C41.2336 278.051 38.582 275.303 38.582 272.005V220.609C38.582 217.219 41.3251 214.562 44.6167 214.562H97.6487C101.032 214.562 103.683 217.311 103.683 220.609V272.005C103.683 275.303 101.032 278.051 97.6487 278.051Z" fill="#FF5C00"/>
<path d="M58.4231 233.801C51.2912 240.947 51.2912 252.766 58.4231 259.912C65.555 267.058 77.3501 267.058 84.482 259.912C91.6139 252.766 91.6139 240.947 84.482 233.801C77.3501 226.655 65.6465 226.655 58.4231 233.801ZM84.482 236.458H78.6302C78.0816 234.626 77.2586 232.794 76.3443 230.87C79.6359 231.969 82.4704 233.893 84.482 236.458ZM64.7321 245.803C64.7321 243.421 65.0064 241.039 65.6465 238.657H77.4415C77.9901 241.039 78.3559 243.421 78.3559 245.803H64.7321ZM78.173 248.002C77.9901 250.384 77.6244 252.766 76.8929 255.148H66.1036C65.4636 252.766 65.0064 250.384 64.8236 248.002H78.173ZM71.4983 230.228C72.4126 230.228 73.2355 230.32 74.0584 230.412C75.1556 232.427 76.07 234.443 76.71 236.458H66.1951C66.8351 234.443 67.7495 232.427 68.8467 230.412C69.761 230.32 70.5839 230.228 71.4983 230.228ZM66.6522 230.961C65.7379 232.794 64.915 234.626 64.3664 236.55H58.5146C60.6176 233.893 63.452 231.969 66.6522 230.961ZM57.0516 238.657H63.8178C63.2692 241.039 62.9034 243.421 62.9034 245.803H54.9486C55.0401 243.238 55.863 240.764 57.0516 238.657ZM57.0516 255.148C55.863 253.04 55.0401 250.567 54.9486 248.002H62.9034C62.9949 250.384 63.3606 252.766 64.0006 255.148H57.0516ZM58.5146 257.346H64.6407C65.2807 259.179 66.0122 261.103 66.9265 262.935C63.5435 261.927 60.6176 260.003 58.5146 257.346ZM71.4983 263.576C70.7668 263.576 70.0353 263.485 69.3038 263.393C68.2981 261.377 67.3837 259.27 66.7437 257.255H76.2529C75.5214 259.27 74.6985 261.377 73.6927 263.393C72.9612 263.485 72.2297 263.576 71.4983 263.576ZM76.07 262.935C76.9843 261.103 77.7158 259.179 78.3559 257.346H84.482C82.379 260.003 79.4531 261.927 76.07 262.935ZM85.9449 255.148H78.9959C79.6359 252.766 80.0017 250.384 80.0931 248.002H88.1394C87.9565 250.567 87.225 253.04 85.9449 255.148ZM88.1394 245.803H80.1846C80.1846 243.421 79.8188 241.039 79.2702 238.657H86.0364C87.225 240.764 87.9565 243.238 88.1394 245.803Z" fill="white"/>
<path d="M116.484 56.8929H23.7694C21.8493 56.8929 20.2949 55.3354 20.2949 53.4115C20.2949 51.4876 21.8493 49.9301 23.7694 49.9301H116.484C118.404 49.9301 119.959 51.4876 119.959 53.4115C119.867 55.3354 118.313 56.8929 116.484 56.8929Z" fill="#FF5C00"/>
<path d="M598.527 283.823H553.541C551.621 283.823 550.066 282.266 550.066 280.342C550.066 278.418 551.621 276.86 553.541 276.86H598.527C600.447 276.86 602.001 278.418 602.001 280.342C602.001 282.266 600.447 283.823 598.527 283.823Z" fill="#56DFED"/>
<path d="M567.074 324.042H561.588C560.125 324.042 558.937 322.851 558.937 321.385V316.255C558.937 314.789 560.125 313.598 561.588 313.598H567.074C568.537 313.598 569.726 314.789 569.726 316.255V321.385C569.634 322.851 568.446 324.042 567.074 324.042Z" fill="#FF5C00"/>
<path d="M45.8047 348.137H40.3186C38.8556 348.137 37.667 346.946 37.667 345.48V340.35C37.667 338.884 38.8556 337.693 40.3186 337.693H45.8047C47.2676 337.693 48.4563 338.884 48.4563 340.35V345.48C48.4563 346.946 47.2676 348.137 45.8047 348.137Z" fill="#FF5C00"/>
<path d="M466.678 53.3199H375.152C373.598 53.3199 372.409 52.1289 372.409 50.5715V28.2174C372.409 26.66 373.598 25.469 375.152 25.469H466.678C468.233 25.469 469.421 26.66 469.421 28.2174V50.5715C469.421 52.1289 468.141 53.3199 466.678 53.3199Z" fill="#FF5C00"/>
<path d="M385.576 35.3634H450.678" stroke="white" stroke-width="1.1803" stroke-miterlimit="10"/>
<path d="M385.576 42.0513H412.092" stroke="white" stroke-width="1.1803" stroke-miterlimit="10"/>
<path d="M382.924 50.205V61.0156L396.639 50.205H382.924Z" fill="#FF5C00"/>
<path d="M241.844 54.969H197.589C193.292 54.969 189.817 51.4876 189.817 47.1817V5.95497C189.817 2.65683 192.469 0 195.761 0H241.935C245.227 0 247.878 2.65683 247.878 5.95497V49.1056C247.695 52.3121 245.135 54.969 241.844 54.969Z" fill="#56DFED"/>
<path d="M232.241 31.5155L228.949 28.2174C228.401 27.5761 227.578 27.2096 226.846 27.2096C226.115 27.2096 225.292 27.5761 224.743 28.1258L222.823 30.0497C222.732 29.9581 222.549 29.9581 222.457 29.8665C222.183 29.7749 222 29.6832 221.909 29.5916C220.172 28.4923 218.526 27.0264 216.971 25.1025C216.24 24.1863 215.691 23.3618 215.417 22.7205C215.874 22.2624 216.331 21.8044 216.697 21.4379C216.88 21.2547 217.063 21.0714 217.246 20.8882C217.886 20.2469 218.251 19.514 218.251 18.6895C218.251 17.9565 217.886 17.132 217.246 16.4907L215.6 14.8416C215.417 14.6584 215.234 14.4752 215.051 14.2919C214.686 13.9255 214.32 13.559 213.954 13.1926C213.405 12.6429 212.583 12.2764 211.851 12.2764C211.12 12.2764 210.388 12.5512 209.748 13.1926L207.645 15.2997C206.914 16.0326 206.365 17.0404 206.274 18.2314C206.182 19.9721 206.639 21.6211 207.005 22.7205C207.919 25.469 209.382 27.8509 211.577 30.4162C214.228 33.5311 217.337 36.0047 220.995 37.837C222.366 38.4783 224.195 39.2112 226.298 39.3944C226.389 39.3944 226.572 39.3944 226.755 39.3944C228.126 39.3944 229.315 38.8447 230.321 37.837C230.321 37.837 230.321 37.837 230.412 37.7454C230.687 37.3789 231.052 37.0124 231.509 36.646C231.784 36.3711 232.058 36.0963 232.241 35.9131C233.521 34.5388 233.521 32.7982 232.241 31.5155ZM230.961 34.6305C230.687 34.9053 230.504 35.0885 230.229 35.3634C229.772 35.7298 229.498 36.0963 229.041 36.5544C228.492 37.1041 227.761 37.4705 226.938 37.4705C226.846 37.4705 226.755 37.4705 226.663 37.4705C224.926 37.3789 223.28 36.646 222.092 36.0963C218.709 34.4472 215.783 32.1568 213.314 29.2252C211.302 26.8432 209.931 24.4612 209.017 22.0792C208.468 20.705 208.194 19.514 208.285 18.4146C208.377 17.7733 208.559 17.132 209.108 16.6739L211.12 14.6584C211.302 14.4752 211.577 14.2003 211.942 14.2003C212.308 14.2003 212.491 14.3835 212.765 14.6584C213.131 15.0249 213.497 15.3913 213.863 15.7578C214.045 15.941 214.228 16.2158 214.411 16.3075L216.057 17.9565C216.24 18.1398 216.514 18.5062 216.514 18.7811C216.514 19.1475 216.24 19.4224 216.057 19.6056C215.874 19.7888 215.691 19.9721 215.508 20.1553C214.96 20.705 214.503 21.1631 214.045 21.6211C214.045 21.6211 214.045 21.6211 213.954 21.7127C213.405 22.2624 213.497 22.8121 213.588 23.1786V23.2702C214.045 24.3696 214.686 25.2857 215.508 26.4767C217.154 28.5839 218.892 30.1413 220.903 31.4239C221.177 31.6072 221.452 31.6988 221.635 31.882C221.909 31.9736 222.092 32.0652 222.183 32.1568L222.275 32.2485C222.823 32.5233 223.463 32.4317 223.92 31.9736L226.023 29.8665C226.206 29.6832 226.481 29.4084 226.846 29.4084C227.121 29.4084 227.395 29.6832 227.578 29.8665L230.869 33.1646C231.418 33.4395 231.418 34.0808 230.961 34.6305Z" fill="white"/>
<g clip-path="url(#clip0_39_4375)">
<path d="M434.493 263.21L401.119 258.721L401.394 262.019L372.866 265.867C372.866 265.867 354.488 312.132 370.672 413.825H393.896L402.217 310.758H405.143L413.189 413.825H436.505C452.78 312.132 434.493 263.21 434.493 263.21Z" fill="#8E716C"/>
<path d="M391.61 310.666H415.84" stroke="#282828" stroke-width="1.2333" stroke-miterlimit="10" stroke-linecap="round" stroke-linejoin="round"/>
<path d="M454.061 214.379C451.227 209.798 435.134 209.981 434.312 209.89C430.014 209.34 437.055 243.971 446.107 274.204C447.844 279.975 454.153 282.999 459.73 280.617C459.822 280.617 459.822 280.525 459.913 280.525C464.302 278.693 466.771 274.02 465.948 269.256C461.65 246.536 457.353 219.693 454.061 214.379Z" fill="#FFB1A5"/>
<path d="M457.811 226.93L437.329 234.901L435.409 225.098L456.622 219.876L457.811 226.93Z" fill="#F3978E"/>
<path d="M461.742 246.353C461.742 246.353 452.05 259.362 452.507 258.812C452.964 258.171 460.096 237.741 460.096 237.741L461.742 246.353Z" fill="#F3978E"/>
<path d="M475.548 228.854L447.752 264.95C444.094 269.714 445.283 276.586 450.312 279.792C455.341 283.09 462.016 281.349 464.85 276.036L487.983 233.252L475.548 228.854Z" fill="#FFB1A5"/>
<path d="M482.771 238.107C476.736 236.183 473.444 229.679 475.364 223.632C477.285 217.585 483.776 214.287 489.811 216.211C495.846 218.135 499.137 224.64 497.217 230.686C495.297 236.733 488.805 240.031 482.771 238.107Z" fill="#FFB1A5"/>
<path d="M494.657 220.242C494.657 220.242 497.766 216.944 492.188 214.654C486.611 212.363 479.753 212.913 475.364 223.54L494.657 220.242Z" fill="#FFB1A5"/>
<path d="M500.417 197.43L512.029 202.469C512.669 202.744 512.944 203.477 512.578 204.21L497.217 232.885C496.851 233.526 496.028 233.893 495.388 233.618L483.776 228.579C483.136 228.304 482.862 227.572 483.227 226.839L498.588 198.163C498.954 197.522 499.777 197.155 500.417 197.43Z" fill="#372F5F"/>
<path d="M499.32 196.972L510.933 202.011C511.573 202.286 511.847 203.019 511.481 203.752L496.12 232.427C495.754 233.068 494.931 233.435 494.291 233.16L482.679 228.121C482.039 227.846 481.765 227.113 482.131 226.381L497.492 197.705C497.857 196.972 498.68 196.697 499.32 196.972Z" fill="#261B43"/>
<path d="M498.04 199.904L508.281 204.301L495.754 227.663L485.514 223.266L498.04 199.904Z" fill="#E6E6E6"/>
<path d="M508.281 204.301L485.514 223.266L498.04 199.904L508.281 204.301Z" fill="white"/>
<path d="M488.897 213.738C488.897 213.738 491.457 214.287 493.834 215.57C494.84 216.12 495.388 217.311 495.114 218.502C494.84 219.509 494.017 220.334 492.92 220.426L486.885 221.158C486.885 221.158 483.685 226.655 479.57 227.205L483.319 217.585L488.897 213.738Z" fill="#FFB1A5"/>
<path d="M411.635 168.938C410.995 168.938 454.518 174.985 461.741 224.823L439.157 228.304L434.585 265.867H371.495L358.969 196.422C358.969 196.422 372.958 176.359 398.926 168.938H411.635Z" fill="#56DFED"/>
<path d="M439.065 228.304L441.077 206.5" stroke="#282828" stroke-width="1.2333" stroke-miterlimit="10" stroke-linecap="round" stroke-linejoin="round"/>
<path d="M415.749 169.671V152.356H395.542V169.854C394.536 170.129 392.799 170.77 390.147 172.053L405.966 181.489L422.058 172.053C421.967 172.053 419.406 170.587 415.749 169.671Z" fill="#FFB1A5"/>
<path d="M395.359 154.463C395.359 154.463 399.017 164.174 408.709 163.258C417.578 162.525 416.206 149.058 416.206 149.058L395.359 154.463Z" fill="#282828"/>
<path d="M386.491 141.637C383.29 144.477 376.25 133.575 379.267 130.551C382.376 127.528 384.662 132.292 384.662 132.292L386.033 135.59L387.039 139.988L387.314 141.179L386.491 141.637Z" fill="#F3978E"/>
<path d="M380.73 134.399C380.73 134.399 383.108 133.3 385.302 136.781" stroke="#282828" stroke-width="0.9928" stroke-miterlimit="10" stroke-linecap="round" stroke-linejoin="round"/>
<path d="M423.979 141.27C426.904 144.385 434.859 134.124 432.116 130.826C429.282 127.528 426.63 132.109 426.63 132.109L424.984 135.224L423.613 139.53L423.247 140.629L423.979 141.27Z" fill="#F3978E"/>
<path d="M430.288 134.582C430.288 134.582 428.002 133.3 425.533 136.598" stroke="#282828" stroke-width="0.9928" stroke-miterlimit="10" stroke-linecap="round" stroke-linejoin="round"/>
<path d="M380.913 120.107C380.913 134.582 391.885 141.453 405.509 141.453C419.133 141.453 430.105 134.582 430.105 120.107C430.105 105.632 419.133 95.8292 405.509 95.8292C391.885 95.8292 380.913 105.632 380.913 120.107Z" fill="#282828"/>
<path d="M384.297 121.115C384.297 130.002 385.577 137.697 386.766 143.103C387.954 148.416 391.429 152.172 396.275 155.104L397.189 155.654C402.31 158.86 408.984 158.86 414.196 155.837C419.499 152.722 423.157 148.691 424.345 143.011C426.448 132.658 426.631 121.115 426.631 121.115C426.631 121.115 428.643 98.6693 405.784 99.1274C382.925 99.4938 384.297 121.115 384.297 121.115Z" fill="#FFB1A5"/>
<path d="M404.047 133.849V136.964C404.047 137.148 404.047 137.331 404.138 137.514C404.413 138.155 405.144 138.43 405.784 138.247L407.247 137.881" stroke="#282828" stroke-width="1.2316" stroke-miterlimit="10" stroke-linecap="round" stroke-linejoin="round"/>
<path d="M400.389 121.848L389.051 124.505C389.051 124.505 389.599 121.573 394.171 120.565C398.926 119.558 400.389 121.848 400.389 121.848Z" fill="#282828"/>
<path d="M410.539 121.848L421.511 124.505C421.511 124.505 421.054 121.573 416.574 120.565C412.002 119.558 410.539 121.848 410.539 121.848Z" fill="#282828"/>
<path d="M396.092 132.109C397.152 132.109 398.012 131.247 398.012 130.185C398.012 129.122 397.152 128.261 396.092 128.261C395.032 128.261 394.172 129.122 394.172 130.185C394.172 131.247 395.032 132.109 396.092 132.109Z" fill="#282828"/>
<path d="M416.207 130.185C416.207 131.284 415.385 132.109 414.287 132.109C413.19 132.109 412.367 131.284 412.367 130.185C412.367 129.085 413.19 128.261 414.287 128.261C415.293 128.261 416.207 129.177 416.207 130.185Z" fill="#282828"/>
<path d="M398.012 141.912H412.733C412.824 141.912 406.241 149.882 398.012 141.912Z" fill="white"/>
<path d="M401.075 136.662C404.253 133.478 404.253 128.316 401.075 125.131C397.897 121.947 392.745 121.947 389.567 125.131C386.389 128.316 386.389 133.478 389.567 136.662C392.745 139.847 397.897 139.847 401.075 136.662Z" stroke="#FF5C00" stroke-width="1.3423" stroke-miterlimit="10"/>
<path d="M421.028 136.712C424.206 133.527 424.206 128.365 421.028 125.181C417.85 121.996 412.698 121.996 409.52 125.181C406.342 128.365 406.342 133.527 409.52 136.712C412.698 139.896 417.85 139.896 421.028 136.712Z" stroke="#FF5C00" stroke-width="1.3423" stroke-miterlimit="10"/>
<path d="M403.497 130.918C403.497 130.918 405.417 129.085 407.246 130.918" stroke="#FF5C00" stroke-width="1.3423" stroke-miterlimit="10"/>
<path d="M387.13 130.918H384.57" stroke="#FF5C00" stroke-width="1.3423" stroke-miterlimit="10"/>
<path d="M423.431 130.918H426.082" stroke="#FF5C00" stroke-width="1.3423" stroke-miterlimit="10"/>
<path d="M426.357 128.536C426.357 128.536 417.213 116.168 419.316 103.617C419.316 103.617 426.082 107.006 427.82 115.893C429.648 124.688 426.357 128.536 426.357 128.536Z" fill="#282828"/>
<path d="M384.297 129.36C384.297 129.36 394.903 115.343 392.8 102.792C392.8 102.792 385.486 107.006 383.657 115.893C381.828 124.688 384.297 129.36 384.297 129.36Z" fill="#282828"/>
<path d="M425.533 108.564C425.533 108.564 413.83 121.39 381.736 119.191C381.736 119.191 386.674 100.318 402.218 98.3028C402.218 98.3028 420.139 96.1957 425.533 108.564Z" fill="#282828"/>
<path d="M439.952 96.0216C441.304 87.63 435.611 79.7289 427.236 78.3739C418.861 77.0189 410.976 82.7232 409.623 91.1148C408.271 99.5064 413.964 107.408 422.339 108.763C430.714 110.117 438.6 104.413 439.952 96.0216Z" fill="#282828"/>
<path d="M237.726 263.118L209.199 259.27L209.473 255.972L176.099 260.461C176.099 260.461 157.904 309.384 174.088 411.076H197.312L205.358 308.009H208.284L216.605 411.076H239.921C256.105 309.384 237.726 263.118 237.726 263.118Z" fill="#282828"/>
<path d="M235.44 124.047C231.6 119.466 228.491 114.152 225.84 106.731C223.005 98.7609 213.77 101.967 213.77 101.967C213.77 101.967 206.09 92.073 194.478 95.4628C182.865 98.9441 178.842 107.189 178.66 116.992C178.385 126.795 170.705 128.353 164.761 139.713C154.246 159.776 171.893 176.634 204.078 171.961V171.686C207.279 172.694 211.119 173.061 215.873 172.786C254.459 170.495 250.71 142.095 235.44 124.047Z" fill="#282828"/>
<path d="M222.822 138.888C226.022 141.728 233.063 130.826 230.045 127.803C227.028 124.78 224.651 129.544 224.651 129.544L223.279 132.842L222.273 137.239L221.999 138.43L222.822 138.888Z" fill="#F3978E"/>
<path d="M228.491 131.651C228.491 131.651 226.113 130.551 223.919 134.033" stroke="#282828" stroke-width="0.9928" stroke-miterlimit="10" stroke-linecap="round" stroke-linejoin="round"/>
<path d="M185.335 138.613C182.409 141.728 174.454 131.467 177.197 128.169C180.032 124.871 182.683 129.452 182.683 129.452L184.329 132.567L185.701 136.873L186.066 137.972L185.335 138.613Z" fill="#F3978E"/>
<path d="M179.025 131.834C179.025 131.834 181.311 130.551 183.78 133.849" stroke="#282828" stroke-width="0.9928" stroke-miterlimit="10" stroke-linecap="round" stroke-linejoin="round"/>
<path d="M228.4 117.359C228.4 131.834 217.428 138.705 203.804 138.705C190.18 138.705 179.208 131.834 179.208 117.359C179.208 102.884 190.18 93.0808 203.804 93.0808C217.428 93.0808 228.4 102.884 228.4 117.359Z" fill="#282828"/>
<path d="M213.77 149.699H193.563V175.992H213.77V149.699Z" fill="#FFB1A5"/>
<path d="M190.637 148.05C190.637 148.05 196.306 159.318 203.163 161.059C204.992 161.517 207.003 161.334 208.741 160.693C211.392 159.776 214.684 155.837 215.233 151.531L215.507 149.058C215.507 149.149 203.163 155.837 190.637 148.05Z" fill="#282828"/>
<path d="M225.017 118.367C225.017 127.253 223.737 134.949 222.548 140.354C221.36 145.668 217.885 149.424 213.039 152.356L212.125 152.905C207.004 156.112 200.33 156.112 195.118 153.089C189.815 149.974 186.157 145.943 184.969 140.263C182.866 129.91 182.683 118.367 182.683 118.367C182.683 118.367 180.671 95.9209 203.53 96.3789C226.388 96.837 225.017 118.367 225.017 118.367Z" fill="#FFB1A5"/>
<path d="M202.249 132.384V134.216C202.249 134.399 202.249 134.582 202.34 134.766C202.615 135.407 203.346 135.682 203.986 135.499L205.449 135.132" stroke="#282828" stroke-width="1.2298" stroke-miterlimit="10" stroke-linecap="round" stroke-linejoin="round"/>
<path d="M207.004 120.199L219.165 123.039C219.165 123.039 218.616 119.924 213.679 118.733C208.741 117.542 207.004 120.199 207.004 120.199Z" fill="#282828"/>
<path d="M200.603 120.199L188.26 123.039C188.26 123.039 188.808 119.924 193.837 118.733C198.958 117.725 200.603 120.199 200.603 120.199Z" fill="#282828"/>
<path d="M196.214 127.803C196.214 128.811 195.391 129.727 194.294 129.727C193.197 129.727 192.374 128.902 192.374 127.803C192.374 126.795 193.197 125.879 194.294 125.879C195.391 125.879 196.214 126.703 196.214 127.803Z" fill="#282828"/>
<path d="M214.41 127.803C214.41 128.811 213.587 129.727 212.489 129.727C211.392 129.727 210.569 128.902 210.569 127.803C210.569 126.795 211.392 125.879 212.489 125.879C213.495 125.879 214.41 126.703 214.41 127.803Z" fill="#282828"/>
<path d="M194.935 138.705H211.759C211.759 138.705 210.57 143.286 202.981 143.286C197.129 143.286 194.935 138.705 194.935 138.705Z" fill="white"/>
<path d="M182.956 125.787C182.956 125.787 192.1 113.419 189.997 100.868C189.997 100.868 183.231 104.258 181.494 113.144C179.665 121.94 182.956 125.787 182.956 125.787Z" fill="#282828"/>
<path d="M225.017 125.421C225.017 125.421 214.41 112.595 216.513 100.044C216.513 100.044 223.828 104.258 225.657 113.144C227.394 121.94 225.017 125.421 225.017 125.421Z" fill="#282828"/>
<path d="M183.78 105.815C183.78 105.815 194.295 119.924 226.389 117.725C226.389 117.725 222.731 97.5699 207.187 95.5544C207.096 95.646 189.175 93.4473 183.78 105.815Z" fill="#282828"/>
<path d="M154.521 325.233C154.064 325.966 181.22 206.775 173.174 208.607C172.442 208.79 158.27 210.073 156.167 214.379C150.041 226.747 145.743 324.317 145.743 324.317L154.521 325.233Z" fill="#FFB1A5"/>
<path d="M145.743 324.317C145.743 324.317 141.354 344.655 157.904 346.946C159.001 347.129 160.007 346.488 160.372 345.388L160.464 345.205C160.83 344.014 160.281 342.823 159.184 342.365C156.441 341.174 152.326 338.059 154.338 331.188C154.338 331.188 156.715 330.913 158.087 335.402C158.452 336.593 159.732 337.143 160.83 336.593C161.561 336.227 161.927 335.402 161.835 334.669C161.47 331.555 159.824 323.95 153.789 321.935L145.743 324.317Z" fill="#FFB1A5"/>
<path d="M151.32 242.963C151.32 242.963 166.956 265.042 167.047 264.584C167.138 264.126 172.533 233.527 172.533 233.527L153.515 225.281L151.32 242.963Z" fill="#F3978E"/>
<path d="M194.752 171.595C195.392 171.595 156.075 172.328 148.852 222.075L171.436 225.556L176.008 263.118H239.097L251.624 193.674C251.624 193.674 242.755 178.649 216.787 171.228L194.752 171.595Z" fill="#00857B"/>
<path d="M175.551 177.641C175.551 177.641 181.128 185.062 203.895 185.062C226.48 185.062 232.24 177.275 232.24 177.275C232.24 177.275 218.891 169.854 203.438 167.381C203.53 167.381 189.723 169.854 175.551 177.641Z" fill="#FFB1A5"/>
<path d="M252.995 335.402V434.713H302.095L305.844 335.402H252.995Z" fill="#005683"/>
<path d="M359.424 335.402V434.713H310.324L306.575 335.402H359.424Z" fill="#005683"/>
<path d="M332.634 335.402H281.979V369.941H332.634V335.402Z" fill="#005683"/>
<path d="M390.421 248.735C393.439 282.357 390.238 306.91 391.153 368.842L361.894 370.033L357.505 254.14L390.421 248.735Z" fill="#FFB1A5"/>
<path d="M361.162 274.936C361.162 274.936 379.266 273.287 391.701 265.042L391.335 257.804L361.162 261.927V274.936Z" fill="#F3978E"/>
<path d="M332.086 171.228C332.086 171.228 389.69 185.704 400.113 258.904C400.113 258.904 371.951 271.18 343.698 265.867L350.007 241.405L332.086 171.228Z" fill="#FF5C00"/>
<path d="M160.098 201.645L202.981 252.399L189.906 289.412C189.906 289.412 157.355 244.062 142.726 208.974L160.098 201.645Z" fill="#FFB1A5"/>
<path d="M161.47 203.477C161.47 203.477 146.383 211.997 142.634 208.882C135.959 203.477 130.382 183.78 130.382 183.78C130.382 183.78 158.544 173.152 158.269 173.519C157.995 173.977 161.47 203.477 161.47 203.477Z" fill="#FFB1A5"/>
<path d="M161.469 203.477C161.195 201.919 167.047 185.612 169.058 179.474C169.516 178.008 168.51 176.359 166.955 176.084C165.95 175.901 164.212 175.992 163.481 177.55L156.44 189.643L161.469 203.477Z" fill="#FFB1A5"/>
<path d="M161.012 185.795L156.166 161.609C155.892 159.96 154.246 158.86 152.692 159.227C151.32 159.502 150.406 160.693 150.589 162.158L152.692 180.115L161.012 185.795Z" fill="#FFB1A5"/>
<path d="M151.32 176.908L144.737 159.685C144.188 158.219 142.451 157.303 140.988 157.853C139.708 158.311 138.976 159.593 139.251 160.967L144.097 180.94L151.32 176.908Z" fill="#FFB1A5"/>
<path d="M144.28 181.947L135.96 164.999C135.228 163.441 133.308 162.708 131.754 163.349C130.291 163.991 129.651 165.64 130.291 167.197L136.965 183.23L144.28 181.947Z" fill="#FFB1A5"/>
<path d="M130.382 183.78L123.89 173.427C123.341 172.236 123.89 170.862 124.987 170.312C126.084 169.762 127.547 170.221 128.279 171.228L136.874 183.138L130.382 183.78Z" fill="#FFB1A5"/>
<path d="M159.641 183.963C159.641 183.963 149.857 182.955 148.852 196.056" stroke="#481E11" stroke-width="1.5317" stroke-miterlimit="10" stroke-linecap="round" stroke-linejoin="round"/>
<path d="M181.128 272.096C181.128 272.096 189.174 300.039 205.267 296.374C221.359 292.618 246.412 258.263 246.412 258.263L240.835 199.537L195.757 255.148L181.128 272.096Z" fill="#FFB1A5"/>
<path d="M209.656 237.832C209.656 237.832 224.834 260.828 237.91 268.982L246.413 258.263L213.588 232.885L209.656 237.832Z" fill="#F3978E"/>
<path d="M276.312 169.946C276.312 169.946 231.6 180.023 207.827 232.061C207.827 232.061 222.182 253.773 245.315 263.485L260.768 244.52L276.312 169.946Z" fill="#FF5C00"/>
<path d="M276.311 169.763C258.847 178.741 247.875 190.651 247.875 190.651L251.35 342.823H361.345L360.979 191.475C360.979 191.475 347.081 177.916 332.086 171.228C319.285 165.548 288.655 163.441 276.311 169.763Z" fill="#FF5C00"/>
<path d="M328.337 243.879C319.925 243.879 313.067 237.008 313.067 228.579V213.28H343.698V228.579C343.607 237.008 336.749 243.879 328.337 243.879Z" stroke="#481E11" stroke-width="1.3968" stroke-miterlimit="10" stroke-linecap="round" stroke-linejoin="round"/>
<path d="M361.162 266.508L362.534 216.669" stroke="#481E11" stroke-width="1.3968" stroke-miterlimit="10" stroke-linecap="round" stroke-linejoin="round"/>
<path d="M249.521 258.171L247.144 215.02" stroke="#481E11" stroke-width="1.3968" stroke-miterlimit="10" stroke-linecap="round" stroke-linejoin="round"/>
<path d="M277.591 114.244L273.02 91.5233C272.745 89.691 272.014 86.851 272.928 84.1025C274.391 79.705 279.694 71.0932 288.838 75.0326L290.849 84.0109C290.849 84.0109 281.34 85.9348 277.591 98.3028V114.244Z" fill="#481E11"/>
<path d="M288.106 79.705C287.923 82.7283 285.272 95.7376 276.037 100.502C276.037 100.502 267.99 83.0948 288.106 79.705Z" fill="#481E11"/>
<path d="M320.565 165.64V127.07H285.089V165.64L274.482 170.495C274.482 170.495 276.951 186.528 303.193 186.895C329.435 187.261 332.086 171.32 332.086 171.32L320.565 165.64Z" fill="#FFB1A5"/>
<path d="M288.838 75.0327C288.838 75.0327 295.33 57.809 315.445 66.9705C327.606 72.559 330.989 79.9799 332.452 85.2019C332.909 86.9426 333.092 89.691 333.001 91.3401L328.155 114.244L309.136 82.5451L290.758 84.0109L288.838 75.0327Z" fill="#481E11"/>
<path d="M328.155 114.244C328.155 114.244 330.532 110.396 335.47 112.32C340.407 114.152 338.213 126.245 330.806 127.711C330.806 127.711 328.155 128.261 326.052 126.429C326.052 126.429 327.88 117.542 328.155 114.244Z" fill="#F3978E"/>
<path d="M334.464 116.534C334.464 116.534 330.35 115.16 327.424 121.298" stroke="#481E11" stroke-width="1.3968" stroke-miterlimit="10" stroke-linecap="round" stroke-linejoin="round"/>
<path d="M277.591 114.244C277.591 114.244 275.214 110.396 270.276 112.32C265.339 114.152 267.533 126.245 274.94 127.711C274.94 127.711 277.591 128.261 279.694 126.429C279.694 126.429 277.865 117.542 277.591 114.244Z" fill="#F3978E"/>
<path d="M271.19 116.534C271.19 116.534 275.305 115.16 278.231 121.298" stroke="#481E11" stroke-width="1.3968" stroke-miterlimit="10" stroke-linecap="round" stroke-linejoin="round"/>
<path d="M328.611 102.792C328.611 110.03 327.88 125.238 323.491 134.216C319.285 142.644 312.428 147.225 303.376 147.5C294.323 147.775 287.557 144.294 282.163 133.3C276.768 122.306 277.042 102.975 277.042 102.975C277.042 102.975 277.042 77.1398 302.553 77.1398C329.434 77.0482 328.611 102.792 328.611 102.792Z" fill="#FFB1A5"/>
<path d="M285.363 138.705C285.363 138.705 288.381 153.822 301.456 155.562C316.542 157.578 320.566 139.072 320.566 139.072C320.566 139.072 313.891 147.5 303.284 147.5C291.581 147.5 285.363 138.705 285.363 138.705Z" fill="#481E11"/>
<path d="M300.999 113.603V119.558C300.999 119.832 301.09 120.016 301.182 120.29C301.548 121.207 302.553 121.573 303.468 121.39L305.479 120.84" stroke="#481E11" stroke-width="1.3968" stroke-miterlimit="10" stroke-linecap="round" stroke-linejoin="round"/>
<path d="M293.41 110.671C293.41 111.953 292.404 112.961 291.124 112.961C289.844 112.961 288.838 111.953 288.838 110.671C288.838 109.388 289.844 108.381 291.124 108.381C292.404 108.381 293.41 109.388 293.41 110.671Z" fill="#481E11"/>
<path d="M315.263 110.671C315.263 111.953 314.257 112.961 312.977 112.961C311.697 112.961 310.691 111.953 310.691 110.671C310.691 109.388 311.697 108.381 312.977 108.381C314.166 108.381 315.263 109.388 315.263 110.671Z" fill="#481E11"/>
<path d="M306.942 99.1274L322.578 103.158C322.578 103.158 321.846 98.7609 315.446 97.2035C309.137 95.5544 306.942 99.1274 306.942 99.1274Z" fill="#481E11"/>
<path d="M297.251 99.1274L281.615 103.158C281.615 103.158 282.347 98.7609 288.747 97.2035C295.148 95.5544 297.251 99.1274 297.251 99.1274Z" fill="#481E11"/>
<path d="M294.142 125.604C294.142 125.604 296.427 127.345 302.554 127.345C308.04 127.345 311.514 125.604 311.514 125.604" stroke="#481E11" stroke-width="1.3968" stroke-miterlimit="10" stroke-linecap="round" stroke-linejoin="round"/>
<path d="M290.484 121.298C295.938 121.298 300.359 116.868 300.359 111.404C300.359 105.939 295.938 101.509 290.484 101.509C285.031 101.509 280.609 105.939 280.609 111.404C280.609 116.868 285.031 121.298 290.484 121.298Z" stroke="white" stroke-width="1.9514" stroke-miterlimit="10"/>
<path d="M314.806 121.298C320.259 121.298 324.681 116.868 324.681 111.404C324.681 105.939 320.259 101.509 314.806 101.509C309.352 101.509 304.931 105.939 304.931 111.404C304.931 116.868 309.352 121.298 314.806 121.298Z" stroke="white" stroke-width="1.9514" stroke-miterlimit="10"/>
<path d="M300.359 111.404C300.359 111.404 302.737 109.205 304.84 111.404" stroke="white" stroke-width="1.9514" stroke-miterlimit="10"/>
<path d="M280.609 111.404L277.317 111.312" stroke="white" stroke-width="1.9514" stroke-miterlimit="10"/>
<path d="M324.681 111.404L328.338 111.312" stroke="white" stroke-width="1.9514" stroke-miterlimit="10"/>
<path d="M285.363 80.3463C285.363 80.3463 290.118 93.8137 311.514 93.4473C326.052 93.1724 329.526 103.708 329.526 103.708C329.526 103.708 326.966 80.1631 326.326 80.3463C325.686 80.5295 304.199 74.5746 304.199 74.5746L285.363 80.3463Z" fill="#481E11"/>
</g>
<defs>
<filter id="filter0_bdii_39_4375" x="28.6846" y="33.0662" width="556.864" height="383.348" filterUnits="userSpaceOnUse" color-interpolation-filters="sRGB">
<feFlood flood-opacity="0" result="BackgroundImageFix"/>
<feGaussianBlur in="BackgroundImageFix" stdDeviation="25"/>
<feComposite in2="SourceAlpha" operator="in" result="effect1_backgroundBlur_39_4375"/>
<feColorMatrix in="SourceAlpha" type="matrix" values="0 0 0 0 0 0 0 0 0 0 0 0 0 0 0 0 0 0 127 0" result="hardAlpha"/>
<feOffset dy="4"/>
<feGaussianBlur stdDeviation="7.5"/>
<feComposite in2="hardAlpha" operator="out"/>
<feColorMatrix type="matrix" values="0 0 0 0 0 0 0 0 0 0 0 0 0 0 0 0 0 0 0.05 0"/>
<feBlend mode="normal" in2="effect1_backgroundBlur_39_4375" result="effect2_dropShadow_39_4375"/>
<feBlend mode="normal" in="SourceGraphic" in2="effect2_dropShadow_39_4375" result="shape"/>
<feColorMatrix in="SourceAlpha" type="matrix" values="0 0 0 0 0 0 0 0 0 0 0 0 0 0 0 0 0 0 127 0" result="hardAlpha"/>
<feOffset dx="4" dy="4"/>
<feGaussianBlur stdDeviation="2"/>
<feComposite in2="hardAlpha" operator="arithmetic" k2="-1" k3="1"/>
<feColorMatrix type="matrix" values="0 0 0 0 1 0 0 0 0 1 0 0 0 0 1 0 0 0 0.2 0"/>
<feBlend mode="normal" in2="shape" result="effect3_innerShadow_39_4375"/>
<feColorMatrix in="SourceAlpha" type="matrix" values="0 0 0 0 0 0 0 0 0 0 0 0 0 0 0 0 0 0 127 0" result="hardAlpha"/>
<feOffset dx="-4" dy="-4"/>
<feGaussianBlur stdDeviation="7.5"/>
<feComposite in2="hardAlpha" operator="arithmetic" k2="-1" k3="1"/>
<feColorMatrix type="matrix" values="0 0 0 0 1 0 0 0 0 1 0 0 0 0 1 0 0 0 0.25 0"/>
<feBlend mode="normal" in2="effect3_innerShadow_39_4375" result="effect4_innerShadow_39_4375"/>
</filter>
<filter id="filter1_bdii_39_4375" x="434.785" y="59.8319" width="212.601" height="198.756" filterUnits="userSpaceOnUse" color-interpolation-filters="sRGB">
<feFlood flood-opacity="0" result="BackgroundImageFix"/>
<feGaussianBlur in="BackgroundImageFix" stdDeviation="25"/>
<feComposite in2="SourceAlpha" operator="in" result="effect1_backgroundBlur_39_4375"/>
<feColorMatrix in="SourceAlpha" type="matrix" values="0 0 0 0 0 0 0 0 0 0 0 0 0 0 0 0 0 0 127 0" result="hardAlpha"/>
<feOffset dy="4"/>
<feGaussianBlur stdDeviation="7.5"/>
<feComposite in2="hardAlpha" operator="out"/>
<feColorMatrix type="matrix" values="0 0 0 0 0 0 0 0 0 0 0 0 0 0 0 0 0 0 0.05 0"/>
<feBlend mode="normal" in2="effect1_backgroundBlur_39_4375" result="effect2_dropShadow_39_4375"/>
<feBlend mode="normal" in="SourceGraphic" in2="effect2_dropShadow_39_4375" result="shape"/>
<feColorMatrix in="SourceAlpha" type="matrix" values="0 0 0 0 0 0 0 0 0 0 0 0 0 0 0 0 0 0 127 0" result="hardAlpha"/>
<feOffset dx="4" dy="4"/>
<feGaussianBlur stdDeviation="2"/>
<feComposite in2="hardAlpha" operator="arithmetic" k2="-1" k3="1"/>
<feColorMatrix type="matrix" values="0 0 0 0 1 0 0 0 0 1 0 0 0 0 1 0 0 0 0.2 0"/>
<feBlend mode="normal" in2="shape" result="effect3_innerShadow_39_4375"/>
<feColorMatrix in="SourceAlpha" type="matrix" values="0 0 0 0 0 0 0 0 0 0 0 0 0 0 0 0 0 0 127 0" result="hardAlpha"/>
<feOffset dx="-4" dy="-4"/>
<feGaussianBlur stdDeviation="7.5"/>
<feComposite in2="hardAlpha" operator="arithmetic" k2="-1" k3="1"/>
<feColorMatrix type="matrix" values="0 0 0 0 1 0 0 0 0 1 0 0 0 0 1 0 0 0 0.25 0"/>
<feBlend mode="normal" in2="effect3_innerShadow_39_4375" result="effect4_innerShadow_39_4375"/>
</filter>
<filter id="filter2_bdii_39_4375" x="-35" y="147.513" width="212.601" height="198.756" filterUnits="userSpaceOnUse" color-interpolation-filters="sRGB">
<feFlood flood-opacity="0" result="BackgroundImageFix"/>
<feGaussianBlur in="BackgroundImageFix" stdDeviation="25"/>
<feComposite in2="SourceAlpha" operator="in" result="effect1_backgroundBlur_39_4375"/>
<feColorMatrix in="SourceAlpha" type="matrix" values="0 0 0 0 0 0 0 0 0 0 0 0 0 0 0 0 0 0 127 0" result="hardAlpha"/>
<feOffset dy="4"/>
<feGaussianBlur stdDeviation="7.5"/>
<feComposite in2="hardAlpha" operator="out"/>
<feColorMatrix type="matrix" values="0 0 0 0 0 0 0 0 0 0 0 0 0 0 0 0 0 0 0.05 0"/>
<feBlend mode="normal" in2="effect1_backgroundBlur_39_4375" result="effect2_dropShadow_39_4375"/>
<feBlend mode="normal" in="SourceGraphic" in2="effect2_dropShadow_39_4375" result="shape"/>
<feColorMatrix in="SourceAlpha" type="matrix" values="0 0 0 0 0 0 0 0 0 0 0 0 0 0 0 0 0 0 127 0" result="hardAlpha"/>
<feOffset dx="4" dy="4"/>
<feGaussianBlur stdDeviation="2"/>
<feComposite in2="hardAlpha" operator="arithmetic" k2="-1" k3="1"/>
<feColorMatrix type="matrix" values="0 0 0 0 1 0 0 0 0 1 0 0 0 0 1 0 0 0 0.2 0"/>
<feBlend mode="normal" in2="shape" result="effect3_innerShadow_39_4375"/>
<feColorMatrix in="SourceAlpha" type="matrix" values="0 0 0 0 0 0 0 0 0 0 0 0 0 0 0 0 0 0 127 0" result="hardAlpha"/>
<feOffset dx="-4" dy="-4"/>
<feGaussianBlur stdDeviation="7.5"/>
<feComposite in2="hardAlpha" operator="arithmetic" k2="-1" k3="1"/>
<feColorMatrix type="matrix" values="0 0 0 0 1 0 0 0 0 1 0 0 0 0 1 0 0 0 0.25 0"/>
<feBlend mode="normal" in2="effect3_innerShadow_39_4375" result="effect4_innerShadow_39_4375"/>
</filter>
<clipPath id="clip0_39_4375">
<rect width="388.565" height="301.807" fill="white" transform="translate(123.909 64.607)"/>
</clipPath>
</defs>
</svg>
